<?xml version="1.0" encoding="UTF-8"?>
<svg id="Layer_1" data-name="Layer 1" xmlns="http://www.w3.org/2000/svg" width="1270.85" height="666.68" xmlns:xlink="http://www.w3.org/1999/xlink" viewBox="0 0 1270.85 666.68">
  <defs>
    <linearGradient id="linear-gradient" x1="177.74" y1="516.81" x2="177.74" y2="355.94" gradientUnits="userSpaceOnUse">
      <stop offset=".42" stop-color="#9da8c4"/>
      <stop offset=".66" stop-color="#4f5669"/>
      <stop offset=".84" stop-color="#1a1a1a"/>
    </linearGradient>
    <linearGradient id="linear-gradient-2" x1="47.78" y1="218.55" x2="645.82" y2="650.74" gradientUnits="userSpaceOnUse">
      <stop offset="0" stop-color="#9da8c4"/>
      <stop offset=".57" stop-color="#4f5669"/>
      <stop offset="1" stop-color="#444b5c"/>
    </linearGradient>
    <linearGradient id="linear-gradient-3" x1="3461.91" y1="5455.26" x2="3461.32" y2="5494.39" gradientTransform="translate(-3283.44 -5052.73)" xlink:href="#linear-gradient"/>
    <linearGradient id="linear-gradient-4" x1="47.61" y1="401.68" x2="94.09" y2="401.68" gradientUnits="userSpaceOnUse">
      <stop offset=".17" stop-color="#727c92"/>
      <stop offset=".4" stop-color="#979eaf"/>
      <stop offset=".65" stop-color="#b8bdc9"/>
      <stop offset=".86" stop-color="#ccd1d9"/>
      <stop offset="1" stop-color="#d4d8df"/>
    </linearGradient>
    <radialGradient id="radial-gradient" cx="144.22" cy="295.51" fx="144.22" fy="295.51" r="21.51" gradientTransform="translate(-.68 233.03) scale(1 .17)" gradientUnits="userSpaceOnUse">
      <stop offset="0" stop-color="#51f9fd"/>
      <stop offset="1" stop-color="#039dfd"/>
    </radialGradient>
    <radialGradient id="radial-gradient-2" cx="120.36" cy="327.47" fx="120.36" fy="327.47" r="16.37" gradientTransform="translate(-6.66 4.6) scale(1.02 1)" xlink:href="#radial-gradient"/>
    <radialGradient id="radial-gradient-3" cx="251.81" cy="305.88" fx="251.81" fy="305.88" r="55.2" gradientTransform="translate(-.25 -162.61) scale(1 1.53)" gradientUnits="userSpaceOnUse">
      <stop offset="0" stop-color="#51f9fd"/>
      <stop offset="1" stop-color="#0359df"/>
    </radialGradient>
    <linearGradient id="linear-gradient-5" x1="1165.32" y1="-3.43" x2="1157.31" y2="108.78" xlink:href="#linear-gradient-2"/>
    <linearGradient id="linear-gradient-6" x1="1093.25" y1="29.73" x2="1114.47" y2="152.33" xlink:href="#linear-gradient-2"/>
    <linearGradient id="linear-gradient-7" x1="1337.37" y1="-70.55" x2="1135.08" y2="254.87" xlink:href="#linear-gradient-2"/>
    <linearGradient id="linear-gradient-8" x1="-2268.82" y1="33.86" x2="-2236.89" y2="39.44" gradientTransform="translate(-1021.79 -77.32) rotate(-176.41) scale(1 -1)" gradientUnits="userSpaceOnUse">
      <stop offset="0" stop-color="#666"/>
      <stop offset=".57" stop-color="#4d4d4d"/>
      <stop offset="1" stop-color="#333"/>
    </linearGradient>
    <linearGradient id="linear-gradient-9" x1="-2284.6" y1="69.66" x2="-2204.44" y2="69.66" xlink:href="#linear-gradient-8"/>
    <linearGradient id="linear-gradient-10" x1="-2289.25" y1="100.69" x2="-2207.63" y2="100.69" gradientTransform="translate(-1021.79 -77.32) rotate(-176.41) scale(1 -1)" gradientUnits="userSpaceOnUse">
      <stop offset="0" stop-color="#666"/>
      <stop offset=".19" stop-color="#4d4d4d"/>
      <stop offset=".65" stop-color="#333"/>
    </linearGradient>
    <linearGradient id="linear-gradient-11" x1="1120.76" y1="152.61" x2="1196.61" y2="152.61" gradientUnits="userSpaceOnUse">
      <stop offset=".07" stop-color="#fff"/>
      <stop offset=".1" stop-color="#ddf4fc"/>
      <stop offset=".15" stop-color="#a3e1f9"/>
      <stop offset=".21" stop-color="#72d1f6"/>
      <stop offset=".26" stop-color="#49c4f3"/>
      <stop offset=".31" stop-color="#2abaf1"/>
      <stop offset=".36" stop-color="#14b2f0"/>
      <stop offset=".41" stop-color="#06aeef"/>
      <stop offset=".46" stop-color="#02adef"/>
      <stop offset=".62" stop-color="#03adef"/>
      <stop offset=".69" stop-color="#0aafef"/>
      <stop offset=".74" stop-color="#17b3f0"/>
      <stop offset=".77" stop-color="#28b9f1"/>
      <stop offset=".81" stop-color="#3ec0f2"/>
      <stop offset=".84" stop-color="#5ac9f4"/>
      <stop offset=".86" stop-color="#7bd4f6"/>
      <stop offset=".89" stop-color="#a2e0f9"/>
      <stop offset=".91" stop-color="#cceefb"/>
      <stop offset=".93" stop-color="#fbfdfe"/>
      <stop offset=".93" stop-color="#fff"/>
    </linearGradient>
    <linearGradient id="linear-gradient-12" x1="1165.32" y1="220.6" x2="1157.31" y2="332.82" xlink:href="#linear-gradient-2"/>
    <linearGradient id="linear-gradient-13" x1="1093.25" y1="253.76" x2="1114.47" y2="376.37" xlink:href="#linear-gradient-2"/>
    <linearGradient id="linear-gradient-14" x1="1337.37" y1="153.49" x2="1135.08" y2="478.91" xlink:href="#linear-gradient-2"/>
    <linearGradient id="linear-gradient-15" x1="-2282.85" y1="257.46" x2="-2250.93" y2="263.03" xlink:href="#linear-gradient-8"/>
    <linearGradient id="linear-gradient-16" x1="-2298.64" y1="293.26" x2="-2218.47" y2="293.26" xlink:href="#linear-gradient-8"/>
    <linearGradient id="linear-gradient-17" x1="-2303.29" y1="324.29" x2="-2221.67" y2="324.29" xlink:href="#linear-gradient-10"/>
    <linearGradient id="linear-gradient-18" x1="1120.76" y1="376.64" y2="376.64" xlink:href="#linear-gradient-11"/>
    <linearGradient id="linear-gradient-19" x1="1165.32" y1="444.64" x2="1157.31" y2="556.86" xlink:href="#linear-gradient-2"/>
    <linearGradient id="linear-gradient-20" x1="1093.25" y1="477.8" x2="1114.47" y2="600.4" xlink:href="#linear-gradient-2"/>
    <linearGradient id="linear-gradient-21" x1="1337.37" y1="377.52" x2="1135.08" y2="702.94" xlink:href="#linear-gradient-2"/>
    <linearGradient id="linear-gradient-22" x1="-2296.89" y1="481.06" x2="-2264.97" y2="486.63" xlink:href="#linear-gradient-8"/>
    <linearGradient id="linear-gradient-23" x1="-2312.67" y1="516.86" x2="-2232.51" y2="516.86" xlink:href="#linear-gradient-8"/>
    <linearGradient id="linear-gradient-24" x1="-2317.33" y1="547.89" x2="-2235.7" y2="547.89" xlink:href="#linear-gradient-10"/>
    <linearGradient id="linear-gradient-25" x1="1120.76" y1="600.68" y2="600.68" xlink:href="#linear-gradient-11"/>
    <linearGradient id="linear-gradient-26" x1="583.11" y1="333.34" x2="768.87" y2="333.34" gradientUnits="userSpaceOnUse">
      <stop offset=".34" stop-color="#223654"/>
      <stop offset=".4" stop-color="#38554c"/>
      <stop offset=".5" stop-color="#5e8940"/>
      <stop offset=".6" stop-color="#7bb336"/>
      <stop offset=".68" stop-color="#91d12f"/>
      <stop offset=".76" stop-color="#9ee32b"/>
      <stop offset=".81" stop-color="#a3ea2a"/>
    </linearGradient>
    <linearGradient id="linear-gradient-27" x1="687.92" y1="333.34" x2="1020.92" y2="333.34" xlink:href="#linear-gradient-26"/>
    <linearGradient id="linear-gradient-28" x1="252.3" y1="333.34" x2="585.3" y2="333.34" xlink:href="#linear-gradient-26"/>
    <linearGradient id="linear-gradient-29" x1="670.01" y1="240.92" x2="1003.02" y2="240.92" gradientTransform="translate(-2.93 384.74) rotate(-26.36)" xlink:href="#linear-gradient-26"/>
    <linearGradient id="linear-gradient-30" x1="515.3" y1="553.09" x2="848.3" y2="553.09" gradientTransform="translate(-2.93 630.34) rotate(26.36) scale(1 -1)" xlink:href="#linear-gradient-26"/>
  </defs>
  <g id="Artwork_161" data-name="Artwork 161">
    <g>
      <path d="m325.96,433.59v7.82c0,1.61-.95,2.92-2.12,2.92H25.96c-1.17,0-2.12-1.31-2.12-2.92v-7.82c0-1.61.95-2.92,2.12-2.92h297.88c1.17,0,2.12,1.31,2.12,2.92Z" style="fill: #525a6a;"/>
      <g style="opacity: .47;">
        <path d="m325.96,437.5v3.91c0,1.61-.95,2.92-2.12,2.92H25.96c-1.17,0-2.12-1.31-2.12-2.92v-3.91h302.12Z" style="fill: #727c92;"/>
      </g>
      <g id="Artwork_143" data-name="Artwork 143">
        <rect x="151.79" y="383.73" width="51.89" height="41.67" style="fill: url(#linear-gradient);"/>
        <path d="m32.87,222.35h289.48c2.78,0,5.04,2.26,5.04,5.04v169.97c0,2.78-2.26,5.04-5.04,5.04H32.87c-2.78,0-5.04-2.26-5.04-5.04v-169.97c0-2.78,2.26-5.04,5.04-5.04Z" style="fill: url(#linear-gradient-2);"/>
        <path d="m327.39,227.39v155.36H27.83v-155.36c0-2.78,2.26-5.04,5.04-5.04h289.48c2.78,0,5.04,2.26,5.04,5.04Z" style="fill: #223654;"/>
        <path d="m132.92,423.04h90.42v3.88c0,2.2-1.78,3.98-3.98,3.98h-82.46c-2.2,0-3.98-1.78-3.98-3.98v-3.88h0Z" transform="translate(356.26 853.95) rotate(180)" style="fill: url(#linear-gradient-3);"/>
        <circle cx="178.13" cy="392.77" r="5.11" style="fill: #1c2538;"/>
        <path d="m38.84,370.36v-136.06c0-1.82,1.48-3.3,3.3-3.3h270.95c1.82,0,3.3,1.48,3.3,3.3v136.06c0,2.5-2.1,4.52-4.68,4.52H43.52c-2.59,0-4.68-2.02-4.68-4.52Z" style="fill: #151c2b;"/>
      </g>
      <g>
        <rect x="46.54" y="236.51" width="7.78" height="7.78" rx=".78" ry=".78" style="fill: #727c92;"/>
        <rect x="46.54" y="249" width="7.78" height="7.78" rx=".78" ry=".78" style="fill: #727c92;"/>
        <rect x="46.54" y="261.26" width="7.78" height="7.78" rx=".78" ry=".78" style="fill: #727c92;"/>
        <rect x="46.54" y="273.75" width="7.78" height="7.78" rx=".78" ry=".78" style="fill: #727c92;"/>
      </g>
      <rect x="72.47" y="323.47" width="7.78" height="7.78" rx=".78" ry=".78" style="fill: #727c92;"/>
      <rect x="59.5" y="311.69" width="7.78" height="7.78" rx=".78" ry=".78" style="fill: #727c92;"/>
      <rect x="62.1" y="252.06" width="7.78" height="7.78" rx=".78" ry=".78" style="fill: #727c92;"/>
      <rect x="72.47" y="261.26" width="7.78" height="7.78" rx=".78" ry=".78" style="fill: #727c92;"/>
      <rect x="72.47" y="273.75" width="7.78" height="7.78" rx=".78" ry=".78" style="fill: #727c92;"/>
      <g style="opacity: .2;">
        <path d="m95.21,363.16c-1.38-1.39-3.3-2.24-5.42-2.24h-26.68c-1.46,0-2.63-1.21-2.59-2.67.04-1.42,1.28-2.51,2.7-2.51h12.45c.77,0,1.45-.57,1.49-1.34.04-.81-.61-1.49-1.41-1.49h-13.72c-3.68,0-6.85,2.83-7.02,6.5-.18,3.93,2.95,7.17,6.83,7.17h20.48c1.51,0,2.85,1.11,2.98,2.62.13,1.44-.8,2.68-2.09,3.04h-16.09c-6.72,0-12.17,5.45-12.17,12.17v7.62h31.81v-2.14c0-4.85-3.94-8.79-8.79-8.79-.63,0-1.23-.23-1.69-.62s-.77-.94-.83-1.57c-.14-1.44,1-2.66,2.42-2.66h11.93c4.23,0,7.66-3.43,7.66-7.66,0-2.12-.86-4.03-2.24-5.42Zm-29.72,17.28c-2.13,0-3.86-.8-3.86-1.77s1.73-1.77,3.86-1.77,3.86.8,3.86,1.77-1.73,1.77-3.86,1.77Z" style="fill: #fff;"/>
        <ellipse cx="82.38" cy="354.29" rx="1.78" ry="1.41" style="fill: #fff;"/>
      </g>
      <g>
        <path d="m90.49,414.01c-7.53,0-13.66-5.07-13.66-11.3s6.13-11.3,13.66-11.3,13.66,5.07,13.66,11.3-6.13,11.3-13.66,11.3Zm0-18.6c-5.32,0-9.65,3.27-9.65,7.3s4.33,7.3,9.65,7.3,9.65-3.27,9.65-7.3-4.33-7.3-9.65-7.3Z" style="fill: #d4d8df;"/>
        <path d="m94.08,386.91l-2.17,28.82c-.22,2.84-2.59,5.04-5.44,5.04h-31.23c-1.26,0-2.42-.43-3.35-1.15-1.18-.91-1.97-2.3-2.09-3.89l-2.17-28.82c-.18-2.33,1.67-4.31,4-4.31h38.46c2.33,0,4.17,1.98,4,4.31Z" style="fill: url(#linear-gradient-4);"/>
      </g>
      <path d="m108.92,422.42v14.38H41.07c-3.97,0-7.19-3.22-7.19-7.19,0-1.98.8-3.78,2.1-5.08,1.3-1.3,3.1-2.1,5.08-2.1h67.84Z" style="fill: #d4d8df;"/>
      <g style="opacity: .15;">
        <path d="m78.02,422.42l-7.1,14.38h-29.92c-3.97,0-7.19-3.22-7.19-7.19,0-1.98.8-3.78,2.1-5.08,1.3-1.3,3.1-2.1,5.08-2.1h37.02Z" style="fill: #727c92;"/>
      </g>
      <path d="m107.92,435.85H40.89c-2.84,0-5.66-2.27-6.13-5.07-.65-3.84,2.31-7.19,6.04-7.19h68.34c.61,0,1.11-.5,1.11-1.11v-.13c0-.61-.5-1.11-1.11-1.11H41.08c-4.16,0-7.78,3-8.38,7.11-.76,5.17,3.25,9.62,8.27,9.62h68c.59,0,1.06-.47,1.06-1.06h0c0-.59-.47-1.06-1.06-1.06h-1.06Z" style="fill: #223654;"/>
      <rect x="100.43" y="237.43" width="208.09" height="131.03" rx="4.54" ry="4.54" style="fill: #223654;"/>
      <circle cx="108.78" cy="242.61" r="1.64" style="fill: #eb0037;"/>
      <circle cx="113.83" cy="242.61" r="1.64" style="fill: #ecbb0a;"/>
      <circle cx="118.89" cy="242.61" r="1.64" style="fill: #a3ea2a;"/>
      <rect x="129.54" y="239.78" width="14.85" height="5.18" rx="2.59" ry="2.59" style="fill: #515b74;"/>
      <rect x="136.25" y="239.31" width="1.41" height="6.13" style="fill: #2b3b52;"/>
      <path d="m140.74,242.26l-1.47-1.47c-.11-.11-.03-.29.12-.29h.98s.09.02.12.05l1.71,1.71c.07.07.07.18,0,.24l-1.71,1.71s-.08.05-.12.05h-.98c-.15,0-.23-.19-.12-.29l1.47-1.47c.07-.07.07-.18,0-.24Z" style="fill: #fff;"/>
      <path d="m133.18,242.26l1.47-1.47c.11-.11.03-.29-.12-.29h-.98s-.09.02-.12.05l-1.71,1.71c-.07.07-.07.18,0,.24l1.71,1.71s.08.05.12.05h.98c.15,0,.23-.19.12-.29l-1.47-1.47c-.07-.07-.07-.18,0-.24Z" style="fill: #fff;"/>
      <rect x="158.88" y="239.78" width="92.38" height="5.66" rx="1.51" ry="1.51" style="fill: #525a6a;"/>
      <g>
        <path d="m162.58,244.41c-1,0-1.82-.82-1.82-1.82s.82-1.82,1.82-1.82,1.82.82,1.82,1.82-.82,1.82-1.82,1.82Zm0-2.97c-.63,0-1.15.52-1.15,1.15s.52,1.15,1.15,1.15,1.15-.52,1.15-1.15-.52-1.15-1.15-1.15Z" style="fill: #fff;"/>
        <path d="m164.75,244.58c-.07,0-.15-.02-.21-.07l-.97-.78c-.14-.12-.17-.33-.05-.47.12-.14.33-.17.47-.05l.97.78c.14.12.17.33.05.47-.07.08-.16.12-.26.12Z" style="fill: #fff;"/>
      </g>
      <g>
        <path d="m246.98,244.55c-1,0-1.82-.82-1.82-1.82s.82-1.82,1.82-1.82c.69,0,1.31.38,1.62.99.08.16.02.37-.14.45-.16.08-.37.02-.45-.14-.2-.39-.59-.63-1.03-.63-.63,0-1.15.52-1.15,1.15s.52,1.15,1.15,1.15c.1,0,.2-.01.29-.04.18-.05.36.06.41.24.05.18-.06.36-.24.41-.15.04-.3.06-.46.06Z" style="fill: #fff;"/>
        <path d="m248.85,241.49l-1.51.58c-.16.06-.18.28-.04.38l1.15.73c.12.08.28.01.32-.12l.36-1.32c.05-.17-.12-.32-.28-.25Z" style="fill: #fff;"/>
      </g>
      <path d="m295.17,243.32h-4.15c-.2,0-.35-.16-.35-.35s.16-.35.35-.35h4.15c.2,0,.35.16.35.35s-.16.35-.35.35Z" style="fill: #fff;"/>
      <path d="m293.09,245.31c-.2,0-.35-.16-.35-.35v-4.15c0-.2.16-.35.35-.35s.35.16.35.35v4.15c0,.2-.16.35-.35.35Z" style="fill: #fff;"/>
      <g>
        <path d="m301.51,244.97h-2.25c-.49,0-.88-.39-.88-.88v-1.3c0-.49.39-.88.88-.88h2.25c.49,0,.88.39.88.88v1.3c0,.49-.39.88-.88.88Zm-2.42-2.14v1.46c0,.12.1.21.21.21h2.17c.12,0,.21-.1.21-.21v-1.46c0-.12-.1-.21-.21-.21h-2.17c-.12,0-.21.1-.21.21Z" style="fill: #fff;"/>
        <path d="m302.67,243.79h-.56s-.33-.1-.33-.28.33-.19.33-.19h.54c.12,0,.22-.1.22-.22v-1.45c0-.11-.09-.21-.21-.21h-2.05s-.21.02-.1.13v.7c-.12.18-.27.33-.45.33s-.49-.33-.49-.33v-.69c0-.47.41-.85.91-.85h2.22c.48,0,.88.39.88.88v1.33c0,.47-.4.86-.9.86Z" style="fill: #fff;"/>
      </g>
      <rect x="106.32" y="248.03" width="92.61" height="115.24" style="fill: #1c2538;"/>
      <rect x="113.39" y="272.31" width="72.35" height="4.24" rx="1.44" ry="1.44" style="fill: #525a6a;"/>
      <rect x="113.39" y="282.23" width="60.8" height="4.24" rx=".76" ry=".76" style="fill: url(#radial-gradient);"/>
      <rect x="113.39" y="289.27" width="72.35" height="4.24" rx="1.44" ry="1.44" style="fill: #525a6a;"/>
      <rect x="113.16" y="297.76" width="65.04" height="4.24" rx="1.44" ry="1.44" style="fill: #525a6a;"/>
      <rect x="114.1" y="308.83" width="69.05" height="46.19" style="fill: #151c2b;"/>
      <rect x="115.39" y="308.31" width="1.41" height="46.19" style="fill: url(#radial-gradient-2);"/>
      <rect x="119.76" y="314.02" width="57.74" height="5.18" rx="1.44" ry="1.44" style="fill: #525a6a;"/>
      <rect x="119.73" y="331.02" width="52.55" height="2.83" rx=".76" ry=".76" style="fill: #525a6a;"/>
      <rect x="119.73" y="341.39" width="52.55" height="2.83" rx=".76" ry=".76" style="fill: #525a6a;"/>
      <g>
        <path d="m140.02,257.87c.07-.03.05-.11.06-.16.33-1.4,1.36-2.38,2.76-2.61.13-.02.17-.07.2-.19.44-1.9,2.04-3.35,3.97-3.61,2.4-.32,4.63,1.21,5.22,3.58.04.16.1.19.24.18.81-.04,1.58.1,2.26.57.73.5,1.2,1.18,1.4,2.04.07.33-.06.59-.34.65-.29.06-.52-.1-.6-.43-.33-1.39-1.73-2.22-3.21-1.73-.17.06-.33.16-.47.27-.2.15-.43.14-.6,0-.15-.12-.22-.33-.16-.53.05-.18.2-.26.34-.35q.28-.17.19-.5c-.42-1.63-1.89-2.81-3.52-2.84-1.73-.03-3.22,1.04-3.73,2.68-.05.16-.03.22.15.26.38.07.72.24,1.04.46.28.19.35.47.19.71-.17.25-.44.28-.72.1-1.32-.85-3.05-.3-3.59,1.18s.65,3.13,2.28,3.14c1.62,0,3.23,0,4.85,0,.21,0,.4.05.51.23.19.31-.05.72-.41.73-.21,0-.43,0-.64,0-1.43,0-2.85,0-4.28,0-1.64,0-2.95-1.04-3.33-2.63-.01-.05,0-.13-.07-.16v-1.05Z" style="fill: #fff;"/>
        <path d="m150.16,260.76h-.24v-1.28c-.21.13-.71.28-.71.28v-.33s.36-.09.47-.18c.11-.09.19-.19.23-.37h.24v1.89Z" style="fill: #fff;"/>
        <path d="m150.16,263.82h-.24v-1.39c-.21.13-.71.28-.71.28v-.33s.36-.09.47-.18c.11-.09.19-.19.23-.27h.24v1.89Z" style="fill: #fff;"/>
        <path d="m151.81,263.82h-.47v-1.39c-.13.13-.29.22-.47.28v-.33s.24-.09.35-.18c.11-.09.19-.19.23-.27h.36v1.89Z" style="fill: #fff;"/>
        <path d="m153.22,263.82h-.24v-1.39c-.21.13-.71.28-.71.28v-.33s.36-.09.47-.18c.11-.09.19-.19.23-.27h.24v1.89Z" style="fill: #fff;"/>
        <path d="m151.44,258.94c.19,0,.33.07.44.2.13.16.19.42.19.78s-.06.63-.19.79c-.1.13-.25.2-.44.2s-.34-.07-.45-.22-.17-.4-.17-.77.06-.62.19-.78c.1-.13.25-.2.44-.2Zm0,.31s-.08.01-.12.04c-.04.03-.06.08-.08.15-.03.1-.04.26-.04.48s.01.38.03.47c.02.08.05.14.09.17.03.03.07.04.12.04s.08-.01.12-.04c.04-.03.06-.08.08-.15.03-.09.04-.25.04-.48s-.01-.38-.03-.47c-.02-.08-.05-.14-.09-.17-.03-.03-.07-.04-.12-.04Z" style="fill: #fff;"/>
        <path d="m155.11,260.76h-.47v-1.39c-.13.13-.29.22-.47.28v-.22s.14-.09.26-.18c.11-.09.19-.19.23-.37h.45v1.89Z" style="fill: #fff;"/>
        <path d="m156.17,258.94c.19,0,.33.07.44.2.13.16.19.42.19.78s-.06.63-.19.79c-.1.13-.25.2-.44.2s-.34-.07-.45-.22-.17-.4-.17-.77.06-.62.19-.78c.1-.13.25-.2.44-.2Zm0,.31s-.08.01-.12.04c-.04.03-.06.08-.08.15-.03.1-.04.26-.04.48s.01.38.03.47c.02.08.05.14.09.17.03.03.07.04.12.04s.08-.01.12-.04c.04-.03.06-.08.08-.15.03-.09.04-.25.04-.48s-.01-.38-.03-.47c-.02-.08-.05-.14-.09-.17-.03-.03-.07-.04-.12-.04Z" style="fill: #fff;"/>
        <path d="m154.52,261.89c.19,0,.33.07.44.2.13.16.19.42.19.78s-.06.63-.19.79c-.1.13-.25.2-.44.2s-.34-.07-.45-.22-.17-.4-.17-.77.06-.62.19-.78c.1-.13.25-.2.44-.2Zm0,.31s-.08.01-.12.04c-.04.03-.06.08-.08.15-.03.1-.04.26-.04.48s.01.38.03.47c.02.08.05.14.09.17.03.03.07.04.12.04s.08-.01.12-.04c.04-.03.06-.08.08-.15.03-.09.04-.25.04-.48s-.01-.38-.03-.47c-.02-.08-.05-.14-.09-.17-.03-.03-.07-.04-.12-.04Z" style="fill: #fff;"/>
        <path d="m149.68,264.47c.14,0,.25.05.33.15.09.12.14.31.14.58s-.05.47-.14.58c-.08.1-.19.15-.32.15s-.25-.05-.34-.16-.13-.3-.13-.57.05-.46.14-.58c.08-.1.19-.15.32-.15Zm0,.23s-.06.01-.09.03c-.03.02-.05.06-.06.11-.02.07-.03.19-.03.36s0,.28.03.35c.02.06.04.1.06.13.03.02.06.03.09.03s.06-.01.09-.03c.03-.02.05-.06.06-.11.02-.07.03-.19.03-.36s0-.28-.03-.35c-.02-.06-.04-.1-.06-.13-.03-.02-.06-.03-.09-.03Z" style="fill: #fff;"/>
        <path d="m151.1,265.94h-.24v-1.08c-.22.09-.47.21-.47.21v-.25s.15-.07.23-.13c.08-.07.14-.14.17-.16h.3v1.41Z" style="fill: #fff;"/>
        <path d="m151.88,264.45c.14,0,.25.05.33.15.09.12.14.31.14.58s-.05.47-.14.58c-.08.1-.19.15-.32.15s-.25-.05-.34-.16-.13-.3-.13-.57.05-.46.14-.58c.08-.1.19-.15.32-.15Zm0,.23s-.06.01-.09.03c-.03.02-.05.06-.06.11-.02.07-.03.19-.03.36s0,.28.03.35c.02.06.04.1.06.13.03.02.06.03.09.03s.06-.01.09-.03c.03-.02.05-.06.06-.11.02-.07.03-.19.03-.36s0-.28-.03-.35c-.02-.06-.04-.1-.06-.13-.03-.02-.06-.03-.09-.03Z" style="fill: #fff;"/>
        <path d="m153.22,265.94h-.24v-1.1c-.14.09-.47.21-.47.21v-.25s.22-.07.31-.13c.08-.07.14-.14.17-.14h.23v1.41Z" style="fill: #fff;"/>
        <path d="m155.59,264.45c.14,0,.25.05.33.15.09.12.14.31.14.58s-.05.47-.14.58c-.08.1-.19.15-.32.15s-.25-.05-.34-.16-.13-.3-.13-.57.05-.46.14-.58c.08-.1.19-.15.32-.15Zm0,.23s-.06.01-.09.03c-.03.02-.05.06-.06.11-.02.07-.03.19-.03.36s0,.28.03.35c.02.06.04.1.06.13.03.02.06.03.09.03s.06-.01.09-.03c.03-.02.05-.06.06-.11.02-.07.03-.19.03-.36s0-.28-.03-.35c-.02-.06-.04-.1-.06-.13-.03-.02-.06-.03-.09-.03Z" style="fill: #fff;"/>
        <path d="m154.4,266.03c.14,0,.25.05.33.15.09.12.14.31.14.58s-.05.47-.14.58c-.08.1-.19.15-.32.15s-.25-.05-.34-.16-.13-.3-.13-.57.05-.46.14-.58c.08-.1.19-.15.32-.15Zm0,.23s-.06.01-.09.03c-.03.02-.05.06-.06.11-.02.07-.03.19-.03.36s0,.28.03.35c.02.06.04.1.06.13.03.02.06.03.09.03s.06-.01.09-.03c.03-.02.05-.06.06-.11.02-.07.03-.19.03-.36s0-.28-.03-.35c-.02-.06-.04-.1-.06-.13-.03-.02-.06-.03-.09-.03Z" style="fill: #fff;"/>
        <path d="m156.59,266.01c.14,0,.25.05.33.15.09.12.14.31.14.58s-.05.47-.14.58c-.08.1-.19.15-.32.15s-.25-.05-.34-.16-.13-.3-.13-.57.05-.46.14-.58c.08-.1.19-.15.32-.15Zm0,.23s-.06.01-.09.03c-.03.02-.05.06-.06.11-.02.07-.03.19-.03.36s0,.28.03.35c.02.06.04.1.06.13.03.02.06.03.09.03s.06-.01.09-.03c.03-.02.05-.06.06-.11.02-.07.03-.19.03-.36s0-.28-.03-.35c-.02-.06-.04-.1-.06-.13-.03-.02-.06-.03-.09-.03Z" style="fill: #fff;"/>
        <path d="m149.5,266.4c.1,0,.18.04.24.11.07.09.1.23.1.43s-.03.34-.1.43c-.06.07-.14.11-.24.11s-.18-.04-.25-.12-.09-.22-.09-.42.03-.34.1-.43c.06-.07.14-.11.24-.11Zm0,.17s-.05,0-.07.02-.03.04-.04.08c-.01.05-.02.14-.02.26s0,.21.02.25c.01.05.03.08.05.09s.04.02.06.02.05,0,.07-.02c.02-.02.03-.04.04-.08.01-.05.02-.14.02-.26s0-.21-.02-.25c-.01-.05-.03-.08-.05-.09s-.04-.02-.06-.02Z" style="fill: #fff;"/>
        <path d="m150.39,267.36h-.24v-.76c-.07.07-.15.12-.24.15v-.08s.2-.05.26-.1c.06-.05.1-.1.13-.16h.08v.94Z" style="fill: #fff;"/>
        <path d="m152.27,267.65c.1,0,.18.04.24.11.07.09.1.23.1.43s-.03.34-.1.43c-.06.07-.14.11-.24.11s-.18-.04-.25-.12-.09-.22-.09-.42.03-.34.1-.43c.06-.07.14-.11.24-.11Zm0,.17s-.05,0-.07.02-.03.04-.04.08c-.01.05-.02.14-.02.26s0,.21.02.25c.01.05.03.08.05.09s.04.02.06.02.05,0,.07-.02c.02-.02.03-.04.04-.08.01-.05.02-.14.02-.26s0-.21-.02-.25c-.01-.05-.03-.08-.05-.09s-.04-.02-.06-.02Z" style="fill: #fff;"/>
        <path d="m153.22,268.54h-.24v-.76c-.07.07-.15.12-.24.15h0s.14-.06.2-.11c.06-.05.1-.1.13-.23h.14v.94Z" style="fill: #fff;"/>
        <path d="m156.99,265.94h-.24v-1.1c-.2.09-.47.21-.47.21v-.25s.17-.07.25-.13c.08-.07.14-.14.17-.14h.28v1.41Z" style="fill: #fff;"/>
        <path d="m155.81,267.36h-.24v-.94c-.22.09-.47.21-.47.21v-.25s.14-.07.23-.13c.08-.07.14-.14.17-.3h.31v1.41Z" style="fill: #fff;"/>
      </g>
      <rect x="198.82" y="248.05" width="105.34" height="115.24" style="fill: url(#radial-gradient-3);"/>
      <g>
        <path d="m223.29,275.6c.06,0,.12.03.18.03.59.01,1.18.02,1.78.03,1.07.03,2.14.07,3.21.11.71.03,1.43.05,2.14.1,1.22.07,2.43.15,3.64.25,1,.08,2,.17,2.99.28,1.25.14,2.5.3,3.74.47,1.38.18,2.75.42,4.12.69,2.6.52,5.16,1.16,7.62,2.14.71.28,1.39.62,2.08.93.05.02.1.06.15.08-.08.39-.18.77-.24,1.16-.2,1.21-.21,2.42.09,3.63.48,1.91,1.65,3.25,3.4,4.09.65.31,1.34.53,2.05.68.05.01.1.02.15.02,1.05,0,2.1,0,3.14,0,.19,0,.37.02.55.06,1.58.39,3.14.81,4.65,1.4.49.19.96.42,1.44.63.05.02.11.05.18.08v-.76c.66.94,1.55,1.52,2.66,1.88-.05-.36-.1-.69-.15-1.02,0,0,.02-.01.02-.02.04.04.09.09.13.13.48.53.98,1.05,1.54,1.51.31.25.64.47.96.7.08.06.18.09.3.15-.04-.49-.16-.93-.21-1.43.15.16.28.3.4.42.63.64,1.27,1.28,1.9,1.92.23.23.47.37.82.31.29-.05.59-.04.89-.05.07,0,.13,0,.21,0,.33.5.65.99.98,1.48.29.43.6.86.9,1.29.07.1.14.2.19.31.16.3.13.41-.18.57.03.04.05.09.08.13.83.85,1.77,1.53,2.92,1.89.33.1.66.17,1.01.25-.04.03-.08.07-.12.1-.53.4-1.07.79-1.6,1.2-.15.12-.28.27-.44.41-.11-.12-.23-.25-.35-.37-1.04-1.07-2.18-2-3.5-2.7-.34-.18-.7-.32-1.04-.49-.44-.21-.86-.45-1.21-.79-.06-.06-.13-.12-.18-.19-.19-.22-.29-.46-.29-.75,0-.32-.02-.63-.03-.95-.03-.02-.06-.05-.1-.07-2.65-1.27-5.33-2.47-8.09-3.5-1.21-.45-2.43-.86-3.69-1.17-.51-.13-1.02-.19-1.54-.21-.95-.05-1.9-.05-2.86-.05-.54,0-1.07.1-1.57.31-2.28.97-4.09,2.41-5.23,4.5-.56,1.03-.91,2.12-1.06,3.28-.05.39-.08.79-.11,1.18-.03.53.05,1.06.15,1.58.23,1.25.65,2.43,1.33,3.5,1.05,1.67,2.53,2.8,4.39,3.45.71.25,1.45.41,2.19.51.12.02.31.03.43.04.78.04,1.56.07,2.34.11.86.04,1.72.08,2.58.12.69.03,1.37.06,2.05.12.74.06,1.47.13,2.21.23.95.13,1.89.27,2.83.45,2.85.54,5.62,1.36,8.26,2.58,1.87.87,3.62,1.92,5.2,3.27,1.62,1.38,2.94,3.01,3.9,4.92.49.98.87,2,1.13,3.06,0,.04.02.08.02.12,0,.03,0,.05,0,.11-.03-.04-.05-.06-.06-.09-.73-1.87-1.82-3.52-3.15-5.02-1.56-1.75-3.41-3.15-5.49-4.23-2.05-1.06-4.21-1.76-6.48-2.16-.08-.01-.17-.03-.27-.01.03.03.05.06.09.09,1.14.82,2.21,1.72,3.23,2.68,2.46,2.33,4.54,4.94,6.11,7.95,1.05,2.03,1.8,4.16,2.18,6.41.14.81.23,1.62.26,2.45.01.4.03.79.01,1.19-.05-.29-.1-.59-.16-.88-.23-1.24-.56-2.46-.95-3.67-.5-1.55-1.1-3.06-1.83-4.52-1.18-2.38-2.65-4.58-4.5-6.5-2.83-2.94-6.23-4.88-10.2-5.8-1.14-.26-2.3-.45-3.47-.52-.72-.04-1.44-.04-2.16-.05-.78-.01-1.56-.03-2.34-.04-.64-.01-1.29-.02-1.93-.06-.17-.01-.45-.04-.62-.07-1.67-.27-3.25-.77-4.69-1.63-2.92-1.74-4.54-4.45-4.94-8.06-.02-.18-.04-.49-.03-.68.01-2.22.35-4.36,1.28-6.37.94-2.01,2.37-3.61,4.43-4.69.11-.06.21-.11.32-.16.08-.03.15-.07.24-.12-.03-.06-.04-.12-.07-.17-.8-1.71-1.55-3.45-2.18-5.23-.36-1.02-.69-2.05-.9-3.12-.06-.28-.1-.57-.13-.85,0-.06-.04-.11-.1-.14-.6-.25-1.19-.53-1.79-.76-1.84-.71-3.73-1.25-5.65-1.73-2.13-.53-4.27-.98-6.43-1.34-1.41-.24-2.81-.46-4.22-.67-1.09-.16-2.19-.29-3.28-.42-1.17-.14-2.34-.27-3.51-.39-.8-.08-1.61-.15-2.41-.22-.91-.08-1.82-.15-2.73-.23-.64-.05-1.27-.09-1.91-.13-1.07-.07-2.15-.13-3.22-.19-.48-.03-.95-.04-1.43-.06-.49-.02-.98-.05-1.47-.09.61-.02,1.21-.04,1.82-.06.78-.02,1.56-.03,2.34-.05.05,0,.09-.02.14-.03h3.84Zm57.65,23.66s0-.05,0-.06c-.26-.36-.52-.72-.79-1.07-.03-.04-.09-.07-.16-.11-.06.19-.05.37-.04.54,0,.02.02.04.03.05.27.28.55.53.95.65Z" style="fill: #fff;"/>
        <path d="m211.66,286.25c.78-.16,1.55-.34,2.33-.49,1.48-.29,2.97-.57,4.46-.84,1.37-.24,2.75-.46,4.12-.67,1-.15,2.01-.29,3.02-.42.92-.12,1.84-.24,2.76-.35.67-.08,1.34-.15,2.01-.22.75-.08,1.5-.15,2.25-.23.52-.05,1.05-.09,1.57-.13.82-.07,1.64-.13,2.45-.19.5-.04,1.01-.06,1.51-.09,1.02-.05,2.04-.11,3.06-.15.67-.03,1.34-.04,2.02-.06.76-.02,1.52-.03,2.28-.04.89-.01,1.78-.02,2.66-.02.75,0,1.49.02,2.24.04.74.02,1.48.05,2.22.08.12,0,.24.02.39.03.12.49.25.98.38,1.49-.22,0-.42-.02-.62-.03-.4-.02-.81-.05-1.21-.07-.81-.03-1.61-.06-2.42-.09-.52-.02-1.04-.03-1.55-.04-1.72-.02-3.45-.03-5.17-.04-.77,0-1.53,0-2.3.02-.58,0-1.16.02-1.73.04-.8.02-1.6.05-2.4.08-.88.04-1.76.07-2.64.12-.91.05-1.81.1-2.72.16-.93.06-1.87.13-2.8.2-1.22.1-2.44.21-3.66.32-1.14.11-2.28.23-3.41.36-1.58.19-3.16.39-4.74.61-1.36.19-2.72.42-4.09.62-.09.01-.17.01-.26.02v-.04Z" style="fill: #fff;"/>
        <path d="m253.53,285.06c.16.54.33,1.06.49,1.61-.08,0-.14.01-.2.01-.72.02-1.44.02-2.16.06-.87.05-1.73.14-2.59.22-1.25.12-2.48.32-3.71.54-1.99.36-3.96.81-5.92,1.34-3.35.91-6.64,2.02-9.87,3.29-2.62,1.03-5.21,2.15-7.74,3.39-1.25.61-2.47,1.25-3.7,1.88-.07.04-.15.08-.22.11,0-.01-.01-.03-.02-.04.05-.04.1-.08.16-.11,1.96-1.21,3.98-2.34,6.03-3.39,3.84-1.96,7.8-3.64,11.88-5.03,3.3-1.13,6.65-2.06,10.06-2.77,1.47-.31,2.94-.58,4.43-.79.92-.13,1.84-.22,2.76-.33.1-.01.2,0,.32,0Z" style="fill: #fff;"/>
      </g>
      <path d="m193.34,307.34l-6.96-7.19c-.4-.42-1.11-.13-1.11.45l.03,10.01c0,.65.85.89,1.19.34l1.61-2.57c.35-.57,1.03-.84,1.68-.68l2.95.72c.63.15,1.07-.61.62-1.08Z" style="fill: #fff;"/>
    </g>
  </g>
  <g id="Web_Server" data-name="Web Server">
    <g>
      <g id="Server_-_small" data-name="Server - small">
        <g>
          <polygon points="1172.66 198.68 1162.21 207 1151.95 198.68 1151.95 98.43 1172.66 98.43 1172.66 198.68" style="fill: #1a1a1a;"/>
          <polygon points="1057.06 58.53 1164.25 11.52 1264.66 59.62 1160.47 104.2 1057.06 58.53" style="fill: url(#linear-gradient-5);"/>
          <polyline points="1161.35 102.68 1162.21 207.09 1060.66 161.96 1057.08 58.53" style="fill: url(#linear-gradient-6);"/>
          <polygon points="1161.35 102.72 1162.29 207.09 1262.9 159.14 1264.78 59.47 1161.35 102.72" style="fill: url(#linear-gradient-7);"/>
          <path d="m1176.47,131.42l75.6-34.69c.97-.44,1.61-1.38,1.68-2.44l1.24-19.74c.14-2.16-2.07-3.7-4.06-2.82l-76.68,34.13c-1.03.46-1.7,1.48-1.71,2.61l-.16,20.3c-.02,2.11,2.17,3.53,4.09,2.65Z" style="fill: url(#linear-gradient-8);"/>
          <path d="m1172.64,130.04c.66,1.36,2.31,2.06,3.82,1.38l75.61-34.69c.96-.44,1.61-1.38,1.67-2.44l1.24-19.73c.11-1.82-1.42-3.2-3.1-3.07.21.42.31.91.28,1.44l-1.24,19.73c-.07,1.06-.71,2-1.67,2.44l-75.61,34.69c-.33.14-.66.24-1,.26Z" style="fill: #1a1a1a;"/>
          <path d="m1177.29,162.71l75.6-34.69c.97-.44,1.61-1.38,1.68-2.44l1.24-19.74c.14-2.16-2.07-3.7-4.06-2.82l-76.68,34.13c-1.03.46-1.7,1.48-1.71,2.61l-.16,20.3c-.02,2.11,2.17,3.53,4.09,2.65Z" style="fill: url(#linear-gradient-9);"/>
          <path d="m1173.65,161.33c.66,1.36,2.31,2.06,3.82,1.38l75.61-34.69c.96-.44,1.61-1.38,1.67-2.44l1.24-19.73c.11-1.82-1.42-3.2-3.1-3.07.21.42.31.91.28,1.44l-1.24,19.73c-.07,1.06-.71,2-1.67,2.44l-75.61,34.69c-.33.14-.66.24-1,.26Z" style="fill: #1a1a1a;"/>
          <path d="m1178.54,193.87l77.06-34.6c.97-.44,1.61-1.38,1.68-2.44l1.24-19.74c.14-2.16-2.07-3.7-4.06-2.82l-78.14,34.04c-1.03.46-1.7,1.48-1.71,2.61l-.16,20.3c-.02,2.11,2.17,3.53,4.09,2.65Z" style="fill: url(#linear-gradient-10);"/>
          <path d="m1174.78,192.5c.66,1.36,2.31,2.06,3.82,1.38l77.07-34.6c.96-.44,1.61-1.38,1.67-2.44l1.24-19.73c.11-1.82-1.42-3.2-3.1-3.07.21.42.31.91.28,1.44l-1.24,19.73c-.07,1.06-.71,2-1.67,2.44l-77.07,34.6c-.33.14-.66.24-1,.26Z" style="fill: #1a1a1a;"/>
          <circle cx="1181.08" cy="110.6" r="2.28" style="fill: #a3ea2a;"/>
          <circle cx="1181.49" cy="119.71" r="2.28" style="fill: #a3ea2a;"/>
          <circle cx="1191.85" cy="106.04" r="2.28" style="fill: #f2f2f2;"/>
          <circle cx="1192.54" cy="114.33" r="2.28" style="fill: #a3ea2a;"/>
          <circle cx="1203.04" cy="101.07" r="2.28" style="fill: #a3ea2a;"/>
          <circle cx="1203.04" cy="110.19" r="2.28" style="fill: #a3ea2a;"/>
          <circle cx="1213.81" cy="96.1" r="2.28" style="fill: #eb0037;"/>
          <circle cx="1214.22" cy="104.8" r="2.28" style="fill: #a3ea2a;"/>
          <circle cx="1224.58" cy="91.54" r="2.28" style="fill: #a3ea2a;"/>
          <circle cx="1224.99" cy="100.05" r="2.28" style="fill: #1a1a1a;"/>
          <circle cx="1235.35" cy="86.16" r="2.28" style="fill: #a3ea2a;"/>
          <circle cx="1235.37" cy="95.3" r="2.28" style="fill: #a3ea2a;"/>
          <circle cx="1245.7" cy="81.19" r="2.28" style="fill: #a3ea2a;"/>
          <circle cx="1245.34" cy="89.89" r="2.28" style="fill: #a3ea2a;"/>
          <circle cx="1182.32" cy="141.25" r="2.28" style="fill: #f2f2f2;"/>
          <circle cx="1182.32" cy="149.95" r="2.28" style="fill: #eb0037;"/>
          <circle cx="1193.09" cy="136.7" r="2.28" style="fill: #a3ea2a;"/>
          <circle cx="1194.34" cy="144.98" r="2.28" style="fill: #eb0037;"/>
          <circle cx="1203.86" cy="131.73" r="2.28" style="fill: #a3ea2a;"/>
          <circle cx="1204.28" cy="140.84" r="2.28" style="fill: #eb0037;"/>
          <circle cx="1214.63" cy="126.76" r="2.28" style="fill: #a3ea2a;"/>
          <circle cx="1215.05" cy="135.46" r="2.28" style="fill: #eb0037;"/>
          <circle cx="1225.82" cy="121.78" r="2.28" style="fill: #a3ea2a;"/>
          <circle cx="1225.82" cy="130.9" r="2.28" style="fill: #eb0037;"/>
          <circle cx="1236.59" cy="116.81" r="2.28" style="fill: #1a1a1a;"/>
          <circle cx="1237.39" cy="125.76" r="2.28" style="fill: #eb0037;"/>
          <circle cx="1246.95" cy="112.78" r="2.28" style="fill: #a3ea2a;"/>
          <circle cx="1247.36" cy="121.51" r="2.28" style="fill: #eb0037;"/>
          <circle cx="1184.81" cy="172.32" r="2.28" style="fill: #a3ea2a;"/>
          <circle cx="1184.45" cy="181.02" r="2.28" style="fill: #a3ea2a;"/>
          <circle cx="1195.58" cy="167.77" r="2.28" style="fill: #a3ea2a;"/>
          <circle cx="1196.05" cy="176.05" r="2.28" style="fill: #a3ea2a;"/>
          <circle cx="1206.35" cy="162.8" r="2.28" style="fill: #1a1a1a;"/>
          <circle cx="1205.99" cy="171.91" r="2.28" style="fill: #a3ea2a;"/>
          <circle cx="1217.53" cy="157.82" r="2.28" style="fill: #a3ea2a;"/>
          <circle cx="1216.95" cy="166.52" r="2.28" style="fill: #a3ea2a;"/>
          <circle cx="1228.3" cy="153.27" r="2.28" style="fill: #eb0037;"/>
          <circle cx="1228.14" cy="161.97" r="2.28" style="fill: #a3ea2a;"/>
          <circle cx="1239.08" cy="147.88" r="2.28" style="fill: #a3ea2a;"/>
          <circle cx="1239.1" cy="157.41" r="2.28" style="fill: #1a1a1a;"/>
          <circle cx="1249.43" cy="142.91" r="2.28" style="fill: #a3ea2a;"/>
          <circle cx="1248.68" cy="153.16" r="2.28" style="fill: #a3ea2a;"/>
          <polygon points="1063.06 65.57 1067.73 158.24 1155.97 198.63 1155.97 104.6 1063.06 65.57" style="fill: #272728;"/>
          <polygon points="1063.05 65.57 1066.54 67.12 1070.44 157.38 1067.55 158.24 1063.05 65.57" style="fill: #1a1a1a;"/>
          <polygon points="1070.63 157.38 1155.97 196.75 1155.97 198.63 1067.73 158.24 1070.63 157.38" style="fill: #1a1a1a;"/>
          <line x1="1079.09" y1="155.85" x2="1078.1" y2="119.64" style="fill: #eb0037; stroke: #000; stroke-linecap: round; stroke-linejoin: round; stroke-width: 1.19px;"/>
          <line x1="1084.54" y1="158.33" x2="1083.55" y2="122.12" style="fill: #eb0037; stroke: #000; stroke-linecap: round; stroke-linejoin: round; stroke-width: 1.19px;"/>
          <line x1="1090" y1="161.31" x2="1089.01" y2="125.1" style="fill: #eb0037; stroke: #000; stroke-linecap: round; stroke-linejoin: round; stroke-width: 1.19px;"/>
          <line x1="1095.46" y1="164.28" x2="1094.47" y2="128.07" style="fill: #eb0037; stroke: #000; stroke-linecap: round; stroke-linejoin: round; stroke-width: 1.19px;"/>
          <line x1="1100.91" y1="166.77" x2="1099.92" y2="130.55" style="fill: #eb0037; stroke: #000; stroke-linecap: round; stroke-linejoin: round; stroke-width: 1.19px;"/>
          <line x1="1106.37" y1="169.25" x2="1105.38" y2="133.03" style="fill: #eb0037; stroke: #000; stroke-linecap: round; stroke-linejoin: round; stroke-width: 1.19px;"/>
          <line x1="1113.2" y1="171.77" x2="1112.21" y2="135.56" style="fill: #eb0037; stroke: #000; stroke-linecap: round; stroke-linejoin: round; stroke-width: 1.19px;"/>
          <line x1="1118.66" y1="174.25" x2="1117.67" y2="138.04" style="fill: #eb0037; stroke: #000; stroke-linecap: round; stroke-linejoin: round; stroke-width: 1.19px;"/>
          <line x1="1124.12" y1="177.23" x2="1123.12" y2="141.02" style="fill: #eb0037; stroke: #000; stroke-linecap: round; stroke-linejoin: round; stroke-width: 1.19px;"/>
          <line x1="1129.57" y1="180.21" x2="1128.58" y2="144" style="fill: #eb0037; stroke: #000; stroke-linecap: round; stroke-linejoin: round; stroke-width: 1.19px;"/>
          <line x1="1135.03" y1="182.69" x2="1134.04" y2="146.48" style="fill: #eb0037; stroke: #000; stroke-linecap: round; stroke-linejoin: round; stroke-width: 1.19px;"/>
          <line x1="1140.49" y1="185.17" x2="1139.49" y2="148.96" style="fill: #eb0037; stroke: #000; stroke-linecap: round; stroke-linejoin: round; stroke-width: 1.19px;"/>
          <polygon points="1074.53 56.99 1160.96 97.93 1247.38 59.27 1160.96 93.38 1074.53 56.99" style="fill: #97afbf; opacity: .25;"/>
          <polygon points="1069.98 56.99 1163.23 16.05 1247.38 56.99 1163.23 18.33 1069.98 56.99" style="fill: #97afbf; opacity: .25;"/>
        </g>
      </g>
      <g id="Artwork_47" data-name="Artwork 47">
        <path d="m1158.69,114.68c-20.91,0-37.92,17.01-37.92,37.92s17.01,37.92,37.92,37.92,37.92-17.01,37.92-37.92-17.01-37.92-37.92-37.92Zm-34.69,39.48h12.12c.11,4.39.65,8.58,1.58,12.46h-10.79c-1.7-3.84-2.7-8.05-2.9-12.46Zm36.26-19.04v-17.06c6.48.94,12.07,7.55,15.19,17.06h-15.19Zm16.17,3.17c1,3.93,1.6,8.23,1.72,12.77h-17.89v-12.77h16.17Zm-19.34-20.23v17.06h-15.19c3.13-9.5,8.71-16.12,15.19-17.06Zm0,20.23v12.77h-17.89c.12-4.53.71-8.84,1.72-12.77h16.16Zm-20.96,12.77h-12.13c.2-4.53,1.27-8.84,3.05-12.77h10.73c-.98,3.97-1.54,8.28-1.65,12.77Zm3.06,3.1h17.9v12.46h-16.27c-.95-3.84-1.51-8.05-1.62-12.46Zm17.9,15.63v17.43c-6.56-.95-12.21-7.72-15.32-17.43h15.32Zm3.17,17.43v-17.43h15.32c-3.1,9.7-8.75,16.48-15.32,17.43Zm0-20.6v-12.46h17.9c-.11,4.42-.67,8.62-1.62,12.46h-16.27Zm21.01-12.46h12.12c-.2,4.42-1.2,8.62-2.9,12.46h-10.79c.92-3.88,1.47-8.07,1.58-12.46Zm0-3.1c-.12-4.5-.68-8.8-1.65-12.77h10.73c1.79,3.93,2.84,8.24,3.05,12.77h-12.13Zm7.41-15.94h-9.93c-2.02-6.45-5.11-11.79-8.88-15.39,7.96,2.71,14.62,8.23,18.81,15.39Zm-41.16-15.39c-3.77,3.6-6.86,8.95-8.88,15.39h-9.93c4.19-7.15,10.84-12.68,18.81-15.39Zm-18.99,50.06h10.02c2,6.55,5.09,11.99,8.89,15.66-8.04-2.77-14.74-8.39-18.9-15.66Zm41.45,15.66c3.79-3.67,6.89-9.11,8.89-15.66h10.02c-4.16,7.27-10.87,12.89-18.9,15.66Z" style="fill: url(#linear-gradient-11);"/>
      </g>
    </g>
  </g>
  <g id="Web_Server-2" data-name="Web Server">
    <g>
      <g id="Server_-_small-2" data-name="Server - small">
        <g>
          <polygon points="1172.66 422.71 1162.21 431.03 1151.95 422.71 1151.95 322.46 1172.66 322.46 1172.66 422.71" style="fill: #1a1a1a;"/>
          <polygon points="1057.06 282.57 1164.25 235.55 1264.66 283.65 1160.47 328.23 1057.06 282.57" style="fill: url(#linear-gradient-12);"/>
          <polyline points="1161.35 326.72 1162.21 431.13 1060.66 386 1057.08 282.57" style="fill: url(#linear-gradient-13);"/>
          <polygon points="1161.35 326.76 1162.29 431.13 1262.9 383.18 1264.78 283.51 1161.35 326.76" style="fill: url(#linear-gradient-14);"/>
          <path d="m1176.47,355.46l75.6-34.69c.97-.44,1.61-1.38,1.68-2.44l1.24-19.74c.14-2.16-2.07-3.7-4.06-2.82l-76.68,34.13c-1.03.46-1.7,1.48-1.71,2.61l-.16,20.3c-.02,2.11,2.17,3.53,4.09,2.65Z" style="fill: url(#linear-gradient-15);"/>
          <path d="m1172.64,354.08c.66,1.36,2.31,2.06,3.82,1.38l75.61-34.69c.96-.44,1.61-1.38,1.67-2.44l1.24-19.73c.11-1.82-1.42-3.2-3.1-3.07.21.42.31.91.28,1.44l-1.24,19.73c-.07,1.06-.71,2-1.67,2.44l-75.61,34.69c-.33.14-.66.24-1,.26Z" style="fill: #1a1a1a;"/>
          <path d="m1177.29,386.74l75.6-34.69c.97-.44,1.61-1.38,1.68-2.44l1.24-19.74c.14-2.16-2.07-3.7-4.06-2.82l-76.68,34.13c-1.03.46-1.7,1.48-1.71,2.61l-.16,20.3c-.02,2.11,2.17,3.53,4.09,2.65Z" style="fill: url(#linear-gradient-16);"/>
          <path d="m1173.65,385.37c.66,1.36,2.31,2.06,3.82,1.38l75.61-34.69c.96-.44,1.61-1.38,1.67-2.44l1.24-19.73c.11-1.82-1.42-3.2-3.1-3.07.21.42.31.91.28,1.44l-1.24,19.73c-.07,1.06-.71,2-1.67,2.44l-75.61,34.69c-.33.14-.66.24-1,.26Z" style="fill: #1a1a1a;"/>
          <path d="m1178.54,417.91l77.06-34.6c.97-.44,1.61-1.38,1.68-2.44l1.24-19.74c.14-2.16-2.07-3.7-4.06-2.82l-78.14,34.04c-1.03.46-1.7,1.48-1.71,2.61l-.16,20.3c-.02,2.11,2.17,3.53,4.09,2.65Z" style="fill: url(#linear-gradient-17);"/>
          <path d="m1174.78,416.53c.66,1.36,2.31,2.06,3.82,1.38l77.07-34.6c.96-.44,1.61-1.38,1.67-2.44l1.24-19.73c.11-1.82-1.42-3.2-3.1-3.07.21.42.31.91.28,1.44l-1.24,19.73c-.07,1.06-.71,2-1.67,2.44l-77.07,34.6c-.33.14-.66.24-1,.26Z" style="fill: #1a1a1a;"/>
          <circle cx="1181.08" cy="334.64" r="2.28" style="fill: #a3ea2a;"/>
          <circle cx="1181.49" cy="343.75" r="2.28" style="fill: #a3ea2a;"/>
          <circle cx="1191.85" cy="330.08" r="2.28" style="fill: #f2f2f2;"/>
          <circle cx="1192.54" cy="338.36" r="2.28" style="fill: #a3ea2a;"/>
          <circle cx="1203.04" cy="325.11" r="2.28" style="fill: #a3ea2a;"/>
          <circle cx="1203.04" cy="334.22" r="2.28" style="fill: #a3ea2a;"/>
          <circle cx="1213.81" cy="320.14" r="2.28" style="fill: #eb0037;"/>
          <circle cx="1214.22" cy="328.84" r="2.28" style="fill: #a3ea2a;"/>
          <circle cx="1224.58" cy="315.58" r="2.28" style="fill: #a3ea2a;"/>
          <circle cx="1224.99" cy="324.09" r="2.28" style="fill: #1a1a1a;"/>
          <circle cx="1235.35" cy="310.2" r="2.28" style="fill: #a3ea2a;"/>
          <circle cx="1235.37" cy="319.34" r="2.28" style="fill: #a3ea2a;"/>
          <circle cx="1245.7" cy="305.22" r="2.28" style="fill: #a3ea2a;"/>
          <circle cx="1245.34" cy="313.92" r="2.28" style="fill: #a3ea2a;"/>
          <circle cx="1182.32" cy="365.29" r="2.28" style="fill: #f2f2f2;"/>
          <circle cx="1182.32" cy="373.99" r="2.28" style="fill: #eb0037;"/>
          <circle cx="1193.09" cy="360.73" r="2.28" style="fill: #a3ea2a;"/>
          <circle cx="1194.34" cy="369.02" r="2.28" style="fill: #eb0037;"/>
          <circle cx="1203.86" cy="355.76" r="2.28" style="fill: #a3ea2a;"/>
          <circle cx="1204.28" cy="364.88" r="2.28" style="fill: #eb0037;"/>
          <circle cx="1214.63" cy="350.79" r="2.28" style="fill: #a3ea2a;"/>
          <circle cx="1215.05" cy="359.49" r="2.28" style="fill: #eb0037;"/>
          <circle cx="1225.82" cy="345.82" r="2.28" style="fill: #a3ea2a;"/>
          <circle cx="1225.82" cy="354.94" r="2.28" style="fill: #eb0037;"/>
          <circle cx="1236.59" cy="340.85" r="2.28" style="fill: #1a1a1a;"/>
          <circle cx="1237.39" cy="349.8" r="2.28" style="fill: #eb0037;"/>
          <circle cx="1246.95" cy="336.82" r="2.28" style="fill: #a3ea2a;"/>
          <circle cx="1247.36" cy="345.55" r="2.28" style="fill: #eb0037;"/>
          <circle cx="1184.81" cy="396.36" r="2.28" style="fill: #a3ea2a;"/>
          <circle cx="1184.45" cy="405.06" r="2.28" style="fill: #a3ea2a;"/>
          <circle cx="1195.58" cy="391.8" r="2.28" style="fill: #a3ea2a;"/>
          <circle cx="1196.05" cy="400.09" r="2.28" style="fill: #a3ea2a;"/>
          <circle cx="1206.35" cy="386.83" r="2.28" style="fill: #1a1a1a;"/>
          <circle cx="1205.99" cy="395.95" r="2.28" style="fill: #a3ea2a;"/>
          <circle cx="1217.53" cy="381.86" r="2.28" style="fill: #a3ea2a;"/>
          <circle cx="1216.95" cy="390.56" r="2.28" style="fill: #a3ea2a;"/>
          <circle cx="1228.3" cy="377.3" r="2.28" style="fill: #eb0037;"/>
          <circle cx="1228.14" cy="386" r="2.28" style="fill: #a3ea2a;"/>
          <circle cx="1239.08" cy="371.92" r="2.28" style="fill: #a3ea2a;"/>
          <circle cx="1239.1" cy="381.45" r="2.28" style="fill: #1a1a1a;"/>
          <circle cx="1249.43" cy="366.95" r="2.28" style="fill: #a3ea2a;"/>
          <circle cx="1248.68" cy="377.2" r="2.28" style="fill: #a3ea2a;"/>
          <polygon points="1063.06 289.61 1067.73 382.28 1155.97 422.67 1155.97 328.64 1063.06 289.61" style="fill: #272728;"/>
          <polygon points="1063.05 289.61 1066.54 291.16 1070.44 381.42 1067.55 382.28 1063.05 289.61" style="fill: #1a1a1a;"/>
          <polygon points="1070.63 381.42 1155.97 420.79 1155.97 422.67 1067.73 382.28 1070.63 381.42" style="fill: #1a1a1a;"/>
          <line x1="1079.09" y1="379.89" x2="1078.1" y2="343.68" style="fill: #eb0037; stroke: #000; stroke-linecap: round; stroke-linejoin: round; stroke-width: 1.19px;"/>
          <line x1="1084.54" y1="382.37" x2="1083.55" y2="346.16" style="fill: #eb0037; stroke: #000; stroke-linecap: round; stroke-linejoin: round; stroke-width: 1.19px;"/>
          <line x1="1090" y1="385.35" x2="1089.01" y2="349.13" style="fill: #eb0037; stroke: #000; stroke-linecap: round; stroke-linejoin: round; stroke-width: 1.19px;"/>
          <line x1="1095.46" y1="388.32" x2="1094.47" y2="352.11" style="fill: #eb0037; stroke: #000; stroke-linecap: round; stroke-linejoin: round; stroke-width: 1.19px;"/>
          <line x1="1100.91" y1="390.8" x2="1099.92" y2="354.59" style="fill: #eb0037; stroke: #000; stroke-linecap: round; stroke-linejoin: round; stroke-width: 1.19px;"/>
          <line x1="1106.37" y1="393.28" x2="1105.38" y2="357.07" style="fill: #eb0037; stroke: #000; stroke-linecap: round; stroke-linejoin: round; stroke-width: 1.19px;"/>
          <line x1="1113.2" y1="395.81" x2="1112.21" y2="359.6" style="fill: #eb0037; stroke: #000; stroke-linecap: round; stroke-linejoin: round; stroke-width: 1.19px;"/>
          <line x1="1118.66" y1="398.29" x2="1117.67" y2="362.08" style="fill: #eb0037; stroke: #000; stroke-linecap: round; stroke-linejoin: round; stroke-width: 1.19px;"/>
          <line x1="1124.12" y1="401.27" x2="1123.12" y2="365.06" style="fill: #eb0037; stroke: #000; stroke-linecap: round; stroke-linejoin: round; stroke-width: 1.19px;"/>
          <line x1="1129.57" y1="404.24" x2="1128.58" y2="368.03" style="fill: #eb0037; stroke: #000; stroke-linecap: round; stroke-linejoin: round; stroke-width: 1.19px;"/>
          <line x1="1135.03" y1="406.72" x2="1134.04" y2="370.51" style="fill: #eb0037; stroke: #000; stroke-linecap: round; stroke-linejoin: round; stroke-width: 1.19px;"/>
          <line x1="1140.49" y1="409.2" x2="1139.49" y2="372.99" style="fill: #eb0037; stroke: #000; stroke-linecap: round; stroke-linejoin: round; stroke-width: 1.19px;"/>
          <polygon points="1074.53 281.03 1160.96 321.97 1247.38 283.3 1160.96 317.42 1074.53 281.03" style="fill: #97afbf; opacity: .25;"/>
          <polygon points="1069.98 281.03 1163.23 240.09 1247.38 281.03 1163.23 242.37 1069.98 281.03" style="fill: #97afbf; opacity: .25;"/>
        </g>
      </g>
      <g id="Artwork_47-2" data-name="Artwork 47">
        <path d="m1158.69,338.72c-20.91,0-37.92,17.01-37.92,37.92s17.01,37.92,37.92,37.92,37.92-17.01,37.92-37.92-17.01-37.92-37.92-37.92Zm-34.69,39.48h12.12c.11,4.39.65,8.58,1.58,12.46h-10.79c-1.7-3.84-2.7-8.05-2.9-12.46Zm36.26-19.04v-17.06c6.48.94,12.07,7.55,15.19,17.06h-15.19Zm16.17,3.17c1,3.93,1.6,8.23,1.72,12.77h-17.89v-12.77h16.17Zm-19.34-20.23v17.06h-15.19c3.13-9.5,8.71-16.12,15.19-17.06Zm0,20.23v12.77h-17.89c.12-4.53.71-8.84,1.72-12.77h16.16Zm-20.96,12.77h-12.13c.2-4.53,1.27-8.84,3.05-12.77h10.73c-.98,3.97-1.54,8.28-1.65,12.77Zm3.06,3.1h17.9v12.46h-16.27c-.95-3.84-1.51-8.05-1.62-12.46Zm17.9,15.63v17.43c-6.56-.95-12.21-7.72-15.32-17.43h15.32Zm3.17,17.43v-17.43h15.32c-3.1,9.7-8.75,16.48-15.32,17.43Zm0-20.6v-12.46h17.9c-.11,4.42-.67,8.62-1.62,12.46h-16.27Zm21.01-12.46h12.12c-.2,4.42-1.2,8.62-2.9,12.46h-10.79c.92-3.88,1.47-8.07,1.58-12.46Zm0-3.1c-.12-4.5-.68-8.8-1.65-12.77h10.73c1.79,3.93,2.84,8.24,3.05,12.77h-12.13Zm7.41-15.94h-9.93c-2.02-6.45-5.11-11.79-8.88-15.39,7.96,2.71,14.62,8.23,18.81,15.39Zm-41.16-15.39c-3.77,3.6-6.86,8.95-8.88,15.39h-9.93c4.19-7.15,10.84-12.68,18.81-15.39Zm-18.99,50.06h10.02c2,6.55,5.09,11.99,8.89,15.66-8.04-2.77-14.74-8.39-18.9-15.66Zm41.45,15.66c3.79-3.67,6.89-9.11,8.89-15.66h10.02c-4.16,7.27-10.87,12.89-18.9,15.66Z" style="fill: url(#linear-gradient-18);"/>
      </g>
    </g>
  </g>
  <g id="Web_Server-3" data-name="Web Server">
    <g>
      <g id="Server_-_small-3" data-name="Server - small">
        <g>
          <polygon points="1172.66 646.75 1162.21 655.07 1151.95 646.75 1151.95 546.5 1172.66 546.5 1172.66 646.75" style="fill: #1a1a1a;"/>
          <polygon points="1057.06 506.6 1164.25 459.59 1264.66 507.69 1160.47 552.27 1057.06 506.6" style="fill: url(#linear-gradient-19);"/>
          <polyline points="1161.35 550.76 1162.21 655.17 1060.66 610.03 1057.08 506.6" style="fill: url(#linear-gradient-20);"/>
          <polygon points="1161.35 550.8 1162.29 655.17 1262.9 607.21 1264.78 507.54 1161.35 550.8" style="fill: url(#linear-gradient-21);"/>
          <path d="m1176.47,579.49l75.6-34.69c.97-.44,1.61-1.38,1.68-2.44l1.24-19.74c.14-2.16-2.07-3.7-4.06-2.82l-76.68,34.13c-1.03.46-1.7,1.48-1.71,2.61l-.16,20.3c-.02,2.11,2.17,3.53,4.09,2.65Z" style="fill: url(#linear-gradient-22);"/>
          <path d="m1172.64,578.12c.66,1.36,2.31,2.06,3.82,1.38l75.61-34.69c.96-.44,1.61-1.38,1.67-2.44l1.24-19.73c.11-1.82-1.42-3.2-3.1-3.07.21.42.31.91.28,1.44l-1.24,19.73c-.07,1.06-.71,2-1.67,2.44l-75.61,34.69c-.33.14-.66.24-1,.26Z" style="fill: #1a1a1a;"/>
          <path d="m1177.29,610.78l75.6-34.69c.97-.44,1.61-1.38,1.68-2.44l1.24-19.74c.14-2.16-2.07-3.7-4.06-2.82l-76.68,34.13c-1.03.46-1.7,1.48-1.71,2.61l-.16,20.3c-.02,2.11,2.17,3.53,4.09,2.65Z" style="fill: url(#linear-gradient-23);"/>
          <path d="m1173.65,609.4c.66,1.36,2.31,2.06,3.82,1.38l75.61-34.69c.96-.44,1.61-1.38,1.67-2.44l1.24-19.73c.11-1.82-1.42-3.2-3.1-3.07.21.42.31.91.28,1.44l-1.24,19.73c-.07,1.06-.71,2-1.67,2.44l-75.61,34.69c-.33.14-.66.24-1,.26Z" style="fill: #1a1a1a;"/>
          <path d="m1178.54,641.95l77.06-34.6c.97-.44,1.61-1.38,1.68-2.44l1.24-19.74c.14-2.16-2.07-3.7-4.06-2.82l-78.14,34.04c-1.03.46-1.7,1.48-1.71,2.61l-.16,20.3c-.02,2.11,2.17,3.53,4.09,2.65Z" style="fill: url(#linear-gradient-24);"/>
          <path d="m1174.78,640.57c.66,1.36,2.31,2.06,3.82,1.38l77.07-34.6c.96-.44,1.61-1.38,1.67-2.44l1.24-19.73c.11-1.82-1.42-3.2-3.1-3.07.21.42.31.91.28,1.44l-1.24,19.73c-.07,1.06-.71,2-1.67,2.44l-77.07,34.6c-.33.14-.66.24-1,.26Z" style="fill: #1a1a1a;"/>
          <circle cx="1181.08" cy="558.67" r="2.28" style="fill: #a3ea2a;"/>
          <circle cx="1181.49" cy="567.79" r="2.28" style="fill: #a3ea2a;"/>
          <circle cx="1191.85" cy="554.12" r="2.28" style="fill: #f2f2f2;"/>
          <circle cx="1192.54" cy="562.4" r="2.28" style="fill: #a3ea2a;"/>
          <circle cx="1203.04" cy="549.15" r="2.28" style="fill: #a3ea2a;"/>
          <circle cx="1203.04" cy="558.26" r="2.28" style="fill: #a3ea2a;"/>
          <circle cx="1213.81" cy="544.17" r="2.28" style="fill: #eb0037;"/>
          <circle cx="1214.22" cy="552.87" r="2.28" style="fill: #a3ea2a;"/>
          <circle cx="1224.58" cy="539.62" r="2.28" style="fill: #a3ea2a;"/>
          <circle cx="1224.99" cy="548.12" r="2.28" style="fill: #1a1a1a;"/>
          <circle cx="1235.35" cy="534.23" r="2.28" style="fill: #a3ea2a;"/>
          <circle cx="1235.37" cy="543.37" r="2.28" style="fill: #a3ea2a;"/>
          <circle cx="1245.7" cy="529.26" r="2.28" style="fill: #a3ea2a;"/>
          <circle cx="1245.34" cy="537.96" r="2.28" style="fill: #a3ea2a;"/>
          <circle cx="1182.32" cy="589.33" r="2.28" style="fill: #f2f2f2;"/>
          <circle cx="1182.32" cy="598.03" r="2.28" style="fill: #eb0037;"/>
          <circle cx="1193.09" cy="584.77" r="2.28" style="fill: #a3ea2a;"/>
          <circle cx="1194.34" cy="593.06" r="2.28" style="fill: #eb0037;"/>
          <circle cx="1203.86" cy="579.8" r="2.28" style="fill: #a3ea2a;"/>
          <circle cx="1204.28" cy="588.91" r="2.28" style="fill: #eb0037;"/>
          <circle cx="1214.63" cy="574.83" r="2.28" style="fill: #a3ea2a;"/>
          <circle cx="1215.05" cy="583.53" r="2.28" style="fill: #eb0037;"/>
          <circle cx="1225.82" cy="569.86" r="2.28" style="fill: #a3ea2a;"/>
          <circle cx="1225.82" cy="578.97" r="2.28" style="fill: #eb0037;"/>
          <circle cx="1236.59" cy="564.89" r="2.28" style="fill: #1a1a1a;"/>
          <circle cx="1237.39" cy="573.83" r="2.28" style="fill: #eb0037;"/>
          <circle cx="1246.95" cy="560.86" r="2.28" style="fill: #a3ea2a;"/>
          <circle cx="1247.36" cy="569.58" r="2.28" style="fill: #eb0037;"/>
          <circle cx="1184.81" cy="620.4" r="2.28" style="fill: #a3ea2a;"/>
          <circle cx="1184.45" cy="629.1" r="2.28" style="fill: #a3ea2a;"/>
          <circle cx="1195.58" cy="615.84" r="2.28" style="fill: #a3ea2a;"/>
          <circle cx="1196.05" cy="624.13" r="2.28" style="fill: #a3ea2a;"/>
          <circle cx="1206.35" cy="610.87" r="2.28" style="fill: #1a1a1a;"/>
          <circle cx="1205.99" cy="619.98" r="2.28" style="fill: #a3ea2a;"/>
          <circle cx="1217.53" cy="605.9" r="2.28" style="fill: #a3ea2a;"/>
          <circle cx="1216.95" cy="614.6" r="2.28" style="fill: #a3ea2a;"/>
          <circle cx="1228.3" cy="601.34" r="2.28" style="fill: #eb0037;"/>
          <circle cx="1228.14" cy="610.04" r="2.28" style="fill: #a3ea2a;"/>
          <circle cx="1239.08" cy="595.96" r="2.28" style="fill: #a3ea2a;"/>
          <circle cx="1239.1" cy="605.48" r="2.28" style="fill: #1a1a1a;"/>
          <circle cx="1249.43" cy="590.99" r="2.28" style="fill: #a3ea2a;"/>
          <circle cx="1248.68" cy="601.23" r="2.28" style="fill: #a3ea2a;"/>
          <polygon points="1063.06 513.64 1067.73 606.32 1155.97 646.7 1155.97 552.68 1063.06 513.64" style="fill: #272728;"/>
          <polygon points="1063.05 513.64 1066.54 515.19 1070.44 605.45 1067.55 606.32 1063.05 513.64" style="fill: #1a1a1a;"/>
          <polygon points="1070.63 605.45 1155.97 644.82 1155.97 646.7 1067.73 606.32 1070.63 605.45" style="fill: #1a1a1a;"/>
          <line x1="1079.09" y1="603.93" x2="1078.1" y2="567.72" style="fill: #eb0037; stroke: #000; stroke-linecap: round; stroke-linejoin: round; stroke-width: 1.19px;"/>
          <line x1="1084.54" y1="606.41" x2="1083.55" y2="570.2" style="fill: #eb0037; stroke: #000; stroke-linecap: round; stroke-linejoin: round; stroke-width: 1.19px;"/>
          <line x1="1090" y1="609.38" x2="1089.01" y2="573.17" style="fill: #eb0037; stroke: #000; stroke-linecap: round; stroke-linejoin: round; stroke-width: 1.19px;"/>
          <line x1="1095.46" y1="612.36" x2="1094.47" y2="576.15" style="fill: #eb0037; stroke: #000; stroke-linecap: round; stroke-linejoin: round; stroke-width: 1.19px;"/>
          <line x1="1100.91" y1="614.84" x2="1099.92" y2="578.63" style="fill: #eb0037; stroke: #000; stroke-linecap: round; stroke-linejoin: round; stroke-width: 1.19px;"/>
          <line x1="1106.37" y1="617.32" x2="1105.38" y2="581.11" style="fill: #eb0037; stroke: #000; stroke-linecap: round; stroke-linejoin: round; stroke-width: 1.19px;"/>
          <line x1="1113.2" y1="619.85" x2="1112.21" y2="583.64" style="fill: #eb0037; stroke: #000; stroke-linecap: round; stroke-linejoin: round; stroke-width: 1.19px;"/>
          <line x1="1118.66" y1="622.33" x2="1117.67" y2="586.12" style="fill: #eb0037; stroke: #000; stroke-linecap: round; stroke-linejoin: round; stroke-width: 1.19px;"/>
          <line x1="1124.12" y1="625.3" x2="1123.12" y2="589.09" style="fill: #eb0037; stroke: #000; stroke-linecap: round; stroke-linejoin: round; stroke-width: 1.19px;"/>
          <line x1="1129.57" y1="628.28" x2="1128.58" y2="592.07" style="fill: #eb0037; stroke: #000; stroke-linecap: round; stroke-linejoin: round; stroke-width: 1.19px;"/>
          <line x1="1135.03" y1="630.76" x2="1134.04" y2="594.55" style="fill: #eb0037; stroke: #000; stroke-linecap: round; stroke-linejoin: round; stroke-width: 1.19px;"/>
          <line x1="1140.49" y1="633.24" x2="1139.49" y2="597.03" style="fill: #eb0037; stroke: #000; stroke-linecap: round; stroke-linejoin: round; stroke-width: 1.19px;"/>
          <polygon points="1074.53 505.07 1160.96 546.01 1247.38 507.34 1160.96 541.46 1074.53 505.07" style="fill: #97afbf; opacity: .25;"/>
          <polygon points="1069.98 505.07 1163.23 464.13 1247.38 505.07 1163.23 466.4 1069.98 505.07" style="fill: #97afbf; opacity: .25;"/>
        </g>
      </g>
      <g id="Artwork_47-3" data-name="Artwork 47">
        <path d="m1158.69,562.76c-20.91,0-37.92,17.01-37.92,37.92s17.01,37.92,37.92,37.92,37.92-17.01,37.92-37.92-17.01-37.92-37.92-37.92Zm-34.69,39.48h12.12c.11,4.39.65,8.58,1.58,12.46h-10.79c-1.7-3.84-2.7-8.05-2.9-12.46Zm36.26-19.04v-17.06c6.48.94,12.07,7.55,15.19,17.06h-15.19Zm16.17,3.17c1,3.93,1.6,8.23,1.72,12.77h-17.89v-12.77h16.17Zm-19.34-20.23v17.06h-15.19c3.13-9.5,8.71-16.12,15.19-17.06Zm0,20.23v12.77h-17.89c.12-4.53.71-8.84,1.72-12.77h16.16Zm-20.96,12.77h-12.13c.2-4.53,1.27-8.84,3.05-12.77h10.73c-.98,3.97-1.54,8.28-1.65,12.77Zm3.06,3.1h17.9v12.46h-16.27c-.95-3.84-1.51-8.05-1.62-12.46Zm17.9,15.63v17.43c-6.56-.95-12.21-7.72-15.32-17.43h15.32Zm3.17,17.43v-17.43h15.32c-3.1,9.7-8.75,16.48-15.32,17.43Zm0-20.6v-12.46h17.9c-.11,4.42-.67,8.62-1.62,12.46h-16.27Zm21.01-12.46h12.12c-.2,4.42-1.2,8.62-2.9,12.46h-10.79c.92-3.88,1.47-8.07,1.58-12.46Zm0-3.1c-.12-4.5-.68-8.8-1.65-12.77h10.73c1.79,3.93,2.84,8.24,3.05,12.77h-12.13Zm7.41-15.94h-9.93c-2.02-6.45-5.11-11.79-8.88-15.39,7.96,2.71,14.62,8.23,18.81,15.39Zm-41.16-15.39c-3.77,3.6-6.86,8.95-8.88,15.39h-9.93c4.19-7.15,10.84-12.68,18.81-15.39Zm-18.99,50.06h10.02c2,6.55,5.09,11.99,8.89,15.66-8.04-2.77-14.74-8.39-18.9-15.66Zm41.45,15.66c3.79-3.67,6.89-9.11,8.89-15.66h10.02c-4.16,7.27-10.87,12.89-18.9,15.66Z" style="fill: url(#linear-gradient-25);"/>
      </g>
    </g>
  </g>
  <g>
    <circle cx="714.3" cy="333.34" r="82.6" style="fill: #223654;"/>
    <path d="m738.92,334.31l-21.07,12.12c-.62.36-1.4-.09-1.4-.81v-6.25h-27.13l19.42,22.07,4.69-4.13c.54-.48,1.39-.19,1.53.52l4.83,23.82c.14.7-.53,1.29-1.2,1.06l-23.02-7.81c-.68-.23-.86-1.11-.32-1.59l4.69-4.13-21.08-23.95v5.55h-24.94v-34.57h24.94v5.55l21.08-23.95-4.69-4.13c-.54-.48-.36-1.35.32-1.59l23.02-7.81c.68-.23,1.35.36,1.2,1.06l-4.83,23.82c-.14.7-.99.99-1.53.52l-4.69-4.13-19.45,22.09h27.15v-6.25c0-.72.78-1.17,1.4-.81l21.07,12.12c.62.36.62,1.25,0,1.6Zm14.17-44.86v-18.15c0-2.56-2.07-4.63-4.63-4.63h-18.15c-2.56,0-4.63,2.07-4.63,4.63v18.15c0,2.56,2.07,4.63,4.63,4.63h18.15c2.56,0,4.63-2.07,4.63-4.63Zm21.58,52.96v-18.15c0-2.56-2.07-4.63-4.63-4.63h-18.15c-2.56,0-4.63,2.07-4.63,4.63v18.15c0,2.56,2.07,4.63,4.63,4.63h18.15c2.56,0,4.63-2.07,4.63-4.63Zm-21.58,52.96v-18.15c0-2.56-2.07-4.63-4.63-4.63h-18.15c-2.56,0-4.63,2.07-4.63,4.63v18.15c0,2.56,2.07,4.63,4.63,4.63h18.15c2.56,0,4.63-2.07,4.63-4.63Z" style="fill: url(#linear-gradient-26);"/>
  </g>
  <g id="arrow_styles_for_diagrams_etc" data-name="arrow styles for diagrams etc">
    <g id="arrow_styles_for_diagrams_etc-2" data-name="arrow styles for diagrams etc">
      <g id="arrow_styles_for_diagrams_etc-3" data-name="arrow styles for diagrams etc">
        <path d="m1030.28,335.13l-47.11,27.09c-1.39.79-3.13-.2-3.13-1.81v-13.97h-157.59c-4.18,0-7.56-3.38-7.56-7.56v-11.1c0-4.16,3.38-7.54,7.54-7.54h157.62v-13.97c0-1.61,1.74-2.61,3.13-1.81l47.11,27.09c1.39.79,1.39,2.79,0,3.58Z" style="fill: url(#linear-gradient-27);"/>
      </g>
    </g>
  </g>
  <g id="arrow_styles_for_diagrams_etc-4" data-name="arrow styles for diagrams etc">
    <g id="arrow_styles_for_diagrams_etc-5" data-name="arrow styles for diagrams etc">
      <g id="arrow_styles_for_diagrams_etc-6" data-name="arrow styles for diagrams etc">
        <path d="m594.66,335.13l-47.11,27.09c-1.39.79-3.13-.2-3.13-1.81v-13.97h-157.59c-4.18,0-7.56-3.38-7.56-7.56v-11.1c0-4.16,3.38-7.54,7.54-7.54h157.62v-13.97c0-1.61,1.74-2.61,3.13-1.81l47.11,27.09c1.39.79,1.39,2.79,0,3.58Z" style="fill: url(#linear-gradient-28);"/>
      </g>
    </g>
  </g>
  <g id="arrow_styles_for_diagrams_etc-7" data-name="arrow styles for diagrams etc">
    <g id="arrow_styles_for_diagrams_etc-8" data-name="arrow styles for diagrams etc">
      <g id="arrow_styles_for_diagrams_etc-9" data-name="arrow styles for diagrams etc">
        <path d="m1011.93,152.64l-30.18,45.19c-.89,1.33-2.89,1.21-3.61-.23l-6.21-12.52-141.2,69.98c-3.74,1.85-8.28.32-10.13-3.42l-4.93-9.94c-1.85-3.73-.32-8.25,3.41-10.1l141.22-69.99-6.21-12.52c-.71-1.44.4-3.11,2-3.01l54.24,3.35c1.6.09,2.49,1.88,1.59,3.21Z" style="fill: url(#linear-gradient-29);"/>
      </g>
    </g>
  </g>
  <g id="arrow_styles_for_diagrams_etc-10" data-name="arrow styles for diagrams etc">
    <g id="arrow_styles_for_diagrams_etc-11" data-name="arrow styles for diagrams etc">
      <g id="arrow_styles_for_diagrams_etc-12" data-name="arrow styles for diagrams etc">
        <path d="m1011.93,514.04l-30.18-45.19c-.89-1.33-2.89-1.21-3.61.23l-6.21,12.52-141.2-69.98c-3.74-1.85-8.28-.32-10.13,3.42l-4.93,9.94c-1.85,3.73-.32,8.25,3.41,10.1l141.22,69.99-6.21,12.52c-.71,1.44.4,3.11,2,3.01l54.24-3.35c1.6-.09,2.49-1.88,1.59-3.21Z" style="fill: url(#linear-gradient-30);"/>
      </g>
    </g>
  </g>
</svg>