<?xml version="1.0" encoding="UTF-8"?>
<svg xmlns="http://www.w3.org/2000/svg" width="1290.94" height="273.23" xmlns:xlink="http://www.w3.org/1999/xlink" viewBox="0 0 1290.94 273.23">
  <defs>
    <linearGradient id="linear-gradient" x1="153.89" y1="320.09" x2="153.89" y2="159.21" gradientUnits="userSpaceOnUse">
      <stop offset=".42" stop-color="#9da8c4"/>
      <stop offset=".66" stop-color="#4f5669"/>
      <stop offset=".84" stop-color="#1a1a1a"/>
    </linearGradient>
    <linearGradient id="linear-gradient-2" x1="23.94" y1="21.82" x2="621.98" y2="454.01" gradientUnits="userSpaceOnUse">
      <stop offset="0" stop-color="#9da8c4"/>
      <stop offset=".57" stop-color="#4f5669"/>
      <stop offset="1" stop-color="#444b5c"/>
    </linearGradient>
    <linearGradient id="linear-gradient-3" x1="3438.07" y1="5258.54" x2="3437.48" y2="5297.67" gradientTransform="translate(-3283.44 -5052.73)" xlink:href="#linear-gradient"/>
    <linearGradient id="linear-gradient-4" x1="23.77" y1="204.96" x2="70.25" y2="204.96" gradientUnits="userSpaceOnUse">
      <stop offset=".17" stop-color="#727c92"/>
      <stop offset=".4" stop-color="#979eaf"/>
      <stop offset=".65" stop-color="#b8bdc9"/>
      <stop offset=".86" stop-color="#ccd1d9"/>
      <stop offset="1" stop-color="#d4d8df"/>
    </linearGradient>
    <radialGradient id="radial-gradient" cx="120.37" cy="98.78" fx="120.37" fy="98.78" r="21.51" gradientTransform="translate(-.63 70.47) scale(1 .17)" gradientUnits="userSpaceOnUse">
      <stop offset="0" stop-color="#51f9fd"/>
      <stop offset="1" stop-color="#039dfd"/>
    </radialGradient>
    <radialGradient id="radial-gradient-2" cx="96.52" cy="130.74" fx="96.52" fy="130.74" r="16.37" gradientTransform="translate(-6.19 4.2) scale(1.02 1)" xlink:href="#radial-gradient"/>
    <radialGradient id="radial-gradient-3" cx="227.96" cy="109.15" fx="227.96" fy="109.15" r="55.2" gradientTransform="translate(-.26 -58.17) scale(1 1.53)" gradientUnits="userSpaceOnUse">
      <stop offset="0" stop-color="#51f9fd"/>
      <stop offset="1" stop-color="#0359df"/>
    </radialGradient>
    <linearGradient id="linear-gradient-5" x1="1191.48" y1="23.88" x2="1183.47" y2="136.09" xlink:href="#linear-gradient-2"/>
    <linearGradient id="linear-gradient-6" x1="1119.41" y1="57.04" x2="1140.63" y2="179.64" xlink:href="#linear-gradient-2"/>
    <linearGradient id="linear-gradient-7" x1="1363.53" y1="-43.24" x2="1161.24" y2="282.18" xlink:href="#linear-gradient-2"/>
    <linearGradient id="linear-gradient-8" x1="-2356.6" y1="57.6" x2="-2324.68" y2="63.17" gradientTransform="translate(-1081.75 -79.2) rotate(-176.41) scale(1 -1)" gradientUnits="userSpaceOnUse">
      <stop offset="0" stop-color="#666"/>
      <stop offset=".57" stop-color="#4d4d4d"/>
      <stop offset="1" stop-color="#333"/>
    </linearGradient>
    <linearGradient id="linear-gradient-9" x1="-2372.38" y1="93.4" x2="-2292.22" y2="93.4" xlink:href="#linear-gradient-8"/>
    <linearGradient id="linear-gradient-10" x1="-2377.03" y1="124.43" x2="-2295.41" y2="124.43" gradientTransform="translate(-1081.75 -79.2) rotate(-176.41) scale(1 -1)" gradientUnits="userSpaceOnUse">
      <stop offset="0" stop-color="#666"/>
      <stop offset=".19" stop-color="#4d4d4d"/>
      <stop offset=".65" stop-color="#333"/>
    </linearGradient>
    <linearGradient id="linear-gradient-11" x1="1146.92" y1="179.92" x2="1222.77" y2="179.92" gradientUnits="userSpaceOnUse">
      <stop offset=".07" stop-color="#fff"/>
      <stop offset=".1" stop-color="#ddf4fc"/>
      <stop offset=".15" stop-color="#a3e1f9"/>
      <stop offset=".21" stop-color="#72d1f6"/>
      <stop offset=".26" stop-color="#49c4f3"/>
      <stop offset=".31" stop-color="#2abaf1"/>
      <stop offset=".36" stop-color="#14b2f0"/>
      <stop offset=".41" stop-color="#06aeef"/>
      <stop offset=".46" stop-color="#02adef"/>
      <stop offset=".62" stop-color="#03adef"/>
      <stop offset=".69" stop-color="#0aafef"/>
      <stop offset=".74" stop-color="#17b3f0"/>
      <stop offset=".77" stop-color="#28b9f1"/>
      <stop offset=".81" stop-color="#3ec0f2"/>
      <stop offset=".84" stop-color="#5ac9f4"/>
      <stop offset=".86" stop-color="#7bd4f6"/>
      <stop offset=".89" stop-color="#a2e0f9"/>
      <stop offset=".91" stop-color="#cceefb"/>
      <stop offset=".93" stop-color="#fbfdfe"/>
      <stop offset=".93" stop-color="#fff"/>
    </linearGradient>
    <linearGradient id="linear-gradient-12" x1="714.08" y1="136.61" x2="1047.08" y2="136.61" gradientUnits="userSpaceOnUse">
      <stop offset=".34" stop-color="#223654"/>
      <stop offset=".4" stop-color="#38554c"/>
      <stop offset=".5" stop-color="#5e8940"/>
      <stop offset=".6" stop-color="#7bb336"/>
      <stop offset=".68" stop-color="#91d12f"/>
      <stop offset=".76" stop-color="#9ee32b"/>
      <stop offset=".81" stop-color="#a3ea2a"/>
    </linearGradient>
    <linearGradient id="linear-gradient-13" x1="198.45" y1="136.61" x2="531.46" y2="136.61" xlink:href="#linear-gradient-12"/>
    <radialGradient id="radial-gradient-4" cx="682.46" cy="108.3" fx="682.46" fy="108.3" r="121.18" gradientTransform="translate(695.38 -574.96) rotate(80.78)" gradientUnits="userSpaceOnUse">
      <stop offset="0" stop-color="#223654"/>
      <stop offset="1" stop-color="#151c2b"/>
    </radialGradient>
    <radialGradient id="radial-gradient-5" cx="659.92" cy="73.08" fx="659.92" fy="73.08" r="110.14" gradientUnits="userSpaceOnUse">
      <stop offset=".33" stop-color="#a3ea2a"/>
      <stop offset=".39" stop-color="#97e628"/>
      <stop offset=".67" stop-color="#65d522"/>
      <stop offset=".88" stop-color="#46cb1f"/>
      <stop offset="1" stop-color="#3bc81e"/>
    </radialGradient>
    <linearGradient id="linear-gradient-14" x1="748.15" y1="191.86" x2="748.15" y2="236.15" gradientUnits="userSpaceOnUse">
      <stop offset="0" stop-color="#dead0a"/>
      <stop offset="1" stop-color="#eb0037"/>
    </linearGradient>
    <linearGradient id="linear-gradient-15" x1="765.3" y1="161.71" x2="765.3" y2="205.59" xlink:href="#linear-gradient-14"/>
    <linearGradient id="linear-gradient-16" x1="734.61" y1="176.13" x2="734.61" y2="220.26" xlink:href="#linear-gradient-14"/>
    <linearGradient id="linear-gradient-17" x1="748.31" y1="147.59" x2="748.31" y2="191.34" xlink:href="#linear-gradient-14"/>
    <linearGradient id="linear-gradient-18" x1="779.05" y1="133.38" x2="779.05" y2="176.89" xlink:href="#linear-gradient-14"/>
    <linearGradient id="linear-gradient-19" x1="796" y1="147.28" x2="796" y2="190.92" xlink:href="#linear-gradient-14"/>
    <linearGradient id="linear-gradient-20" x1="778.81" y1="177.22" x2="778.81" y2="221.27" xlink:href="#linear-gradient-14"/>
    <linearGradient id="linear-gradient-21" x1="686.02" y1="206.45" x2="686.02" y2="233.41" xlink:href="#linear-gradient-14"/>
    <linearGradient id="linear-gradient-22" x1="692.83" y1="176.7" x2="692.83" y2="212.78" xlink:href="#linear-gradient-14"/>
    <linearGradient id="linear-gradient-23" x1="692.84" y1="221.84" x2="692.84" y2="258.22" xlink:href="#linear-gradient-14"/>
    <linearGradient id="linear-gradient-24" x1="717.57" y1="161.81" x2="717.57" y2="205.79" xlink:href="#linear-gradient-14"/>
    <linearGradient id="linear-gradient-25" x1="814.26" y1="145.97" x2="814.26" y2="172.45" xlink:href="#linear-gradient-14"/>
    <linearGradient id="linear-gradient-26" x1="717.5" y1="206.5" x2="717.5" y2="251.03" xlink:href="#linear-gradient-14"/>
    <linearGradient id="linear-gradient-27" x1="703.91" y1="190.55" x2="703.91" y2="234.92" xlink:href="#linear-gradient-14"/>
    <linearGradient id="linear-gradient-28" x1="734.49" y1="220.58" x2="734.49" y2="265.26" xlink:href="#linear-gradient-14"/>
    <linearGradient id="linear-gradient-29" x1="703.88" y1="235.43" x2="703.88" y2="280.35" xlink:href="#linear-gradient-14"/>
    <linearGradient id="linear-gradient-30" x1="686.05" y1="251.8" x2="686.05" y2="278.8" xlink:href="#linear-gradient-14"/>
    <linearGradient id="linear-gradient-31" x1="765.1" y1="205.74" x2="765.1" y2="250.17" xlink:href="#linear-gradient-14"/>
    <linearGradient id="linear-gradient-32" x1="813.91" y1="189.54" x2="813.91" y2="216.07" xlink:href="#linear-gradient-14"/>
    <linearGradient id="linear-gradient-33" x1="805.89" y1="123.22" x2="805.89" y2="161.26" xlink:href="#linear-gradient-14"/>
    <linearGradient id="linear-gradient-34" x1="686" y1="162.3" x2="686" y2="189.23" xlink:href="#linear-gradient-14"/>
    <linearGradient id="linear-gradient-35" x1="795.71" y1="190.89" x2="795.71" y2="235.07" xlink:href="#linear-gradient-14"/>
    <linearGradient id="linear-gradient-36" x1="796.29" y1="104.82" x2="796.29" y2="147.93" xlink:href="#linear-gradient-14"/>
    <linearGradient id="linear-gradient-37" x1="814.6" y1="103.55" x2="814.6" y2="129.99" xlink:href="#linear-gradient-14"/>
    <linearGradient id="linear-gradient-38" x1="805.57" y1="166.76" x2="805.57" y2="205.18" xlink:href="#linear-gradient-14"/>
    <linearGradient id="linear-gradient-39" x1="703.93" y1="146.85" x2="703.93" y2="190.69" xlink:href="#linear-gradient-14"/>
    <linearGradient id="linear-gradient-40" x1="765.5" y1="118.83" x2="765.5" y2="162.19" xlink:href="#linear-gradient-14"/>
    <linearGradient id="linear-gradient-41" x1="734.72" y1="132.84" x2="734.72" y2="176.44" xlink:href="#linear-gradient-14"/>
    <linearGradient id="linear-gradient-42" x1="675.43" y1="155.96" x2="675.43" y2="183.25" xlink:href="#linear-gradient-14"/>
    <linearGradient id="linear-gradient-43" x1="675.43" y1="177.41" x2="675.43" y2="204.7" xlink:href="#linear-gradient-14"/>
    <linearGradient id="linear-gradient-44" x1="675.43" y1="199.98" x2="675.43" y2="227.27" xlink:href="#linear-gradient-14"/>
    <linearGradient id="linear-gradient-45" x1="675.43" y1="222.55" x2="675.43" y2="249.84" xlink:href="#linear-gradient-14"/>
    <linearGradient id="linear-gradient-46" x1="675.72" y1="244.64" x2="675.72" y2="273.23" xlink:href="#linear-gradient-14"/>
  </defs>
  <g style="isolation: isolate;">
    <g id="Layer_1" data-name="Layer 1">
      <g id="Artwork_161" data-name="Artwork 161">
        <g>
          <path d="m302.12,236.87v7.82c0,1.61-.95,2.92-2.12,2.92H2.12c-1.17,0-2.12-1.31-2.12-2.92v-7.82c0-1.61.95-2.92,2.12-2.92h297.88c1.17,0,2.12,1.31,2.12,2.92Z" style="fill: #525a6a;"/>
          <g style="opacity: .47;">
            <path d="m302.12,240.78v3.91c0,1.61-.95,2.92-2.12,2.92H2.12c-1.17,0-2.12-1.31-2.12-2.92v-3.91h302.12Z" style="fill: #727c92;"/>
          </g>
          <g id="Artwork_143" data-name="Artwork 143">
            <rect x="127.95" y="187" width="51.89" height="41.67" style="fill: url(#linear-gradient);"/>
            <path d="m9.03,25.62h289.48c2.78,0,5.04,2.26,5.04,5.04v169.97c0,2.78-2.26,5.04-5.04,5.04H9.03c-2.78,0-5.04-2.26-5.04-5.04V30.66c0-2.78,2.26-5.04,5.04-5.04Z" style="fill: url(#linear-gradient-2);"/>
            <path d="m303.55,30.66v155.36H3.99V30.66c0-2.78,2.26-5.04,5.04-5.04h289.48c2.78,0,5.04,2.26,5.04,5.04Z" style="fill: #223654;"/>
            <path d="m109.08,226.32h90.42v3.88c0,2.2-1.78,3.98-3.98,3.98h-82.46c-2.2,0-3.98-1.78-3.98-3.98v-3.88h0Z" transform="translate(308.58 460.5) rotate(180)" style="fill: url(#linear-gradient-3);"/>
            <circle cx="154.29" cy="196.05" r="5.11" style="fill: #1c2538;"/>
            <path d="m14.99,173.63V37.57c0-1.82,1.48-3.3,3.3-3.3h270.95c1.82,0,3.3,1.48,3.3,3.3v136.06c0,2.5-2.1,4.52-4.68,4.52H19.67c-2.59,0-4.68-2.02-4.68-4.52Z" style="fill: #151c2b;"/>
          </g>
          <g>
            <rect x="22.7" y="39.78" width="7.78" height="7.78" rx=".78" ry=".78" style="fill: #727c92;"/>
            <rect x="22.7" y="52.27" width="7.78" height="7.78" rx=".78" ry=".78" style="fill: #727c92;"/>
            <rect x="22.7" y="64.53" width="7.78" height="7.78" rx=".78" ry=".78" style="fill: #727c92;"/>
            <rect x="22.7" y="77.02" width="7.78" height="7.78" rx=".78" ry=".78" style="fill: #727c92;"/>
          </g>
          <rect x="48.62" y="126.74" width="7.78" height="7.78" rx=".78" ry=".78" style="fill: #727c92;"/>
          <rect x="35.66" y="114.96" width="7.78" height="7.78" rx=".78" ry=".78" style="fill: #727c92;"/>
          <rect x="38.25" y="55.34" width="7.78" height="7.78" rx=".78" ry=".78" style="fill: #727c92;"/>
          <rect x="48.62" y="64.53" width="7.78" height="7.78" rx=".78" ry=".78" style="fill: #727c92;"/>
          <rect x="48.62" y="77.02" width="7.78" height="7.78" rx=".78" ry=".78" style="fill: #727c92;"/>
          <g style="opacity: .2;">
            <path d="m71.37,166.43c-1.38-1.39-3.3-2.24-5.42-2.24h-26.68c-1.46,0-2.63-1.21-2.59-2.67.04-1.42,1.28-2.51,2.7-2.51h12.45c.77,0,1.45-.57,1.49-1.34.04-.81-.61-1.49-1.41-1.49h-13.72c-3.68,0-6.85,2.83-7.02,6.5-.18,3.93,2.95,7.17,6.83,7.17h20.48c1.51,0,2.85,1.11,2.98,2.62.13,1.44-.8,2.68-2.09,3.04h-16.09c-6.72,0-12.17,5.45-12.17,12.17v7.62h31.81v-2.14c0-4.85-3.94-8.79-8.79-8.79-.63,0-1.23-.23-1.69-.62s-.77-.94-.83-1.57c-.14-1.44,1-2.66,2.42-2.66h11.93c4.23,0,7.66-3.43,7.66-7.66,0-2.12-.86-4.03-2.24-5.42Zm-29.72,17.28c-2.13,0-3.86-.8-3.86-1.77s1.73-1.77,3.86-1.77,3.86.8,3.86,1.77-1.73,1.77-3.86,1.77Z" style="fill: #fff;"/>
            <ellipse cx="58.53" cy="157.57" rx="1.78" ry="1.41" style="fill: #fff;"/>
          </g>
          <g>
            <path d="m66.65,217.28c-7.53,0-13.66-5.07-13.66-11.3s6.13-11.3,13.66-11.3,13.66,5.07,13.66,11.3-6.13,11.3-13.66,11.3Zm0-18.6c-5.32,0-9.65,3.27-9.65,7.3s4.33,7.3,9.65,7.3,9.65-3.27,9.65-7.3-4.33-7.3-9.65-7.3Z" style="fill: #d4d8df;"/>
            <path d="m70.24,190.18l-2.17,28.82c-.22,2.84-2.59,5.04-5.44,5.04h-31.23c-1.26,0-2.42-.43-3.35-1.15-1.18-.91-1.97-2.3-2.09-3.89l-2.17-28.82c-.18-2.33,1.67-4.31,4-4.31h38.46c2.33,0,4.17,1.98,4,4.31Z" style="fill: url(#linear-gradient-4);"/>
          </g>
          <path d="m85.07,225.7v14.38H17.23c-3.97,0-7.19-3.22-7.19-7.19,0-1.98.8-3.78,2.1-5.08,1.3-1.3,3.1-2.1,5.08-2.1h67.84Z" style="fill: #d4d8df;"/>
          <g style="opacity: .15;">
            <path d="m54.17,225.7l-7.1,14.38h-29.92c-3.97,0-7.19-3.22-7.19-7.19,0-1.98.8-3.78,2.1-5.08,1.3-1.3,3.1-2.1,5.08-2.1h37.02Z" style="fill: #727c92;"/>
          </g>
          <path d="m84.08,239.13H17.04c-2.84,0-5.66-2.27-6.13-5.07-.65-3.84,2.31-7.19,6.04-7.19h68.34c.61,0,1.11-.5,1.11-1.11v-.13c0-.61-.5-1.11-1.11-1.11H17.24c-4.16,0-7.78,3-8.38,7.11-.76,5.17,3.25,9.62,8.27,9.62h68c.59,0,1.06-.47,1.06-1.06h0c0-.59-.47-1.06-1.06-1.06h-1.06Z" style="fill: #223654;"/>
          <rect x="76.59" y="40.7" width="208.09" height="131.03" rx="4.54" ry="4.54" style="fill: #223654;"/>
          <circle cx="84.94" cy="45.89" r="1.64" style="fill: #eb0037;"/>
          <circle cx="89.99" cy="45.89" r="1.64" style="fill: #ecbb0a;"/>
          <circle cx="95.04" cy="45.89" r="1.64" style="fill: #a3ea2a;"/>
          <rect x="105.69" y="43.06" width="14.85" height="5.18" rx="2.59" ry="2.59" style="fill: #515b74;"/>
          <rect x="112.41" y="42.59" width="1.41" height="6.13" style="fill: #2b3b52;"/>
          <path d="m116.9,45.53l-1.47-1.47c-.11-.11-.03-.29.12-.29h.98s.09.02.12.05l1.71,1.71c.07.07.07.18,0,.24l-1.71,1.71s-.08.05-.12.05h-.98c-.15,0-.23-.19-.12-.29l1.47-1.47c.07-.07.07-.18,0-.24Z" style="fill: #fff;"/>
          <path d="m109.34,45.53l1.47-1.47c.11-.11.03-.29-.12-.29h-.98s-.09.02-.12.05l-1.71,1.71c-.07.07-.07.18,0,.24l1.71,1.71s.08.05.12.05h.98c.15,0,.23-.19.12-.29l-1.47-1.47c-.07-.07-.07-.18,0-.24Z" style="fill: #fff;"/>
          <rect x="135.03" y="43.06" width="92.38" height="5.66" rx="1.51" ry="1.51" style="fill: #525a6a;"/>
          <g>
            <path d="m138.73,47.69c-1,0-1.82-.82-1.82-1.82s.82-1.82,1.82-1.82,1.82.82,1.82,1.82-.82,1.82-1.82,1.82Zm0-2.97c-.63,0-1.15.52-1.15,1.15s.52,1.15,1.15,1.15,1.15-.52,1.15-1.15-.52-1.15-1.15-1.15Z" style="fill: #fff;"/>
            <path d="m140.9,47.85c-.07,0-.15-.02-.21-.07l-.97-.78c-.14-.12-.17-.33-.05-.47.12-.14.33-.17.47-.05l.97.78c.14.12.17.33.05.47-.07.08-.16.12-.26.12Z" style="fill: #fff;"/>
          </g>
          <g>
            <path d="m223.14,47.83c-1,0-1.82-.82-1.82-1.82s.82-1.82,1.82-1.82c.69,0,1.31.38,1.62.99.08.16.02.37-.14.45-.16.08-.37.02-.45-.14-.2-.39-.59-.63-1.03-.63-.63,0-1.15.52-1.15,1.15s.52,1.15,1.15,1.15c.1,0,.2-.01.29-.04.18-.05.36.06.41.24.05.18-.06.36-.24.41-.15.04-.3.06-.46.06Z" style="fill: #fff;"/>
            <path d="m225.01,44.76l-1.51.58c-.16.06-.18.28-.04.38l1.15.73c.12.08.28.01.32-.12l.36-1.32c.05-.17-.12-.32-.28-.25Z" style="fill: #fff;"/>
          </g>
          <path d="m271.32,46.59h-4.15c-.2,0-.35-.16-.35-.35s.16-.35.35-.35h4.15c.2,0,.35.16.35.35s-.16.35-.35.35Z" style="fill: #fff;"/>
          <path d="m269.24,48.59c-.2,0-.35-.16-.35-.35v-4.15c0-.2.16-.35.35-.35s.35.16.35.35v4.15c0,.2-.16.35-.35.35Z" style="fill: #fff;"/>
          <g>
            <path d="m277.67,48.24h-2.25c-.49,0-.88-.39-.88-.88v-1.3c0-.49.39-.88.88-.88h2.25c.49,0,.88.39.88.88v1.3c0,.49-.39.88-.88.88Zm-2.42-2.14v1.46c0,.12.1.21.21.21h2.17c.12,0,.21-.1.21-.21v-1.46c0-.12-.1-.21-.21-.21h-2.17c-.12,0-.21.1-.21.21Z" style="fill: #fff;"/>
            <path d="m278.83,47.06h-.56s-.33-.1-.33-.28.33-.19.33-.19h.54c.12,0,.22-.1.22-.22v-1.45c0-.11-.09-.21-.21-.21h-2.05s-.21.02-.1.13v.7c-.12.18-.27.33-.45.33s-.49-.33-.49-.33v-.69c0-.47.41-.85.91-.85h2.22c.48,0,.88.39.88.88v1.33c0,.47-.4.86-.9.86Z" style="fill: #fff;"/>
          </g>
          <rect x="82.48" y="51.31" width="92.61" height="115.24" style="fill: #1c2538;"/>
          <rect x="89.55" y="75.58" width="72.35" height="4.24" rx="1.44" ry="1.44" style="fill: #525a6a;"/>
          <rect x="89.55" y="85.5" width="60.8" height="4.24" rx=".76" ry=".76" style="fill: url(#radial-gradient);"/>
          <rect x="89.55" y="92.55" width="72.35" height="4.24" rx="1.44" ry="1.44" style="fill: #525a6a;"/>
          <rect x="89.32" y="101.03" width="65.04" height="4.24" rx="1.44" ry="1.44" style="fill: #525a6a;"/>
          <rect x="90.26" y="112.11" width="69.05" height="46.19" style="fill: #151c2b;"/>
          <rect x="91.55" y="111.58" width="1.41" height="46.19" style="fill: url(#radial-gradient-2);"/>
          <rect x="95.91" y="117.29" width="57.74" height="5.18" rx="1.44" ry="1.44" style="fill: #525a6a;"/>
          <rect x="95.88" y="134.29" width="52.55" height="2.83" rx=".76" ry=".76" style="fill: #525a6a;"/>
          <rect x="95.88" y="144.66" width="52.55" height="2.83" rx=".76" ry=".76" style="fill: #525a6a;"/>
          <g>
            <path d="m116.18,61.14c.07-.03.05-.11.06-.16.33-1.4,1.36-2.38,2.76-2.61.13-.02.17-.07.2-.19.44-1.9,2.04-3.35,3.97-3.61,2.4-.32,4.63,1.21,5.22,3.58.04.16.1.19.24.18.81-.04,1.58.1,2.26.57.73.5,1.2,1.18,1.4,2.04.07.33-.06.59-.34.65-.29.06-.52-.1-.6-.43-.33-1.39-1.73-2.22-3.21-1.73-.17.06-.33.16-.47.27-.2.15-.43.14-.6,0-.15-.12-.22-.33-.16-.53.05-.18.2-.26.34-.35q.28-.17.19-.5c-.42-1.63-1.89-2.81-3.52-2.84-1.73-.03-3.22,1.04-3.73,2.68-.05.16-.03.22.15.26.38.07.72.24,1.04.46.28.19.35.47.19.71-.17.25-.44.28-.72.1-1.32-.85-3.05-.3-3.59,1.18s.65,3.13,2.28,3.14c1.62,0,3.23,0,4.85,0,.21,0,.4.05.51.23.19.31-.05.72-.41.73-.21,0-.43,0-.64,0-1.43,0-2.85,0-4.28,0-1.64,0-2.95-1.04-3.33-2.63-.01-.05,0-.13-.07-.16v-1.05Z" style="fill: #fff;"/>
            <path d="m126.31,64.03h-.24v-1.28c-.21.13-.71.28-.71.28v-.33s.36-.09.47-.18c.11-.09.19-.19.23-.37h.24v1.89Z" style="fill: #fff;"/>
            <path d="m126.31,67.1h-.24v-1.39c-.21.13-.71.28-.71.28v-.33s.36-.09.47-.18c.11-.09.19-.19.23-.27h.24v1.89Z" style="fill: #fff;"/>
            <path d="m127.96,67.1h-.47v-1.39c-.13.13-.29.22-.47.28v-.33s.24-.09.35-.18c.11-.09.19-.19.23-.27h.36v1.89Z" style="fill: #fff;"/>
            <path d="m129.38,67.1h-.24v-1.39c-.21.13-.71.28-.71.28v-.33s.36-.09.47-.18c.11-.09.19-.19.23-.27h.24v1.89Z" style="fill: #fff;"/>
            <path d="m127.6,62.21c.19,0,.33.07.44.2.13.16.19.42.19.78s-.06.63-.19.79c-.1.13-.25.2-.44.2s-.34-.07-.45-.22-.17-.4-.17-.77.06-.62.19-.78c.1-.13.25-.2.44-.2Zm0,.31s-.08.01-.12.04c-.04.03-.06.08-.08.15-.03.1-.04.26-.04.48s.01.38.03.47c.02.08.05.14.09.17.03.03.07.04.12.04s.08-.01.12-.04c.04-.03.06-.08.08-.15.03-.09.04-.25.04-.48s-.01-.38-.03-.47c-.02-.08-.05-.14-.09-.17-.03-.03-.07-.04-.12-.04Z" style="fill: #fff;"/>
            <path d="m131.26,64.03h-.47v-1.39c-.13.13-.29.22-.47.28v-.22s.14-.09.26-.18c.11-.09.19-.19.23-.37h.45v1.89Z" style="fill: #fff;"/>
            <path d="m132.33,62.21c.19,0,.33.07.44.2.13.16.19.42.19.78s-.06.63-.19.79c-.1.13-.25.2-.44.2s-.34-.07-.45-.22-.17-.4-.17-.77.06-.62.19-.78c.1-.13.25-.2.44-.2Zm0,.31s-.08.01-.12.04c-.04.03-.06.08-.08.15-.03.1-.04.26-.04.48s.01.38.03.47c.02.08.05.14.09.17.03.03.07.04.12.04s.08-.01.12-.04c.04-.03.06-.08.08-.15.03-.09.04-.25.04-.48s-.01-.38-.03-.47c-.02-.08-.05-.14-.09-.17-.03-.03-.07-.04-.12-.04Z" style="fill: #fff;"/>
            <path d="m130.68,65.17c.19,0,.33.07.44.2.13.16.19.42.19.78s-.06.63-.19.79c-.1.13-.25.2-.44.2s-.34-.07-.45-.22-.17-.4-.17-.77.06-.62.19-.78c.1-.13.25-.2.44-.2Zm0,.31s-.08.01-.12.04c-.04.03-.06.08-.08.15-.03.1-.04.26-.04.48s.01.38.03.47c.02.08.05.14.09.17.03.03.07.04.12.04s.08-.01.12-.04c.04-.03.06-.08.08-.15.03-.09.04-.25.04-.48s-.01-.38-.03-.47c-.02-.08-.05-.14-.09-.17-.03-.03-.07-.04-.12-.04Z" style="fill: #fff;"/>
            <path d="m125.84,67.75c.14,0,.25.05.33.15.09.12.14.31.14.58s-.05.47-.14.58c-.08.1-.19.15-.32.15s-.25-.05-.34-.16-.13-.3-.13-.57.05-.46.14-.58c.08-.1.19-.15.32-.15Zm0,.23s-.06.01-.09.03c-.03.02-.05.06-.06.11-.02.07-.03.19-.03.36s0,.28.03.35c.02.06.04.1.06.13.03.02.06.03.09.03s.06-.01.09-.03c.03-.02.05-.06.06-.11.02-.07.03-.19.03-.36s0-.28-.03-.35c-.02-.06-.04-.1-.06-.13-.03-.02-.06-.03-.09-.03Z" style="fill: #fff;"/>
            <path d="m127.26,69.22h-.24v-1.08c-.22.09-.47.21-.47.21v-.25s.15-.07.23-.13c.08-.07.14-.14.17-.16h.3v1.41Z" style="fill: #fff;"/>
            <path d="m128.03,67.72c.14,0,.25.05.33.15.09.12.14.31.14.58s-.05.47-.14.58c-.08.1-.19.15-.32.15s-.25-.05-.34-.16-.13-.3-.13-.57.05-.46.14-.58c.08-.1.19-.15.32-.15Zm0,.23s-.06.01-.09.03c-.03.02-.05.06-.06.11-.02.07-.03.19-.03.36s0,.28.03.35c.02.06.04.1.06.13.03.02.06.03.09.03s.06-.01.09-.03c.03-.02.05-.06.06-.11.02-.07.03-.19.03-.36s0-.28-.03-.35c-.02-.06-.04-.1-.06-.13-.03-.02-.06-.03-.09-.03Z" style="fill: #fff;"/>
            <path d="m129.38,69.22h-.24v-1.1c-.14.09-.47.21-.47.21v-.25s.22-.07.31-.13c.08-.07.14-.14.17-.14h.23v1.41Z" style="fill: #fff;"/>
            <path d="m131.75,67.72c.14,0,.25.05.33.15.09.12.14.31.14.58s-.05.47-.14.58c-.08.1-.19.15-.32.15s-.25-.05-.34-.16-.13-.3-.13-.57.05-.46.14-.58c.08-.1.19-.15.32-.15Zm0,.23s-.06.01-.09.03c-.03.02-.05.06-.06.11-.02.07-.03.19-.03.36s0,.28.03.35c.02.06.04.1.06.13.03.02.06.03.09.03s.06-.01.09-.03c.03-.02.05-.06.06-.11.02-.07.03-.19.03-.36s0-.28-.03-.35c-.02-.06-.04-.1-.06-.13-.03-.02-.06-.03-.09-.03Z" style="fill: #fff;"/>
            <path d="m130.56,69.3c.14,0,.25.05.33.15.09.12.14.31.14.58s-.05.47-.14.58c-.08.1-.19.15-.32.15s-.25-.05-.34-.16-.13-.3-.13-.57.05-.46.14-.58c.08-.1.19-.15.32-.15Zm0,.23s-.06.01-.09.03c-.03.02-.05.06-.06.11-.02.07-.03.19-.03.36s0,.28.03.35c.02.06.04.1.06.13.03.02.06.03.09.03s.06-.01.09-.03c.03-.02.05-.06.06-.11.02-.07.03-.19.03-.36s0-.28-.03-.35c-.02-.06-.04-.1-.06-.13-.03-.02-.06-.03-.09-.03Z" style="fill: #fff;"/>
            <path d="m132.75,69.28c.14,0,.25.05.33.15.09.12.14.31.14.58s-.05.47-.14.58c-.08.1-.19.15-.32.15s-.25-.05-.34-.16-.13-.3-.13-.57.05-.46.14-.58c.08-.1.19-.15.32-.15Zm0,.23s-.06.01-.09.03c-.03.02-.05.06-.06.11-.02.07-.03.19-.03.36s0,.28.03.35c.02.06.04.1.06.13.03.02.06.03.09.03s.06-.01.09-.03c.03-.02.05-.06.06-.11.02-.07.03-.19.03-.36s0-.28-.03-.35c-.02-.06-.04-.1-.06-.13-.03-.02-.06-.03-.09-.03Z" style="fill: #fff;"/>
            <path d="m125.66,69.68c.1,0,.18.04.24.11.07.09.1.23.1.43s-.03.34-.1.43c-.06.07-.14.11-.24.11s-.18-.04-.25-.12-.09-.22-.09-.42.03-.34.1-.43c.06-.07.14-.11.24-.11Zm0,.17s-.05,0-.07.02-.03.04-.04.08c-.01.05-.02.14-.02.26s0,.21.02.25c.01.05.03.08.05.09s.04.02.06.02.05,0,.07-.02c.02-.02.03-.04.04-.08.01-.05.02-.14.02-.26s0-.21-.02-.25c-.01-.05-.03-.08-.05-.09s-.04-.02-.06-.02Z" style="fill: #fff;"/>
            <path d="m126.55,70.63h-.24v-.76c-.07.07-.15.12-.24.15v-.08s.2-.05.26-.1c.06-.05.1-.1.13-.16h.08v.94Z" style="fill: #fff;"/>
            <path d="m128.43,70.93c.1,0,.18.04.24.11.07.09.1.23.1.43s-.03.34-.1.43c-.06.07-.14.11-.24.11s-.18-.04-.25-.12-.09-.22-.09-.42.03-.34.1-.43c.06-.07.14-.11.24-.11Zm0,.17s-.05,0-.07.02-.03.04-.04.08c-.01.05-.02.14-.02.26s0,.21.02.25c.01.05.03.08.05.09s.04.02.06.02.05,0,.07-.02c.02-.02.03-.04.04-.08.01-.05.02-.14.02-.26s0-.21-.02-.25c-.01-.05-.03-.08-.05-.09s-.04-.02-.06-.02Z" style="fill: #fff;"/>
            <path d="m129.38,71.81h-.24v-.76c-.07.07-.15.12-.24.15h0s.14-.06.2-.11c.06-.05.1-.1.13-.23h.14v.94Z" style="fill: #fff;"/>
            <path d="m133.15,69.22h-.24v-1.1c-.2.09-.47.21-.47.21v-.25s.17-.07.25-.13c.08-.07.14-.14.17-.14h.28v1.41Z" style="fill: #fff;"/>
            <path d="m131.97,70.63h-.24v-.94c-.22.09-.47.21-.47.21v-.25s.14-.07.23-.13c.08-.07.14-.14.17-.3h.31v1.41Z" style="fill: #fff;"/>
          </g>
          <rect x="174.98" y="51.32" width="105.34" height="115.24" style="fill: url(#radial-gradient-3);"/>
          <g>
            <path d="m199.44,78.88c.06,0,.12.03.18.03.59.01,1.18.02,1.78.03,1.07.03,2.14.07,3.21.11.71.03,1.43.05,2.14.1,1.22.07,2.43.15,3.64.25,1,.08,2,.17,2.99.28,1.25.14,2.5.3,3.74.47,1.38.18,2.75.42,4.12.69,2.6.52,5.16,1.16,7.62,2.14.71.28,1.39.62,2.08.93.05.02.1.06.15.08-.08.39-.18.77-.24,1.16-.2,1.21-.21,2.42.09,3.63.48,1.91,1.65,3.25,3.4,4.09.65.31,1.34.53,2.05.68.05.01.1.02.15.02,1.05,0,2.1,0,3.14,0,.19,0,.37.02.55.06,1.58.39,3.14.81,4.65,1.4.49.19.96.42,1.44.63.05.02.11.05.18.08v-.76c.66.94,1.55,1.52,2.66,1.88-.05-.36-.1-.69-.15-1.02,0,0,.02-.01.02-.02.04.04.09.09.13.13.48.53.98,1.05,1.54,1.51.31.25.64.47.96.7.08.06.18.09.3.15-.04-.49-.16-.93-.21-1.43.15.16.28.3.4.42.63.64,1.27,1.28,1.9,1.92.23.23.47.37.82.31.29-.05.59-.04.89-.05.07,0,.13,0,.21,0,.33.5.65.99.98,1.48.29.43.6.86.9,1.29.07.1.14.2.19.31.16.3.13.41-.18.57.03.04.05.09.08.13.83.85,1.77,1.53,2.92,1.89.33.1.66.17,1.01.25-.04.03-.08.07-.12.1-.53.4-1.07.79-1.6,1.2-.15.12-.28.27-.44.41-.11-.12-.23-.25-.35-.37-1.04-1.07-2.18-2-3.5-2.7-.34-.18-.7-.32-1.04-.49-.44-.21-.86-.45-1.21-.79-.06-.06-.13-.12-.18-.19-.19-.22-.29-.46-.29-.75,0-.32-.02-.63-.03-.95-.03-.02-.06-.05-.1-.07-2.65-1.27-5.33-2.47-8.09-3.5-1.21-.45-2.43-.86-3.69-1.17-.51-.13-1.02-.19-1.54-.21-.95-.05-1.9-.05-2.86-.05-.54,0-1.07.1-1.57.31-2.28.97-4.09,2.41-5.23,4.5-.56,1.03-.91,2.12-1.06,3.28-.05.39-.08.79-.11,1.18-.03.53.05,1.06.15,1.58.23,1.25.65,2.43,1.33,3.5,1.05,1.67,2.53,2.8,4.39,3.45.71.25,1.45.41,2.19.51.12.02.31.03.43.04.78.04,1.56.07,2.34.11.86.04,1.72.08,2.58.12.69.03,1.37.06,2.05.12.74.06,1.47.13,2.21.23.95.13,1.89.27,2.83.45,2.85.54,5.62,1.36,8.26,2.58,1.87.87,3.62,1.92,5.2,3.27,1.62,1.38,2.94,3.01,3.9,4.92.49.98.87,2,1.13,3.06,0,.04.02.08.02.12,0,.03,0,.05,0,.11-.03-.04-.05-.06-.06-.09-.73-1.87-1.82-3.52-3.15-5.02-1.56-1.75-3.41-3.15-5.49-4.23-2.05-1.06-4.21-1.76-6.48-2.16-.08-.01-.17-.03-.27-.01.03.03.05.06.09.09,1.14.82,2.21,1.72,3.23,2.68,2.46,2.33,4.54,4.94,6.11,7.95,1.05,2.03,1.8,4.16,2.18,6.41.14.81.23,1.62.26,2.45.01.4.03.79.01,1.19-.05-.29-.1-.59-.16-.88-.23-1.24-.56-2.46-.95-3.67-.5-1.55-1.1-3.06-1.83-4.52-1.18-2.38-2.65-4.58-4.5-6.5-2.83-2.94-6.23-4.88-10.2-5.8-1.14-.26-2.3-.45-3.47-.52-.72-.04-1.44-.04-2.16-.05-.78-.01-1.56-.03-2.34-.04-.64-.01-1.29-.02-1.93-.06-.17-.01-.45-.04-.62-.07-1.67-.27-3.25-.77-4.69-1.63-2.92-1.74-4.54-4.45-4.94-8.06-.02-.18-.04-.49-.03-.68.01-2.22.35-4.36,1.28-6.37.94-2.01,2.37-3.61,4.43-4.69.11-.06.21-.11.32-.16.08-.03.15-.07.24-.12-.03-.06-.04-.12-.07-.17-.8-1.71-1.55-3.45-2.18-5.23-.36-1.02-.69-2.05-.9-3.12-.06-.28-.1-.57-.13-.85,0-.06-.04-.11-.1-.14-.6-.25-1.19-.53-1.79-.76-1.84-.71-3.73-1.25-5.65-1.73-2.13-.53-4.27-.98-6.43-1.34-1.41-.24-2.81-.46-4.22-.67-1.09-.16-2.19-.29-3.28-.42-1.17-.14-2.34-.27-3.51-.39-.8-.08-1.61-.15-2.41-.22-.91-.08-1.82-.15-2.73-.23-.64-.05-1.27-.09-1.91-.13-1.07-.07-2.15-.13-3.22-.19-.48-.03-.95-.04-1.43-.06-.49-.02-.98-.05-1.47-.09.61-.02,1.21-.04,1.82-.06.78-.02,1.56-.03,2.34-.05.05,0,.09-.02.14-.03h3.84Zm57.65,23.66s0-.05,0-.06c-.26-.36-.52-.72-.79-1.07-.03-.04-.09-.07-.16-.11-.06.19-.05.37-.04.54,0,.02.02.04.03.05.27.28.55.53.95.65Z" style="fill: #fff;"/>
            <path d="m187.82,89.53c.78-.16,1.55-.34,2.33-.49,1.48-.29,2.97-.57,4.46-.84,1.37-.24,2.75-.46,4.12-.67,1-.15,2.01-.29,3.02-.42.92-.12,1.84-.24,2.76-.35.67-.08,1.34-.15,2.01-.22.75-.08,1.5-.15,2.25-.23.52-.05,1.05-.09,1.57-.13.82-.07,1.64-.13,2.45-.19.5-.04,1.01-.06,1.51-.09,1.02-.05,2.04-.11,3.06-.15.67-.03,1.34-.04,2.02-.06.76-.02,1.52-.03,2.28-.04.89-.01,1.78-.02,2.66-.02.75,0,1.49.02,2.24.04.74.02,1.48.05,2.22.08.12,0,.24.02.39.03.12.49.25.98.38,1.49-.22,0-.42-.02-.62-.03-.4-.02-.81-.05-1.21-.07-.81-.03-1.61-.06-2.42-.09-.52-.02-1.04-.03-1.55-.04-1.72-.02-3.45-.03-5.17-.04-.77,0-1.53,0-2.3.02-.58,0-1.16.02-1.73.04-.8.02-1.6.05-2.4.08-.88.04-1.76.07-2.64.12-.91.05-1.81.1-2.72.16-.93.06-1.87.13-2.8.2-1.22.1-2.44.21-3.66.32-1.14.11-2.28.23-3.41.36-1.58.19-3.16.39-4.74.61-1.36.19-2.72.42-4.09.62-.09.01-.17.01-.26.02v-.04Z" style="fill: #fff;"/>
            <path d="m229.69,88.33c.16.54.33,1.06.49,1.61-.08,0-.14.01-.2.01-.72.02-1.44.02-2.16.06-.87.05-1.73.14-2.59.22-1.25.12-2.48.32-3.71.54-1.99.36-3.96.81-5.92,1.34-3.35.91-6.64,2.02-9.87,3.29-2.62,1.03-5.21,2.15-7.74,3.39-1.25.61-2.47,1.25-3.7,1.88-.07.04-.15.08-.22.11,0-.01-.01-.03-.02-.04.05-.04.1-.08.16-.11,1.96-1.21,3.98-2.34,6.03-3.39,3.84-1.96,7.8-3.64,11.88-5.03,3.3-1.13,6.65-2.06,10.06-2.77,1.47-.31,2.94-.58,4.43-.79.92-.13,1.84-.22,2.76-.33.1-.01.2,0,.32,0Z" style="fill: #fff;"/>
          </g>
          <path d="m169.5,110.61l-6.96-7.19c-.4-.42-1.11-.13-1.11.45l.03,10.01c0,.65.85.89,1.19.34l1.61-2.57c.35-.57,1.03-.84,1.68-.68l2.95.72c.63.15,1.07-.61.62-1.08Z" style="fill: #fff;"/>
        </g>
      </g>
      <g id="Web_Server" data-name="Web Server">
        <g>
          <g id="Server_-_small" data-name="Server - small">
            <g>
              <polygon points="1198.82 225.99 1188.37 234.31 1178.11 225.99 1178.11 125.74 1198.82 125.74 1198.82 225.99" style="fill: #1a1a1a;"/>
              <polygon points="1083.21 85.84 1190.4 38.83 1290.82 86.93 1186.63 131.51 1083.21 85.84" style="fill: url(#linear-gradient-5);"/>
              <polyline points="1187.51 129.99 1188.37 234.4 1086.82 189.27 1083.23 85.84" style="fill: url(#linear-gradient-6);"/>
              <polygon points="1187.51 130.03 1188.45 234.4 1289.06 186.45 1290.94 86.78 1187.51 130.03" style="fill: url(#linear-gradient-7);"/>
              <path d="m1202.62,158.73l75.6-34.69c.97-.44,1.61-1.38,1.68-2.44l1.24-19.74c.14-2.16-2.07-3.7-4.06-2.82l-76.68,34.13c-1.03.46-1.7,1.48-1.71,2.61l-.16,20.3c-.02,2.11,2.17,3.53,4.09,2.65Z" style="fill: url(#linear-gradient-8);"/>
              <path d="m1198.8,157.35c.66,1.36,2.31,2.06,3.82,1.38l75.61-34.69c.96-.44,1.61-1.38,1.67-2.44l1.24-19.73c.11-1.82-1.42-3.2-3.1-3.07.21.42.31.91.28,1.44l-1.24,19.73c-.07,1.06-.71,2-1.67,2.44l-75.61,34.69c-.33.14-.66.24-1,.26Z" style="fill: #1a1a1a;"/>
              <path d="m1203.45,190.02l75.6-34.69c.97-.44,1.61-1.38,1.68-2.44l1.24-19.74c.14-2.16-2.07-3.7-4.06-2.82l-76.68,34.13c-1.03.46-1.7,1.48-1.71,2.61l-.16,20.3c-.02,2.11,2.17,3.53,4.09,2.65Z" style="fill: url(#linear-gradient-9);"/>
              <path d="m1199.8,188.64c.66,1.36,2.31,2.06,3.82,1.38l75.61-34.69c.96-.44,1.61-1.38,1.67-2.44l1.24-19.73c.11-1.82-1.42-3.2-3.1-3.07.21.42.31.91.28,1.44l-1.24,19.73c-.07,1.06-.71,2-1.67,2.44l-75.61,34.69c-.33.14-.66.24-1,.26Z" style="fill: #1a1a1a;"/>
              <path d="m1204.69,221.18l77.06-34.6c.97-.44,1.61-1.38,1.68-2.44l1.24-19.74c.14-2.16-2.07-3.7-4.06-2.82l-78.14,34.04c-1.03.46-1.7,1.48-1.71,2.61l-.16,20.3c-.02,2.11,2.17,3.53,4.09,2.65Z" style="fill: url(#linear-gradient-10);"/>
              <path d="m1200.94,219.81c.66,1.36,2.31,2.06,3.82,1.38l77.07-34.6c.96-.44,1.61-1.38,1.67-2.44l1.24-19.73c.11-1.82-1.42-3.2-3.1-3.07.21.42.31.91.28,1.44l-1.24,19.73c-.07,1.06-.71,2-1.67,2.44l-77.07,34.6c-.33.14-.66.24-1,.26Z" style="fill: #1a1a1a;"/>
              <circle cx="1207.24" cy="137.91" r="2.28" style="fill: #a3ea2a;"/>
              <circle cx="1207.65" cy="147.02" r="2.28" style="fill: #a3ea2a;"/>
              <circle cx="1218.01" cy="133.35" r="2.28" style="fill: #f2f2f2;"/>
              <circle cx="1218.7" cy="141.64" r="2.28" style="fill: #a3ea2a;"/>
              <circle cx="1229.19" cy="128.38" r="2.28" style="fill: #a3ea2a;"/>
              <circle cx="1229.19" cy="137.5" r="2.28" style="fill: #a3ea2a;"/>
              <circle cx="1239.96" cy="123.41" r="2.28" style="fill: #eb0037;"/>
              <circle cx="1240.38" cy="132.11" r="2.28" style="fill: #a3ea2a;"/>
              <circle cx="1250.73" cy="118.85" r="2.28" style="fill: #a3ea2a;"/>
              <circle cx="1251.15" cy="127.36" r="2.28" style="fill: #1a1a1a;"/>
              <circle cx="1261.5" cy="113.47" r="2.28" style="fill: #a3ea2a;"/>
              <circle cx="1261.53" cy="122.61" r="2.28" style="fill: #a3ea2a;"/>
              <circle cx="1271.86" cy="108.5" r="2.28" style="fill: #a3ea2a;"/>
              <circle cx="1271.5" cy="117.2" r="2.28" style="fill: #a3ea2a;"/>
              <circle cx="1208.48" cy="168.57" r="2.28" style="fill: #f2f2f2;"/>
              <circle cx="1208.48" cy="177.26" r="2.28" style="fill: #eb0037;"/>
              <circle cx="1219.25" cy="164.01" r="2.28" style="fill: #a3ea2a;"/>
              <circle cx="1220.49" cy="172.29" r="2.28" style="fill: #eb0037;"/>
              <circle cx="1230.02" cy="159.04" r="2.28" style="fill: #a3ea2a;"/>
              <circle cx="1230.44" cy="168.15" r="2.28" style="fill: #eb0037;"/>
              <circle cx="1240.79" cy="154.07" r="2.28" style="fill: #a3ea2a;"/>
              <circle cx="1241.21" cy="162.77" r="2.28" style="fill: #eb0037;"/>
              <circle cx="1251.98" cy="149.1" r="2.28" style="fill: #a3ea2a;"/>
              <circle cx="1251.98" cy="158.21" r="2.28" style="fill: #eb0037;"/>
              <circle cx="1262.75" cy="144.12" r="2.28" style="fill: #1a1a1a;"/>
              <circle cx="1263.55" cy="153.07" r="2.28" style="fill: #eb0037;"/>
              <circle cx="1273.1" cy="140.09" r="2.28" style="fill: #a3ea2a;"/>
              <circle cx="1273.52" cy="148.82" r="2.28" style="fill: #eb0037;"/>
              <circle cx="1210.97" cy="199.63" r="2.28" style="fill: #a3ea2a;"/>
              <circle cx="1210.61" cy="208.33" r="2.28" style="fill: #a3ea2a;"/>
              <circle cx="1221.74" cy="195.08" r="2.28" style="fill: #a3ea2a;"/>
              <circle cx="1222.2" cy="203.36" r="2.28" style="fill: #a3ea2a;"/>
              <circle cx="1232.51" cy="190.11" r="2.28" style="fill: #1a1a1a;"/>
              <circle cx="1232.15" cy="199.22" r="2.28" style="fill: #a3ea2a;"/>
              <circle cx="1243.69" cy="185.14" r="2.28" style="fill: #a3ea2a;"/>
              <circle cx="1243.11" cy="193.83" r="2.28" style="fill: #a3ea2a;"/>
              <circle cx="1254.46" cy="180.58" r="2.28" style="fill: #eb0037;"/>
              <circle cx="1254.3" cy="189.28" r="2.28" style="fill: #a3ea2a;"/>
              <circle cx="1265.23" cy="175.19" r="2.28" style="fill: #a3ea2a;"/>
              <circle cx="1265.26" cy="184.72" r="2.28" style="fill: #1a1a1a;"/>
              <circle cx="1275.59" cy="170.22" r="2.28" style="fill: #a3ea2a;"/>
              <circle cx="1274.84" cy="180.47" r="2.28" style="fill: #a3ea2a;"/>
              <polygon points="1089.21 92.88 1093.89 185.55 1182.12 225.94 1182.12 131.91 1089.21 92.88" style="fill: #272728;"/>
              <polygon points="1089.2 92.88 1092.7 94.43 1096.6 184.69 1093.71 185.55 1089.2 92.88" style="fill: #1a1a1a;"/>
              <polygon points="1096.79 184.69 1182.12 224.06 1182.12 225.94 1093.89 185.55 1096.79 184.69" style="fill: #1a1a1a;"/>
              <line x1="1105.25" y1="183.16" x2="1104.25" y2="146.95" style="fill: #eb0037; stroke: #000; stroke-linecap: round; stroke-linejoin: round; stroke-width: 1.19px;"/>
              <line x1="1110.7" y1="185.64" x2="1109.71" y2="149.43" style="fill: #eb0037; stroke: #000; stroke-linecap: round; stroke-linejoin: round; stroke-width: 1.19px;"/>
              <line x1="1116.16" y1="188.62" x2="1115.17" y2="152.41" style="fill: #eb0037; stroke: #000; stroke-linecap: round; stroke-linejoin: round; stroke-width: 1.19px;"/>
              <line x1="1121.61" y1="191.6" x2="1120.62" y2="155.38" style="fill: #eb0037; stroke: #000; stroke-linecap: round; stroke-linejoin: round; stroke-width: 1.19px;"/>
              <line x1="1127.07" y1="194.08" x2="1126.08" y2="157.86" style="fill: #eb0037; stroke: #000; stroke-linecap: round; stroke-linejoin: round; stroke-width: 1.19px;"/>
              <line x1="1132.53" y1="196.56" x2="1131.54" y2="160.35" style="fill: #eb0037; stroke: #000; stroke-linecap: round; stroke-linejoin: round; stroke-width: 1.19px;"/>
              <line x1="1139.36" y1="199.08" x2="1138.37" y2="162.87" style="fill: #eb0037; stroke: #000; stroke-linecap: round; stroke-linejoin: round; stroke-width: 1.19px;"/>
              <line x1="1144.82" y1="201.56" x2="1143.83" y2="165.35" style="fill: #eb0037; stroke: #000; stroke-linecap: round; stroke-linejoin: round; stroke-width: 1.19px;"/>
              <line x1="1150.27" y1="204.54" x2="1149.28" y2="168.33" style="fill: #eb0037; stroke: #000; stroke-linecap: round; stroke-linejoin: round; stroke-width: 1.19px;"/>
              <line x1="1155.73" y1="207.52" x2="1154.74" y2="171.31" style="fill: #eb0037; stroke: #000; stroke-linecap: round; stroke-linejoin: round; stroke-width: 1.19px;"/>
              <line x1="1161.19" y1="210" x2="1160.19" y2="173.79" style="fill: #eb0037; stroke: #000; stroke-linecap: round; stroke-linejoin: round; stroke-width: 1.19px;"/>
              <line x1="1166.64" y1="212.48" x2="1165.65" y2="176.27" style="fill: #eb0037; stroke: #000; stroke-linecap: round; stroke-linejoin: round; stroke-width: 1.19px;"/>
              <polygon points="1100.69 84.3 1187.11 125.24 1273.54 86.58 1187.11 120.69 1100.69 84.3" style="fill: #97afbf; opacity: .25;"/>
              <polygon points="1096.14 84.3 1189.39 43.36 1273.54 84.3 1189.39 45.64 1096.14 84.3" style="fill: #97afbf; opacity: .25;"/>
            </g>
          </g>
          <g id="Artwork_47" data-name="Artwork 47">
            <path d="m1184.84,141.99c-20.91,0-37.92,17.01-37.92,37.92s17.01,37.92,37.92,37.92,37.92-17.01,37.92-37.92-17.01-37.92-37.92-37.92Zm-34.69,39.48h12.12c.11,4.39.65,8.58,1.58,12.46h-10.79c-1.7-3.84-2.7-8.05-2.9-12.46Zm36.26-19.04v-17.06c6.48.94,12.07,7.55,15.19,17.06h-15.19Zm16.17,3.17c1,3.93,1.6,8.23,1.72,12.77h-17.89v-12.77h16.17Zm-19.34-20.23v17.06h-15.19c3.13-9.5,8.71-16.12,15.19-17.06Zm0,20.23v12.77h-17.89c.12-4.53.71-8.84,1.72-12.77h16.16Zm-20.96,12.77h-12.13c.2-4.53,1.27-8.84,3.05-12.77h10.73c-.98,3.97-1.54,8.28-1.65,12.77Zm3.06,3.1h17.9v12.46h-16.27c-.95-3.84-1.51-8.05-1.62-12.46Zm17.9,15.63v17.43c-6.56-.95-12.21-7.72-15.32-17.43h15.32Zm3.17,17.43v-17.43h15.32c-3.1,9.7-8.75,16.48-15.32,17.43Zm0-20.6v-12.46h17.9c-.11,4.42-.67,8.62-1.62,12.46h-16.27Zm21.01-12.46h12.12c-.2,4.42-1.2,8.62-2.9,12.46h-10.79c.92-3.88,1.47-8.07,1.58-12.46Zm0-3.1c-.12-4.5-.68-8.8-1.65-12.77h10.73c1.79,3.93,2.84,8.24,3.05,12.77h-12.13Zm7.41-15.94h-9.93c-2.02-6.45-5.11-11.79-8.88-15.39,7.96,2.71,14.62,8.23,18.81,15.39Zm-41.16-15.39c-3.77,3.6-6.86,8.95-8.88,15.39h-9.93c4.19-7.15,10.84-12.68,18.81-15.39Zm-18.99,50.06h10.02c2,6.55,5.09,11.99,8.89,15.66-8.04-2.77-14.74-8.39-18.9-15.66Zm41.45,15.66c3.79-3.67,6.89-9.11,8.89-15.66h10.02c-4.16,7.27-10.87,12.89-18.9,15.66Z" style="fill: url(#linear-gradient-11);"/>
          </g>
        </g>
      </g>
      <g id="arrow_styles_for_diagrams_etc" data-name="arrow styles for diagrams etc">
        <g id="arrow_styles_for_diagrams_etc-2" data-name="arrow styles for diagrams etc">
          <g id="arrow_styles_for_diagrams_etc-3" data-name="arrow styles for diagrams etc">
            <path d="m1056.44,138.41l-47.11,27.09c-1.39.79-3.13-.2-3.13-1.81v-13.97h-157.59c-4.18,0-7.56-3.38-7.56-7.56v-11.1c0-4.16,3.38-7.54,7.54-7.54h157.62v-13.97c0-1.61,1.74-2.61,3.13-1.81l47.11,27.09c1.39.79,1.39,2.79,0,3.58Z" style="fill: url(#linear-gradient-12);"/>
          </g>
        </g>
      </g>
      <g id="arrow_styles_for_diagrams_etc-4" data-name="arrow styles for diagrams etc">
        <g id="arrow_styles_for_diagrams_etc-5" data-name="arrow styles for diagrams etc">
          <g id="arrow_styles_for_diagrams_etc-6" data-name="arrow styles for diagrams etc">
            <path d="m540.82,138.41l-47.11,27.09c-1.39.79-3.13-.2-3.13-1.81v-13.97h-157.59c-4.18,0-7.56-3.38-7.56-7.56v-11.1c0-4.16,3.38-7.54,7.54-7.54h157.62v-13.97c0-1.61,1.74-2.61,3.13-1.81l47.11,27.09c1.39.79,1.39,2.79,0,3.58Z" style="fill: url(#linear-gradient-13);"/>
          </g>
        </g>
      </g>
      <g>
        <g id="Artwork_83" data-name="Artwork 83">
          <g>
            <circle cx="685.59" cy="121.18" r="121.18" transform="translate(456.15 778.5) rotate(-80.78)" style="fill: url(#radial-gradient-4);"/>
            <path d="m761.89,56.51c1.23.67,2.4,1.46,3.69,2.03,1.39.61,1.18.03,1.07-.29.1.13.19.26.29.39.03-.23.06-.41.44-.52l-.03-.07q-.14-.8.43-1.46c-.09.52.08,1.04-.04,1.55-.07.01-.16.04-.23.07,0,0-.01,0-.02,0,.18.75.16.82.09,1.07-.06.01-.16,0-.21-.04,0,0-.01-.01-.02-.02.38.5,1.01.63,1.46,1.01-.03.29-.26,1.79-2.09,2.51,2.16,1.81,3.74,4.89,5.93,9.14q-.16-.33-.18-.46s2.02,2.86,2.01,4.39c-.02.02-.06.05-.08.07-.66-.38-.57-1.22-1.06-1.71-.02.04-.06.08-.08.12.06.25.22.47.25.73q-.19-.17-.33-.17c.02.42.34.8.18,1.24-.22-.05-.74-.48-.47-.82-.06-.05-.15-.1-.21-.13-.11.15-.2.26.12,1.03-.23-.06-.32-.07-.64-.06h-.11c-.37,0-.43-.02-.66-.12.04.21.17.86.01,1.7,0,0,0,0,0,0-.21.96-.73.23-.9,0-.17-.25-.27-.41-.5-.8.05.27.1.53.15.8.01.06.02.14.04.2.08.46.16.92.24,1.38-.43-.32-.63-.37-.75-.2-.08.11-.07.43-.07.59,0,.53,0,.64-.07.87-.7-.82-1.32-1.24-2.14-1.47.68-.04.96-.45,1.34-1.36.34-.81.47-1.11.89-1.4-.94-1.16-3.85-.03-4.27,1.07.27.09.34.13.63.34,1.41,1.17,2.26,3.47,2.43,4.34.23,1.2-.29,1.02-.44.91-1.09-.84-1.61-2.13-2.48-3.15q-.05-.06-.09-.06c-.03.05-.04.07-.06.36-.13-.35-.2-.47-.63-.91-.5-.51-.57-.8-.39-1.5.29-.92,1.88-5.41,4.81-3.72-1.69-3.28-.96-3.3-.52-3.31.88-.02.89-4.07-2.36-7.15.41.29.89.46,1.25.81q-.2-.31-.89-1.17s0,.02,0,.11c-.1.1-.17.17-.62,0-.04-.02-3.49-1.76-1.51-2.83-.23-.09-.52-.29-.65-.5-.6-.96-.95-2.05-1.55-3.02-.11-.12-.26-.29-.38-.41Zm-124.07-39.88c.35-.05.73-.24,1.64-.7,1.11-.56,1.26-.62,1.47-.57.05.1,0,.33-.83.78.18.1.42.08,1.11-.06.53-.11.58-.12.86-.15.1-.34.12-.42-.02-.61-.2-.27-.53-.31-.78-.48.49-.02,1.39-.06,2.99-.33,1.27-.22.87-.9.86-.91-.15-.11-.5-.1-.69-.09-1.3.09-2.48.46-2.83.65,0,.01,0,.03-.01.04-.18.02-.37.01-.54.06-.08.02-.08.14-.18.15.1.04.15.06.37.07-.08.03-.16.07-.24.1-.34-.16-.65-.05-1.1.4-.02-.2-.32-.35-.15-.57-.15.07-.61.28-.99.13-.05-.02-.12,0-.17.02-.2.12-.25.38-.47.47q.04-.11.01-.17c-.16,0-.39.37-.33.46.1.15.18,0,.29-.21.49.15,1.02-.08,1.5.13q-2.26.87-2.35,1.03c.07.21.59.36.6.36Zm-28.86,10.79c.72-.45,4-2.7,4.03-2.72-.03.03-.08.08-.11.11.36-.05.45-.06,1.55-.69h0c1.07-.68,2.57-.6,3.26-1.92-.3.02-.56.15-.84.22.54-.31,1.07-.64,1.63-.93-.21.22-.45.4-.67.6.43-.06,1.52-.77,1.6-.87-.1.04-.24.11-.33.17.33-.2.67-.38.98-.59-.1.06-.23.13-.34.18q.02-.06,1.45-1.34c.16.04.53.12.73-.32.01.05.03.11.04.15.52.16.78-.33,1.18-.46q-.23.01-.58.2c.92-.58.96-.59,1.7-.73.93-.31,1.53-1.13,2.39-1.56-.05.01-.11.02-.16.03,0-.05.01-.13.02-.18.57-.34,1.32-.22,1.84-.69-.05,0-.11,0-.15,0,.19-.11.42-.15.58-.31q-.13,0-.63.15c2-1.05,4.2-1.58,6.28-2.45.14-.06.32-.14.46-.2q-.78-.21-3.35.72c.78-1.19,2.82-.16,3.29-1.88-.11-.04-.27-.08-.38-.07-.57.07-1.32.29-1.65.42-.04.02-.08.04-.12.06l.06-.03h-.02s-.09.05-.09.05c0,0-.02.01-.03.02l.03-.02h0s.01-.01.01-.01c.04-.02.1-.05.15-.08q-.89.21-1.83.72.15-.13.5-.34c-.24.09-.46.23-.7.33.04-.03.1-.06.15-.08-.12.05-.27.12-.39.18.12-.06.28-.15.4-.21-.28.14-.63.31-.98.49-5.56,2.88-10.86,6.18-15.88,9.85-2.82,2.07-5.55,4.26-8.18,6.57,1.19-1.02,3.43-2.91,4.11-3.33-.31.3-.66.53-.99.8Zm153.03,27.78c-.34-.52-.67-.87-2.27-2.32-1.44-1.3-1.71-1.59-1.84-1.95.01-.03.03-.07.05-.1.21-.04.33-.07,1.11.18-.21-.58-.4-.98-1.33-1.74-1.39-1.13-3.15-1.62-4.58-2.68-1.47-1.09-2.59-2.57-4.05-3.67-.47-.36-1.17-.78-1.78-.76-.16.02-.2.03-.35.08.45.53,1.15.73,1.58,1.28,0,0,0,0,0,0,2.23,1.42,7.13,6.57,9.48,9.05,2.04,2.15,2.55,2.65,3.01,3-.4-.52-.59-.85-.85-1.42q.16.04.7.42c.53.37.98.68,1.11.62Zm-109.26-33.64c.03.08.06.15.37.24.06-.06.14-.13.18-.2-.03-.05-.08-.11-.11-.14.02-.06.08-.12.12-.17.79,1.21,1.7,1.44,2.8.69-.28-.57-.75-1.02-1-1.61.79-.21,1.52-.85,1.73-1.53.42.2.93-.1,2.15-.82,1.31-.77,2.84-.58,4.23-1.01.17-.05.39-.15.56-.21-.95-.16-1.9-.23-2.83-.21-.55.03-.79.06-1.22.18-.28.08-.47.33-.75.42-.98.33-2.01.47-2.97.85.17.23.09.32-.59.65-.03.01-3.06,1.94-3.01,2.35.24.14.54.11.77.29-.3.1-.36.11-.42.23Zm108.76,54.04s.03.04.05.06c-.02-.02-.03-.05-.05-.06,0,0,0,0,0,0Zm-160.71-31.96q-.9.6-2.58,2.48s-.16.52.29.53c.3,0,.69-.24.86-.34-.18.14-.27.21-.4.31,1.89-.95,2.27-.51,2.4-.03.24-.81,1.08-1.05,1.57-1.63.62-.75.06-.7-.25-.67-.17.02-.18.02-.25,0,.36-.42.9-1.05.78-1.32.46.17,1.19-3.09,1.17-3.14-.02-.04-.07-.08-.1-.12,1.06-.45,2.8-1.97,2.87-2.5-.14-.16-.36-.06-1.3.35q1.54-1.15,1.93-1.55c-.12.11-.28.27-.4.38-1.33,1-2.25,1.26-2.5,1.31.06-.12.15-.23.19-.35-.02,0-.04,0-.06,0,.5-.37.85-.7,1.12-1.07-.22,0-.35.12-.81.52q-.67.57-.68.61c-.43.35-.7.72-.75.78.26-.25.5-.51.75-.77,0,.02,0,.04,0,.06.01.01.03.03.04.04q.07-.02.16-.06c-.48.45-.73.87-.73.87.13.05.18-.05.28-.23,0,.02.01.04.02.06.09,0,.14,0,.44-.21-.01.01-1.8,1.52-1.9,1.63,0,0,1.04-.58,1.41-.88q-.26.27-1.03.91c.06-.05.13-.12.19-.18q-.71.48-1.17.98c.21-.14.33-.24.55-.42-.12.12-.42.43-.55.73.07,0,.21,0,1.1-.86-.71.79-.84.95-.87,1.25.1.1.1.11.55.12-.38.28-.9.84-1.02,1.18.01.01.03.03.04.04.03,0,.08-.02.11-.03-.53.56-.74.73-1.47,1.21Zm167.37,10.45c0-.08-.08-.3-.24-.64,0-.01-.01-.03-.02-.04,0,.01,0,.03,0,.04-.01.09-.04.25.02.42-.03-.01-.07-.03-.09-.05.09.11.34.4.34.26Zm-154.24-27.6c-.27.08-.56-.05-.83.06-.36.15-.59.32-1.04.72.24-.25.33-.35.34-.45-.15-.08-.76.27-1.6.9,1.36-1.21,1.51-1.41,1.6-1.55-.01,0-.03,0-.04,0-.2.14-.49.38-.86.71.07-.1.08-.12.1-.17-.05-.01-.11-.02-.77.58.01-.02.02-.04.03-.06-.05,0-.08-.01-.51.31.02,0,.05,0,.07,0,.02.06-.01.13,0,.19.01,0,.03.01.04.02-.06.04-.14.1-.2.14-.03.06-.03.07-.04.11,0,0,.02.02.03.02,0,0-1,.39-.98.66.05.02.05.02.14-.01-1.51,1.1-.85,1.27-.85,1.27.28.06,1.35-.26,2.41-.91.21-.13.49-.31.69-.46.36-.26.64-.62,1.05-.82-.02,0-.04-.02-.06-.03.04-.11.12-.3,1.3-1.24Zm147.68,49.22s0,0,0,0c-.02-.02-.03-.04-.05-.06.02.02.03.04.05.06Zm-156.35-45.25h-.02s-.08.09-.08.09c.23-.21.47-.4.7-.61-.26.22-.47.4-.6.52Zm69.89-16s0-.02-.01-.02c.45-.13.85-.18,1.61-.23-.56.06-.68.21-.79.4.84.28,1.57.81,2.45.98.76.14,1.2-.15,1.38-.27.05-.03.19-.13.34-.32,0,0,0,0,.01-.01t-.27-.11c-.3-.11-.26-.2-.01-.38-.92.02-1.3-.18-1.77-.42-.56-.29-1-.43-1.99-.42-.36,0-.57.02-.92.05.05.24.06.49-.41.41.35.08.56.11.89.14-.38,0-.61-.01-.94-.04.07.08.25.28.43.26Zm30.62,3.28q-.07.03-.12.02c.3.04.6.01.9.05,1.03.13,2.03.47,3.06.57.67.07,1.15-.01,1.25-.12-.1-.24-1.84-.51-1.86-.51h-.01s0,0,0,0t0,0h0c-.44-.03-.85-.17-1.28-.22-.79.04-1.41-.57-2.19-.55-.23.02-.25.08-.27.16.13.24.42.34.53.6Zm-24.78-1.87h.03c1.26-.01,2.06-.3,2.43-.47.04-.02.11-.05.15-.07-.44-.4-1.54-.78-2.21-.77-.86.05-.98.98-.7,1.2.13.11.26.11.31.11Zm33.73,2.31s.02-.05.03-.07c-.89-.56-1.64-.78-2.57-.75-.4.03-.66.08-1.09.24.11-.03.39.07.91.25.98.34,2.46.85,2.72.34Zm51.48,31.8s0-.06-.04-.12c-.09-.17-.38-.52-.53-.57h0c.02.1.2.36.32.5.06.08.21.25.25.19Zm1.02,1.95s.01-.02,0-.04c-.02-.05-.11-.1-.19-.12v.02c.02.18.16.17.19.13Zm.87,3.17s-.02-.03-.02-.05q-.07-.02-.12-.02c-.11.04-.14.17-.11.39,0-.03-.02-.05-.03-.08,0,.03,0,.06.32.73.14-.1.3-.3-.03-.97Zm-.56-2.57s.05-.01.05-.07c0,0,0,0,0-.01-.08-.08-.17-.18-.22-.17-.04.02.09.22.16.25Zm-110.64-38.43s.62.15.63.15c.18.02.36-.02.42-.03.01-.07,0-.09-.06-.15.05-.01.11-.03.16-.04q.54.22,1.64-.25.13.38,2.07-.29s-.06.1-.08.14c-.13.12-.14.14-.16.18.04.01.16,0,.35-.06l.06-.12.02-.03c.04-.15.04-.17.02-.22-.23-.1-.3-.11-.88-.06.08-.07.19-.16.27-.23-.38,0-.73.19-1.11.21,0,.02.03.17.39.15-.22.08-.46.12-.68.19h0c-.13,0-.33.02-1.17.22,0,.03.02.07.03.1-.14-.02-.26-.03-.42-.03.26-.08.41-.14.62-.22-.31-.08-.53-.12-.92-.13.19-.02.5-.1.68-.17.25.06.82.21.89-.03-.01-.02-.04-.05-.06-.06-.16-.05-.34-.01-.5-.08-.42-.19-.47-.18-.52-.17t.04.21c-.55.1-1.07.34-1.64.31l-.11.06c.03.07.03.08.02.12-.04.02-.06.04-.23-.03,0,.06,0,.06.02.15-.01,0-.03,0-.04,0-.17-.04-.38-.08-.75-.05,0,.1,0,.17.01.28q.95-.03.99-.02Zm109.67,36.52c-.04-.07-.08-.11-.11-.14h-.02s0,.12.15.4c.04-.06.04-.16-.02-.26Zm-113.73-36.7c.25-.04.72-.1,1.24-.06q-.32.06-.36.08s.01.03.02.04c-.23.05-.36.07-.54.07.11.25.45.27,1.29.08-.06.02-.14.05-.2.08.08.03.16.03.24.02-.07.09-.21.25.14.22.2-.02.53-.12.63-.15.02,0,.04-.01.06-.02-.25-.11-.48-.13-.79-.06.12-.03.2-.06.32-.14-.03,0-.07-.01-.11-.02.26-.07.52-.14.79-.2-.01-.17-.04-.46-.94-.44-.64.04-1.34.2-2.07.48.13.03.21.04.27.03,0,0,0,0,0,0Zm103.76,203.94c-.4.22-.8.46-1.2.68q1.21-.83,1.25-.97c-.1.02-.23.06-.33.08-2.17,1.2-4.14,2.73-6.42,3.74q-3.22,1.42-4.08,1.9c-1.74.98-1.91,1.22-1.94,1.38.79.31,9.71-4.74,12.08-6.37.19-.13.44-.31.63-.44Zm-1.14.88c.57-.04,5.6-3.42,7.3-4.83.02-.02.06-.05.08-.07-.38.12-.62.48-.98.63q.12-.17,2.22-2c-.32.25-.65.49-.97.75.15-.14.3-.28.44-.42-2.06,1.76-8.03,5.88-8.1,5.93Zm11.28-8.94c-1,.83-1.9,1.76-2.88,2.63.13-.07.23-.18.35-.26-.02.04-.08.09-.13.15.96-.9,1.92-1.82,2.91-2.69-.08.05-.18.12-.26.18Zm-15.55-181.7s-.02,0-.02-.01c0,0,.01,0,.02.01,0,0,0,0,0,0Zm-.05-.03s.02,0,.03.01c0,0-.02,0-.02-.01h0Zm-154.61,18.24c.3-.13,1.94-.91,4.48-4.02.26-.32,1.06-1.29.51-1.28-.03,0-.08,0-.11.01-1,.32-1.68,1.18-2.62,1.59-.17.45-.33.65-.7.88.19.21-.16.62-1.05,1.5-.47.47-1.91,1.89-.5,1.31Zm151.34,164.95s.01,0,.02-.01c-.02.02-.05.04-.07.06.01-.01.04-.03.05-.04Zm24.91-15.1c.06-.08.13-.15.19-.23h0c-.06.08-.12.16-.18.23Zm-8.69,16.15c-.18.17-.36.34-.54.5.24-.2.42-.37.54-.5Zm-18.3,5.7c-.29,0-.58-.05-.87-.05-.3.01-.91.04-1.95.71-1.2.77-2.19,1.81-3.32,2.68,1.36-.24,1.53-.35,3.1-1.4,1.5-1,2.68-1.79,2.96-1.91.02,0,.06-.02.08-.03Zm-102.91-127.38c.36.06.45.02.47,0,.04-.05-.11-.12-.25-.12-.14,0-.19.07-.22.13Zm-29.18-19.31s0,0,.01,0h0s-.01,0-.01,0h0Zm-17.43-7.12v.04c-.04.18-.1.38-.32,1.02-.4,1.17-1.06,3.13-.5,2.77.51-.33,1.45-1.93,1.9-2.92.56-1.22.23-1.21.12-1.2-.07,0-.28.06-.8.36-.4.23-.4.2-.41-.06Zm-13.44,3.79s.02-.03.03-.05h0s-.03.03-.03.05Zm14.57-4.47c.18-.25.72-1.01,1.28-2.17.2-.41.33-.74.39-.87-.04.02-.08.04-.12.06-.74.51-1.47,1.87-1.44,1.96h0c-.25.54-.27.78-.11,1.03Zm166.04,62.81c.06-.89-.25-1.43-.44-1.75-.02.04-.05.1-.08.15-.22.49-.56,1.34-.44,1.52.07-.03.11-.05.35-.36-1.02,1.72-2.13,3.48-2.23,3.63h0s-.14.21-.14.21c-.35.57-.53.95-.78,1.61,1.48-.78,3.61-2.95,3.76-5Zm6.84,19.82c.06-.22.04-.53,0-.76-.2.04-.46.1-.66.14-1.75.35-3.54.46-5.28.88-.48.12-.84.34-1.06.66-.13.19-.22.39-.29.54-.38.87-.54,1.8-.84,2.69-.57,1.7-1.89,3.02-2.4,4.74-.51,1.74-.1,3.54-.39,5.29.58-.19,1.02-.2,1.51-.02,0-.05.96-4.81,1.76-5.59.36.51.41.59.22,2.17-.28,2.22.91,1.8,1.16,1.69-.1.23-.39.93-.3,1.77.04.02.09.05.13.08.7-.33,1.3-2.13,1.28-2.8-.27.09-.43.18-.68.4.29-1.82-.5-3.52-.55-5.3,1.12,1.43,1.76-1.95,3.1-2.29h0c-1.46-.27-2.95.58-4.4-.1-.58-.27-.33-.73.85-1.58,1.28-.92,2.09-.82,3.68-.62,1.39.18,1.5.07,2.08-.5-.07.09-.16.21-.23.3q1.18-1.4,1.29-1.79Zm2.6,8.73c-.65.04-1.59.4-.82,1.07.11.09.23.17.32.22-.04.03-.05.04-.06.06,0,0,.01,0,.02.01.02,0,.03-.02.06-.06,1.12.62,2.27.67,2.61.12.24-.39-.09-.74-.15-.77.01.14.14.29.2.42-.62-1.05-1.93-1.08-2.18-1.08Zm-6.31-31.43h0s0-.02-.02-.02c0,0,0,.02.02.02Zm.54,27.02s0,0,0,0c-.04-.03-.06-.03-.09-.03.03,0,.06.02.08.03Zm-.74-23.93c.28.61,1.39-.4,1.41-.41.2-.18.31-.37.33-.55.03-.27-.08-.39-.4-.75-.7-.79-.86-1.03-.99-1.25-.04.02-.07,0-.14-.14,0,.01,0,.03,0,.04,0,.13-.02.24-.09.68-.11.73-.3,1.96-.11,2.37Zm-3.6,39.01l.57.16s-.03.07-.04.1c-.19.05-.44.1-.63.14q.11.12.52.28l.05-.04c.4-.11.78-.31,1.18-.43-.03.06-.06.14-.09.19.15-.03.37-.05.49-.14.15-.11.17-.32.31-.43.02-.02.07-.03.1-.05-.03,0-.06-.02-.09-.03h-.01c-.18-.03-.35.08-.53.02-.39.04-.57.07-.8.15-.45-.51-1.09-.03-1.1-.02-1.14-.33-2.94-.19-3.88-.02-.61.11-1.13.5-1.75.59-.46.06-.88-.11-1.33-.15.11.16.17.23.37.3-.38.28-.55.07-.84-.32-.7-.01-.98.1-1.17.18-.22-.68-.57-.85-.73-.84-.63.2-.21.75.43,1.57l.04-.02c1.04.28,2.07-.19,3.11-.02-.31-.77,3.61-.34,3.65-.33-.02.03-.04.07-.06.1.75-.29,1.44-.72,2.21-.94Zm-19.42-1.09h.04c-2.16-.45-3.52-.9-5.59-1.86,1.09-.33,1.9-1.19,2.94-1.61,1.76-.26,2.83,1.56,4.52,1.5,1.46-.05,2.83-.73,4.32-.57.1.01.24.02.34.04.99.2,1.12.68,1.23,1.11-.56.38-1.19.7-2.02.37.42.68.5.8,1.82,1.01,2.02.31,1.8,1.09,1.68,1.33-.02.04-.06.1-.09.13-.25.29-1.57.81-1.57-.5-.24.91-2.1.45-7.63-.95h.02Zm5.71-1.06s0,0,0,0h0s0,0,0,0Zm-5.57,1.06c.08,0,.23,0,.26-.02,0,0,0,0,0,0h0s-.36-.05-.38-.03c0,0,.01.01.12.05Zm24.37.99c.1-.22-.11-.2-.37-.17-3.12.73-5.08,3.38-5.57,4.35.18-.06.62-.2,2.01-.95h0c1.27-.7,3.64-2.58,3.93-3.22Zm-12.59-9s1.18-.37.22.8c.28-.32.62-.78.81-1.16.55-1.09.41-2.36.93-3.46.64-1.34,1.85-2.29,2.45-3.65.42-.95.38-1.37.33-2.06.77.96,1.09.41,1.2.12.26-.7.18-2.11-1.69-4.82q.26.17.42.24.01-.06-.59-1.04c.26.02,1.07.03.84-.84.02.03.05.07.07.1.03-.01.07-.03.11-.05-.01-.11-.03-.35-.18-.82.64.58,1.04-.16,1-.64-.01-.14-.09-.32-.15-.45h0s.03-.03.03-.03c.2-.23,1.98-2.25.98-2.27-.35,0-.99.29-1.3.43q.25-.17.33-.31-.2-.09-.78-.03c.62-1.39-.43-2.06-.7-2.04-.2.06-.23.11-.36.27,0-.04,0-.09,0-.12-.02,0-1.88.1-2.61,4.74-.04-.42-.09-.51-.35-.78-.35.68-.5,1.11-.67,1.85-.62-.14-.39-1.01-1-1.17-.71,1.96-3.9,4.63-4.34,3.95-.02-.03-.03-.08-.04-.11-.43,1.02-.59,1.69-.63,2.76-.63-.49-2.04-.25-1.96-1.38-1.1,1.09-1.56,1.54-1.39,3.78,0,.07,1,7.35,2.24,7.43.38.02.73-.58.9-.88.22,1.23,2.88,1.36,3.66.95-.41,1.71,1.41,1.05,2.22.68Zm-4.25-55.34s-.06.09-.09.14c.04-.04.06-.08.09-.14,0,0,0,0,0,0,0,0,0,0,0,0Zm9.66-4.22c.51-.92.68-1.28.59-1.65-.01-.03-.03-.06-.04-.09.1.17.23.4.25.92.04.67-.14,1.51-.29,2.25-.29,1.39-.42,2.14-.19,2.85q-.39-.49-.78-.77s.04.03.06.03q-.12-.11-.15-.15s.1.05.14.08c-.77-.96-.49-1.88.4-3.47Zm-.14,3.73l-.21-.2s0,.02,0,.02l.15.13.05.05Zm.01-.07l-.07-.06h0l.08.06Zm.84,1.11s.01,0,.02.01c-.13-.17-.26-.34-.4-.5,0,0,0,.01,0,.02.06.14.16.33.38.47Zm-23.35,60.65s0,0,0,0c-.08-.09-.13-.14-.15-.14,0,0-.02,0-.02.02,0,.04.08.2.16.13Zm-13.69-25.06s0,0,0,0c0,0,0,0-.01,0h0Zm14.51,8.85h0s0,0,0,0c0,0,0,0,0,0Zm-14.37-32.27c-.07-.12-.17-.27-.25-.39q-2.1,1.36-2.69.58c-.84-1.09-1.06-2.76-1.17-3.57-.47-3.44-3.29-5.46-4.93-8.2-.19-.32-.43-.76-.62-1.09-.19-.31-.49-.7-.71-1-.29.03-.68.06-.98.08q-.18,1.42-.75,2.08c-.17-.23-.36-.57-.49-.83-.14.23-.38.5-.61.64-.27-.08-.65-.13-.93-.11-.09.12-.22.28-.31.4-.09-.1-.22-.22-.31-.32-.11.07-.26.17-.37.24-.19-.19-.33-.55-.36-.82-2.2,5.08-8.05,7.08-10.29,12.14-2.16,4.88-.71,10.5-3.14,15.33-.36.71-.83,1.78-1.51,2.19-2.8,1.68-15.5-21.24-11.53-28.86-.13-.09-.3-.21-.42-.3-.03-.27-.11-.62-.2-.87-.13-.04-.31-.08-.44-.12.08.16.21.37.26.55.36,1.41-1.51,2.85-2.62,2.68-2.03-.31-1.66-2.71-3.1-3.54,1.42-.16,1.59-.59,1.76-1-1.23.06-2.26-.15-3.93-1.4-2.54-2.15-2.89-3.46-3-3.89-4.59-2.45-9.81,1.59-14.34-1.39-.45-.29-1.03-.71-1.49-.98-2.13-1.27-4.63.12-6.79-.92-2.73-1.31-2.46-5.25-5.52-6.28-.18-.06-.44-.04-.63-.06,0,0-.66.78-1.74,1.51h0c1.07.26,1.23.51,1.68,2.62l3.26,6.98c1.78,1.98,8.31,1.81,8.62-3.53,1.24,1.32.23,3.25,1.25,4.63,1.02,1.38,3.13,1.05,4.06,2.57.29.47.34,1.29.23,1.84-.36,1.77-2.85,6.57-9.75,12.03-.14.11-13.55,10.66-16.52,7.8l-11.11-29.15c-.13-.33-.3-.77-.41-1.11-.72-2.13-.55-3.38-.35-4.83-1.37,1.83-1.35,2.47-1.3,3.73-1.34-1.84-1.78-2.89-1.94-4.66-1.38,2.38-1.51,4.16,1.24,9.04q2.07,3.67,5.18,14.85c1.32,4.76,2.73,7.3,5.02,9.07,1.08.83,3.08,2.39,3.52,3.43.57,1.36-.04,1.85-1.14,2.73q5.66,2.13,7.08,1.71,7.38-2.21,7.45-1.81c.06.32,1.29,8.04-10.42,22.74-11.59,14.55-3,22.65-2.9,22.72-.02.18-.04.41-.06.59.2,2.84,2.05,5.23,2.2,8.09.19,3.58-3.86,4.22-4.83,7-1.25,3.58,3.17,5.71,2.35,9.18-.31,1.29-1.38,2.09-1.96,2.52,1.71,1.62,3.32,3.15,1.18,8.82-2.07,5.5-6.88,4.12-6.92,4.1-.94-.42-12.08-12.27-12.56-12.78-3.49-3.71-10.78-14.74-10.82-14.82-1.97-3.79-1.45-8.24-3.15-12.1l-.18-.35c-.04-.07-4.38-7.34-3.49-9.13-2.83-1.39-8.52-8.32-6.33-12.2-2.45-2.65.11-6.92-3.03-9.35-.12.12-.28.27-.4.39-.16-.06-.37-.13-.53-.18-.19.24-.59.46-.89.5q-4.37-4.38-5.61-3.47c-5.86,4.35-6.58,2.67-7.78-.11-.03-.06-2.81-8.07-3.55-19.25-.3-4.56,1.54-8.9,1.4-13.44-.03.17-.06.39-.08.56.67-9.6,10.98-26.45,11.08-26.6,1.58-2.3,2.3-3.18,2.75-3.37.63-.27,1.06.29,1.6.4.49.1.69.02,2.63-1.31,1.77-1.22,2.46-1.58,3.51-1.85q.45-.11,5.02-.45c1.02-.03,1.7-.05.74,2.1-.67,1.5-1.84,2.77-2.03,4.48.45,3.13,7.92,9.03,9.32,4.53.64-2.08,1.43-2.52,1.97-2.53.23,0,.55-.03.78.01,2.26.42,3.62,2.53,5.8,3.1,2.12.56,3.97-1.19,6.09-.73.15.32.4.73.63,1,3.12-.38,4.47-3.15,5.56-5.39,2.08-4.47,1.36-5.39,1.09-5.56,0,0-5.1.14-6.19.21-2.18.14-3.43-.28-3.84-.41.07-.13.17-.31.24-.44-.32-.1-.76-.15-1.1-.15.15-.84.06-1.72.46-2.52-1.35-1.45.57-2.77.39-4.19-.94-.64-1.75-.88-2.91-.14-.03.34.05.81.2,1.11-.31,0-.72.06-1.01.13-.03.16-.06.36-.08.52-.14-.35-.38-.79-.59-1.09-.37,1.57.81,2.95.58,4.51-.09-.13-.21-.31-.31-.44,0,.28-.16.67-.35.88-.23-.18-.63-.3-.92-.26.1.14.24.32.34.45-.24.22-.57.49-.82.68-.03.37-.07.86-.11,1.23-.14.09-.32.2-.45.29-2.01-1.35-.79-2.9-.39-3.42-.33-.02-1.01-.07-1.2-1.03-.22-1.15.15-2.94.15-2.95.41-1.87-.9-3.34-1.16-5.06-.07-.45-.38-1-.43-1.45-.04-.4.12-.97.35-1.31-.07-.15-.17-.34-.24-.49-.14.05-.33.12-.47.17-.14-.07-.33-.17-.47-.24-1.49,1.07-2.05,1.48-1.83,3.63.22,2.21,2.42,3.44,2.77,5.58-.71.27-1.36-.2-2.05-.15l-.03.02s-.21,2.77-1.48,4.26c-1.06-.13-1.75.92-2.78.86-.84-1.47,1.91-1.46,2.62-2.45,2.21-3.09-1.05-8.68-1.09-8.73-1.12-1.77-2.96,0-4.44-.03,0,0-.01,0-.37.02-.03,0-4.82,3.86-7.33,8.2-1.67,2.91-3.42,4.59-5.35,5.14-.7-.51-.61-1.41-1.04-2.05-.15.04-.35.09-.5.14q.99-2.24,1.49-3.19h0s-.07.09-.11.13q3.87-8.19,7.14-8.05c1.72.07,6.01-5.18,4.35-8.09.98-.61,1.03-.63,2.53-1.02.98-2.46,11.4-8.23,11.49-8.26.11.1.25.24.36.34,1.14-1.23,1.81-2.82,2.94-4.05.19-.19.45-.43.65-.6l.05-.03c.88-.73,1.25-.78,1.75-.86-.87.93-1.48,2.11-2.59,2.83.17-.01.4-.03.57-.05q-.56.86-1.25.92c.07-.16.16-.38.23-.55-.57.93-.53,1-.23,1.55,0,0,.91-.11,2.17-.2-.13.09-.29.2-.42.28.08.14.19.33.27.48.05,0,4.78-.43,5.79-1.09,1.5-2.23,2.77-3.68,3.79-4.33.27.15.57.45.73.71,1.69-.2,1.3-2.04,2.22-2.86q.59-.52,5.3-.8c-.05-.19-.12-.44-.17-.63-.16-.08-.38-.2-.54-.28-.02-.11-.05-.25-.07-.35q-4.21.75-4.99.48,1.27-1.94,6.12-5.67c-1.96-1.39-2.51.28-2.69.83-6.57,2.54-6.24,4.53-6.08,5.49q-7.03,6.12-8.75,6.23c.06-.18.15-.42.21-.6q-1.42,1.46-1.83,1.77c-.14-.06-.33-.15-.47-.21q.89-.33,1.03-1.39c1.96.38,3.21-3.54,3.74-5.21-1.46,1.18-2.09,1.52-3.24,1.96-.12-.09-.29-.2-.41-.29.09-.54.45-.99.46-1.55,1.2-1.12,1.89-2.75,3.49-3.47,1.06-.5,1.19-.56,2.1-1,2.59-1.27,4.91-3.01,7.41-4.45h.05c1.13-.74,1.4-.92,1.64-1.14,0,0,0,0,0,0,0,0,0,0,0,0,.07-.07.14-.14.24-.24-.35.1-.83.17-1.18.19.92-.56,1.97-.86,2.92-1.35-.1.12-.23.27-.33.38,1.22-.1,2.12-.97,3.24-1.3,0,.15-.02.35-.03.49q1.23-.32,1.44-.51c.17.03.39.07.56.09.46-.61.54-.72,1.64-1.11.14.08.32.19.46.27-.3.18-.68.45-.96.66,1.03-.49,2.07-.66,2.51-.73-.12.09-.29.21-.41.3.18-.05.42-.13.6-.18.15.09.36.21.51.3-.35.12-.82.28-1.17.4q1.65.11,1.85.14c.03.15.07.34.1.49,2.77.6,3.81.82,4.1,1.52.39.93-1.28,2.08-2.06,2.23-1.49.3-2.6-.86-3.96-1.03q.87,3.51,1.84,3.27c-.07-.31-.24-.71-.4-.99,2.01-.06,3.52-1.78,5.57-1.71.1.12.22.28.32.4q.77-1.72.92-2.31c-.08-.13-.18-.3-.27-.43,1.34-.69,2.03-.42,2.07.83-1.17.05-1.4.08-1.56.99,2.75.23,4.68-2.35,7.41-2.16-.27.2-.62.48-.88.69,4.1-.2,4.7-.51,5.47-.92q-.05-.07-1.56-1.21,6.76,2.02,7.03,1.94c-.84-.88-1.19-1.71-1.04-2.45.24-1.18,1.76-1.27,2.03-2.42.32.02.74.12,1.04.23h0s0,0,.09,0c.15.05.34.12.49.17.7,1.51.42,3.27,1.2,4.76-.42,1.11-.47,1.22-1.95,1.85,3.47-.23,3.09-1.58,2.89-2.31,1.48-.76,2.25.77,3.4,1.05h0c-1.6-1.37-3.81-1.99-4.92-3.97q.76-.5.97-1.3c.13.09.29.21.42.3.01.39.08.91.16,1.29q.32.16,2.2.28-.18-.27-1.54-.95c.15.03.34.08.49.12.12-.09.27-.22.39-.31-.13-.08-.29-.19-.42-.27.01,0,2.35.53,3.81.58-.69-.95-1.07-1.18-2.27-1.38h0s0,0,.22-.1c1.31-.33,2.71.05,4-.49-.14-.06-.34-.14-.48-.2-.28-1.35.42-1.34,3.38-1.29.21-.22.6-.42.9-.49,0,0,.83.24,2.89.14-.13-.1-.29-.23-.42-.32.14,0,.32,0,.46,0q.52-.68,1.22-.83c5.95-.13,10.74,4.31,16.68,4.21.08-.12.19-.28.27-.4-.04-.15-.1-.34-.15-.49,2.92.73,5.45,2.97,8.74,2.31-.05-.17-.11-.39-.16-.56,1.48-.48,2.85.27,4.28.4,0,0,0,0-.33-.08-.11-.09-.25-.22-.36-.31q.55-.02,1.49.08c-.35-.15-.81-.35-1.16-.5-.05-.14-.12-.33-.17-.47,5.49-.46,5.87-.15,7.29.99,2.49,2,5.38.62,8.06.96,2.36.3,4.75.33,7.11.62.29.04.66.21.91.37-.14-.04-.32-.1-.46-.14,1.95.71,2.26.76,3.19.92q-2.12-.89-2.37-1.4c4.65-.26,15.99,2.86,17.84,4.9-.15,0-.36,0-.52,0,.22.11,1.4.67,2.37,1.42-2.71,1.42-4.21-1.38-6.39-1.82q1.1.73,1.48,1.02c-.08.12-.19.28-.26.4,1.88,1,3.92,1.7,5.67,2.95-.63-.24-.74-.28-1.64-.36.11.2.25.46.36.66-.1.12-.24.29-.34.41.59.53.71.65,1.37,1.76-.07.13-.16.3-.23.43-2.33-.51-2.89-.37-3.4-.24.19,1.23,3.42,3.07,3.45,3.09.03.02,3.71,2.22,5.6,4.42-.02.18-.04.43-.06.61q.46.57,1.79,1.87h0s0,0-.22.09c.3,1.14,1.14,1.97,1.69,2.96.11.12.22.7.32,1.21-.12-.12-.27-.29-.38-.41l-.02-.02c-.07-.17.03-.42.08-.6-3.72-4.02-8.66-6.5-12.72-10.09h.02c.1-.15.24-.36.34-.51-1.57-4.26-4.49-5.6-5.33-5.59.87.64,1.1.79,1.9,1.27-.15,0-.34.02-.49.03.1.37.28.84.45,1.18-2.51-1.7-2.78-1.77-3.92-2.04-.1.11-.22.25-.32.35q.11.87,3.38,3.55c-1.12,1.56-2.39.43-2.63.19.12-.09.27-.21.39-.3h0s0,0-.07-.03c-.28-.04-.66-.07-.94-.08h-.16s-.02,0-.34,0c-.34-.01-.8-.05-1.14-.11.02.01.04.03.06.05-1.52.4-3.16-1.29-4.6.28-1.15,1.25-1.25,7.31,4.15,7.41q-1.57-1.42-1.75-1.91s2.1,1.3,2.47,2.38c.23-.14.57-.29.83-.37-.23-.2-.48-.55-.58-.84,1.22,0,2.97.35,4.4,1.96-.14-.02-.33-.05-.47-.07,8.25,4.91,10.34,14.19,9.05,16.97-.17.06-.39.14-.55.19q-.62-.3-1.28-1.03c-.09.11-.22.25-.32.35-.07-.12-.18-.28-.25-.4.15.34.25.84.22,1.2-.15-.02-.35-.06-.5-.08,2.11,1.8.15,4.57,1.54,6.54,1.22,1.74,3.63,2.15,4.63,4.13q.4.79.99,3.53c-.28.04-.64.14-.9.24,0,.14,0,.32,0,.46-2.73,1.05-3.82-4.13-3.73-4.62.11.09.27.21.38.3-.13-.8-.21-1.03-1.45-1.67l.06-.04h-.12s.04.02.06.03c-.9-.31-1.87-.38-2.75-.77-.08-.29-.05-.74.1-1-1.1-.52-1.57-2-3.03-2-1.34,0-.66,2.05-2,2.02-.15,0-.33-.1-.48-.14-.14-1.12-.28-1.16-.85-1.34.09-.16.28-.36.31-.54.06-.4-.61-2.17-1.85-1.67-.04.02-3.57,2.45-1.88,4.33,2.09,2.31,5.18.74,7.55,1.97-.23,1.24-1.62,1.98-1.45,3.39.07.54.12.97,2.27,3.35,1.86,1.99,3.34,3.35,4.78,4.43-.11.07-.26.18-.36.25-.74-.34-1.2-1.11-2.03-1.3.08.03,1.94.84,2.18,3.25-.09.1-.2.23-.29.32q2.06.44,2.45,1.95c-.04.13-.19.26-.27.36.52,1.12.51,1.24.41,1.98-.14.02-.33.05-.47.07-.23.69-.52,3.93.07,5.27h0s0,0,.15-.15c-.29,1.81-.33,2.09-1.7,3.44-1.5,1.47-3.62,1.98-5.2,3.34-.16-.52-.21-.71-.86-1.14.5,1.03.59,1.21-.63,2.78-.03-.03-2.87-2.26-3.49,2.81,1.03.86,1.47,1.65.99,3.62-.47,1.48-1.92,1.8-2.74,1.86.17-.3.38-.7.53-1.01q.18-4,.82-4.4c0-.58,0-1.92-.86-2.31-.47-.21-5.73.25-5.38,3.22.66,5.54,6.63,8.21,7.4,13.69.27,1.95-.52,8.66-3.43,6.51-.09,1.45-1.43,5.25-3.38,4.22.19-.31.45-.73.65-1.04-1.07-4.3-5.87-5.7-7.46-9.59-3.41,2.29-2.33,7.82-2.2,8.44.55,2.55,2.83,3.87,4.17,5.87,2.29,3.42,1.58,7.68,3.18,11.29.08.17.33.28.46.41-3.39.62-4.63-2.15-5.97-8.2-1.13-5.09-1.69-6.75-3.56-5.26-.45-1.71-.64-2.42-.25-5.47,1.04-8.03-2.54-13.97-3.66-15.6.05,1.83-.34,2.01-.94,2.27Zm-83.46-54.88q.33.15.76-.02c-1.13,1.73-.89,2.53,1.27,4.29,1.36,1.1,1.67,1.49,1.79,2.2-1.52-.23-2.25,2.52-2.13,3.44.18,1.49,1.51,2.21,2.58,2.78.31.17.32.22.35.34h.04l-.02.04c1.5.91,2.76-.63,4.19-.43,0,0,.02,0,.03,0-.07-5.34-.11-8.56-2.4-10.81-1.61-1.58-1.66-1.94-1.75-2.54.19-.25.63-.4.93-.46q-.38-.85,2.19-1.37c-.4-.31-.47-.4-.27-1.28.14-.62.35-1.55-1.58-1.64-2.11-.1-2.86,2.23-4.69,2.62-.25-.01-.41-.1-.58-.31-.02,1.09-.94,1.99-.71,3.14Zm-14.1-3.89c-.46.79.46.95,2.91,1.37.21-.56.57-1.49,1.23-1.24-.01-.3-.01-.35-.35-.52-.31-.15-.32-.2-.31-.53.57.08,1.14-.08,1.73-.5.07-.05.15-.11.21-.16-1.21-.63-3.43.15-5.01,1.25q.09-.08.12-.13s-.33.24-.49.4c.05-.04.12-.1.17-.14l-.17.15h-.02s-.05.05-.05.05h.01Zm2.74,9.27c2.01.18,3.1-1.1,3.38-1.5,1.06-1.47-.98-3.98-3.56-5.56-1.84-1.13-3.68.94-5.52,0q-.1-.4,1.54-1.83c-1.36-.74-2.27-1.14-3.52-.53l-.17-.19.09.16.05.04c-1.17.63-1.95,1.98-2.84,3.55-1.04,1.82-1.43,2.14-2.38,2.92.37.27.51.37.81.97.25.5.64,1.26,1.05,1.36,2.29.52,3.89-1.96,6.18-1.44,1.75.4,3.03,1.9,4.88,2.07Zm70.33,66.26c-.07.01-.14.08-.3.25.15.34.19.37.2.34,0-.03,0-.1-.02-.16.02,0,.04-.02.06-.02l.03-.04c.05-.07.09-.15.09-.23,0-.04,0-.15-.08-.14Zm38.89,15.5s0,0-.01,0c0,0,0,0,0,0,0,0,0,0,0,0Zm55.12,11.78s-.03.02-.03.02c.56-1.94.42-3.83-.1-3.77-.12.04-.21.12-.36.33.02.11.03.2.04.45-.01-.02-.04-.03-.06-.04-.11.07-.14.18-.14.24q.06,0,.19-.11c.07.59-.08,2.45-.08,2.46-.04.11-.19.2-.26.3-.33.52-.54,1.1-.93,1.59-.23.29-.36.25-.45.18-.38-.29-.57-.44-1.16.14q-.1.09-.33,1.32c.07.04,1.75.89,3.1-3.04-.02.59,0,.79.06.89.01,0,.03,0,.05-.01v.03c.22-.23.28-.37.37-.62l.09-.22v-.09s-.03.03-.03.03c0-.02.02-.06.03-.08Zm-94.28-26.82c.12,2.28.03,3.94-.24,4.94-.67,2.41-2.18.2-2.19.17-.65-1.13-.36-2.48-.02-4.03.36-1.64.53-2.69-.02-3.58-.09-.01-.3-.07-.34-.35l.14.08s-.05-.06-.07-.08c.11-.09.19-.12.35-.13.16,0,1.03.03,2.07,1.32.27.33.66.97.29,1.46-.02.02-.03.04.05.2Zm-1.75-2.33c-.24-.29-.37-.14-.37-.13,0,0-.06.16.15.17.02,0,.09,0,.21-.03,0,0,.01,0,.02,0Zm86.64,23.62c-2.22.04-2.44,2.88-4.46,3.2-.82.13-.35-2.43-.35-2.45-.01.04-.03.08-.05.12.26-2.37.38-3.45-1.2-3.29-.69.19-1.3.51-2.08,1.45.13-.74-.12-.91-.23-.98-.14.05-.19.07-.36.35.94,1.62,1.76,3.02,3.28,2.59-.56.73-1.53.66-2.22,1.15,0,0,0,0,.01,0,.99.85-.26,1.91.27,2.81.2.02.34.03,1.09-1.45-.07.67-.11,1.04.23,1.54.39.56,1.12.62,1.59,1.07.74.7.74.78.91,5.49-.1-.24-.42-.98-1.94,1.97.78-.35,1.67-.32,2.45-.67-.8,2.28.86,2.18,1,2.1.16-.08,1.57-1.19,1.34-1.73-.03,0-.08-.01-.11-.02h0q.75-.37.92-.53s0-.1,0-.14l.04.11c.18-.23.3-.38.48-.92.19.7.94,1.05,1.12,1.77.28,1.14-.33,2.31.16,3.44.6,1.37,1.3.71,1.31.7.25-.27.29-.81.34-1.18.21-1.34-.41-2.64-.22-3.98.19-1.39,1.12-2.53,1.3-3.91.05-.4,0-.94-.06-1.33-.01-.07-1.97-7.3-4.55-7.25Zm-47.08,8.24q-.13-.34-.16-.47h0s.01-.01.02-.01c.43-.21.95-.04,1.36-.31.44-.29.99-.82,1.17-1.32.67-1.94.06-3.83-.27-4.85,1.23,2.09,1.52,2.58,2.71,1.92-.42-.42-.13-.84.04-.9.08.05.19.12.26.07l-.21-.21h.07s-.07-.07-.11-.1h-.02q-2.3-2.22-3.16-1.64c-.72-1.31-1.68-2.48-2.22-3.9-.31-.81-.13-1.73-.53-2.53-.29-.57-.58-.67-1.17-.87-.18.31-.19.37-.16.65-.3-.38-.49-.57-.85-.81q.24.1.43.06c.24-.84-.97-1.83-.98-1.84-.96-.78-2.17-1.2-3.12-1.99-1.22-1.01-2.01-2.44-3.33-3.36-.45-.31-1.38-.96-2.6-.95-.11,0-.22.01-.33.02,1.86.37,4.74,6.34,8.5,15.18,2.58,6.08,3.76,8.74,4.69,8.15Zm39.36-6.07s.04-.03.05-.04h0s-.04.02-.05.04Zm4.88,15.75c-2.84,3.66-3.96,8.39-7.31,11.73-1.93,1.93-2.41-1.97-2.42-2.01q-.07-1.17,3.4-7.61-.22.23-.87.85c.01-.42.27-.78.31-1.2q-.42.92-3.6-1.06-1.23,2.36-1.85,2.52c-1.34.35-3.18,1.88-3.99,5.01-.61-.32-.7-.34-1.59,0,.12-1.13-1.15-1.44-1.4-2.36-.17.2-3.45,3.55-5.08,4.21h0c-.08.72-.13.9-.47,1.66-.03-.08-.06-.18-.09-.25q-.26.25-.51.83c0-.37,0-.75.27-1.94-.8.5-1.44.89-3.11,2.84-1.63,1.9-2.17,2.31-3.02,2.78-1.45.81-3.12.95-4.62,1.62-1.88.84-3.22,2.7-5.44,2.9-.02-.22.05-.52.16-.72-3.21,1.65-4.17,5.29-4.57,6.85q-.21.8-.47,1.07c.02-.16,0-.38-.05-.54-2.04,2.38-1.31,5.8-3.09,8.28-1.09,1.52-2.88,2.38-3.8,4.07-.06.12-.03.31-.05.44.94.77,3.59-.28,5.53-1.04.13-.05,12.83-4.72,15.16-2.98q.04.43-2.24,4.34c1.72-1.18,3.59-2.14,5.2-3.49-1.05,2.04-3.3,2.53-4.92,3.83.68-.09.91-.26,2.74-1.58q-.07.09-2.15,1.88s.02-.02.03-.02c.08.03.18.07.26.09-.52,1.59-2.6,2.07-2.8,3.9q.25.21,3.44-.8-.41.39-.8.56c.09,0,.21,0,.3.01q-.13.36-.63.93c13.49-6.32,21.62-15.38,24.49-18.99-.15.17-.35.4-.49.58.28-.35.57-.69.85-1.04-.06.07-.13.16-.18.22l.09-.12.05-.06c.08-.09.18-.22.25-.31-.05.06-.12.15-.17.21.35-.48,1.42-1.93,2.11-3.77.6-1.6,1.35-3.14,1.9-4.76.48-1.42.13-3,.82-4.39q2.77-5.52,2.85-7.46c.14-3.44.79-4.45,1.61-5.73,0,0,0,0,0,0h0s0-.01-.03-.01c-.02,0-.03.01-.05.02Zm-12.12-13.67c.39.23,1.05-.02,1.21-.45.03-.09.04-.17.04-.23h0c-.06-.44-.56-.8-1.09-.77-.42.1-.45.42-.47.52-.02.19-.08.71.31.94Zm-6.96-47.53v-.02s-.01-.02-.01-.02c0,0,0,.01,0,.02v.02Zm4.27,25.02s0,0,0,0c-.08.09-.15.18-.2.22.11-.1.16-.17.2-.22Zm5.09.2c.06,1.22.1,1.25.33,1.45.09-.33.2-.78.25-1.12,0-.04.61-4.57-.98-6.48,0-.01.02-.03.02-.04q.17-.09.1-1.44c-.11.27-.22.54-.31.81.02.11.05.26.07.37q-.53-.35-.66-2.84c1.1.46.77-1.23.45-1.98-.42-1-.55-.98-1.53-.86q-.74-2.56-1.06-2.6-.17.13-.25.47c-.19-1.19-1.53-1.18-1.81-.94-.11.1-.16.32-.18.47-.08-.43-.11-.74-.13-1.34,0,0,.01,0,.02.01.03-.22.04-.33.03-.56,0-.06-.03-.15-.03-.21-.1-2.09.57-4.22-.27-6.28-.62-1.53-2.73-.52-3.39-1.98l-.04-.07c.02.05.03.12.07.17.25,1.81-.52,3.69.34,5.46-.14-.03-.32.05-.45.12-.28,1.05.25,3.07,1.24,3.84.36-.2.41-.44.17-.86q.51.33.28,2.09c-.1.02-.24.04-.35.05-.27.69.1,1.11,1.49,2.68.82-1-.15-2.09-.8-2.66.29-.09.63-.17,1.37-.06-.15.43.07.6.28.7.15-.07.31-.14.12-.6.86.29,1.18,1.2,1.87,1.68-.13-.67-.47-.91-.56-.97.02-.27.08-1.08.91-.2.5.53.92,1.34,1.07,1.61-.04,0-.08,0-.12.01q-.11.71,1.02,2.34c-.24.2-.4.25-.6,0,.04-.01.1-.03.14-.04q.02-.27-.13-.54c-.11.11-.17.16-.06.49l-.08-.16c-.22.58-.21,1.09.03,1.93-.02,0-.05-.02-.08-.02t.4.74l1.15,2.05q-.25.83-2.07,2.84c.02-.07.05-.15.08-.22-.26-.44-1.75-.36-2.04.65-.18.61-.12,1.28-.41,1.87.59-.75.72-1.09.8-1.28.57.76,2.06-.6,2.06.39,0,.73-.48,1.41-.24,2.16.23.74,1.03.96,1.4,1.57,0-1.03.84-1.71,1.07-2.64Zm-4.55-5.12c.27.02.85-.92,1.09-1.43,0,0,.14-.79.17-1.18.1-1.25-.47-1.13-.48-1.13-.59.46-1.27,3.7-.78,3.74Zm.74-5.87c.33-.71.49-1.13.5-1.46,0-.02,0-.04,0-.06.43.38.83,1.12.78,1.79-.01.18-.06.31-.09.39-.35-.78-.74-.88-1.3-.34h0s0,.02,0,.02c.01-.05.02-.12.02-.18,0-.22.03-.25.05-.26.02.01.02.01.06.1Zm.09-.04h.03s.01-.07.01-.07l-.04.07Zm-5.66-14.24s0,0,0-.01h0s0,0,0,.01Zm11.2,37.44c-.09.13-.18.26-.28.39.08-.59.01-1.18.1-1.77q.07-.48.28-.68s-.09.05-.13.07c-.39.31-.82.88-1.01,2.75q-.03-.08-.06-.11c-.08.24.03,2.25.11,2.7.17.92.39.96.54.91-.55-2.32.96-2.27.98-2.27-.2-.86-.18-1.27.31-2.79-.3-.09-.88.6-.84.8Zm-73.99-15.07s.03.04.04.06c-.07-.2-.15-.39-.23-.59,0,.06.01.14.02.2.05.11.11.22.17.32Zm-50.57,46.76l-.09-.19s.02.07.03.1c-.14-.32-.15-.32-.3-.4q-.06.17-.1,2.2h0c-.21-.35-.25-.43-.36-.81-.53,1.32-.55,1.96-.15,5.31.5,4.16-.28,12.28-2.66,12.45-.83.06-2.48-1.14-3.05-3.08-.54-1.83-1.25-11.32-1.24-11.38.07-1.29,1.34-1.65,1.96-2.51.19-.26.25-.59.44-.85.1-.13.25-.28.36-.39.95-.97,1.06-2.36,1.74-3.46.4-.66.56-1.46,1.15-2.02.73-.21,1.3,1.5,1.65,2.97.27,1.14.37,1.53.61,2.07Zm-.21-.48c-.03-.08-.05-.17-.1-.24,0,.04.03.07.04.11.02.04.04.09.06.13Zm113.6-68.57l-.03-.09s.02.06.03.09c0,0,0,0,0,0Z" style="fill: url(#radial-gradient-5);"/>
            <path d="m751.81,19.69c12.45,19.04,19.69,41.78,19.69,66.22,0,66.93-54.26,121.18-121.18,121.18-24.44,0-47.19-7.24-66.22-19.69,21.63,33.09,59.01,54.96,101.49,54.96,66.93,0,121.18-54.26,121.18-121.18,0-42.49-21.87-79.86-54.96-101.49Z" style="mix-blend-mode: multiply; opacity: .2;"/>
            <path d="m568,91.79c2.64.26,5.31.4,8.01.4,44.5,0,80.58-36.08,80.58-80.58,0-2.7-.14-5.38-.4-8.01-43.31,10.79-77.39,44.88-88.19,88.19Z" style="fill: #fff; mix-blend-mode: screen; opacity: .2;"/>
          </g>
        </g>
        <g id="Firewall">
          <g>
            <polygon points="815.47 105.53 815.47 208.18 685.46 273.23 685.47 165.79 815.47 105.53" style="fill: #7a1123;"/>
            <polygon points="685.46 273.23 665.98 261.96 665.98 155.96 685.47 165.79 685.46 273.23" style="fill: #7a1123;"/>
            <polygon points="665.98 155.96 685.47 165.79 815.47 105.53 796.91 96.76 665.98 155.96" style="fill: #7a1123;"/>
            <g>
              <polygon points="761.79 195.56 734.56 208.57 734.52 226.2 761.71 213.04 761.79 195.56" style="fill: url(#linear-gradient-14);"/>
              <polygon points="778.97 165.37 751.7 178.19 751.64 195.72 778.87 182.75 778.97 165.37" style="fill: url(#linear-gradient-15);"/>
              <polygon points="748.25 179.82 720.99 192.64 720.96 210.34 748.19 197.37 748.25 179.82" style="fill: url(#linear-gradient-16);"/>
              <polygon points="761.98 151.25 734.68 163.88 734.63 181.51 761.91 168.72 761.98 151.25" style="fill: url(#linear-gradient-17);"/>
              <polygon points="792.74 137.02 765.44 149.65 765.36 167.11 792.63 154.32 792.74 137.02" style="fill: url(#linear-gradient-18);"/>
              <polygon points="809.69 150.93 782.42 163.75 782.32 181.11 809.55 168.14 809.69 150.93" style="fill: url(#linear-gradient-19);"/>
              <polygon points="792.46 180.9 765.23 193.92 765.15 211.37 792.35 198.21 792.46 180.9" style="fill: url(#linear-gradient-20);"/>
              <polygon points="686.83 226.59 686.82 208.7 685.22 209.46 685.23 227.35 686.83 226.59" style="fill: url(#linear-gradient-21);"/>
              <polygon points="700.46 179.71 685.2 186.77 685.21 204.67 700.46 197.52 700.46 179.71" style="fill: url(#linear-gradient-22);"/>
              <polygon points="700.45 224.88 685.23 232.15 685.24 250.04 700.44 242.69 700.45 224.88" style="fill: url(#linear-gradient-23);"/>
              <polygon points="731.22 165.48 703.92 178.11 703.91 195.91 731.18 183.12 731.22 165.48" style="fill: url(#linear-gradient-24);"/>
              <polygon points="813 166.5 815.38 165.37 815.52 148.18 813.14 149.31 813 166.5" style="fill: url(#linear-gradient-25);"/>
              <polygon points="731.12 210.22 703.89 223.23 703.88 241.02 731.07 227.86 731.12 210.22" style="fill: url(#linear-gradient-26);"/>
              <polygon points="717.54 194.26 690.27 207.08 690.28 224.95 717.51 211.98 717.54 194.26" style="fill: url(#linear-gradient-27);"/>
              <polygon points="720.91 237.52 720.88 255.22 748.04 241.87 748.1 224.32 720.91 237.52" style="fill: url(#linear-gradient-28);"/>
              <polygon points="690.28 252.39 690.29 270.25 717.44 256.9 717.47 239.19 690.28 252.39" style="fill: url(#linear-gradient-29);"/>
              <polygon points="685.24 254.83 685.25 272.73 686.85 271.94 686.84 254.06 685.24 254.83" style="fill: url(#linear-gradient-30);"/>
              <polygon points="751.54 222.65 751.47 240.18 778.63 226.83 778.72 209.45 751.54 222.65" style="fill: url(#linear-gradient-31);"/>
              <polygon points="812.79 192.91 812.66 210.1 815.03 208.94 815.17 191.75 812.79 192.91" style="fill: url(#linear-gradient-32);"/>
              <polygon points="796.08 152.71 815.56 143.58 815.69 126.4 796.2 135.42 796.08 152.71" style="fill: url(#linear-gradient-33);"/>
              <polygon points="686.81 182.43 686.8 164.55 685.19 165.28 685.2 183.17 686.81 182.43" style="fill: url(#linear-gradient-34);"/>
              <polygon points="782.16 207.78 782.06 225.14 809.22 211.79 809.35 194.58 782.16 207.78" style="fill: url(#linear-gradient-35);"/>
              <polygon points="809.88 125.64 810.01 108.43 782.67 120.88 782.57 138.24 809.88 125.64" style="fill: url(#linear-gradient-36);"/>
              <polygon points="815.72 122.94 815.86 105.76 813.47 106.85 813.34 124.04 815.72 122.94" style="fill: url(#linear-gradient-37);"/>
              <polygon points="815.34 169.97 795.91 179.26 795.79 196.55 815.2 187.15 815.34 169.97" style="fill: url(#linear-gradient-38);"/>
              <polygon points="717.58 168.23 717.6 150.52 690.26 162.97 690.27 180.84 717.58 168.23" style="fill: url(#linear-gradient-39);"/>
              <polygon points="779.11 139.84 779.21 122.46 751.87 134.91 751.8 152.44 779.11 139.84" style="fill: url(#linear-gradient-40);"/>
              <polygon points="748.34 154.04 748.41 136.49 721.06 148.94 721.03 166.64 748.34 154.04" style="fill: url(#linear-gradient-41);"/>
            </g>
            <polygon points="684.88 183.25 665.98 174.19 665.98 155.96 684.88 165.49 684.88 183.25" style="fill: url(#linear-gradient-42); opacity: .3;"/>
            <polygon points="684.88 204.7 665.98 195.64 665.98 177.41 684.88 186.94 684.88 204.7" style="fill: url(#linear-gradient-43); opacity: .3;"/>
            <polygon points="684.88 227.27 665.98 218.21 665.98 199.98 684.88 209.51 684.88 227.27" style="fill: url(#linear-gradient-44); opacity: .3;"/>
            <polygon points="684.88 249.84 665.98 240.78 665.98 222.55 684.88 232.08 684.88 249.84" style="fill: url(#linear-gradient-45); opacity: .3;"/>
            <polygon points="685.46 273.23 665.98 263.05 665.98 244.64 685.24 254.83 685.46 273.23" style="fill: url(#linear-gradient-46); opacity: .3;"/>
          </g>
        </g>
      </g>
    </g>
  </g>
</svg>