<?xml version="1.0" encoding="UTF-8"?>
<svg xmlns="http://www.w3.org/2000/svg" xmlns:xlink="http://www.w3.org/1999/xlink" viewBox="0 0 1140 669">
  <defs>
    <style>
      .cls-1 {
        fill: url(#linear-gradient);
      }

      .cls-1, .cls-2, .cls-3, .cls-4, .cls-5, .cls-6 {
        stroke-width: 0px;
      }

      .cls-2 {
        fill: url(#linear-gradient-2);
      }

      .cls-3 {
        fill: #223654;
      }

      .cls-4 {
        fill: #a3ea2a;
      }

      .cls-5 {
        fill: #fff;
      }

      .cls-6 {
        fill: #ff0653;
      }
    </style>
    <linearGradient id="linear-gradient" x1="-655.92" y1="244.09" x2="113.75" y2="244.09" gradientTransform="translate(550.33 206.31) rotate(55.92)" gradientUnits="userSpaceOnUse">
      <stop offset=".67" stop-color="#223654"/>
      <stop offset=".68" stop-color="#294051"/>
      <stop offset=".74" stop-color="#547c43"/>
      <stop offset=".8" stop-color="#76ab38"/>
      <stop offset=".84" stop-color="#8ecd30"/>
      <stop offset=".88" stop-color="#9de22b"/>
      <stop offset=".91" stop-color="#a3ea2a"/>
    </linearGradient>
    <linearGradient id="linear-gradient-2" x1="-396.96" y1="-138.73" x2="372.71" y2="-138.73" gradientTransform="translate(1062.83 206.31) rotate(124.08) scale(1 -1)" xlink:href="#linear-gradient"/>
  </defs>
  <g id="Layer_3" data-name="Layer 3">
    <g>
      <rect class="cls-3" x="182.97" y="462.98" width="773.88" height="195.02" rx="31.49" ry="31.49"/>
      <g>
        <path class="cls-6" d="M239.73,545.64c2.76,0,5.08.34,6.97,1.04,1.88.69,3.39,1.66,4.52,2.9,1.13,1.24,1.93,2.75,2.41,4.52.48,1.77.72,3.71.72,5.83v21.87c-1.29.28-3.23.61-5.83,1-2.6.39-5.53.59-8.79.59-2.16,0-4.14-.21-5.93-.62-1.79-.41-3.32-1.08-4.59-2-1.27-.92-2.25-2.11-2.97-3.59-.71-1.47-1.07-3.29-1.07-5.45s.4-3.82,1.21-5.24c.8-1.42,1.9-2.59,3.28-3.48,1.38-.9,2.98-1.54,4.79-1.93,1.82-.39,3.71-.59,5.69-.59.92,0,1.88.06,2.9.17,1.01.12,2.09.31,3.24.59v-1.38c0-.96-.12-1.88-.34-2.76-.23-.87-.63-1.64-1.21-2.31-.58-.67-1.33-1.18-2.28-1.55-.94-.37-2.13-.55-3.55-.55-1.93,0-3.7.14-5.31.41-1.61.28-2.92.6-3.93.97l-1.03-6.76c1.06-.37,2.6-.73,4.62-1.1,2.02-.37,4.18-.55,6.48-.55ZM240.42,576.75c2.57,0,4.53-.14,5.86-.41v-9.24c-.46-.14-1.13-.28-2-.41-.87-.14-1.84-.21-2.9-.21-.92,0-1.85.07-2.79.21-.94.14-1.79.39-2.55.76-.76.37-1.37.89-1.83,1.55-.46.67-.69,1.51-.69,2.52,0,1.98.62,3.35,1.86,4.1,1.24.76,2.92,1.14,5.04,1.14Z"/>
        <path class="cls-6" d="M290.64,534.81v29.52h5.38v6.83h-5.38v11.45h-8.14v-11.45h-20.97v-5.93c.92-2.02,2.15-4.35,3.69-6.97,1.54-2.62,3.25-5.31,5.14-8.07,1.88-2.76,3.89-5.47,6-8.14,2.11-2.67,4.23-5.08,6.35-7.24h7.93ZM282.5,545.09c-1.1,1.33-2.24,2.76-3.41,4.28s-2.31,3.1-3.41,4.76-2.16,3.35-3.17,5.07c-1.01,1.72-1.93,3.44-2.76,5.14h12.76v-19.25Z"/>
        <path class="cls-5" d="M329.19,552.27c0,1.61-.54,2.92-1.62,3.93-1.08,1.01-2.38,1.52-3.9,1.52s-2.87-.51-3.93-1.52c-1.06-1.01-1.59-2.32-1.59-3.93s.53-2.93,1.59-3.97c1.06-1.04,2.37-1.55,3.93-1.55s2.82.52,3.9,1.55c1.08,1.03,1.62,2.36,1.62,3.97ZM329.19,578.06c0,1.61-.54,2.92-1.62,3.93-1.08,1.01-2.38,1.52-3.9,1.52s-2.87-.51-3.93-1.52c-1.06-1.01-1.59-2.32-1.59-3.93s.53-2.93,1.59-3.97c1.06-1.04,2.37-1.55,3.93-1.55s2.82.52,3.9,1.55c1.08,1.03,1.62,2.36,1.62,3.97Z"/>
        <path class="cls-6" d="M352.23,564.61c0-2.67.41-5.16,1.24-7.48.83-2.32,2.01-4.33,3.55-6.04,1.54-1.7,3.42-3.04,5.62-4,2.21-.97,4.69-1.45,7.45-1.45,3.4,0,6.62.62,9.66,1.86l-1.79,6.83c-.97-.41-2.06-.76-3.28-1.04-1.22-.28-2.52-.41-3.9-.41-3.27,0-5.75,1.02-7.45,3.07-1.7,2.05-2.55,4.93-2.55,8.66s.8,6.43,2.41,8.52c1.61,2.09,4.32,3.14,8.14,3.14,1.42,0,2.83-.14,4.21-.41,1.38-.28,2.58-.62,3.59-1.03l1.17,6.9c-.92.46-2.31.87-4.17,1.24s-3.78.55-5.76.55c-3.08,0-5.76-.47-8.04-1.41-2.28-.94-4.16-2.25-5.66-3.93-1.5-1.68-2.61-3.68-3.35-6-.74-2.32-1.1-4.84-1.1-7.55Z"/>
        <path class="cls-6" d="M397.75,583.65c-1.24,0-2.52-.08-3.83-.24s-2.55-.37-3.72-.62c-1.17-.25-2.24-.53-3.21-.83-.97-.3-1.7-.59-2.21-.86l1.66-7.1c.96.46,2.37.98,4.21,1.55,1.84.58,4.12.86,6.83.86,3.63,0,6.25-.7,7.86-2.1,1.61-1.4,2.41-3.28,2.41-5.62,0-1.52-.31-2.78-.93-3.79-.62-1.01-1.47-1.83-2.55-2.45-1.08-.62-2.32-1.06-3.72-1.31-1.4-.25-2.89-.38-4.45-.38h-2.83v-6.76h3.45c1.06,0,2.13-.1,3.21-.31,1.08-.21,2.06-.57,2.93-1.1.87-.53,1.59-1.23,2.14-2.1.55-.87.83-2,.83-3.38,0-1.1-.21-2.05-.62-2.83-.41-.78-.95-1.42-1.62-1.93-.67-.51-1.44-.87-2.31-1.1-.87-.23-1.79-.34-2.76-.34-2.07,0-3.91.31-5.52.93-1.61.62-3.04,1.32-4.28,2.1l-3.03-6.21c.64-.41,1.42-.85,2.34-1.31.92-.46,1.94-.9,3.07-1.31,1.13-.41,2.33-.75,3.62-1,1.29-.25,2.64-.38,4.07-.38,2.67,0,4.97.32,6.9.97,1.93.64,3.53,1.55,4.79,2.72,1.26,1.17,2.21,2.55,2.83,4.14.62,1.59.93,3.32.93,5.21,0,2.21-.61,4.19-1.83,5.93-1.22,1.75-2.79,3.08-4.72,4,2.48.87,4.54,2.32,6.17,4.35,1.63,2.02,2.45,4.62,2.45,7.79,0,2.12-.37,4.08-1.1,5.9-.74,1.82-1.86,3.38-3.38,4.69s-3.44,2.34-5.76,3.1-5.09,1.14-8.31,1.14Z"/>
        <path class="cls-5" d="M451.41,552.27c0,1.61-.54,2.92-1.62,3.93-1.08,1.01-2.38,1.52-3.9,1.52s-2.87-.51-3.93-1.52c-1.06-1.01-1.59-2.32-1.59-3.93s.53-2.93,1.59-3.97c1.06-1.04,2.37-1.55,3.93-1.55s2.82.52,3.9,1.55c1.08,1.03,1.62,2.36,1.62,3.97ZM451.41,578.06c0,1.61-.54,2.92-1.62,3.93-1.08,1.01-2.38,1.52-3.9,1.52s-2.87-.51-3.93-1.52c-1.06-1.01-1.59-2.32-1.59-3.93s.53-2.93,1.59-3.97c1.06-1.04,2.37-1.55,3.93-1.55s2.82.52,3.9,1.55c1.08,1.03,1.62,2.36,1.62,3.97Z"/>
        <path class="cls-6" d="M491.14,529.09c1.93,0,3.63.17,5.1.52s2.58.66,3.31.93l-1.59,6.9c-.78-.37-1.69-.67-2.72-.9-1.04-.23-2.15-.34-3.35-.34-1.33,0-2.46.2-3.38.59-.92.39-1.66.93-2.21,1.62s-.94,1.53-1.17,2.52c-.23.99-.34,2.06-.34,3.21v2.41h13.11v6.97h-13.11v29.11h-8.35v-38.63c0-4.64,1.22-8.29,3.66-10.93,2.44-2.64,6.12-3.97,11.04-3.97Z"/>
        <path class="cls-6" d="M534.94,558.68c0,8.05-1.47,14.22-4.42,18.52-2.94,4.3-7.01,6.45-12.21,6.45s-9.27-2.15-12.21-6.45c-2.94-4.3-4.42-10.47-4.42-18.52,0-4,.38-7.55,1.14-10.66s1.86-5.71,3.31-7.83c1.45-2.11,3.2-3.72,5.24-4.83,2.05-1.1,4.36-1.66,6.93-1.66,5.2,0,9.27,2.15,12.21,6.45,2.94,4.3,4.42,10.47,4.42,18.52ZM526.32,558.68c0-2.48-.14-4.8-.41-6.97-.28-2.16-.72-4.04-1.34-5.62-.62-1.59-1.44-2.84-2.45-3.76-1.01-.92-2.28-1.38-3.79-1.38s-2.79.46-3.83,1.38c-1.03.92-1.86,2.17-2.48,3.76-.62,1.59-1.06,3.46-1.31,5.62-.25,2.16-.38,4.48-.38,6.97s.13,4.81.38,6.97c.25,2.16.69,4.03,1.31,5.62.62,1.59,1.45,2.84,2.48,3.76,1.04.92,2.31,1.38,3.83,1.38s2.78-.46,3.79-1.38c1.01-.92,1.83-2.17,2.45-3.76.62-1.59,1.07-3.46,1.34-5.62s.41-4.48.41-6.97Z"/>
        <path class="cls-5" d="M568.67,552.27c0,1.61-.54,2.92-1.62,3.93-1.08,1.01-2.38,1.52-3.9,1.52s-2.87-.51-3.93-1.52c-1.06-1.01-1.59-2.32-1.59-3.93s.53-2.93,1.59-3.97c1.06-1.04,2.37-1.55,3.93-1.55s2.82.52,3.9,1.55c1.08,1.03,1.62,2.36,1.62,3.97ZM568.67,578.06c0,1.61-.54,2.92-1.62,3.93-1.08,1.01-2.38,1.52-3.9,1.52s-2.87-.51-3.93-1.52c-1.06-1.01-1.59-2.32-1.59-3.93s.53-2.93,1.59-3.97c1.06-1.04,2.37-1.55,3.93-1.55s2.82.52,3.9,1.55c1.08,1.03,1.62,2.36,1.62,3.97Z"/>
        <path class="cls-4" d="M624.26,569.79c0,1.98-.35,3.82-1.04,5.52-.69,1.7-1.72,3.17-3.1,4.41-1.38,1.24-3.09,2.21-5.14,2.9-2.05.69-4.4,1.03-7.07,1.03-3.13,0-5.73-.44-7.79-1.31-2.07-.87-3.72-1.98-4.97-3.31-1.24-1.33-2.13-2.77-2.66-4.31-.53-1.54-.79-3-.79-4.38s.2-2.66.59-3.83c.39-1.17.93-2.25,1.62-3.24.69-.99,1.47-1.9,2.34-2.72.87-.83,1.79-1.56,2.76-2.21-2.12-1.47-3.69-3.07-4.72-4.79-1.03-1.72-1.55-3.83-1.55-6.31,0-1.79.36-3.51,1.07-5.14.71-1.63,1.73-3.07,3.07-4.31,1.33-1.24,2.94-2.23,4.83-2.97,1.88-.74,3.98-1.1,6.28-1.1,2.71,0,5.02.39,6.93,1.17,1.91.78,3.47,1.79,4.69,3.03,1.22,1.24,2.1,2.62,2.66,4.14s.83,2.99.83,4.42c0,2.53-.69,4.77-2.07,6.72-1.38,1.96-2.97,3.51-4.76,4.66,2.71,1.47,4.73,3.17,6.04,5.1s1.97,4.21,1.97,6.83ZM599.92,570.2c0,.69.14,1.43.41,2.21.28.78.74,1.5,1.38,2.14.64.64,1.47,1.18,2.48,1.62,1.01.44,2.28.66,3.79.66,1.38,0,2.58-.18,3.59-.55,1.01-.37,1.84-.86,2.48-1.48.64-.62,1.13-1.33,1.45-2.14.32-.8.48-1.62.48-2.45,0-1.29-.25-2.41-.76-3.38-.51-.97-1.23-1.8-2.17-2.52-.94-.71-2.06-1.33-3.35-1.86-1.29-.53-2.71-1-4.28-1.41-1.66,1.06-2.99,2.33-4,3.83-1.01,1.5-1.52,3.28-1.52,5.35ZM614.95,546.61c0-.6-.13-1.25-.38-1.97-.25-.71-.67-1.37-1.24-1.97-.58-.6-1.3-1.1-2.17-1.52-.87-.41-1.93-.62-3.17-.62s-2.31.2-3.21.59-1.62.9-2.17,1.52c-.55.62-.97,1.29-1.24,2-.28.71-.41,1.41-.41,2.1,0,1.75.66,3.4,1.97,4.97,1.31,1.56,3.51,2.81,6.59,3.72,1.7-1.06,3.04-2.26,4-3.62s1.45-3.09,1.45-5.21Z"/>
        <path class="cls-4" d="M653.99,568.96c0-1.52-.3-2.87-.9-4.07-.6-1.2-1.64-2.21-3.14-3.04-1.5-.83-3.5-1.45-6-1.86-2.51-.41-5.67-.62-9.48-.62.51-4.41.9-8.61,1.17-12.59.28-3.98.51-7.97.69-11.97h24.42v7.04h-17.31c-.05.78-.1,1.67-.17,2.66-.07.99-.14,1.99-.21,3-.07,1.01-.15,1.98-.24,2.9-.09.92-.18,1.7-.28,2.34,6.8.37,11.83,1.92,15.07,4.66,3.24,2.74,4.86,6.47,4.86,11.21,0,2.16-.37,4.16-1.1,6-.74,1.84-1.86,3.43-3.38,4.76-1.52,1.33-3.43,2.38-5.73,3.14-2.3.76-4.99,1.14-8.07,1.14-1.24,0-2.51-.09-3.79-.28-1.29-.18-2.52-.4-3.69-.66-1.17-.25-2.22-.52-3.14-.79-.92-.28-1.61-.53-2.07-.76l1.59-7.04c.96.46,2.36.96,4.17,1.48,1.82.53,4.04.79,6.66.79,1.79,0,3.33-.2,4.62-.59,1.29-.39,2.33-.93,3.14-1.62.8-.69,1.39-1.48,1.76-2.38.37-.9.55-1.85.55-2.86Z"/>
        <path class="cls-5" d="M697.52,552.27c0,1.61-.54,2.92-1.62,3.93-1.08,1.01-2.38,1.52-3.9,1.52s-2.87-.51-3.93-1.52c-1.06-1.01-1.59-2.32-1.59-3.93s.53-2.93,1.59-3.97c1.06-1.04,2.37-1.55,3.93-1.55s2.82.52,3.9,1.55c1.08,1.03,1.62,2.36,1.62,3.97ZM697.52,578.06c0,1.61-.54,2.92-1.62,3.93-1.08,1.01-2.38,1.52-3.9,1.52s-2.87-.51-3.93-1.52c-1.06-1.01-1.59-2.32-1.59-3.93s.53-2.93,1.59-3.97c1.06-1.04,2.37-1.55,3.93-1.55s2.82.52,3.9,1.55c1.08,1.03,1.62,2.36,1.62,3.97Z"/>
        <path class="cls-4" d="M734.55,545.64c2.76,0,5.08.34,6.97,1.04,1.89.69,3.39,1.66,4.52,2.9,1.13,1.24,1.93,2.75,2.41,4.52.48,1.77.72,3.71.72,5.83v21.87c-1.29.28-3.23.61-5.83,1-2.6.39-5.53.59-8.79.59-2.16,0-4.14-.21-5.93-.62-1.79-.41-3.32-1.08-4.59-2-1.26-.92-2.25-2.11-2.97-3.59-.71-1.47-1.07-3.29-1.07-5.45s.4-3.82,1.21-5.24c.8-1.42,1.9-2.59,3.28-3.48,1.38-.9,2.98-1.54,4.79-1.93,1.82-.39,3.71-.59,5.69-.59.92,0,1.89.06,2.9.17,1.01.12,2.09.31,3.24.59v-1.38c0-.96-.12-1.88-.34-2.76-.23-.87-.63-1.64-1.21-2.31-.58-.67-1.33-1.18-2.28-1.55-.94-.37-2.13-.55-3.55-.55-1.93,0-3.7.14-5.31.41-1.61.28-2.92.6-3.93.97l-1.03-6.76c1.06-.37,2.6-.73,4.62-1.1,2.02-.37,4.18-.55,6.48-.55ZM735.24,576.75c2.58,0,4.53-.14,5.86-.41v-9.24c-.46-.14-1.13-.28-2-.41-.87-.14-1.84-.21-2.9-.21-.92,0-1.85.07-2.79.21s-1.79.39-2.55.76c-.76.37-1.37.89-1.83,1.55-.46.67-.69,1.51-.69,2.52,0,1.98.62,3.35,1.86,4.1,1.24.76,2.92,1.14,5.04,1.14Z"/>
        <path class="cls-4" d="M757.39,564.61c0-2.67.41-5.16,1.24-7.48.83-2.32,2.01-4.33,3.55-6.04,1.54-1.7,3.42-3.04,5.62-4,2.21-.97,4.69-1.45,7.45-1.45,3.4,0,6.62.62,9.66,1.86l-1.79,6.83c-.97-.41-2.06-.76-3.28-1.04-1.22-.28-2.52-.41-3.9-.41-3.27,0-5.75,1.02-7.45,3.07-1.7,2.05-2.55,4.93-2.55,8.66s.8,6.43,2.41,8.52c1.61,2.09,4.32,3.14,8.14,3.14,1.42,0,2.83-.14,4.21-.41,1.38-.28,2.58-.62,3.59-1.03l1.17,6.9c-.92.46-2.31.87-4.17,1.24s-3.78.55-5.76.55c-3.08,0-5.76-.47-8.04-1.41-2.28-.94-4.16-2.25-5.66-3.93-1.5-1.68-2.61-3.68-3.35-6-.74-2.32-1.1-4.84-1.1-7.55Z"/>
        <path class="cls-5" d="M817.39,552.27c0,1.61-.54,2.92-1.62,3.93-1.08,1.01-2.38,1.52-3.9,1.52s-2.87-.51-3.93-1.52c-1.06-1.01-1.59-2.32-1.59-3.93s.53-2.93,1.59-3.97c1.06-1.04,2.37-1.55,3.93-1.55s2.82.52,3.9,1.55c1.08,1.03,1.62,2.36,1.62,3.97ZM817.39,578.06c0,1.61-.54,2.92-1.62,3.93-1.08,1.01-2.38,1.52-3.9,1.52s-2.87-.51-3.93-1.52c-1.06-1.01-1.59-2.32-1.59-3.93s.53-2.93,1.59-3.97c1.06-1.04,2.37-1.55,3.93-1.55s2.82.52,3.9,1.55c1.08,1.03,1.62,2.36,1.62,3.97Z"/>
        <path class="cls-4" d="M870.3,547.23c0,1.66-.34,3.28-1.03,4.86-.69,1.59-1.58,3.13-2.66,4.62-1.08,1.49-2.31,2.94-3.69,4.34-1.38,1.4-2.76,2.77-4.14,4.1-.74.69-1.56,1.52-2.48,2.48-.92.97-1.79,1.93-2.62,2.9-.83.97-1.54,1.9-2.14,2.79s-.92,1.64-.97,2.24h21.25v7.04h-30.42c-.05-.37-.07-.82-.07-1.34v-1.21c0-2.21.36-4.24,1.07-6.1s1.64-3.6,2.79-5.21c1.15-1.61,2.44-3.13,3.86-4.55s2.85-2.83,4.28-4.21c1.1-1.06,2.16-2.09,3.17-3.1s1.9-2.01,2.66-3c.76-.99,1.37-2,1.83-3.04.46-1.04.69-2.1.69-3.21,0-2.39-.69-4.09-2.07-5.1-1.38-1.01-3.06-1.52-5.04-1.52-1.29,0-2.48.18-3.59.55-1.1.37-2.08.8-2.93,1.31-.85.51-1.6,1.02-2.24,1.55-.64.53-1.13.96-1.45,1.28l-4.14-5.86c1.93-1.84,4.2-3.32,6.79-4.45,2.6-1.13,5.39-1.69,8.38-1.69,5.1,0,8.86,1.21,11.28,3.62s3.62,5.71,3.62,9.9Z"/>
        <path class="cls-4" d="M912.1,581.51c-1.66.51-3.74.97-6.24,1.38-2.51.41-5.14.62-7.9.62s-5.4-.44-7.66-1.31-4.17-2.13-5.76-3.76c-1.59-1.63-2.81-3.61-3.66-5.93-.85-2.32-1.28-4.93-1.28-7.83s.36-5.44,1.07-7.76,1.76-4.31,3.14-5.97,3.06-2.93,5.04-3.83c1.98-.9,4.25-1.35,6.83-1.35,1.75,0,3.29.21,4.62.62,1.33.41,2.48.87,3.45,1.38v-17.31l8.35-1.38v52.42ZM888.16,564.47c0,3.68.87,6.56,2.62,8.66,1.75,2.09,4.16,3.14,7.24,3.14,1.33,0,2.47-.06,3.41-.17.94-.11,1.71-.24,2.31-.38v-20.69c-.74-.5-1.71-.98-2.93-1.41-1.22-.44-2.52-.66-3.9-.66-3.04,0-5.25,1.04-6.66,3.1-1.4,2.07-2.1,4.87-2.1,8.42Z"/>
      </g>
    </g>
    <rect class="cls-3" x="644.9" y="11.98" width="480.92" height="195.02" rx="24.82" ry="24.82"/>
    <g id="arrow_styles_for_diagrams_etc" data-name="arrow styles for diagrams etc">
      <g id="arrow_styles_for_diagrams_etc-2" data-name="arrow styles for diagrams etc">
        <g id="arrow_styles_for_diagrams_etc-3" data-name="arrow styles for diagrams etc">
          <path class="cls-1" d="M423.17,457.34l-51.8-25.59c-1.52-.76-1.69-2.88-.29-3.83l12.2-8.25L138.15,57.26c-2.49-3.68-1.53-8.69,2.16-11.18l9.55-6.46c3.67-2.49,8.67-1.52,11.15,2.15l245.16,362.42,12.2-8.25c1.41-.95,3.32,0,3.45,1.69l4.48,57.6c.14,1.7-1.61,2.88-3.13,2.12Z"/>
        </g>
      </g>
    </g>
    <g id="arrow_styles_for_diagrams_etc-4" data-name="arrow styles for diagrams etc">
      <g id="arrow_styles_for_diagrams_etc-5" data-name="arrow styles for diagrams etc">
        <g id="arrow_styles_for_diagrams_etc-6" data-name="arrow styles for diagrams etc">
          <path class="cls-2" d="M727.81,457.34l51.8-25.59c1.52-.76,1.69-2.88.29-3.83l-12.2-8.25L1012.83,57.26c2.49-3.68,1.53-8.69-2.16-11.18l-9.55-6.46c-3.67-2.49-8.67-1.52-11.15,2.15l-245.16,362.42-12.2-8.25c-1.41-.95-3.32,0-3.45,1.69l-4.48,57.6c-.14,1.7,1.61,2.88,3.13,2.12Z"/>
        </g>
      </g>
    </g>
    <rect class="cls-3" x="8.26" y="9.57" width="480.92" height="195.02" rx="24.82" ry="24.82"/>
  </g>
  <g id="Layer_1" data-name="Layer 1">
    <g>
      <path class="cls-5" d="M733.09,103.77c-1.52,0-2.82-.22-3.91-.66-1.09-.44-1.99-1.05-2.71-1.84-.72-.79-1.25-1.72-1.59-2.79s-.51-2.25-.51-3.53v-13.89h4.07v13.5c0,1.01.11,1.87.34,2.58.22.72.55,1.3.96,1.75s.91.78,1.47.99,1.2.32,1.91.32,1.35-.11,1.92-.32,1.07-.54,1.49-.99.74-1.03.96-1.75c.22-.72.34-1.58.34-2.58v-13.5h4.07v13.89c0,1.28-.18,2.46-.53,3.53s-.89,2-1.6,2.79c-.72.79-1.63,1.41-2.74,1.84-1.11.44-2.43.66-3.95.66Z"/>
      <path class="cls-5" d="M746.88,87.06c.75-.21,1.72-.42,2.92-.61s2.52-.29,3.98-.29c1.37,0,2.51.19,3.43.56.92.38,1.65.9,2.2,1.57.55.67.93,1.49,1.16,2.44s.34,1.99.34,3.13v9.43h-3.88v-8.82c0-.9-.06-1.66-.18-2.29-.12-.63-.31-1.14-.58-1.54-.27-.4-.63-.68-1.09-.87-.46-.18-1.02-.27-1.68-.27-.49,0-1,.03-1.54.1-.54.06-.93.12-1.19.16v13.53h-3.88v-16.23Z"/>
      <path class="cls-5" d="M769.97,81.61c0,.73-.24,1.3-.71,1.73-.47.43-1.03.64-1.67.64s-1.23-.21-1.7-.64c-.47-.43-.71-1-.71-1.73s.24-1.34.71-1.76c.47-.43,1.04-.64,1.7-.64s1.2.21,1.67.64c.47.43.71,1.02.71,1.76ZM769.55,103.29h-3.88v-16.77h3.88v16.77Z"/>
      <path class="cls-5" d="M773.56,94.92c0-1.33.2-2.53.59-3.61s.96-2,1.7-2.76c.74-.76,1.63-1.35,2.68-1.76,1.05-.42,2.23-.62,3.56-.62s2.57.1,3.72.29,2.11.4,2.85.61v22.16h-3.88v-6.51c-.45.24-1,.45-1.65.64-.65.19-1.38.29-2.17.29-1.2,0-2.26-.21-3.18-.62-.92-.42-1.69-1.01-2.31-1.78s-1.1-1.69-1.43-2.76c-.33-1.07-.5-2.26-.5-3.56ZM777.54,94.98c0,1.62.33,2.92.98,3.88s1.68,1.44,3.1,1.44c.64,0,1.25-.1,1.81-.3s1.02-.42,1.36-.66v-9.59c-.28-.06-.63-.12-1.04-.18-.42-.05-.96-.08-1.62-.08-1.43,0-2.55.49-3.37,1.46-.81.97-1.22,2.32-1.22,4.03Z"/>
      <path class="cls-5" d="M807.37,102.78c-.75.19-1.72.39-2.92.59s-2.51.3-3.94.3c-1.35,0-2.48-.19-3.38-.58-.91-.38-1.64-.92-2.18-1.6-.55-.68-.94-1.5-1.17-2.45s-.35-1.99-.35-3.13v-9.4h3.88v8.79c0,1.8.26,3.08.79,3.85.52.77,1.44,1.16,2.74,1.16.47,0,.97-.02,1.49-.06.52-.04.91-.1,1.17-.16v-13.57h3.88v16.26Z"/>
      <path class="cls-5" d="M811.37,94.98c0-1.48.22-2.77.66-3.88.44-1.11,1.02-2.04,1.75-2.77.73-.74,1.56-1.29,2.5-1.67.94-.37,1.9-.56,2.89-.56,2.31,0,4.11.72,5.4,2.15,1.29,1.43,1.94,3.57,1.94,6.42,0,.21,0,.45-.02.72s-.03.51-.05.72h-11.06c.11,1.35.58,2.39,1.43,3.13.84.74,2.07,1.11,3.67,1.11.94,0,1.8-.09,2.58-.26s1.4-.35,1.84-.54l.51,3.17c-.21.11-.51.22-.88.34-.38.12-.8.22-1.28.32-.48.1-1,.18-1.56.24-.56.06-1.12.1-1.7.1-1.48,0-2.76-.22-3.85-.66-1.09-.44-1.99-1.05-2.69-1.83-.71-.78-1.23-1.7-1.57-2.76-.34-1.06-.51-2.22-.51-3.48ZM822.63,93.25c0-.53-.08-1.04-.22-1.52-.15-.48-.37-.9-.66-1.25-.29-.35-.64-.63-1.06-.83s-.91-.3-1.49-.3-1.12.11-1.57.34c-.45.22-.83.52-1.14.88-.31.36-.55.78-.72,1.25-.17.47-.29.95-.35,1.44h7.22Z"/>
      <path class="cls-5" d="M843.67,86.1c1.28,0,2.36.16,3.24.48.88.32,1.58.77,2.1,1.35.52.58.9,1.28,1.12,2.1s.34,1.73.34,2.71v10.17c-.6.13-1.5.28-2.71.46s-2.57.27-4.09.27c-1,0-1.92-.1-2.76-.29s-1.54-.5-2.13-.93c-.59-.43-1.05-.98-1.38-1.67-.33-.68-.5-1.53-.5-2.53s.19-1.77.56-2.44c.37-.66.88-1.2,1.52-1.62.64-.42,1.38-.72,2.23-.9.84-.18,1.73-.27,2.65-.27.43,0,.88.03,1.35.08.47.05.97.14,1.51.27v-.64c0-.45-.05-.88-.16-1.28-.11-.41-.29-.76-.56-1.08-.27-.31-.62-.55-1.06-.72s-.99-.26-1.65-.26c-.9,0-1.72.06-2.47.19s-1.36.28-1.83.45l-.48-3.14c.49-.17,1.21-.34,2.15-.51.94-.17,1.95-.26,3.01-.26ZM843.99,100.56c1.2,0,2.11-.06,2.73-.19v-4.3c-.21-.06-.52-.13-.93-.19-.41-.06-.86-.1-1.35-.1-.43,0-.86.03-1.3.1-.44.06-.83.18-1.19.35s-.64.41-.85.72c-.21.31-.32.7-.32,1.17,0,.92.29,1.55.87,1.91.58.35,1.36.53,2.34.53Z"/>
      <path class="cls-5" d="M869.39,102.78c-.77.24-1.74.45-2.9.64-1.17.19-2.39.29-3.67.29s-2.51-.2-3.56-.61c-1.05-.41-1.94-.99-2.68-1.75-.74-.76-1.3-1.68-1.7-2.76s-.59-2.29-.59-3.64.17-2.53.5-3.61c.33-1.08.82-2,1.46-2.77s1.42-1.36,2.34-1.78,1.98-.62,3.17-.62c.81,0,1.53.1,2.15.29s1.15.41,1.6.64v-8.05l3.88-.64v24.38ZM858.26,94.85c0,1.71.41,3.05,1.22,4.02.81.97,1.93,1.46,3.37,1.46.62,0,1.15-.03,1.59-.08.44-.05.8-.11,1.07-.18v-9.62c-.34-.23-.8-.45-1.36-.66-.57-.2-1.17-.3-1.81-.3-1.41,0-2.44.48-3.1,1.44s-.98,2.27-.98,3.91Z"/>
      <path class="cls-5" d="M888.51,102.78c-.77.24-1.74.45-2.9.64-1.17.19-2.39.29-3.67.29s-2.51-.2-3.56-.61c-1.05-.41-1.94-.99-2.68-1.75-.74-.76-1.3-1.68-1.7-2.76s-.59-2.29-.59-3.64.17-2.53.5-3.61c.33-1.08.82-2,1.46-2.77s1.42-1.36,2.34-1.78,1.98-.62,3.17-.62c.81,0,1.53.1,2.15.29s1.15.41,1.6.64v-8.05l3.88-.64v24.38ZM877.38,94.85c0,1.71.41,3.05,1.22,4.02.81.97,1.93,1.46,3.37,1.46.62,0,1.15-.03,1.59-.08.44-.05.8-.11,1.07-.18v-9.62c-.34-.23-.8-.45-1.36-.66-.57-.2-1.17-.3-1.81-.3-1.41,0-2.44.48-3.1,1.44s-.98,2.27-.98,3.91Z"/>
      <path class="cls-5" d="M903,90.01c-.32-.11-.77-.22-1.33-.34-.57-.12-1.22-.18-1.97-.18-.43,0-.88.04-1.36.13-.48.08-.82.16-1.01.22v13.44h-3.88v-15.97c.75-.28,1.68-.54,2.81-.79,1.12-.25,2.37-.37,3.74-.37.26,0,.56.02.9.05s.68.08,1.03.13c.34.05.67.12.99.19.32.08.58.14.77.21l-.67,3.27Z"/>
      <path class="cls-5" d="M905.44,94.98c0-1.48.22-2.77.66-3.88.44-1.11,1.02-2.04,1.75-2.77.73-.74,1.56-1.29,2.5-1.67.94-.37,1.9-.56,2.89-.56,2.31,0,4.11.72,5.4,2.15,1.29,1.43,1.94,3.57,1.94,6.42,0,.21,0,.45-.02.72s-.03.51-.05.72h-11.06c.11,1.35.58,2.39,1.43,3.13.84.74,2.07,1.11,3.67,1.11.94,0,1.8-.09,2.58-.26s1.4-.35,1.84-.54l.51,3.17c-.21.11-.51.22-.88.34-.38.12-.8.22-1.28.32-.48.1-1,.18-1.56.24-.56.06-1.12.1-1.7.1-1.48,0-2.76-.22-3.85-.66-1.09-.44-1.99-1.05-2.69-1.83-.71-.78-1.23-1.7-1.57-2.76-.34-1.06-.51-2.22-.51-3.48ZM916.7,93.25c0-.53-.08-1.04-.22-1.52-.15-.48-.37-.9-.66-1.25-.29-.35-.64-.63-1.06-.83s-.91-.3-1.49-.3-1.12.11-1.57.34c-.45.22-.83.52-1.14.88-.31.36-.55.78-.72,1.25-.17.47-.29.95-.35,1.44h7.22Z"/>
      <path class="cls-5" d="M928.88,100.5c1.03,0,1.77-.12,2.25-.37.47-.25.71-.67.71-1.27,0-.56-.25-1.02-.75-1.38-.5-.36-1.33-.76-2.49-1.19-.71-.26-1.35-.53-1.94-.82-.59-.29-1.1-.62-1.52-1.01-.43-.38-.76-.85-1.01-1.4s-.37-1.21-.37-2c0-1.54.57-2.75,1.7-3.64,1.13-.89,2.67-1.33,4.62-1.33.98,0,1.92.09,2.82.27.9.18,1.57.36,2.02.53l-.71,3.14c-.43-.19-.97-.37-1.64-.53-.66-.16-1.43-.24-2.31-.24-.79,0-1.43.13-1.92.4-.49.27-.74.68-.74,1.23,0,.28.05.52.14.74.1.21.26.41.5.59s.54.36.93.54c.38.18.85.37,1.41.56.92.34,1.7.68,2.34,1.01.64.33,1.17.71,1.59,1.12s.72.89.91,1.43.29,1.18.29,1.92c0,1.6-.59,2.82-1.78,3.64-1.19.82-2.88,1.23-5.08,1.23-1.48,0-2.66-.12-3.56-.37-.9-.25-1.53-.44-1.89-.59l.67-3.24c.58.24,1.27.46,2.07.67.8.21,1.72.32,2.74.32Z"/>
      <path class="cls-5" d="M943.54,100.5c1.03,0,1.77-.12,2.25-.37.47-.25.71-.67.71-1.27,0-.56-.25-1.02-.75-1.38-.5-.36-1.33-.76-2.49-1.19-.71-.26-1.35-.53-1.94-.82-.59-.29-1.1-.62-1.52-1.01-.43-.38-.76-.85-1.01-1.4s-.37-1.21-.37-2c0-1.54.57-2.75,1.7-3.64,1.13-.89,2.67-1.33,4.62-1.33.98,0,1.92.09,2.82.27.9.18,1.57.36,2.02.53l-.71,3.14c-.43-.19-.97-.37-1.64-.53-.66-.16-1.43-.24-2.31-.24-.79,0-1.43.13-1.92.4-.49.27-.74.68-.74,1.23,0,.28.05.52.14.74.1.21.26.41.5.59s.54.36.93.54c.38.18.85.37,1.41.56.92.34,1.7.68,2.34,1.01.64.33,1.17.71,1.59,1.12s.72.89.91,1.43.29,1.18.29,1.92c0,1.6-.59,2.82-1.78,3.64-1.19.82-2.88,1.23-5.08,1.23-1.48,0-2.66-.12-3.56-.37-.9-.25-1.53-.44-1.89-.59l.67-3.24c.58.24,1.27.46,2.07.67.8.21,1.72.32,2.74.32Z"/>
      <path class="cls-5" d="M976.64,94.89c0,1.33-.19,2.53-.58,3.62-.38,1.09-.93,2.02-1.64,2.79-.71.77-1.56,1.37-2.55,1.8s-2.09.64-3.29.64-2.29-.21-3.27-.64c-.98-.43-1.83-1.03-2.53-1.8-.71-.77-1.26-1.7-1.65-2.79-.4-1.09-.59-2.3-.59-3.62s.2-2.53.59-3.61c.4-1.08.95-2,1.67-2.77.72-.77,1.57-1.36,2.55-1.78.98-.42,2.06-.62,3.24-.62s2.26.21,3.25.62,1.84,1.01,2.55,1.78c.71.77,1.26,1.7,1.65,2.77.4,1.08.59,2.28.59,3.61ZM972.66,94.89c0-1.67-.36-2.99-1.07-3.96s-1.72-1.46-3-1.46-2.28.49-3,1.46c-.72.97-1.07,2.29-1.07,3.96s.36,3.03,1.07,4.01c.72.98,1.72,1.47,3,1.47s2.28-.49,3-1.47,1.07-2.32,1.07-4.01Z"/>
      <path class="cls-5" d="M987.48,78.4c.9,0,1.69.08,2.37.24.68.16,1.2.3,1.54.43l-.74,3.21c-.36-.17-.79-.31-1.27-.42-.48-.11-1-.16-1.56-.16-.62,0-1.14.09-1.57.27s-.77.43-1.03.75c-.26.32-.44.71-.54,1.17-.11.46-.16.96-.16,1.49v1.12h6.09v3.24h-6.09v13.53h-3.88v-17.96c0-2.16.57-3.85,1.7-5.08,1.13-1.23,2.84-1.84,5.13-1.84Z"/>
      <path class="cls-5" d="M1000.75,82.09l3.88-.64v5.07h5.96v3.24h-5.96v6.83c0,1.35.21,2.31.64,2.89s1.16.87,2.18.87c.71,0,1.33-.08,1.88-.22s.98-.29,1.3-.42l.64,3.08c-.45.19-1.04.39-1.76.59-.73.2-1.58.3-2.57.3-1.2,0-2.2-.16-3-.48-.8-.32-1.44-.79-1.91-1.39-.47-.61-.8-1.35-.99-2.21s-.29-1.85-.29-2.97v-14.53Z"/>
      <path class="cls-5" d="M1014.35,103.29v-24.25l3.88-.64v8.31c.43-.15.92-.28,1.49-.38.57-.11,1.13-.16,1.68-.16,1.35,0,2.46.19,3.35.56.89.38,1.6.9,2.13,1.57.53.67.91,1.48,1.14,2.42.22.94.34,1.99.34,3.14v9.43h-3.88v-8.82c0-.9-.06-1.66-.18-2.29-.12-.63-.31-1.14-.58-1.54-.27-.4-.63-.68-1.07-.87-.45-.18-1.01-.27-1.67-.27-.51,0-1.04.05-1.57.16-.54.11-.93.2-1.19.29v13.34h-3.88Z"/>
      <path class="cls-5" d="M1032.09,94.98c0-1.48.22-2.77.66-3.88.44-1.11,1.02-2.04,1.75-2.77.73-.74,1.56-1.29,2.5-1.67.94-.37,1.9-.56,2.89-.56,2.31,0,4.11.72,5.4,2.15,1.29,1.43,1.94,3.57,1.94,6.42,0,.21,0,.45-.02.72s-.03.51-.05.72h-11.06c.11,1.35.58,2.39,1.43,3.13.84.74,2.07,1.11,3.67,1.11.94,0,1.8-.09,2.58-.26s1.4-.35,1.84-.54l.51,3.17c-.21.11-.51.22-.88.34-.38.12-.8.22-1.28.32-.48.1-1,.18-1.56.24-.56.06-1.12.1-1.7.1-1.48,0-2.76-.22-3.85-.66-1.09-.44-1.99-1.05-2.69-1.83-.71-.78-1.23-1.7-1.57-2.76-.34-1.06-.51-2.22-.51-3.48ZM1043.34,93.25c0-.53-.08-1.04-.22-1.52-.15-.48-.37-.9-.66-1.25-.29-.35-.64-.63-1.06-.83s-.91-.3-1.49-.3-1.12.11-1.57.34c-.45.22-.83.52-1.14.88-.31.36-.55.78-.72,1.25-.17.47-.29.95-.35,1.44h7.22Z"/>
      <path class="cls-5" d="M753.93,125.55c.75-.21,1.72-.42,2.92-.61s2.52-.29,3.98-.29c1.37,0,2.51.19,3.43.56.92.38,1.65.9,2.2,1.57.55.67.93,1.49,1.16,2.44s.34,1.99.34,3.13v9.43h-3.88v-8.82c0-.9-.06-1.66-.18-2.29-.12-.63-.31-1.14-.58-1.54-.27-.4-.63-.68-1.09-.87-.46-.18-1.02-.27-1.68-.27-.49,0-1,.03-1.54.1-.54.06-.93.12-1.19.16v13.53h-3.88v-16.23Z"/>
      <path class="cls-5" d="M771.76,133.47c0-1.48.22-2.77.66-3.88.44-1.11,1.02-2.04,1.75-2.77.73-.74,1.56-1.29,2.5-1.67.94-.37,1.9-.56,2.89-.56,2.31,0,4.11.72,5.4,2.15,1.29,1.43,1.94,3.57,1.94,6.42,0,.21,0,.45-.02.72s-.03.51-.05.72h-11.06c.11,1.35.58,2.39,1.43,3.13.84.74,2.07,1.11,3.67,1.11.94,0,1.8-.09,2.58-.26s1.4-.35,1.84-.54l.51,3.17c-.21.11-.51.22-.88.34-.38.12-.8.22-1.28.32-.48.1-1,.18-1.56.24-.56.06-1.12.1-1.7.1-1.48,0-2.76-.22-3.85-.66-1.09-.44-1.99-1.05-2.69-1.83-.71-.78-1.23-1.7-1.57-2.76-.34-1.06-.51-2.22-.51-3.48ZM783.02,131.74c0-.53-.08-1.04-.22-1.52-.15-.48-.37-.9-.66-1.25-.29-.35-.64-.63-1.06-.83s-.91-.3-1.49-.3-1.12.11-1.57.34c-.45.22-.83.52-1.14.88-.31.36-.55.78-.72,1.25-.17.47-.29.95-.35,1.44h7.22Z"/>
      <path class="cls-5" d="M790.82,120.58l3.88-.64v5.07h5.96v3.24h-5.96v6.83c0,1.35.21,2.31.64,2.89s1.16.87,2.18.87c.71,0,1.33-.08,1.88-.22s.98-.29,1.3-.42l.64,3.08c-.45.19-1.04.39-1.76.59-.73.2-1.58.3-2.57.3-1.2,0-2.2-.16-3-.48-.8-.32-1.44-.79-1.91-1.39-.47-.61-.8-1.35-.99-2.21s-.29-1.85-.29-2.97v-14.53Z"/>
      <path class="cls-5" d="M814.44,131.22c-.49,1.88-1.02,3.72-1.59,5.5-.57,1.79-1.13,3.47-1.68,5.05h-3.19c-.43-.98-.88-2.11-1.35-3.37-.47-1.26-.94-2.61-1.41-4.04s-.94-2.94-1.41-4.52c-.47-1.58-.93-3.2-1.38-4.84h4.11c.19.9.42,1.87.68,2.9s.53,2.1.81,3.17c.28,1.08.57,2.13.87,3.16.3,1.03.6,1.97.9,2.82.32-.98.64-2,.95-3.05.31-1.05.6-2.09.88-3.14.28-1.05.54-2.07.79-3.06.25-1,.47-1.93.66-2.81h2.98c.19.88.41,1.81.64,2.81.23.99.49,2.01.75,3.06.27,1.05.56,2.1.86,3.14.31,1.05.62,2.06.94,3.05.28-.85.57-1.8.87-2.82s.6-2.08.89-3.16c.29-1.08.56-2.14.82-3.17s.48-2,.68-2.9h4.01c-.45,1.65-.91,3.26-1.38,4.84-.47,1.58-.94,3.09-1.41,4.52s-.94,2.78-1.41,4.04-.93,2.38-1.38,3.37h-3.15c-.56-1.58-1.13-3.27-1.71-5.05-.59-1.78-1.13-3.62-1.62-5.5Z"/>
      <path class="cls-5" d="M844.28,133.37c0,1.33-.19,2.53-.58,3.62-.38,1.09-.93,2.02-1.64,2.79-.71.77-1.56,1.37-2.55,1.8s-2.09.64-3.29.64-2.29-.21-3.27-.64c-.98-.43-1.83-1.03-2.53-1.8-.71-.77-1.26-1.7-1.65-2.79-.4-1.09-.59-2.3-.59-3.62s.2-2.53.59-3.61c.4-1.08.95-2,1.67-2.77.72-.77,1.57-1.36,2.55-1.78.98-.42,2.06-.62,3.24-.62s2.26.21,3.25.62,1.84,1.01,2.55,1.78c.71.77,1.26,1.7,1.65,2.77.4,1.08.59,2.28.59,3.61ZM840.3,133.37c0-1.67-.36-2.99-1.07-3.96s-1.72-1.46-3-1.46-2.28.49-3,1.46c-.72.97-1.07,2.29-1.07,3.96s.36,3.03,1.07,4.01c.72.98,1.72,1.47,3,1.47s2.28-.49,3-1.47,1.07-2.32,1.07-4.01Z"/>
      <path class="cls-5" d="M857.85,128.5c-.32-.11-.77-.22-1.33-.34-.57-.12-1.22-.18-1.97-.18-.43,0-.88.04-1.36.13-.48.08-.82.16-1.01.22v13.44h-3.88v-15.97c.75-.28,1.68-.54,2.81-.79,1.12-.25,2.37-.37,3.74-.37.26,0,.56.02.9.05s.68.08,1.03.13c.34.05.67.12.99.19.32.08.58.14.77.21l-.67,3.27Z"/>
      <path class="cls-5" d="M865.09,131.54c.49-.51,1.01-1.06,1.57-1.65.56-.59,1.1-1.18,1.64-1.76.53-.59,1.04-1.15,1.52-1.7.48-.54.89-1.02,1.23-1.43h4.59c-1.07,1.2-2.19,2.44-3.38,3.72-1.18,1.28-2.37,2.53-3.57,3.75.64.54,1.31,1.18,2.02,1.94s1.39,1.57,2.05,2.42c.66.86,1.28,1.71,1.86,2.57.58.86,1.06,1.65,1.44,2.37h-4.49c-.39-.66-.83-1.36-1.33-2.08-.5-.73-1.04-1.43-1.62-2.12s-1.17-1.33-1.76-1.94-1.19-1.13-1.76-1.56v7.7h-3.88v-24.25l3.88-.64v14.66Z"/>
      <path class="cls-5" d="M890.69,120.09c0,.73-.24,1.3-.71,1.73-.47.43-1.03.64-1.67.64s-1.23-.21-1.7-.64c-.47-.43-.71-1-.71-1.73s.24-1.34.71-1.76c.47-.43,1.04-.64,1.7-.64s1.2.21,1.67.64c.47.43.71,1.02.71,1.76ZM890.27,141.77h-3.88v-16.77h3.88v16.77Z"/>
      <path class="cls-5" d="M895.21,125.55c.75-.21,1.72-.42,2.92-.61s2.52-.29,3.98-.29c1.37,0,2.51.19,3.43.56.92.38,1.65.9,2.2,1.57.55.67.93,1.49,1.16,2.44s.34,1.99.34,3.13v9.43h-3.88v-8.82c0-.9-.06-1.66-.18-2.29-.12-.63-.31-1.14-.58-1.54-.27-.4-.63-.68-1.09-.87-.46-.18-1.02-.27-1.68-.27-.49,0-1,.03-1.54.1-.54.06-.93.12-1.19.16v13.53h-3.88v-16.23Z"/>
      <path class="cls-5" d="M913.78,120.58l3.88-.64v5.07h5.96v3.24h-5.96v6.83c0,1.35.21,2.31.64,2.89s1.16.87,2.18.87c.71,0,1.33-.08,1.88-.22s.98-.29,1.3-.42l.64,3.08c-.45.19-1.04.39-1.76.59-.73.2-1.58.3-2.57.3-1.2,0-2.2-.16-3-.48-.8-.32-1.44-.79-1.91-1.39-.47-.61-.8-1.35-.99-2.21s-.29-1.85-.29-2.97v-14.53Z"/>
      <path class="cls-5" d="M926.16,133.47c0-1.48.22-2.77.66-3.88.44-1.11,1.02-2.04,1.75-2.77.73-.74,1.56-1.29,2.5-1.67.94-.37,1.9-.56,2.89-.56,2.31,0,4.11.72,5.4,2.15,1.29,1.43,1.94,3.57,1.94,6.42,0,.21,0,.45-.02.72s-.03.51-.05.72h-11.06c.11,1.35.58,2.39,1.43,3.13.84.74,2.07,1.11,3.67,1.11.94,0,1.8-.09,2.58-.26s1.4-.35,1.84-.54l.51,3.17c-.21.11-.51.22-.88.34-.38.12-.8.22-1.28.32-.48.1-1,.18-1.56.24-.56.06-1.12.1-1.7.1-1.48,0-2.76-.22-3.85-.66-1.09-.44-1.99-1.05-2.69-1.83-.71-.78-1.23-1.7-1.57-2.76-.34-1.06-.51-2.22-.51-3.48ZM937.41,131.74c0-.53-.08-1.04-.22-1.52-.15-.48-.37-.9-.66-1.25-.29-.35-.64-.63-1.06-.83s-.91-.3-1.49-.3-1.12.11-1.57.34c-.45.22-.83.52-1.14.88-.31.36-.55.78-.72,1.25-.17.47-.29.95-.35,1.44h7.22Z"/>
      <path class="cls-5" d="M954.96,128.5c-.32-.11-.77-.22-1.33-.34-.57-.12-1.22-.18-1.97-.18-.43,0-.88.04-1.36.13-.48.08-.82.16-1.01.22v13.44h-3.88v-15.97c.75-.28,1.68-.54,2.81-.79,1.12-.25,2.37-.37,3.74-.37.26,0,.56.02.9.05s.68.08,1.03.13c.34.05.67.12.99.19.32.08.58.14.77.21l-.67,3.27Z"/>
      <path class="cls-5" d="M965.16,116.89c.9,0,1.69.08,2.37.24.68.16,1.2.3,1.54.43l-.74,3.21c-.36-.17-.79-.31-1.27-.42-.48-.11-1-.16-1.56-.16-.62,0-1.14.09-1.57.27s-.77.43-1.03.75c-.26.32-.44.71-.54,1.17-.11.46-.16.96-.16,1.49v1.12h6.09v3.24h-6.09v13.53h-3.88v-17.96c0-2.16.57-3.85,1.7-5.08,1.13-1.23,2.84-1.84,5.13-1.84Z"/>
      <path class="cls-5" d="M976.73,124.58c1.28,0,2.36.16,3.24.48.88.32,1.58.77,2.1,1.35.52.58.9,1.28,1.12,2.1s.34,1.73.34,2.71v10.17c-.6.13-1.5.28-2.71.46s-2.57.27-4.09.27c-1,0-1.92-.1-2.76-.29s-1.54-.5-2.13-.93c-.59-.43-1.05-.98-1.38-1.67-.33-.68-.5-1.53-.5-2.53s.19-1.77.56-2.44c.37-.66.88-1.2,1.52-1.62.64-.42,1.38-.72,2.23-.9.84-.18,1.73-.27,2.65-.27.43,0,.88.03,1.35.08.47.05.97.14,1.51.27v-.64c0-.45-.05-.88-.16-1.28-.11-.41-.29-.76-.56-1.08-.27-.31-.62-.55-1.06-.72s-.99-.26-1.65-.26c-.9,0-1.72.06-2.47.19s-1.36.28-1.83.45l-.48-3.14c.49-.17,1.21-.34,2.15-.51.94-.17,1.95-.26,3.01-.26ZM977.05,139.05c1.2,0,2.11-.06,2.73-.19v-4.3c-.21-.06-.52-.13-.93-.19-.41-.06-.86-.1-1.35-.1-.43,0-.86.03-1.3.1-.44.06-.83.18-1.19.35s-.64.41-.85.72c-.21.31-.32.7-.32,1.17,0,.92.29,1.55.87,1.91.58.35,1.36.53,2.34.53Z"/>
      <path class="cls-5" d="M987.35,133.4c0-1.24.19-2.4.58-3.48.38-1.08.93-2.01,1.65-2.81.72-.79,1.59-1.41,2.61-1.86,1.03-.45,2.18-.67,3.46-.67,1.58,0,3.08.29,4.49.87l-.83,3.17c-.45-.19-.96-.35-1.52-.48-.57-.13-1.17-.19-1.81-.19-1.52,0-2.67.48-3.46,1.43s-1.19,2.29-1.19,4.02.37,2.99,1.12,3.96c.75.97,2.01,1.46,3.78,1.46.66,0,1.32-.06,1.96-.19.64-.13,1.2-.29,1.67-.48l.54,3.21c-.43.21-1.07.41-1.94.58s-1.76.26-2.68.26c-1.43,0-2.68-.22-3.74-.66-1.06-.44-1.94-1.05-2.63-1.83-.7-.78-1.21-1.71-1.56-2.79-.34-1.08-.51-2.25-.51-3.51Z"/>
      <path class="cls-5" d="M1002.49,133.47c0-1.48.22-2.77.66-3.88.44-1.11,1.02-2.04,1.75-2.77.73-.74,1.56-1.29,2.5-1.67.94-.37,1.9-.56,2.89-.56,2.31,0,4.11.72,5.4,2.15,1.29,1.43,1.94,3.57,1.94,6.42,0,.21,0,.45-.02.72s-.03.51-.05.72h-11.06c.11,1.35.58,2.39,1.43,3.13.84.74,2.07,1.11,3.67,1.11.94,0,1.8-.09,2.58-.26s1.4-.35,1.84-.54l.51,3.17c-.21.11-.51.22-.88.34-.38.12-.8.22-1.28.32-.48.1-1,.18-1.56.24-.56.06-1.12.1-1.7.1-1.48,0-2.76-.22-3.85-.66-1.09-.44-1.99-1.05-2.69-1.83-.71-.78-1.23-1.7-1.57-2.76-.34-1.06-.51-2.22-.51-3.48ZM1013.74,131.74c0-.53-.08-1.04-.22-1.52-.15-.48-.37-.9-.66-1.25-.29-.35-.64-.63-1.06-.83s-.91-.3-1.49-.3-1.12.11-1.57.34c-.45.22-.83.52-1.14.88-.31.36-.55.78-.72,1.25-.17.47-.29.95-.35,1.44h7.22Z"/>
    </g>
    <g>
      <path class="cls-5" d="M97.8,78.88c-1.6-3.46-3.15-7.09-4.64-10.87-1.49-3.79-2.87-7.57-4.16-11.35h4.46c.51,1.5,1.04,3.03,1.58,4.59.54,1.56,1.07,3.09,1.61,4.6.54,1.51,1.07,2.97,1.61,4.38.54,1.41,1.06,2.71,1.58,3.88.49-1.18,1.01-2.46,1.54-3.87.54-1.4,1.08-2.86,1.62-4.38.55-1.52,1.09-3.06,1.62-4.62.54-1.56,1.05-3.09,1.54-4.59h4.33c-1.31,3.78-2.7,7.57-4.18,11.35-1.48,3.78-3.03,7.41-4.64,10.87h-3.88Z"/>
      <path class="cls-5" d="M110.94,70.57c0-1.48.22-2.77.66-3.88.44-1.11,1.02-2.04,1.75-2.77.73-.74,1.56-1.29,2.5-1.67s1.9-.56,2.89-.56c2.31,0,4.11.72,5.4,2.15,1.29,1.43,1.94,3.57,1.94,6.42,0,.21,0,.45-.02.72s-.03.51-.05.72h-11.06c.11,1.35.58,2.39,1.43,3.13.84.74,2.07,1.11,3.67,1.11.94,0,1.8-.09,2.58-.26.78-.17,1.4-.35,1.84-.54l.51,3.17c-.21.11-.51.22-.88.34-.37.12-.8.22-1.28.32-.48.1-1,.18-1.56.24-.56.06-1.12.1-1.7.1-1.48,0-2.76-.22-3.85-.66-1.09-.44-1.99-1.05-2.69-1.83s-1.23-1.7-1.57-2.76c-.34-1.06-.51-2.22-.51-3.48ZM122.2,68.84c0-.53-.08-1.04-.22-1.52-.15-.48-.37-.9-.66-1.25s-.64-.63-1.06-.83c-.42-.2-.91-.3-1.49-.3s-1.12.11-1.57.34c-.45.22-.83.52-1.14.88-.31.36-.55.78-.72,1.25-.17.47-.29.95-.35,1.44h7.22Z"/>
      <path class="cls-5" d="M130.19,62.65c.75-.21,1.72-.42,2.92-.61,1.2-.19,2.52-.29,3.98-.29,1.37,0,2.51.19,3.43.56.92.38,1.65.9,2.2,1.57.54.67.93,1.49,1.15,2.44.22.95.34,1.99.34,3.13v9.43h-3.88v-8.82c0-.9-.06-1.66-.18-2.29-.12-.63-.31-1.14-.58-1.54-.27-.4-.63-.68-1.09-.87-.46-.18-1.02-.27-1.68-.27-.49,0-1.01.03-1.54.1-.53.06-.93.12-1.19.16v13.53h-3.88v-16.23Z"/>
      <path class="cls-5" d="M163.12,78.37c-.77.24-1.74.45-2.9.64-1.17.19-2.39.29-3.67.29s-2.51-.2-3.56-.61c-1.05-.41-1.94-.99-2.68-1.75-.74-.76-1.3-1.68-1.7-2.76-.4-1.08-.59-2.29-.59-3.64s.17-2.53.5-3.61c.33-1.08.82-2,1.46-2.77.64-.77,1.42-1.36,2.34-1.78.92-.42,1.98-.62,3.18-.62.81,0,1.53.1,2.15.29.62.19,1.15.41,1.6.64v-8.05l3.88-.64v24.38ZM151.99,70.45c0,1.71.41,3.05,1.22,4.02.81.97,1.94,1.46,3.37,1.46.62,0,1.15-.03,1.59-.08.44-.05.8-.11,1.07-.18v-9.62c-.34-.23-.8-.45-1.36-.66-.57-.2-1.17-.3-1.81-.3-1.41,0-2.44.48-3.09,1.44-.65.96-.98,2.27-.98,3.91Z"/>
      <path class="cls-5" d="M183.23,70.48c0,1.33-.19,2.53-.58,3.62-.38,1.09-.93,2.02-1.64,2.79s-1.56,1.37-2.55,1.8c-.99.43-2.09.64-3.29.64s-2.29-.21-3.27-.64c-.98-.43-1.83-1.03-2.53-1.8s-1.26-1.7-1.65-2.79c-.4-1.09-.59-2.3-.59-3.62s.2-2.53.59-3.61c.4-1.08.95-2,1.67-2.77s1.57-1.36,2.55-1.78,2.06-.62,3.24-.62,2.26.21,3.26.62,1.84,1.01,2.55,1.78,1.26,1.7,1.65,2.77c.4,1.08.59,2.28.59,3.61ZM179.26,70.48c0-1.67-.36-2.99-1.07-3.96s-1.72-1.46-3-1.46-2.28.49-3,1.46c-.72.97-1.07,2.29-1.07,3.96s.36,3.03,1.07,4.01c.72.98,1.72,1.47,3,1.47s2.28-.49,3-1.47,1.07-2.32,1.07-4.01Z"/>
      <path class="cls-5" d="M196.8,65.6c-.32-.11-.76-.22-1.33-.34-.57-.12-1.22-.18-1.97-.18-.43,0-.88.04-1.36.13-.48.08-.82.16-1.01.22v13.44h-3.88v-15.97c.75-.28,1.68-.54,2.81-.79,1.12-.25,2.37-.37,3.74-.37.26,0,.56.02.9.05.34.03.68.08,1.03.13.34.05.67.12.99.19.32.08.58.14.77.21l-.67,3.27Z"/>
      <path class="cls-5" d="M217.66,68.33c-.49,1.88-1.02,3.72-1.59,5.5-.57,1.79-1.13,3.47-1.68,5.05h-3.19c-.43-.98-.88-2.11-1.35-3.37s-.94-2.61-1.41-4.04-.94-2.94-1.41-4.52c-.47-1.58-.93-3.2-1.38-4.84h4.11c.19.9.42,1.87.68,2.9.26,1.04.53,2.1.81,3.17.28,1.08.57,2.13.87,3.16s.6,1.97.9,2.82c.32-.98.64-2,.95-3.05.31-1.05.61-2.09.88-3.14.28-1.05.54-2.07.79-3.06.25-1,.47-1.93.66-2.81h2.98c.19.88.41,1.81.64,2.81.23.99.48,2.01.75,3.06s.55,2.1.86,3.14c.31,1.05.62,2.06.94,3.05.28-.85.57-1.8.87-2.82.3-1.03.6-2.08.89-3.16.29-1.08.56-2.14.82-3.17.26-1.04.48-2,.68-2.9h4.01c-.45,1.65-.91,3.26-1.38,4.84-.47,1.58-.94,3.09-1.41,4.52s-.94,2.78-1.41,4.04-.93,2.38-1.38,3.37h-3.15c-.56-1.58-1.13-3.27-1.71-5.05-.59-1.78-1.13-3.62-1.62-5.5Z"/>
      <path class="cls-5" d="M232.65,78.88v-24.25l3.88-.64v8.31c.43-.15.92-.28,1.49-.38.57-.11,1.13-.16,1.68-.16,1.35,0,2.46.19,3.35.56.89.38,1.6.9,2.13,1.57.53.67.91,1.48,1.14,2.42.22.94.34,1.99.34,3.14v9.43h-3.88v-8.82c0-.9-.06-1.66-.18-2.29-.12-.63-.31-1.14-.58-1.54-.27-.4-.63-.68-1.07-.87-.45-.18-1-.27-1.67-.27-.51,0-1.04.05-1.57.16-.53.11-.93.2-1.19.29v13.34h-3.88Z"/>
      <path class="cls-5" d="M266.49,70.48c0,1.33-.19,2.53-.58,3.62-.38,1.09-.93,2.02-1.64,2.79s-1.56,1.37-2.55,1.8c-.99.43-2.09.64-3.29.64s-2.29-.21-3.27-.64c-.98-.43-1.83-1.03-2.53-1.8s-1.26-1.7-1.65-2.79c-.4-1.09-.59-2.3-.59-3.62s.2-2.53.59-3.61c.4-1.08.95-2,1.67-2.77s1.57-1.36,2.55-1.78,2.06-.62,3.24-.62,2.26.21,3.26.62,1.84,1.01,2.55,1.78,1.26,1.7,1.65,2.77c.4,1.08.59,2.28.59,3.61ZM262.51,70.48c0-1.67-.36-2.99-1.07-3.96s-1.72-1.46-3-1.46-2.28.49-3,1.46c-.72.97-1.07,2.29-1.07,3.96s.36,3.03,1.07,4.01c.72.98,1.72,1.47,3,1.47s2.28-.49,3-1.47,1.07-2.32,1.07-4.01Z"/>
      <path class="cls-5" d="M293.08,70.51c0,1.35-.2,2.56-.59,3.64-.4,1.08-.96,2-1.7,2.77-.74.77-1.63,1.36-2.68,1.76-1.05.41-2.23.61-3.56.61s-2.51-.1-3.67-.29c-1.17-.19-2.13-.41-2.9-.64v-23.73l3.88-.64v8.69c.45-.24,1-.45,1.65-.64s1.37-.29,2.17-.29c1.18,0,2.23.21,3.16.62s1.71,1.01,2.33,1.78c.62.77,1.09,1.69,1.43,2.77.33,1.08.5,2.27.5,3.58ZM289.1,70.45c0-1.65-.33-2.95-.98-3.91s-1.68-1.44-3.1-1.44c-.64,0-1.25.1-1.81.29s-1.02.41-1.36.64v9.65c.28.06.63.12,1.07.18.44.05.97.08,1.59.08,1.43,0,2.55-.49,3.37-1.46.81-.97,1.22-2.31,1.22-4.02Z"/>
      <path class="cls-5" d="M310.84,78.37c-.75.19-1.72.39-2.92.59s-2.51.3-3.94.3c-1.35,0-2.48-.19-3.38-.58-.91-.38-1.64-.92-2.18-1.6-.55-.68-.94-1.5-1.17-2.45s-.35-1.99-.35-3.13v-9.4h3.88v8.79c0,1.8.26,3.08.79,3.85.52.77,1.44,1.16,2.74,1.16.47,0,.97-.02,1.49-.06.52-.04.91-.1,1.17-.16v-13.57h3.88v16.26Z"/>
      <path class="cls-5" d="M320.11,57.2c0,.73-.24,1.3-.71,1.73-.47.43-1.03.64-1.67.64s-1.23-.21-1.7-.64c-.47-.43-.71-1-.71-1.73s.24-1.34.71-1.76c.47-.43,1.04-.64,1.7-.64s1.2.21,1.67.64c.47.43.71,1.02.71,1.76ZM319.69,78.88h-3.88v-16.77h3.88v16.77Z"/>
      <path class="cls-5" d="M330.47,79.2c-1.15-.02-2.11-.15-2.87-.38-.76-.23-1.36-.57-1.81-1.01s-.76-.98-.95-1.64-.27-1.4-.27-2.23v-19.31l3.88-.64v19.21c0,.47.04.87.11,1.19.07.32.21.59.4.82s.45.4.79.51c.33.12.75.21,1.27.27l-.54,3.21Z"/>
      <path class="cls-5" d="M348.33,78.37c-.77.24-1.74.45-2.9.64-1.17.19-2.39.29-3.67.29s-2.51-.2-3.56-.61c-1.05-.41-1.94-.99-2.68-1.75-.74-.76-1.3-1.68-1.7-2.76s-.59-2.29-.59-3.64.17-2.53.5-3.61c.33-1.08.82-2,1.46-2.77s1.42-1.36,2.34-1.78,1.98-.62,3.17-.62c.81,0,1.53.1,2.15.29s1.15.41,1.6.64v-8.05l3.88-.64v24.38ZM337.21,70.45c0,1.71.41,3.05,1.22,4.02.81.97,1.93,1.46,3.37,1.46.62,0,1.15-.03,1.59-.08.44-.05.8-.11,1.07-.18v-9.62c-.34-.23-.8-.45-1.36-.66-.57-.2-1.17-.3-1.81-.3-1.41,0-2.44.48-3.1,1.44s-.98,2.27-.98,3.91Z"/>
      <path class="cls-5" d="M360.55,57.68l3.88-.64v5.07h5.96v3.24h-5.96v6.83c0,1.35.21,2.31.64,2.89s1.16.87,2.18.87c.71,0,1.33-.08,1.88-.22s.98-.29,1.3-.42l.64,3.08c-.45.19-1.04.39-1.76.59-.73.2-1.58.3-2.57.3-1.2,0-2.2-.16-3-.48-.8-.32-1.44-.79-1.91-1.39-.47-.61-.8-1.35-.99-2.21s-.29-1.85-.29-2.97v-14.53Z"/>
      <path class="cls-5" d="M374.15,78.88v-24.25l3.88-.64v8.31c.43-.15.92-.28,1.49-.38.57-.11,1.13-.16,1.68-.16,1.35,0,2.46.19,3.35.56.89.38,1.6.9,2.13,1.57.53.67.91,1.48,1.14,2.42.22.94.34,1.99.34,3.14v9.43h-3.88v-8.82c0-.9-.06-1.66-.18-2.29-.12-.63-.31-1.14-.58-1.54-.27-.4-.63-.68-1.07-.87-.45-.18-1.01-.27-1.67-.27-.51,0-1.04.05-1.57.16-.54.11-.93.2-1.19.29v13.34h-3.88Z"/>
      <path class="cls-5" d="M391.89,70.57c0-1.48.22-2.77.66-3.88.44-1.11,1.02-2.04,1.75-2.77.73-.74,1.56-1.29,2.5-1.67.94-.37,1.9-.56,2.89-.56,2.31,0,4.11.72,5.4,2.15,1.29,1.43,1.94,3.57,1.94,6.42,0,.21,0,.45-.02.72s-.03.51-.05.72h-11.06c.11,1.35.58,2.39,1.43,3.13.84.74,2.07,1.11,3.67,1.11.94,0,1.8-.09,2.58-.26s1.4-.35,1.84-.54l.51,3.17c-.21.11-.51.22-.88.34-.38.12-.8.22-1.28.32-.48.1-1,.18-1.56.24-.56.06-1.12.1-1.7.1-1.48,0-2.76-.22-3.85-.66-1.09-.44-1.99-1.05-2.69-1.83-.71-.78-1.23-1.7-1.57-2.76-.34-1.06-.51-2.22-.51-3.48ZM403.14,68.84c0-.53-.08-1.04-.22-1.52-.15-.48-.37-.9-.66-1.25-.29-.35-.64-.63-1.06-.83s-.91-.3-1.49-.3-1.12.11-1.57.34c-.45.22-.83.52-1.14.88-.31.36-.55.78-.72,1.25-.17.47-.29.95-.35,1.44h7.22Z"/>
      <path class="cls-5" d="M117.29,101.14c.75-.21,1.72-.42,2.92-.61,1.2-.19,2.52-.29,3.98-.29,1.37,0,2.51.19,3.43.56.92.38,1.65.9,2.2,1.57.54.67.93,1.49,1.15,2.44.22.95.34,1.99.34,3.13v9.43h-3.88v-8.82c0-.9-.06-1.66-.18-2.29-.12-.63-.31-1.14-.58-1.54-.27-.4-.63-.68-1.09-.87-.46-.18-1.02-.27-1.68-.27-.49,0-1.01.03-1.54.1-.53.06-.93.12-1.19.16v13.53h-3.88v-16.23Z"/>
      <path class="cls-5" d="M135.12,109.06c0-1.48.22-2.77.66-3.88.44-1.11,1.02-2.04,1.75-2.77.73-.74,1.56-1.29,2.5-1.67s1.9-.56,2.89-.56c2.31,0,4.11.72,5.4,2.15,1.29,1.43,1.94,3.57,1.94,6.42,0,.21,0,.45-.02.72s-.03.51-.05.72h-11.06c.11,1.35.58,2.39,1.43,3.13.84.74,2.07,1.11,3.67,1.11.94,0,1.8-.09,2.58-.26.78-.17,1.4-.35,1.84-.54l.51,3.17c-.21.11-.51.22-.88.34-.37.12-.8.22-1.28.32-.48.1-1,.18-1.56.24-.56.06-1.12.1-1.7.1-1.48,0-2.76-.22-3.85-.66-1.09-.44-1.99-1.05-2.69-1.83s-1.23-1.7-1.57-2.76c-.34-1.06-.51-2.22-.51-3.48ZM146.38,107.33c0-.53-.08-1.04-.22-1.52-.15-.48-.37-.9-.66-1.25s-.64-.63-1.06-.83c-.42-.2-.91-.3-1.49-.3s-1.12.11-1.57.34c-.45.22-.83.52-1.14.88-.31.36-.55.78-.72,1.25-.17.47-.29.95-.35,1.44h7.22Z"/>
      <path class="cls-5" d="M154.17,96.17l3.88-.64v5.07h5.97v3.24h-5.97v6.83c0,1.35.21,2.31.64,2.89.43.58,1.15.87,2.18.87.71,0,1.33-.08,1.88-.22.54-.15.98-.29,1.3-.42l.64,3.08c-.45.19-1.04.39-1.76.59-.73.2-1.58.3-2.57.3-1.2,0-2.2-.16-3-.48-.8-.32-1.44-.79-1.91-1.39-.47-.61-.8-1.35-.99-2.21s-.29-1.85-.29-2.97v-14.53Z"/>
      <path class="cls-5" d="M177.79,106.81c-.49,1.88-1.02,3.72-1.59,5.5-.57,1.79-1.13,3.47-1.68,5.05h-3.19c-.43-.98-.88-2.11-1.35-3.37s-.94-2.61-1.41-4.04-.94-2.94-1.41-4.52c-.47-1.58-.93-3.2-1.38-4.84h4.11c.19.9.42,1.87.68,2.9.26,1.04.53,2.1.81,3.17.28,1.08.57,2.13.87,3.16s.6,1.97.9,2.82c.32-.98.64-2,.95-3.05.31-1.05.61-2.09.88-3.14.28-1.05.54-2.07.79-3.06.25-1,.47-1.93.66-2.81h2.98c.19.88.41,1.81.64,2.81.23.99.48,2.01.75,3.06s.55,2.1.86,3.14c.31,1.05.62,2.06.94,3.05.28-.85.57-1.8.87-2.82.3-1.03.6-2.08.89-3.16.29-1.08.56-2.14.82-3.17.26-1.04.48-2,.68-2.9h4.01c-.45,1.65-.91,3.26-1.38,4.84-.47,1.58-.94,3.09-1.41,4.52s-.94,2.78-1.41,4.04-.93,2.38-1.38,3.37h-3.15c-.56-1.58-1.13-3.27-1.71-5.05-.59-1.78-1.13-3.62-1.62-5.5Z"/>
      <path class="cls-5" d="M207.64,108.96c0,1.33-.19,2.53-.58,3.62-.38,1.09-.93,2.02-1.64,2.79s-1.56,1.37-2.55,1.8c-.99.43-2.09.64-3.29.64s-2.29-.21-3.27-.64c-.98-.43-1.83-1.03-2.53-1.8s-1.26-1.7-1.65-2.79c-.4-1.09-.59-2.3-.59-3.62s.2-2.53.59-3.61c.4-1.08.95-2,1.67-2.77s1.57-1.36,2.55-1.78,2.06-.62,3.24-.62,2.26.21,3.26.62,1.84,1.01,2.55,1.78,1.26,1.7,1.65,2.77c.4,1.08.59,2.28.59,3.61ZM203.66,108.96c0-1.67-.36-2.99-1.07-3.96s-1.72-1.46-3-1.46-2.28.49-3,1.46c-.72.97-1.07,2.29-1.07,3.96s.36,3.03,1.07,4.01c.72.98,1.72,1.47,3,1.47s2.28-.49,3-1.47,1.07-2.32,1.07-4.01Z"/>
      <path class="cls-5" d="M221.2,104.09c-.32-.11-.76-.22-1.33-.34-.57-.12-1.22-.18-1.97-.18-.43,0-.88.04-1.36.13-.48.08-.82.16-1.01.22v13.44h-3.88v-15.97c.75-.28,1.68-.54,2.81-.79,1.12-.25,2.37-.37,3.74-.37.26,0,.56.02.9.05.34.03.68.08,1.03.13.34.05.67.12.99.19.32.08.58.14.77.21l-.67,3.27Z"/>
      <path class="cls-5" d="M228.45,107.14c.49-.51,1.02-1.06,1.57-1.65.56-.59,1.1-1.18,1.64-1.76.53-.59,1.04-1.15,1.52-1.7.48-.54.89-1.02,1.23-1.43h4.59c-1.07,1.2-2.19,2.44-3.38,3.72-1.18,1.28-2.37,2.53-3.57,3.75.64.54,1.31,1.18,2.02,1.94s1.39,1.57,2.05,2.42c.66.86,1.28,1.71,1.86,2.57s1.06,1.65,1.44,2.37h-4.49c-.38-.66-.83-1.36-1.33-2.08-.5-.73-1.04-1.43-1.62-2.12-.58-.68-1.17-1.33-1.76-1.94-.6-.61-1.19-1.13-1.76-1.56v7.7h-3.88v-24.25l3.88-.64v14.66Z"/>
      <path class="cls-5" d="M254.04,95.69c0,.73-.24,1.3-.71,1.73-.47.43-1.03.64-1.67.64s-1.23-.21-1.7-.64c-.47-.43-.71-1-.71-1.73s.23-1.34.71-1.76c.47-.43,1.04-.64,1.7-.64s1.2.21,1.67.64c.47.43.71,1.02.71,1.76ZM253.63,117.37h-3.88v-16.77h3.88v16.77Z"/>
      <path class="cls-5" d="M258.57,101.14c.75-.21,1.72-.42,2.92-.61,1.2-.19,2.52-.29,3.98-.29,1.37,0,2.51.19,3.43.56.92.38,1.65.9,2.2,1.57.54.67.93,1.49,1.15,2.44.22.95.34,1.99.34,3.13v9.43h-3.88v-8.82c0-.9-.06-1.66-.18-2.29-.12-.63-.31-1.14-.58-1.54-.27-.4-.63-.68-1.09-.87-.46-.18-1.02-.27-1.68-.27-.49,0-1.01.03-1.54.1-.53.06-.93.12-1.19.16v13.53h-3.88v-16.23Z"/>
      <path class="cls-5" d="M277.14,96.17l3.88-.64v5.07h5.96v3.24h-5.96v6.83c0,1.35.21,2.31.64,2.89s1.16.87,2.18.87c.71,0,1.33-.08,1.88-.22s.98-.29,1.3-.42l.64,3.08c-.45.19-1.04.39-1.76.59-.73.2-1.58.3-2.57.3-1.2,0-2.2-.16-3-.48-.8-.32-1.44-.79-1.91-1.39-.47-.61-.8-1.35-.99-2.21s-.29-1.85-.29-2.97v-14.53Z"/>
      <path class="cls-5" d="M289.52,109.06c0-1.48.22-2.77.66-3.88.44-1.11,1.02-2.04,1.75-2.77.73-.74,1.56-1.29,2.5-1.67.94-.37,1.9-.56,2.89-.56,2.31,0,4.11.72,5.4,2.15,1.29,1.43,1.94,3.57,1.94,6.42,0,.21,0,.45-.02.72s-.03.51-.05.72h-11.06c.11,1.35.58,2.39,1.43,3.13.84.74,2.07,1.11,3.67,1.11.94,0,1.8-.09,2.58-.26s1.4-.35,1.84-.54l.51,3.17c-.21.11-.51.22-.88.34-.38.12-.8.22-1.28.32-.48.1-1,.18-1.56.24-.56.06-1.12.1-1.7.1-1.48,0-2.76-.22-3.85-.66-1.09-.44-1.99-1.05-2.69-1.83-.71-.78-1.23-1.7-1.57-2.76-.34-1.06-.51-2.22-.51-3.48ZM300.77,107.33c0-.53-.08-1.04-.22-1.52-.15-.48-.37-.9-.66-1.25-.29-.35-.64-.63-1.06-.83s-.91-.3-1.49-.3-1.12.11-1.57.34c-.45.22-.83.52-1.14.88-.31.36-.55.78-.72,1.25-.17.47-.29.95-.35,1.44h7.22Z"/>
      <path class="cls-5" d="M318.32,104.09c-.32-.11-.77-.22-1.33-.34-.57-.12-1.22-.18-1.97-.18-.43,0-.88.04-1.36.13-.48.08-.82.16-1.01.22v13.44h-3.88v-15.97c.75-.28,1.68-.54,2.81-.79,1.12-.25,2.37-.37,3.74-.37.26,0,.56.02.9.05s.68.08,1.03.13c.34.05.67.12.99.19.32.08.58.14.77.21l-.67,3.27Z"/>
      <path class="cls-5" d="M328.51,92.48c.9,0,1.69.08,2.37.24.68.16,1.2.3,1.54.43l-.74,3.21c-.36-.17-.79-.31-1.27-.42-.48-.11-1-.16-1.56-.16-.62,0-1.14.09-1.57.27s-.77.43-1.03.75c-.26.32-.44.71-.54,1.17-.11.46-.16.96-.16,1.49v1.12h6.09v3.24h-6.09v13.53h-3.88v-17.96c0-2.16.57-3.85,1.7-5.08,1.13-1.23,2.84-1.84,5.13-1.84Z"/>
      <path class="cls-5" d="M340.09,100.18c1.28,0,2.36.16,3.24.48.88.32,1.58.77,2.1,1.35.52.58.9,1.28,1.12,2.1s.34,1.73.34,2.71v10.17c-.6.13-1.5.28-2.71.46s-2.57.27-4.09.27c-1,0-1.92-.1-2.76-.29s-1.54-.5-2.13-.93c-.59-.43-1.05-.98-1.38-1.67-.33-.68-.5-1.53-.5-2.53s.19-1.77.56-2.44c.37-.66.88-1.2,1.52-1.62.64-.42,1.38-.72,2.23-.9.84-.18,1.73-.27,2.65-.27.43,0,.88.03,1.35.08.47.05.97.14,1.51.27v-.64c0-.45-.05-.88-.16-1.28-.11-.41-.29-.76-.56-1.08-.27-.31-.62-.55-1.06-.72s-.99-.26-1.65-.26c-.9,0-1.72.06-2.47.19s-1.36.28-1.83.45l-.48-3.14c.49-.17,1.21-.34,2.15-.51.94-.17,1.95-.26,3.01-.26ZM340.41,114.64c1.2,0,2.11-.06,2.73-.19v-4.3c-.21-.06-.52-.13-.93-.19-.41-.06-.86-.1-1.35-.1-.43,0-.86.03-1.3.1-.44.06-.83.18-1.19.35s-.64.41-.85.72c-.21.31-.32.7-.32,1.17,0,.92.29,1.55.87,1.91.58.35,1.36.53,2.34.53Z"/>
      <path class="cls-5" d="M350.71,109c0-1.24.19-2.4.58-3.48.38-1.08.93-2.01,1.65-2.81.72-.79,1.59-1.41,2.61-1.86,1.03-.45,2.18-.67,3.46-.67,1.58,0,3.08.29,4.49.87l-.83,3.17c-.45-.19-.96-.35-1.52-.48-.57-.13-1.17-.19-1.81-.19-1.52,0-2.67.48-3.46,1.43s-1.19,2.29-1.19,4.02.37,2.99,1.12,3.96c.75.97,2.01,1.46,3.78,1.46.66,0,1.32-.06,1.96-.19.64-.13,1.2-.29,1.67-.48l.54,3.21c-.43.21-1.07.41-1.94.58s-1.76.26-2.68.26c-1.43,0-2.68-.22-3.74-.66-1.06-.44-1.94-1.05-2.63-1.83-.7-.78-1.21-1.71-1.56-2.79-.34-1.08-.51-2.25-.51-3.51Z"/>
      <path class="cls-5" d="M365.84,109.06c0-1.48.22-2.77.66-3.88.44-1.11,1.02-2.04,1.75-2.77.73-.74,1.56-1.29,2.5-1.67.94-.37,1.9-.56,2.89-.56,2.31,0,4.11.72,5.4,2.15,1.29,1.43,1.94,3.57,1.94,6.42,0,.21,0,.45-.02.72s-.03.51-.05.72h-11.06c.11,1.35.58,2.39,1.43,3.13.84.74,2.07,1.11,3.67,1.11.94,0,1.8-.09,2.58-.26s1.4-.35,1.84-.54l.51,3.17c-.21.11-.51.22-.88.34-.38.12-.8.22-1.28.32-.48.1-1,.18-1.56.24-.56.06-1.12.1-1.7.1-1.48,0-2.76-.22-3.85-.66-1.09-.44-1.99-1.05-2.69-1.83-.71-.78-1.23-1.7-1.57-2.76-.34-1.06-.51-2.22-.51-3.48ZM377.1,107.33c0-.53-.08-1.04-.22-1.52-.15-.48-.37-.9-.66-1.25-.29-.35-.64-.63-1.06-.83s-.91-.3-1.49-.3-1.12.11-1.57.34c-.45.22-.83.52-1.14.88-.31.36-.55.78-.72,1.25-.17.47-.29.95-.35,1.44h7.22Z"/>
      <path class="cls-5" d="M89.95,146.26c0,2.63.4,5.1,1.19,7.41.79,2.31,1.89,4.42,3.3,6.32l-2.73,1.8c-1.73-2.07-3.1-4.43-4.11-7.07s-1.51-5.46-1.51-8.45.5-5.81,1.51-8.45,2.37-5,4.11-7.07l2.73,1.8c-1.41,1.92-2.51,4.04-3.3,6.33-.79,2.3-1.19,4.76-1.19,7.39Z"/>
      <path class="cls-5" d="M101.37,134.17c0,.73-.24,1.3-.71,1.73-.47.43-1.03.64-1.67.64s-1.23-.21-1.7-.64c-.47-.43-.71-1-.71-1.73s.23-1.34.71-1.76c.47-.43,1.04-.64,1.7-.64s1.2.21,1.67.64c.47.43.71,1.02.71,1.76ZM100.95,155.85h-3.88v-16.77h3.88v16.77Z"/>
      <path class="cls-5" d="M105.89,139.62c.75-.21,1.72-.42,2.92-.61,1.2-.19,2.52-.29,3.98-.29,1.37,0,2.51.19,3.43.56.92.38,1.65.9,2.2,1.57.54.67.93,1.49,1.15,2.44.22.95.34,1.99.34,3.13v9.43h-3.88v-8.82c0-.9-.06-1.66-.18-2.29-.12-.63-.31-1.14-.58-1.54-.27-.4-.63-.68-1.09-.87-.46-.18-1.02-.27-1.68-.27-.49,0-1.01.03-1.54.1-.53.06-.93.12-1.19.16v13.53h-3.88v-16.23Z"/>
      <path class="cls-5" d="M131.93,134.65l3.88-.64v5.07h5.97v3.24h-5.97v6.83c0,1.35.21,2.31.64,2.89.43.58,1.15.87,2.18.87.71,0,1.33-.08,1.88-.22.54-.15.98-.29,1.3-.42l.64,3.08c-.45.19-1.04.39-1.76.59-.73.2-1.58.3-2.57.3-1.2,0-2.2-.16-3-.48-.8-.32-1.44-.79-1.91-1.39-.47-.61-.8-1.35-.99-2.21s-.29-1.85-.29-2.97v-14.53Z"/>
      <path class="cls-5" d="M145.53,155.85v-24.25l3.88-.64v8.31c.43-.15.92-.28,1.49-.38.57-.11,1.13-.16,1.68-.16,1.35,0,2.46.19,3.35.56.89.38,1.6.9,2.13,1.57.53.67.91,1.48,1.14,2.42.22.94.34,1.99.34,3.14v9.43h-3.88v-8.82c0-.9-.06-1.66-.18-2.29-.12-.63-.31-1.14-.58-1.54-.27-.4-.63-.68-1.07-.87-.45-.18-1-.27-1.67-.27-.51,0-1.04.05-1.57.16-.53.11-.93.2-1.19.29v13.34h-3.88Z"/>
      <path class="cls-5" d="M168.53,134.17c0,.73-.24,1.3-.71,1.73-.47.43-1.03.64-1.67.64s-1.23-.21-1.7-.64c-.47-.43-.71-1-.71-1.73s.23-1.34.71-1.76c.47-.43,1.04-.64,1.7-.64s1.2.21,1.67.64c.47.43.71,1.02.71,1.76ZM168.11,155.85h-3.88v-16.77h3.88v16.77Z"/>
      <path class="cls-5" d="M177.25,153.06c1.03,0,1.77-.12,2.25-.37.47-.25.71-.67.71-1.27,0-.56-.25-1.02-.75-1.38s-1.33-.76-2.49-1.19c-.71-.26-1.35-.53-1.94-.82-.59-.29-1.1-.62-1.52-1.01s-.76-.85-1.01-1.4c-.25-.54-.37-1.21-.37-2,0-1.54.57-2.75,1.7-3.64,1.13-.89,2.67-1.33,4.62-1.33.98,0,1.92.09,2.82.27s1.57.36,2.02.53l-.71,3.14c-.43-.19-.97-.37-1.64-.53-.66-.16-1.43-.24-2.31-.24-.79,0-1.43.13-1.92.4s-.74.68-.74,1.23c0,.28.05.52.14.74s.26.41.5.59.55.36.93.54c.38.18.85.37,1.41.56.92.34,1.7.68,2.34,1.01.64.33,1.17.71,1.59,1.12s.72.89.91,1.43.29,1.18.29,1.92c0,1.6-.59,2.82-1.78,3.64-1.19.82-2.88,1.23-5.08,1.23-1.48,0-2.66-.12-3.56-.37-.9-.25-1.53-.44-1.89-.59l.67-3.24c.58.24,1.27.46,2.07.67.8.21,1.72.32,2.74.32Z"/>
      <path class="cls-5" d="M199.51,134.17c0,.73-.24,1.3-.71,1.73-.47.43-1.03.64-1.67.64s-1.23-.21-1.7-.64c-.47-.43-.71-1-.71-1.73s.23-1.34.71-1.76c.47-.43,1.04-.64,1.7-.64s1.2.21,1.67.64c.47.43.71,1.02.71,1.76ZM199.09,155.85h-3.88v-16.77h3.88v16.77Z"/>
      <path class="cls-5" d="M204.03,139.62c.75-.21,1.72-.42,2.92-.61,1.2-.19,2.52-.29,3.98-.29,1.37,0,2.51.19,3.43.56.92.38,1.65.9,2.2,1.57.54.67.93,1.49,1.15,2.44.22.95.34,1.99.34,3.13v9.43h-3.88v-8.82c0-.9-.06-1.66-.18-2.29-.12-.63-.31-1.14-.58-1.54-.27-.4-.63-.68-1.09-.87-.46-.18-1.02-.27-1.68-.27-.49,0-1.01.03-1.54.1-.53.06-.93.12-1.19.16v13.53h-3.88v-16.23Z"/>
      <path class="cls-5" d="M226.99,153.06c1.03,0,1.77-.12,2.25-.37.47-.25.71-.67.71-1.27,0-.56-.25-1.02-.75-1.38s-1.33-.76-2.49-1.19c-.71-.26-1.35-.53-1.94-.82-.59-.29-1.1-.62-1.52-1.01s-.76-.85-1.01-1.4c-.25-.54-.37-1.21-.37-2,0-1.54.57-2.75,1.7-3.64,1.13-.89,2.67-1.33,4.62-1.33.98,0,1.92.09,2.82.27s1.57.36,2.02.53l-.71,3.14c-.43-.19-.97-.37-1.64-.53-.66-.16-1.43-.24-2.31-.24-.79,0-1.43.13-1.92.4s-.74.68-.74,1.23c0,.28.05.52.14.74s.26.41.5.59.55.36.93.54c.38.18.85.37,1.41.56.92.34,1.7.68,2.34,1.01.64.33,1.17.71,1.59,1.12s.72.89.91,1.43.29,1.18.29,1.92c0,1.6-.59,2.82-1.78,3.64-1.19.82-2.88,1.23-5.08,1.23-1.48,0-2.66-.12-3.56-.37-.9-.25-1.53-.44-1.89-.59l.67-3.24c.58.24,1.27.46,2.07.67.8.21,1.72.32,2.74.32Z"/>
      <path class="cls-5" d="M237.25,134.65l3.88-.64v5.07h5.97v3.24h-5.97v6.83c0,1.35.21,2.31.64,2.89.43.58,1.15.87,2.18.87.71,0,1.33-.08,1.88-.22.54-.15.98-.29,1.3-.42l.64,3.08c-.45.19-1.04.39-1.76.59-.73.2-1.58.3-2.57.3-1.2,0-2.2-.16-3-.48-.8-.32-1.44-.79-1.91-1.39-.47-.61-.8-1.35-.99-2.21s-.29-1.85-.29-2.97v-14.53Z"/>
      <path class="cls-5" d="M256.43,138.66c1.28,0,2.36.16,3.24.48.88.32,1.58.77,2.1,1.35.52.58.9,1.28,1.12,2.1.22.82.34,1.73.34,2.71v10.17c-.6.13-1.5.28-2.71.46-1.21.18-2.57.27-4.09.27-1,0-1.92-.1-2.76-.29-.83-.19-1.54-.5-2.13-.93-.59-.43-1.05-.98-1.38-1.67-.33-.68-.5-1.53-.5-2.53s.19-1.77.56-2.44c.37-.66.88-1.2,1.52-1.62.64-.42,1.38-.72,2.23-.9.84-.18,1.73-.27,2.65-.27.43,0,.88.03,1.35.08.47.05.97.14,1.51.27v-.64c0-.45-.05-.88-.16-1.28-.11-.41-.29-.76-.56-1.08-.27-.31-.62-.55-1.06-.72-.44-.17-.99-.26-1.65-.26-.9,0-1.72.06-2.47.19-.75.13-1.36.28-1.83.45l-.48-3.14c.49-.17,1.21-.34,2.15-.51s1.95-.26,3.01-.26ZM256.75,153.12c1.2,0,2.11-.06,2.73-.19v-4.3c-.21-.06-.52-.13-.93-.19-.41-.06-.85-.1-1.35-.1-.43,0-.86.03-1.3.1-.44.06-.83.18-1.19.35-.35.17-.64.41-.85.72-.21.31-.32.7-.32,1.17,0,.92.29,1.55.87,1.91.58.35,1.36.53,2.34.53Z"/>
      <path class="cls-5" d="M267.98,139.62c.75-.21,1.72-.42,2.92-.61,1.2-.19,2.52-.29,3.98-.29,1.37,0,2.51.19,3.43.56.92.38,1.65.9,2.2,1.57.55.67.93,1.49,1.16,2.44s.34,1.99.34,3.13v9.43h-3.88v-8.82c0-.9-.06-1.66-.18-2.29-.12-.63-.31-1.14-.58-1.54-.27-.4-.63-.68-1.09-.87-.46-.18-1.02-.27-1.68-.27-.49,0-1.01.03-1.54.1-.53.06-.93.12-1.19.16v13.53h-3.88v-16.23Z"/>
      <path class="cls-5" d="M285.81,147.48c0-1.24.19-2.4.58-3.48.38-1.08.93-2.01,1.65-2.81.72-.79,1.59-1.41,2.61-1.86,1.03-.45,2.18-.67,3.46-.67,1.58,0,3.08.29,4.49.87l-.83,3.17c-.45-.19-.96-.35-1.52-.48-.57-.13-1.17-.19-1.81-.19-1.52,0-2.67.48-3.46,1.43s-1.19,2.29-1.19,4.02.37,2.99,1.12,3.96c.75.97,2.01,1.46,3.78,1.46.66,0,1.32-.06,1.96-.19.64-.13,1.2-.29,1.67-.48l.54,3.21c-.43.21-1.07.41-1.94.58s-1.76.26-2.68.26c-1.43,0-2.68-.22-3.74-.66-1.06-.44-1.94-1.05-2.63-1.83-.7-.78-1.21-1.71-1.56-2.79-.34-1.08-.51-2.25-.51-3.51Z"/>
      <path class="cls-5" d="M300.95,147.54c0-1.48.22-2.77.66-3.88.44-1.11,1.02-2.04,1.75-2.77.73-.74,1.56-1.29,2.5-1.67.94-.37,1.9-.56,2.89-.56,2.31,0,4.11.72,5.4,2.15,1.29,1.43,1.94,3.57,1.94,6.42,0,.21,0,.45-.02.72s-.03.51-.05.72h-11.06c.11,1.35.58,2.39,1.43,3.13.84.74,2.07,1.11,3.67,1.11.94,0,1.8-.09,2.58-.26s1.4-.35,1.84-.54l.51,3.17c-.21.11-.51.22-.88.34-.38.12-.8.22-1.28.32-.48.1-1,.18-1.56.24-.56.06-1.12.1-1.7.1-1.48,0-2.76-.22-3.85-.66-1.09-.44-1.99-1.05-2.69-1.83-.71-.78-1.23-1.7-1.57-2.76-.34-1.06-.51-2.22-.51-3.48ZM312.21,145.81c0-.53-.08-1.04-.22-1.52-.15-.48-.37-.9-.66-1.25-.29-.35-.64-.63-1.06-.83s-.91-.3-1.49-.3-1.12.11-1.57.34c-.45.22-.83.52-1.14.88-.31.36-.55.78-.72,1.25-.17.47-.29.95-.35,1.44h7.22Z"/>
      <path class="cls-5" d="M324.2,151.59c.04.36.06.63.06.8v.51c0,1.33-.21,2.69-.63,4.1s-1,2.75-1.75,4.01l-3.05-.83c.51-1.24.86-2.45,1.04-3.64s.27-2.23.27-3.13c0-.26,0-.58-.02-.96-.01-.38-.03-.67-.05-.87h4.11Z"/>
      <path class="cls-5" d="M336.45,133.63h4.04v22.23h-4.04v-22.23Z"/>
      <path class="cls-5" d="M345.62,139.62c.75-.21,1.72-.42,2.92-.61s2.52-.29,3.98-.29c1.37,0,2.51.19,3.43.56.92.38,1.65.9,2.2,1.57.55.67.93,1.49,1.16,2.44s.34,1.99.34,3.13v9.43h-3.88v-8.82c0-.9-.06-1.66-.18-2.29-.12-.63-.31-1.14-.58-1.54-.27-.4-.63-.68-1.09-.87-.46-.18-1.02-.27-1.68-.27-.49,0-1,.03-1.54.1-.54.06-.93.12-1.19.16v13.53h-3.88v-16.23Z"/>
      <path class="cls-5" d="M364.19,134.65l3.88-.64v5.07h5.96v3.24h-5.96v6.83c0,1.35.21,2.31.64,2.89s1.16.87,2.18.87c.71,0,1.33-.08,1.88-.22s.98-.29,1.3-.42l.64,3.08c-.45.19-1.04.39-1.76.59-.73.2-1.58.3-2.57.3-1.2,0-2.2-.16-3-.48-.8-.32-1.44-.79-1.91-1.39-.47-.61-.8-1.35-.99-2.21s-.29-1.85-.29-2.97v-14.53Z"/>
      <path class="cls-5" d="M376.57,147.54c0-1.48.22-2.77.66-3.88.44-1.11,1.02-2.04,1.75-2.77.73-.74,1.56-1.29,2.5-1.67.94-.37,1.9-.56,2.89-.56,2.31,0,4.11.72,5.4,2.15,1.29,1.43,1.94,3.57,1.94,6.42,0,.21,0,.45-.02.72s-.03.51-.05.72h-11.06c.11,1.35.58,2.39,1.43,3.13.84.74,2.07,1.11,3.67,1.11.94,0,1.8-.09,2.58-.26s1.4-.35,1.84-.54l.51,3.17c-.21.11-.51.22-.88.34-.38.12-.8.22-1.28.32-.48.1-1,.18-1.56.24-.56.06-1.12.1-1.7.1-1.48,0-2.76-.22-3.85-.66-1.09-.44-1.99-1.05-2.69-1.83-.71-.78-1.23-1.7-1.57-2.76-.34-1.06-.51-2.22-.51-3.48ZM387.83,145.81c0-.53-.08-1.04-.22-1.52-.15-.48-.37-.9-.66-1.25-.29-.35-.64-.63-1.06-.83s-.91-.3-1.49-.3-1.12.11-1.57.34c-.45.22-.83.52-1.14.88-.31.36-.55.78-.72,1.25-.17.47-.29.95-.35,1.44h7.22Z"/>
      <path class="cls-5" d="M401.65,156.17c-1.15-.02-2.11-.15-2.87-.38-.76-.23-1.36-.57-1.81-1.01s-.76-.98-.95-1.64-.27-1.4-.27-2.23v-19.31l3.88-.64v19.21c0,.47.04.87.11,1.19.07.32.21.59.4.82s.45.4.79.51c.33.12.75.21,1.27.27l-.54,3.21Z"/>
      <path class="cls-5" d="M407.49,146.26c0-2.63-.4-5.09-1.19-7.39-.79-2.3-1.89-4.41-3.3-6.33l2.73-1.8c1.73,2.07,3.1,4.43,4.11,7.07,1,2.64,1.51,5.46,1.51,8.45s-.5,5.81-1.51,8.45c-1.01,2.64-2.37,5-4.11,7.07l-2.73-1.8c1.41-1.9,2.51-4.01,3.3-6.32.79-2.31,1.19-4.78,1.19-7.41Z"/>
    </g>
    <g id="Artwork_35" data-name="Artwork 35">
      <g>
        <path id="cloud" class="cls-5" d="M230.23,487.7c-.65-3.4-3.68-5.98-7.3-5.98h-1.28c-.98-4.87-5.25-8.43-10.27-8.43s-9.32,3.58-10.29,8.47c-3.73.4-6.64,3.53-6.64,7.33,0,4.07,3.34,7.38,7.45,7.38h11c.58-.02,1.05-.51,1.02-1.1-.02-.56-.47-1.01-1.02-1.02h-11c-2.94,0-5.33-2.36-5.33-5.26s2.39-5.26,5.33-5.26c1.08,0,2.15.33,3.03.96.42.3,1,.26,1.36-.1h0c.41-.4.41-1.06,0-1.48h0s-.08-.08-.13-.12c-.88-.62-1.88-1.05-2.94-1.24.9-3.73,4.22-6.43,8.13-6.43,4.13,0,7.62,3.02,8.26,7.09-.33.17-.65.36-.95.58-.47.34-.58,1-.25,1.47.03.05.07.1.12.14h0c.36.36.94.4,1.36.1.89-.63,1.95-.97,3.03-.96,2.59,0,4.76,1.84,5.23,4.26.1.49.53.86,1.04.86h0c.58,0,1.05-.46,1.06-1.04h0c.01-.07.01-.14,0-.21Z"/>
        <g id="numbers">
          <path class="cls-5" d="M217.11,494.69h-.91v-2.87s.02-.44.02-.44c-.1.1-.21.2-.32.29l-.49.4-.44-.54,1.38-1.09h.74v4.25Z"/>
          <path class="cls-5" d="M221.28,492.59c0,.75-.12,1.3-.37,1.66s-.62.54-1.13.54-.86-.19-1.12-.56-.38-.92-.38-1.64.12-1.31.36-1.67.62-.54,1.13-.54.86.19,1.12.56c.27.38.39.93.39,1.65ZM219.19,492.59c0,.52.05.9.14,1.13s.25.34.46.34.36-.12.46-.34.14-.6.14-1.13-.05-.91-.14-1.13-.25-.34-.45-.34-.36.12-.46.34-.14.6-.14,1.13Z"/>
          <path class="cls-5" d="M217.11,501.2h-.91v-2.87s.02-.44.02-.44c-.1.1-.21.2-.32.29l-.49.4-.44-.54,1.38-1.09h.74v4.25Z"/>
          <path class="cls-5" d="M220.54,501.2h-.91v-2.87s.02-.44.02-.44c-.1.1-.21.2-.32.29l-.49.4-.44-.54,1.38-1.09h.74v4.25h.01Z"/>
          <path class="cls-5" d="M223.97,501.2h-.91v-2.87s.02-.44.02-.44c-.1.1-.21.2-.32.29l-.49.4-.44-.54,1.38-1.09h.74v4.25Z"/>
          <path class="cls-5" d="M228.13,499.08c0,.75-.12,1.3-.37,1.66s-.62.54-1.13.54-.86-.19-1.12-.56-.38-.92-.38-1.65.12-1.31.36-1.67.62-.54,1.13-.54.86.19,1.12.56c.27.37.4.92.39,1.65ZM226.03,499.08c0,.52.05.9.14,1.13s.24.34.46.34.36-.12.46-.34.14-.6.14-1.13-.05-.91-.14-1.13-.25-.34-.45-.34-.36.12-.46.34-.14.6-.14,1.13Z"/>
          <path class="cls-5" d="M230.08,504.22c0,.54-.09.95-.27,1.21s-.45.39-.82.39-.63-.14-.81-.4-.27-.67-.27-1.19.09-.95.27-1.21c.18-.26.45-.39.82-.39s.63.14.82.41.27.67.27,1.19ZM228.56,504.22c0,.38.03.66.1.82.04.15.18.25.34.25s.26-.08.33-.25.1-.44.1-.82-.03-.66-.1-.82-.18-.25-.33-.25-.27.08-.33.25-.1.44-.1.82h0Z"/>
          <path class="cls-5" d="M232.04,505.73h-.68v-2.08s.02-.32.02-.32c-.11.11-.19.18-.23.21l-.37.29-.33-.39,1.03-.79h.56v3.09h0Z"/>
          <path class="cls-5" d="M216.93,504.25c0,.54-.09.93-.26,1.18s-.45.38-.81.38-.62-.13-.8-.4-.27-.65-.27-1.17.09-.93.26-1.19.44-.38.8-.38.62.13.8.4.27.66.27,1.17ZM215.44,504.25c0,.37.03.64.1.8.04.14.18.25.33.24.15,0,.26-.08.32-.25s.1-.43.1-.8-.03-.64-.1-.8-.17-.25-.32-.25-.26.08-.32.25-.11.43-.1.81h0Z"/>
          <path class="cls-5" d="M218.87,505.73h-.68v-2.03s.02-.31.02-.31c-.12.11-.19.18-.23.21l-.37.28-.32-.39,1.03-.77h.56v3.02Z"/>
          <path class="cls-5" d="M221.81,504.25c0,.54-.09.93-.26,1.18s-.45.38-.81.38-.62-.13-.8-.4-.27-.65-.27-1.17.09-.93.26-1.19.44-.38.8-.38.62.13.8.4.27.66.27,1.17ZM220.32,504.25c0,.37.03.64.1.8.04.14.18.25.33.24.16,0,.26-.08.32-.25s.1-.43.1-.8-.03-.64-.1-.8-.18-.25-.32-.25-.26.08-.32.25-.11.43-.1.81h0Z"/>
          <path class="cls-5" d="M223.68,505.73h-.62v-2.03s.02-.31.02-.31c-.11.11-.18.18-.22.21l-.33.28-.3-.39.94-.77h.51v3.02Z"/>
          <path class="cls-5" d="M216.29,508.14c0,.38-.06.67-.19.85s-.32.27-.58.27c-.23.01-.45-.1-.57-.29-.13-.19-.19-.47-.19-.84,0-.39.06-.67.19-.86s.32-.27.58-.27c.23-.01.45.1.58.29.12.2.19.48.19.85ZM215.21,508.14c0,.27.02.46.07.58.03.13.17.2.3.17h0c.08-.02.15-.08.17-.17.05-.12.07-.31.07-.58,0-.2-.01-.4-.08-.59-.03-.12-.17-.2-.29-.17h-.01c-.08.02-.15.08-.17.17-.05.2-.07.39-.06.6Z"/>
          <path class="cls-5" d="M217.65,509.23h-.49v-1.48s.01-.23.01-.23c-.08.08-.14.13-.16.15l-.27.2-.24-.28.74-.56h.39v2.2Z"/>
          <path class="cls-5" d="M222.38,510.87c0,.38-.06.67-.19.85s-.32.27-.58.27c-.23.01-.45-.1-.57-.29-.13-.19-.19-.47-.19-.84s.06-.67.19-.86.32-.27.58-.27c.23-.01.45.1.58.29.14.2.2.48.2.85ZM221.31,510.88c0,.27.02.46.07.58.03.12.16.2.29.17h.01c.08-.02.14-.08.16-.16.05-.12.07-.31.07-.58,0-.2-.01-.4-.08-.58-.03-.1-.12-.18-.23-.18s-.21.07-.23.18c-.04.11-.06.3-.06.58Z"/>
          <path class="cls-5" d="M223.75,511.97h-.48v-1.48s.01-.23.01-.23c-.08.08-.13.13-.16.15l-.26.21-.23-.28.73-.56h.4v2.2Z"/>
          <path class="cls-5" d="M227.41,507.71c0,.54-.09.93-.26,1.18s-.45.38-.81.38-.62-.13-.8-.4-.27-.65-.27-1.17.09-.93.26-1.19.44-.38.8-.38.62.13.8.4.27.66.27,1.17ZM225.92,507.71c0,.38.03.64.1.8.04.14.18.25.33.24.15,0,.26-.08.32-.25s.1-.43.1-.8-.03-.64-.1-.81-.18-.25-.33-.25-.26.08-.32.25-.1.45-.1.82h0Z"/>
          <path class="cls-5" d="M229.37,509.23h-.68v-2.03s.02-.31.02-.31c-.12.11-.19.18-.23.21l-.37.28-.32-.39,1.03-.77h.56v3.02h0Z"/>
          <path class="cls-5" d="M232.29,507.71c0,.54-.09.93-.26,1.18s-.45.38-.81.38-.62-.13-.8-.4-.27-.65-.27-1.17.09-.93.26-1.19.44-.38.8-.38.62.13.8.4.27.66.27,1.17ZM230.8,507.71c0,.38.03.64.1.8.04.14.18.25.33.24.15,0,.26-.08.32-.25s.1-.43.1-.8-.03-.64-.1-.81-.18-.25-.32-.25-.26.08-.32.25-.1.45-.1.82h0Z"/>
          <path class="cls-5" d="M227.6,494.69h-.9v-2.87s.02-.44.02-.44c-.1.1-.2.2-.31.29l-.49.4-.44-.54,1.37-1.09h.74v4.25h0Z"/>
          <path class="cls-5" d="M231.77,492.59c0,.75-.12,1.3-.37,1.66s-.62.54-1.13.54-.86-.19-1.12-.56-.38-.92-.38-1.64.12-1.31.36-1.67.62-.54,1.13-.54.86.19,1.12.56.38.93.39,1.65ZM229.67,492.59c0,.52.05.9.14,1.13s.25.34.46.34.36-.12.46-.34.14-.6.14-1.13-.05-.91-.14-1.13-.25-.34-.45-.34-.36.12-.46.34-.14.6-.14,1.13h0Z"/>
        </g>
      </g>
    </g>
  </g>
</svg>