<?xml version="1.0" encoding="UTF-8"?>
<svg id="Layer_1" data-name="Layer 1" xmlns="http://www.w3.org/2000/svg" width="1077.13" height="800" viewBox="0 0 1077.13 800">
  <rect x="28.31" y="691.97" width="1008.88" height="91.24" rx="19.28" ry="19.28" style="fill: #9f00ff; stroke: #9f00ff; stroke-miterlimit: 10; stroke-width: 3.77px;"/>
  <g>
    <path d="m65.95,718.49c1.56-.65,3.19-1.39,4.89-2.22,1.7-.83,3.36-1.75,4.97-2.75,1.62-1,3.17-2.05,4.65-3.15,1.48-1.1,2.82-2.28,4-3.52h8.41v56.03h-12.05v-40.34c-1.62,1.08-3.42,2.06-5.42,2.95-1.99.89-3.94,1.66-5.82,2.3l-3.64-9.3Z" style="fill: #fff;"/>
    <path d="m123.68,756.49c0,2.43-.77,4.27-2.3,5.54-1.54,1.27-3.27,1.9-5.21,1.9s-3.68-.63-5.22-1.9c-1.54-1.27-2.3-3.11-2.3-5.54s.77-4.27,2.3-5.54c1.54-1.27,3.27-1.9,5.22-1.9s3.68.63,5.21,1.9c1.54,1.27,2.3,3.11,2.3,5.54Z" style="fill: #fff;"/>
  </g>
  <g>
    <path d="m363.6,710.71c7.15,0,12.64,1.26,16.48,3.77,3.83,2.52,5.75,6.63,5.75,12.36s-1.94,9.93-5.81,12.5-9.41,3.84-16.61,3.84h-3.39v16.06h-10.8v-47.28c2.35-.46,4.85-.78,7.48-.97,2.63-.18,4.94-.28,6.92-.28Zm.69,9.21c-.79,0-1.56.02-2.32.07-.76.05-1.42.09-1.97.14v13.84h3.39c3.74,0,6.55-.51,8.45-1.52,1.89-1.01,2.84-2.91,2.84-5.68,0-1.34-.24-2.45-.73-3.32-.48-.88-1.18-1.58-2.08-2.11s-2-.9-3.29-1.11c-1.29-.21-2.72-.31-4.29-.31Z" style="fill: #fff;"/>
    <path d="m393.09,759.24v-52.06l10.31-1.66v17.44c.69-.23,1.58-.45,2.67-.66,1.08-.21,2.13-.31,3.15-.31,2.95,0,5.41.4,7.37,1.21,1.96.81,3.53,1.95,4.71,3.43,1.18,1.48,2.01,3.23,2.49,5.26.48,2.03.73,4.29.73,6.78v20.56h-10.31v-19.31c0-3.32-.43-5.68-1.28-7.06-.85-1.38-2.43-2.08-4.74-2.08-.92,0-1.79.08-2.6.24-.81.16-1.53.33-2.18.52v27.69h-10.31Z" style="fill: #fff;"/>
    <path d="m465.15,722.83c-2.08,7.02-4.26,13.59-6.52,19.73-2.27,6.14-4.74,12.09-7.43,17.86-.97,2.08-1.94,3.84-2.91,5.3-.97,1.45-2.03,2.65-3.19,3.6-1.16.95-2.46,1.64-3.92,2.08-1.46.44-3.15.66-5.09.66-1.62,0-3.11-.15-4.47-.45-1.36-.3-2.48-.63-3.36-1l1.8-8.24c1.06.37,2.01.62,2.84.76.83.14,1.71.21,2.63.21,1.85,0,3.27-.5,4.26-1.49.99-.99,1.84-2.37,2.53-4.12-2.36-4.61-4.71-9.79-7.07-15.54-2.35-5.75-4.57-12.19-6.65-19.35h10.94c.46,1.8,1.01,3.75,1.63,5.85.62,2.1,1.29,4.22,1.98,6.37.69,2.15,1.4,4.23,2.12,6.26.72,2.03,1.4,3.88,2.05,5.54.6-1.66,1.23-3.51,1.88-5.54.65-2.03,1.29-4.12,1.91-6.26.62-2.15,1.23-4.27,1.81-6.37.58-2.1,1.1-4.05,1.56-5.85h10.67Z" style="fill: #fff;"/>
    <path d="m481.07,751.83c1.89,0,3.23-.18,4.02-.55.78-.37,1.18-1.08,1.18-2.15,0-.83-.51-1.56-1.52-2.18-1.02-.62-2.56-1.33-4.64-2.11-1.62-.6-3.08-1.22-4.4-1.87-1.31-.65-2.43-1.42-3.36-2.32-.92-.9-1.64-1.97-2.15-3.22-.51-1.25-.76-2.75-.76-4.5,0-3.42,1.27-6.11,3.81-8.1,2.54-1.98,6.02-2.98,10.45-2.98,2.22,0,4.34.2,6.37.59,2.03.39,3.65.82,4.85,1.28l-1.8,8.03c-1.2-.42-2.5-.78-3.91-1.11-1.41-.32-2.99-.48-4.74-.48-3.23,0-4.85.9-4.85,2.7,0,.42.07.79.21,1.11.14.32.42.64.83.93.42.3.98.63,1.7.97.71.35,1.63.73,2.73,1.15,2.26.84,4.13,1.66,5.61,2.48,1.48.81,2.64,1.69,3.5,2.64.85.94,1.45,1.99,1.8,3.14.35,1.15.52,2.49.52,4.01,0,3.59-1.35,6.31-4.05,8.15-2.7,1.84-6.52,2.76-11.46,2.76-3.23,0-5.92-.28-8.06-.83s-3.63-1.01-4.47-1.38l1.73-8.38c1.75.69,3.55,1.24,5.4,1.63,1.85.39,3.67.59,5.47.59Z" style="fill: #fff;"/>
    <path d="m515.47,712.31c0,1.89-.61,3.38-1.83,4.46-1.22,1.08-2.67,1.63-4.33,1.63s-3.1-.54-4.33-1.63c-1.22-1.08-1.83-2.57-1.83-4.46s.61-3.38,1.83-4.46c1.22-1.08,2.67-1.63,4.33-1.63s3.1.54,4.33,1.63c1.22,1.08,1.83,2.57,1.83,4.46Zm-.97,46.93h-10.31v-36.41h10.31v36.41Z" style="fill: #fff;"/>
    <path d="m522.47,741.03c0-2.63.43-5.11,1.28-7.44.85-2.33,2.09-4.36,3.7-6.09,1.62-1.73,3.58-3.1,5.88-4.12,2.31-1.01,4.94-1.52,7.89-1.52,1.94,0,3.71.17,5.33.52,1.61.35,3.18.84,4.71,1.49l-2.15,8.24c-.97-.37-2.03-.69-3.18-.97-1.15-.28-2.45-.42-3.88-.42-3.05,0-5.32.95-6.82,2.84-1.5,1.89-2.25,4.38-2.25,7.48,0,3.28.7,5.81,2.11,7.61,1.41,1.8,3.86,2.7,7.37,2.7,1.25,0,2.58-.11,4.02-.35,1.43-.23,2.75-.6,3.95-1.11l1.45,8.45c-1.2.51-2.7.95-4.5,1.32s-3.78.55-5.95.55c-3.32,0-6.19-.5-8.58-1.49-2.4-.99-4.37-2.34-5.92-4.05-1.55-1.71-2.68-3.73-3.39-6.06-.72-2.33-1.07-4.86-1.07-7.58Z" style="fill: #fff;"/>
    <path d="m570.16,721.86c3.05,0,5.58.35,7.61,1.04,2.03.69,3.66,1.69,4.88,2.98,1.22,1.29,2.09,2.86,2.6,4.71.51,1.85.76,3.9.76,6.16v21.46c-1.48.32-3.53.7-6.16,1.14-2.63.44-5.81.66-9.55.66-2.35,0-4.49-.21-6.4-.62-1.92-.42-3.57-1.1-4.95-2.04-1.38-.95-2.45-2.18-3.18-3.7-.74-1.52-1.11-3.39-1.11-5.61s.43-3.92,1.28-5.4c.85-1.48,2-2.65,3.43-3.53,1.43-.88,3.07-1.51,4.92-1.9,1.85-.39,3.76-.59,5.75-.59,1.34,0,2.53.06,3.56.17,1.04.12,1.88.27,2.53.45v-.97c0-1.75-.53-3.16-1.59-4.22-1.06-1.06-2.91-1.59-5.54-1.59-1.75,0-3.48.13-5.19.38-1.71.25-3.18.61-4.43,1.07l-1.32-8.31c.6-.18,1.35-.38,2.25-.59.9-.21,1.88-.39,2.94-.55,1.06-.16,2.18-.3,3.36-.42,1.18-.11,2.36-.17,3.56-.17Zm.83,30.18c1.01,0,1.98-.02,2.91-.07.92-.05,1.66-.12,2.22-.21v-7.82c-.42-.09-1.04-.18-1.87-.28-.83-.09-1.59-.14-2.28-.14-.97,0-1.88.06-2.73.17-.85.12-1.6.33-2.25.66-.65.32-1.15.76-1.52,1.32-.37.55-.55,1.25-.55,2.08,0,1.62.54,2.73,1.63,3.36,1.08.62,2.57.93,4.47.93Z" style="fill: #fff;"/>
    <path d="m609.9,759.93c-3-.05-5.43-.37-7.3-.97-1.87-.6-3.35-1.44-4.43-2.53-1.08-1.08-1.82-2.4-2.22-3.95-.39-1.55-.59-3.29-.59-5.23v-40.08l10.31-1.66v39.67c0,.92.07,1.75.21,2.49.14.74.4,1.36.8,1.87.39.51.96.92,1.7,1.25.74.32,1.73.53,2.98.62l-1.45,8.51Z" style="fill: #fff;"/>
  </g>
  <rect x="28.31" y="31.06" width="1008.88" height="91.24" rx="19.28" ry="19.28" style="fill: #a3ea2a; stroke: #a3ea2a; stroke-miterlimit: 10; stroke-width: 3.77px;"/>
  <g>
    <path d="m71.77,101.97c.32-3.93,1-8.03,2.02-12.29,1.02-4.26,2.28-8.44,3.76-12.53,1.48-4.1,3.14-7.96,4.97-11.6,1.83-3.64,3.69-6.78,5.58-9.42h-24.34v-10.27h39.21v8.73c-1.73,1.89-3.63,4.5-5.7,7.84-2.08,3.34-4.04,7.13-5.9,11.36-1.86,4.23-3.48,8.77-4.85,13.62-1.37,4.85-2.22,9.7-2.55,14.55h-12.21Z" style="fill: #151c2b;"/>
    <path d="m123.68,95.58c0,2.43-.77,4.27-2.3,5.54-1.54,1.27-3.27,1.9-5.21,1.9s-3.68-.63-5.22-1.9c-1.54-1.27-2.3-3.11-2.3-5.54s.77-4.27,2.3-5.54c1.54-1.27,3.27-1.9,5.22-1.9s3.68.63,5.21,1.9c1.54,1.27,2.3,3.11,2.3,5.54Z" style="fill: #151c2b;"/>
  </g>
  <g>
    <path d="m381.38,98.33c-.53-1.67-1.11-3.38-1.72-5.14s-1.23-3.51-1.84-5.25h-18.74c-.61,1.75-1.21,3.5-1.82,5.26-.61,1.76-1.18,3.47-1.7,5.12h-11.21c1.81-5.17,3.52-9.94,5.14-14.33,1.62-4.38,3.21-8.51,4.76-12.39,1.55-3.88,3.08-7.56,4.58-11.04,1.5-3.48,3.07-6.89,4.69-10.21h10.24c1.58,3.32,3.13,6.73,4.66,10.21,1.53,3.49,3.07,7.17,4.62,11.04,1.55,3.88,3.14,8.01,4.76,12.39,1.62,4.39,3.34,9.16,5.15,14.33h-11.57Zm-12.97-37.1c-.24.7-.59,1.64-1.06,2.84-.46,1.2-.99,2.58-1.58,4.16s-1.26,3.3-1.99,5.19c-.73,1.89-1.48,3.87-2.23,5.94h13.72c-.73-2.08-1.45-4.07-2.13-5.96-.69-1.9-1.34-3.63-1.96-5.2-.62-1.57-1.16-2.96-1.63-4.15-.47-1.2-.84-2.14-1.13-2.82Z" style="fill: #151c2b;"/>
    <path d="m432.27,80.12c0,2.82-.35,5.38-1.04,7.68-.69,2.31-1.71,4.29-3.05,5.95-1.34,1.66-3,2.95-4.98,3.88-1.98.92-4.27,1.38-6.85,1.38-1.43,0-2.77-.14-4.01-.42-1.25-.28-2.45-.67-3.6-1.18v13.71h-10.31v-47.97c.92-.28,1.98-.54,3.18-.8,1.2-.25,2.46-.47,3.77-.66,1.32-.18,2.65-.33,4.02-.45,1.36-.11,2.67-.17,3.91-.17,3,0,5.68.45,8.03,1.35,2.35.9,4.34,2.17,5.95,3.81,1.61,1.64,2.85,3.63,3.7,5.99.85,2.35,1.28,4.98,1.28,7.89Zm-10.52.28c0-3.18-.72-5.73-2.15-7.65-1.43-1.91-3.55-2.87-6.37-2.87-.92,0-1.78.03-2.56.1-.79.07-1.43.15-1.94.24v18.62c.65.42,1.49.76,2.53,1.04,1.04.28,2.09.42,3.15.42,4.89,0,7.34-3.3,7.34-9.9Z" style="fill: #151c2b;"/>
    <path d="m474.08,80.12c0,2.82-.35,5.38-1.04,7.68-.69,2.31-1.71,4.29-3.05,5.95-1.34,1.66-3,2.95-4.98,3.88-1.98.92-4.27,1.38-6.85,1.38-1.43,0-2.77-.14-4.01-.42-1.25-.28-2.45-.67-3.6-1.18v13.71h-10.31v-47.97c.92-.28,1.98-.54,3.18-.8,1.2-.25,2.46-.47,3.77-.66,1.32-.18,2.65-.33,4.02-.45,1.36-.11,2.67-.17,3.91-.17,3,0,5.68.45,8.03,1.35,2.35.9,4.34,2.17,5.95,3.81,1.61,1.64,2.85,3.63,3.7,5.99.85,2.35,1.28,4.98,1.28,7.89Zm-10.52.28c0-3.18-.72-5.73-2.15-7.65-1.43-1.91-3.55-2.87-6.37-2.87-.92,0-1.78.03-2.56.1-.79.07-1.43.15-1.94.24v18.62c.65.42,1.49.76,2.53,1.04,1.04.28,2.09.42,3.15.42,4.89,0,7.34-3.3,7.34-9.9Z" style="fill: #151c2b;"/>
    <path d="m496.58,99.02c-3-.05-5.43-.37-7.3-.97-1.87-.6-3.35-1.44-4.43-2.53-1.08-1.08-1.82-2.4-2.22-3.95-.39-1.55-.59-3.29-.59-5.23v-40.08l10.31-1.66v39.67c0,.92.07,1.75.21,2.49.14.74.4,1.36.8,1.87.39.51.96.92,1.7,1.25.74.32,1.73.53,2.98.62l-1.45,8.51Z" style="fill: #151c2b;"/>
    <path d="m515.2,51.4c0,1.89-.61,3.38-1.83,4.46-1.22,1.08-2.67,1.63-4.33,1.63s-3.1-.54-4.33-1.63c-1.22-1.08-1.83-2.57-1.83-4.46s.61-3.38,1.83-4.46c1.22-1.08,2.67-1.63,4.33-1.63s3.1.54,4.33,1.63c1.22,1.08,1.83,2.57,1.83,4.46Zm-.97,46.93h-10.31v-36.41h10.31v36.41Z" style="fill: #151c2b;"/>
    <path d="m522.19,80.12c0-2.63.43-5.11,1.28-7.44.85-2.33,2.09-4.36,3.7-6.09,1.62-1.73,3.58-3.1,5.88-4.12,2.31-1.01,4.94-1.52,7.89-1.52,1.94,0,3.71.17,5.33.52,1.61.35,3.18.84,4.71,1.49l-2.15,8.24c-.97-.37-2.03-.69-3.18-.97-1.15-.28-2.45-.42-3.88-.42-3.05,0-5.32.95-6.82,2.84-1.5,1.89-2.25,4.38-2.25,7.48,0,3.28.7,5.81,2.11,7.61,1.41,1.8,3.86,2.7,7.37,2.7,1.25,0,2.58-.11,4.02-.35,1.43-.23,2.75-.6,3.95-1.11l1.45,8.45c-1.2.51-2.7.95-4.5,1.32s-3.78.55-5.95.55c-3.32,0-6.19-.5-8.58-1.49-2.4-.99-4.37-2.34-5.92-4.05-1.55-1.71-2.68-3.73-3.39-6.06-.72-2.33-1.07-4.86-1.07-7.58Z" style="fill: #151c2b;"/>
    <path d="m569.88,60.95c3.05,0,5.58.35,7.61,1.04,2.03.69,3.66,1.69,4.88,2.98,1.22,1.29,2.09,2.86,2.6,4.71.51,1.85.76,3.9.76,6.16v21.46c-1.48.32-3.53.7-6.16,1.14-2.63.44-5.81.66-9.55.66-2.35,0-4.49-.21-6.4-.62-1.92-.42-3.57-1.1-4.95-2.04-1.38-.95-2.45-2.18-3.18-3.7-.74-1.52-1.11-3.39-1.11-5.61s.43-3.92,1.28-5.4c.85-1.48,2-2.65,3.43-3.53,1.43-.88,3.07-1.51,4.92-1.9,1.85-.39,3.76-.59,5.75-.59,1.34,0,2.53.06,3.56.17,1.04.12,1.88.27,2.53.45v-.97c0-1.75-.53-3.16-1.59-4.22-1.06-1.06-2.91-1.59-5.54-1.59-1.75,0-3.48.13-5.19.38-1.71.25-3.18.61-4.43,1.07l-1.32-8.31c.6-.18,1.35-.38,2.25-.59.9-.21,1.88-.39,2.94-.55,1.06-.16,2.18-.3,3.36-.42,1.18-.11,2.36-.17,3.56-.17Zm.83,30.18c1.01,0,1.98-.02,2.91-.07.92-.05,1.66-.12,2.22-.21v-7.82c-.42-.09-1.04-.18-1.87-.28-.83-.09-1.59-.14-2.28-.14-.97,0-1.88.06-2.73.17-.85.12-1.6.33-2.25.66-.65.32-1.15.76-1.52,1.32-.37.55-.55,1.25-.55,2.08,0,1.62.54,2.73,1.63,3.36,1.08.62,2.57.93,4.47.93Z" style="fill: #151c2b;"/>
    <path d="m594.74,52.85l10.31-1.66v10.73h12.39v8.58h-12.39v12.81c0,2.17.38,3.9,1.14,5.19.76,1.29,2.29,1.94,4.6,1.94,1.11,0,2.25-.1,3.43-.31,1.18-.21,2.25-.5,3.22-.87l1.45,8.03c-1.25.51-2.63.95-4.15,1.32-1.52.37-3.39.55-5.61.55-2.82,0-5.15-.38-6.99-1.14-1.85-.76-3.32-1.82-4.43-3.18-1.11-1.36-1.88-3.01-2.32-4.95-.44-1.94-.66-4.08-.66-6.44v-30.6Z" style="fill: #151c2b;"/>
    <path d="m637.1,51.4c0,1.89-.61,3.38-1.83,4.46-1.22,1.08-2.67,1.63-4.33,1.63s-3.1-.54-4.33-1.63c-1.22-1.08-1.83-2.57-1.83-4.46s.61-3.38,1.83-4.46c1.22-1.08,2.67-1.63,4.33-1.63s3.1.54,4.33,1.63c1.22,1.08,1.83,2.57,1.83,4.46Zm-.97,46.93h-10.31v-36.41h10.31v36.41Z" style="fill: #151c2b;"/>
    <path d="m679.88,80.06c0,2.86-.42,5.48-1.25,7.86-.83,2.38-2.03,4.41-3.6,6.09-1.57,1.68-3.45,2.99-5.64,3.91-2.19.92-4.65,1.38-7.37,1.38s-5.11-.46-7.3-1.38c-2.19-.92-4.07-2.23-5.64-3.91-1.57-1.68-2.79-3.71-3.67-6.09-.88-2.38-1.31-5-1.31-7.86s.45-5.47,1.35-7.82,2.15-4.36,3.74-6.02c1.59-1.66,3.48-2.95,5.68-3.88,2.19-.92,4.58-1.38,7.16-1.38s5.04.46,7.23,1.38c2.19.92,4.07,2.21,5.64,3.88,1.57,1.66,2.79,3.67,3.67,6.02.88,2.35,1.32,4.96,1.32,7.82Zm-10.52,0c0-3.18-.63-5.69-1.9-7.51-1.27-1.82-3.08-2.73-5.43-2.73s-4.18.91-5.47,2.73c-1.29,1.82-1.94,4.33-1.94,7.51s.65,5.71,1.94,7.58c1.29,1.87,3.12,2.8,5.47,2.8s4.16-.93,5.43-2.8c1.27-1.87,1.9-4.4,1.9-7.58Z" style="fill: #151c2b;"/>
    <path d="m687.84,63.16c1.75-.51,4.02-.98,6.78-1.42,2.77-.44,5.68-.66,8.72-.66s5.66.4,7.72,1.21c2.05.81,3.68,1.95,4.88,3.43,1.2,1.48,2.05,3.23,2.56,5.26.51,2.03.76,4.29.76,6.78v20.56h-10.31v-19.31c0-3.32-.44-5.68-1.32-7.06-.88-1.38-2.52-2.08-4.92-2.08-.74,0-1.52.03-2.35.1s-1.57.15-2.22.24v28.11h-10.31v-35.17Z" style="fill: #151c2b;"/>
  </g>
  <rect x="28.31" y="138.96" width="1008.88" height="91.24" rx="19.28" ry="19.28" style="fill: #3bc81e; stroke: #3bc81e; stroke-miterlimit: 10; stroke-width: 3.77px;"/>
  <g>
    <path d="m83.98,174.13c3.5,0,6.48.47,8.93,1.42,2.45.94,4.46,2.22,6.02,3.84,1.56,1.62,2.69,3.5,3.4,5.66.7,2.16,1.05,4.45,1.05,6.87,0,2.16-.39,4.37-1.17,6.63-.78,2.26-1.97,4.31-3.56,6.14-1.59,1.83-3.61,3.34-6.06,4.53-2.45,1.18-5.35,1.78-8.69,1.78-6.74,0-11.86-2.13-15.36-6.39-3.5-4.26-5.26-10.13-5.26-17.62,0-5.39.84-10.16,2.51-14.31,1.67-4.15,4.06-7.64,7.16-10.47,3.1-2.83,6.84-4.99,11.24-6.47,4.39-1.48,9.34-2.25,14.84-2.3.11,1.67.21,3.3.32,4.89.11,1.59.21,3.25.32,4.97-2.75.05-5.32.31-7.72.77-2.4.46-4.58,1.17-6.55,2.14-1.97.97-3.68,2.22-5.13,3.76s-2.59,3.41-3.4,5.62c1.18-.54,2.4-.92,3.64-1.13,1.24-.21,2.4-.32,3.48-.32Zm-1.54,9.38c-1.19,0-2.45.11-3.8.32-1.35.22-2.4.51-3.15.89,0,.22-.01.54-.04.97-.03.43-.04.81-.04,1.13,0,1.94.13,3.77.4,5.5.27,1.73.73,3.23,1.37,4.53.65,1.29,1.51,2.3,2.59,3.03,1.08.73,2.43,1.09,4.04,1.09,1.35,0,2.49-.28,3.44-.85.94-.57,1.72-1.28,2.34-2.14.62-.86,1.08-1.82,1.37-2.87.3-1.05.44-2.06.44-3.03,0-2.75-.69-4.86-2.06-6.35-1.37-1.48-3.68-2.22-6.91-2.22Z" style="fill: #151c2b;"/>
    <path d="m123.68,203.48c0,2.43-.77,4.27-2.3,5.54-1.54,1.27-3.27,1.9-5.21,1.9s-3.68-.63-5.22-1.9c-1.54-1.27-2.3-3.11-2.3-5.54s.77-4.27,2.3-5.54c1.54-1.27,3.27-1.9,5.22-1.9s3.68.63,5.21,1.9c1.54,1.27,2.3,3.11,2.3,5.54Z" style="fill: #151c2b;"/>
  </g>
  <g>
    <path d="m363.6,157.71c7.15,0,12.64,1.26,16.48,3.77,3.83,2.52,5.75,6.63,5.75,12.36s-1.94,9.93-5.81,12.5-9.41,3.84-16.61,3.84h-3.39v16.06h-10.8v-47.28c2.35-.46,4.85-.78,7.48-.97,2.63-.18,4.94-.28,6.92-.28Zm.69,9.21c-.79,0-1.56.02-2.32.07-.76.05-1.42.09-1.97.14v13.84h3.39c3.74,0,6.55-.51,8.45-1.52,1.89-1.01,2.84-2.91,2.84-5.68,0-1.34-.24-2.45-.73-3.32-.48-.88-1.18-1.58-2.08-2.11s-2-.9-3.29-1.11c-1.29-.21-2.72-.31-4.29-.31Z" style="fill: #151c2b;"/>
    <path d="m415.03,178.96c-.92-.23-2.01-.47-3.25-.73-1.25-.25-2.58-.38-4.02-.38-.65,0-1.42.06-2.32.17s-1.58.24-2.04.38v27.83h-10.31v-34.47c1.85-.65,4.03-1.26,6.54-1.83,2.51-.58,5.32-.87,8.41-.87.55,0,1.22.03,2.01.1.78.07,1.57.16,2.35.28.78.12,1.57.25,2.35.42.78.16,1.45.36,2.01.59l-1.73,8.51Z" style="fill: #151c2b;"/>
    <path d="m419.88,188.31c0-3.23.5-6.06,1.49-8.48.99-2.42,2.3-4.44,3.91-6.06,1.61-1.62,3.47-2.84,5.57-3.67,2.1-.83,4.26-1.25,6.47-1.25,5.17,0,9.25,1.58,12.25,4.74,3,3.16,4.5,7.81,4.5,13.95,0,.6-.02,1.26-.07,1.97-.05.72-.09,1.35-.14,1.9h-23.4c.23,2.12,1.22,3.81,2.98,5.05,1.75,1.25,4.11,1.87,7.06,1.87,1.89,0,3.75-.17,5.57-.52,1.82-.35,3.31-.77,4.46-1.28l1.38,8.38c-.55.28-1.29.55-2.22.83-.92.28-1.95.52-3.08.73-1.13.21-2.34.38-3.63.52-1.29.14-2.58.21-3.88.21-3.28,0-6.13-.48-8.55-1.45-2.42-.97-4.43-2.3-6.02-3.98-1.59-1.68-2.77-3.68-3.53-5.99-.76-2.31-1.14-4.8-1.14-7.48Zm24.23-3.95c-.05-.88-.2-1.73-.45-2.56-.25-.83-.65-1.57-1.18-2.21-.53-.65-1.2-1.18-2.01-1.59-.81-.42-1.81-.62-3.01-.62s-2.15.2-2.98.59c-.83.39-1.52.91-2.08,1.56s-.98,1.4-1.28,2.25c-.3.85-.52,1.72-.66,2.6h13.64Z" style="fill: #151c2b;"/>
    <path d="m472.49,198.83c1.89,0,3.23-.18,4.02-.55.78-.37,1.18-1.08,1.18-2.15,0-.83-.51-1.56-1.52-2.18-1.02-.62-2.56-1.33-4.64-2.11-1.62-.6-3.08-1.22-4.4-1.87-1.31-.65-2.43-1.42-3.36-2.32-.92-.9-1.64-1.97-2.15-3.22-.51-1.25-.76-2.75-.76-4.5,0-3.42,1.27-6.11,3.81-8.1,2.54-1.98,6.02-2.98,10.45-2.98,2.22,0,4.34.2,6.37.59,2.03.39,3.65.82,4.85,1.28l-1.8,8.03c-1.2-.42-2.5-.78-3.91-1.11-1.41-.32-2.99-.48-4.74-.48-3.23,0-4.85.9-4.85,2.7,0,.42.07.79.21,1.11.14.32.42.64.83.93.42.3.98.63,1.7.97.71.35,1.63.73,2.73,1.15,2.26.84,4.13,1.66,5.61,2.48,1.48.81,2.64,1.69,3.5,2.64.85.94,1.45,1.99,1.8,3.14.35,1.15.52,2.49.52,4.01,0,3.59-1.35,6.31-4.05,8.15-2.7,1.84-6.52,2.76-11.46,2.76-3.23,0-5.92-.28-8.06-.83s-3.63-1.01-4.47-1.38l1.73-8.38c1.75.69,3.55,1.24,5.4,1.63,1.85.39,3.67.59,5.47.59Z" style="fill: #151c2b;"/>
    <path d="m493.88,188.31c0-3.23.5-6.06,1.49-8.48.99-2.42,2.3-4.44,3.91-6.06,1.61-1.62,3.47-2.84,5.57-3.67,2.1-.83,4.26-1.25,6.47-1.25,5.17,0,9.25,1.58,12.25,4.74,3,3.16,4.5,7.81,4.5,13.95,0,.6-.02,1.26-.07,1.97-.05.72-.09,1.35-.14,1.9h-23.4c.23,2.12,1.22,3.81,2.98,5.05,1.75,1.25,4.11,1.87,7.06,1.87,1.89,0,3.75-.17,5.57-.52,1.82-.35,3.31-.77,4.46-1.28l1.38,8.38c-.55.28-1.29.55-2.22.83-.92.28-1.95.52-3.08.73-1.13.21-2.34.38-3.63.52-1.29.14-2.58.21-3.88.21-3.28,0-6.13-.48-8.55-1.45-2.42-.97-4.43-2.3-6.02-3.98-1.59-1.68-2.77-3.68-3.53-5.99-.76-2.31-1.14-4.8-1.14-7.48Zm24.23-3.95c-.05-.88-.2-1.73-.45-2.56-.25-.83-.65-1.57-1.18-2.21-.53-.65-1.2-1.18-2.01-1.59-.81-.42-1.81-.62-3.01-.62s-2.15.2-2.98.59c-.83.39-1.52.91-2.08,1.56s-.98,1.4-1.28,2.25c-.3.85-.52,1.72-.66,2.6h13.64Z" style="fill: #151c2b;"/>
    <path d="m536.03,171.07c1.75-.51,4.02-.98,6.78-1.42,2.77-.44,5.68-.66,8.72-.66s5.66.4,7.72,1.21c2.05.81,3.68,1.95,4.88,3.43,1.2,1.48,2.05,3.23,2.56,5.26.51,2.03.76,4.29.76,6.78v20.56h-10.31v-19.31c0-3.32-.44-5.68-1.32-7.06-.88-1.38-2.52-2.08-4.92-2.08-.74,0-1.52.03-2.35.1s-1.57.15-2.22.24v28.11h-10.31v-35.17Z" style="fill: #151c2b;"/>
    <path d="m576.46,160.75l10.31-1.66v10.73h12.39v8.58h-12.39v12.81c0,2.17.38,3.9,1.14,5.19.76,1.29,2.29,1.94,4.6,1.94,1.11,0,2.25-.1,3.43-.31,1.18-.21,2.25-.5,3.22-.87l1.45,8.03c-1.25.51-2.63.95-4.15,1.32-1.52.37-3.39.55-5.61.55-2.82,0-5.15-.38-6.99-1.14-1.85-.76-3.32-1.82-4.43-3.18-1.11-1.36-1.88-3.01-2.32-4.95-.44-1.94-.66-4.08-.66-6.44v-30.6Z" style="fill: #151c2b;"/>
    <path d="m619.24,168.85c3.05,0,5.58.35,7.61,1.04,2.03.69,3.66,1.69,4.88,2.98,1.22,1.29,2.09,2.86,2.6,4.71.51,1.85.76,3.9.76,6.16v21.46c-1.48.32-3.53.7-6.16,1.14-2.63.44-5.81.66-9.55.66-2.35,0-4.49-.21-6.4-.62-1.92-.42-3.57-1.1-4.95-2.04-1.38-.95-2.45-2.18-3.18-3.7-.74-1.52-1.11-3.39-1.11-5.61s.43-3.92,1.28-5.4c.85-1.48,2-2.65,3.43-3.53,1.43-.88,3.07-1.51,4.92-1.9,1.85-.39,3.76-.59,5.75-.59,1.34,0,2.53.06,3.56.17,1.04.12,1.88.27,2.53.45v-.97c0-1.75-.53-3.16-1.59-4.22-1.06-1.06-2.91-1.59-5.54-1.59-1.75,0-3.48.13-5.19.38-1.71.25-3.18.61-4.43,1.07l-1.32-8.31c.6-.18,1.35-.38,2.25-.59.9-.21,1.88-.39,2.94-.55,1.06-.16,2.18-.3,3.36-.42,1.18-.11,2.36-.17,3.56-.17Zm.83,30.18c1.01,0,1.98-.02,2.91-.07.92-.05,1.66-.12,2.22-.21v-7.82c-.42-.09-1.04-.18-1.87-.28-.83-.09-1.59-.14-2.28-.14-.97,0-1.88.06-2.73.17-.85.12-1.6.33-2.25.66-.65.32-1.15.76-1.52,1.32-.37.55-.55,1.25-.55,2.08,0,1.62.54,2.73,1.63,3.36,1.08.62,2.57.93,4.47.93Z" style="fill: #151c2b;"/>
    <path d="m644.09,160.75l10.31-1.66v10.73h12.39v8.58h-12.39v12.81c0,2.17.38,3.9,1.14,5.19.76,1.29,2.29,1.94,4.6,1.94,1.11,0,2.25-.1,3.43-.31,1.18-.21,2.25-.5,3.22-.87l1.45,8.03c-1.25.51-2.63.95-4.15,1.32-1.52.37-3.39.55-5.61.55-2.82,0-5.15-.38-6.99-1.14-1.85-.76-3.32-1.82-4.43-3.18-1.11-1.36-1.88-3.01-2.32-4.95-.44-1.94-.66-4.08-.66-6.44v-30.6Z" style="fill: #151c2b;"/>
    <path d="m686.46,159.3c0,1.89-.61,3.38-1.83,4.46-1.22,1.08-2.67,1.63-4.33,1.63s-3.1-.54-4.33-1.63c-1.22-1.08-1.83-2.57-1.83-4.46s.61-3.38,1.83-4.46c1.22-1.08,2.67-1.63,4.33-1.63s3.1.54,4.33,1.63c1.22,1.08,1.83,2.57,1.83,4.46Zm-.97,46.93h-10.31v-36.41h10.31v36.41Z" style="fill: #151c2b;"/>
    <path d="m729.24,187.96c0,2.86-.42,5.48-1.25,7.86-.83,2.38-2.03,4.41-3.6,6.09-1.57,1.68-3.45,2.99-5.64,3.91-2.19.92-4.65,1.38-7.37,1.38s-5.11-.46-7.3-1.38c-2.19-.92-4.07-2.23-5.64-3.91-1.57-1.68-2.79-3.71-3.67-6.09-.88-2.38-1.31-5-1.31-7.86s.45-5.47,1.35-7.82,2.15-4.36,3.74-6.02c1.59-1.66,3.48-2.95,5.68-3.88,2.19-.92,4.58-1.38,7.16-1.38s5.04.46,7.23,1.38c2.19.92,4.07,2.21,5.64,3.88,1.57,1.66,2.79,3.67,3.67,6.02.88,2.35,1.32,4.96,1.32,7.82Zm-10.52,0c0-3.18-.63-5.69-1.9-7.51-1.27-1.82-3.08-2.73-5.43-2.73s-4.18.91-5.47,2.73c-1.29,1.82-1.94,4.33-1.94,7.51s.65,5.71,1.94,7.58c1.29,1.87,3.12,2.8,5.47,2.8s4.16-.93,5.43-2.8c1.27-1.87,1.9-4.4,1.9-7.58Z" style="fill: #151c2b;"/>
    <path d="m737.2,171.07c1.75-.51,4.02-.98,6.78-1.42,2.77-.44,5.68-.66,8.72-.66s5.66.4,7.72,1.21c2.05.81,3.68,1.95,4.88,3.43,1.2,1.48,2.05,3.23,2.56,5.26.51,2.03.76,4.29.76,6.78v20.56h-10.31v-19.31c0-3.32-.44-5.68-1.32-7.06-.88-1.38-2.52-2.08-4.92-2.08-.74,0-1.52.03-2.35.1s-1.57.15-2.22.24v28.11h-10.31v-35.17Z" style="fill: #151c2b;"/>
  </g>
  <rect x="28.31" y="253.86" width="1008.88" height="91.24" rx="19.28" ry="19.28" style="fill: #02adef; stroke: #02adef; stroke-miterlimit: 10; stroke-width: 3.77px;"/>
  <g>
    <path d="m89.4,308.27c0-1.56-.35-2.95-1.05-4.16-.7-1.21-1.91-2.22-3.64-3.03-1.73-.81-4.04-1.43-6.95-1.86-2.91-.43-6.58-.65-11-.65.59-5.01,1.08-10.11,1.46-15.28.38-5.17.67-10.03.89-14.55h30.32v10.11h-20.21c-.11,1.94-.23,3.81-.36,5.62-.14,1.81-.28,3.38-.44,4.73,7.87.54,13.68,2.39,17.42,5.54,3.75,3.15,5.62,7.53,5.62,13.14,0,2.59-.46,4.99-1.37,7.2-.92,2.21-2.29,4.12-4.12,5.74-1.83,1.62-4.14,2.88-6.91,3.8-2.78.92-6.02,1.38-9.74,1.38-1.46,0-2.98-.09-4.57-.28-1.59-.19-3.13-.43-4.61-.73-1.48-.3-2.82-.61-4-.93-1.19-.32-2.1-.65-2.75-.97l2.18-9.94c1.35.59,3.13,1.17,5.34,1.74,2.21.57,4.85.85,7.92.85,3.72,0,6.41-.74,8.09-2.22,1.67-1.48,2.51-3.22,2.51-5.21Z" style="fill: #151c2b;"/>
    <path d="m123.68,318.38c0,2.43-.77,4.27-2.3,5.54-1.54,1.27-3.27,1.9-5.21,1.9s-3.68-.63-5.22-1.9c-1.54-1.27-2.3-3.11-2.3-5.54s.77-4.27,2.3-5.54c1.54-1.27,3.27-1.9,5.22-1.9s3.68.63,5.21,1.9c1.54,1.27,2.3,3.11,2.3,5.54Z" style="fill: #151c2b;"/>
  </g>
  <g>
    <path d="m362.28,312.89c1.52,0,2.78-.13,3.77-.38.99-.25,1.79-.6,2.39-1.04.6-.44,1.01-.96,1.25-1.56.23-.6.35-1.27.35-2.01,0-1.57-.74-2.87-2.22-3.91-1.48-1.04-4.02-2.16-7.61-3.36-1.57-.55-3.14-1.19-4.71-1.9-1.57-.71-2.98-1.61-4.22-2.7-1.25-1.08-2.26-2.4-3.05-3.95-.79-1.55-1.18-3.43-1.18-5.64s.42-4.21,1.25-5.99c.83-1.78,2.01-3.29,3.53-4.53s3.37-2.2,5.54-2.87c2.17-.67,4.61-1,7.34-1,3.23,0,6.02.35,8.38,1.04,2.35.69,4.29,1.45,5.81,2.28l-3.12,8.51c-1.34-.69-2.83-1.3-4.47-1.83-1.64-.53-3.61-.8-5.92-.8-2.59,0-4.44.36-5.57,1.07-1.13.72-1.7,1.81-1.7,3.29,0,.88.21,1.62.62,2.22.42.6,1,1.14,1.77,1.63.76.49,1.64.92,2.63,1.32.99.39,2.09.8,3.29,1.21,2.49.92,4.66,1.83,6.51,2.73,1.85.9,3.38,1.95,4.6,3.15,1.22,1.2,2.13,2.61,2.73,4.22.6,1.62.9,3.58.9,5.88,0,4.48-1.57,7.95-4.71,10.42-3.14,2.47-7.87,3.7-14.19,3.7-2.12,0-4.04-.13-5.75-.38-1.71-.25-3.22-.57-4.53-.93-1.32-.37-2.45-.76-3.39-1.18-.95-.42-1.74-.81-2.39-1.18l3.05-8.58c1.43.79,3.19,1.49,5.3,2.11,2.1.62,4.67.93,7.72.93Z" style="fill: #151c2b;"/>
    <path d="m387.06,303.2c0-3.23.5-6.06,1.49-8.48.99-2.42,2.3-4.44,3.91-6.06,1.61-1.62,3.47-2.84,5.57-3.67,2.1-.83,4.26-1.25,6.47-1.25,5.17,0,9.25,1.58,12.25,4.74,3,3.16,4.5,7.81,4.5,13.95,0,.6-.02,1.26-.07,1.97-.05.72-.09,1.35-.14,1.9h-23.4c.23,2.12,1.22,3.81,2.98,5.05,1.75,1.25,4.11,1.87,7.06,1.87,1.89,0,3.75-.17,5.57-.52,1.82-.35,3.31-.77,4.46-1.28l1.38,8.38c-.55.28-1.29.55-2.22.83-.92.28-1.95.52-3.08.73-1.13.21-2.34.38-3.63.52-1.29.14-2.58.21-3.88.21-3.28,0-6.13-.48-8.55-1.45-2.42-.97-4.43-2.3-6.02-3.98-1.59-1.68-2.77-3.68-3.53-5.99-.76-2.31-1.14-4.8-1.14-7.48Zm24.23-3.95c-.05-.88-.2-1.73-.45-2.56-.25-.83-.65-1.57-1.18-2.21-.53-.65-1.2-1.18-2.01-1.59-.81-.42-1.81-.62-3.01-.62s-2.15.2-2.98.59c-.83.39-1.52.91-2.08,1.56s-.98,1.4-1.28,2.25c-.3.85-.52,1.72-.66,2.6h13.64Z" style="fill: #151c2b;"/>
    <path d="m439.67,313.72c1.89,0,3.23-.18,4.02-.55.78-.37,1.18-1.08,1.18-2.15,0-.83-.51-1.56-1.52-2.18-1.02-.62-2.56-1.33-4.64-2.11-1.62-.6-3.08-1.22-4.4-1.87-1.31-.65-2.43-1.42-3.36-2.32-.92-.9-1.64-1.97-2.15-3.22-.51-1.25-.76-2.75-.76-4.5,0-3.42,1.27-6.11,3.81-8.1,2.54-1.98,6.02-2.98,10.45-2.98,2.22,0,4.34.2,6.37.59,2.03.39,3.65.82,4.85,1.28l-1.8,8.03c-1.2-.42-2.5-.78-3.91-1.11-1.41-.32-2.99-.48-4.74-.48-3.23,0-4.85.9-4.85,2.7,0,.42.07.79.21,1.11.14.32.42.64.83.93.42.3.98.63,1.7.97.71.35,1.63.73,2.73,1.15,2.26.84,4.13,1.66,5.61,2.48,1.48.81,2.64,1.69,3.5,2.64.85.94,1.45,1.99,1.8,3.14.35,1.15.52,2.49.52,4.01,0,3.59-1.35,6.31-4.05,8.15-2.7,1.84-6.52,2.76-11.46,2.76-3.23,0-5.92-.28-8.06-.83s-3.63-1.01-4.47-1.38l1.73-8.38c1.75.69,3.55,1.24,5.4,1.63,1.85.39,3.67.59,5.47.59Z" style="fill: #151c2b;"/>
    <path d="m473.25,313.72c1.89,0,3.23-.18,4.02-.55.78-.37,1.18-1.08,1.18-2.15,0-.83-.51-1.56-1.52-2.18-1.02-.62-2.56-1.33-4.64-2.11-1.62-.6-3.08-1.22-4.4-1.87-1.31-.65-2.43-1.42-3.36-2.32-.92-.9-1.64-1.97-2.15-3.22-.51-1.25-.76-2.75-.76-4.5,0-3.42,1.27-6.11,3.81-8.1,2.54-1.98,6.02-2.98,10.45-2.98,2.22,0,4.34.2,6.37.59,2.03.39,3.65.82,4.85,1.28l-1.8,8.03c-1.2-.42-2.5-.78-3.91-1.11-1.41-.32-2.99-.48-4.74-.48-3.23,0-4.85.9-4.85,2.7,0,.42.07.79.21,1.11.14.32.42.64.83.93.42.3.98.63,1.7.97.71.35,1.63.73,2.73,1.15,2.26.84,4.13,1.66,5.61,2.48,1.48.81,2.64,1.69,3.5,2.64.85.94,1.45,1.99,1.8,3.14.35,1.15.52,2.49.52,4.01,0,3.59-1.35,6.31-4.05,8.15-2.7,1.84-6.52,2.76-11.46,2.76-3.23,0-5.92-.28-8.06-.83s-3.63-1.01-4.47-1.38l1.73-8.38c1.75.69,3.55,1.24,5.4,1.63,1.85.39,3.67.59,5.47.59Z" style="fill: #151c2b;"/>
    <path d="m507.65,274.19c0,1.89-.61,3.38-1.83,4.46-1.22,1.08-2.67,1.63-4.33,1.63s-3.1-.54-4.33-1.63c-1.22-1.08-1.83-2.57-1.83-4.46s.61-3.38,1.83-4.46c1.22-1.08,2.67-1.63,4.33-1.63s3.1.54,4.33,1.63c1.22,1.08,1.83,2.57,1.83,4.46Zm-.97,46.93h-10.31v-36.41h10.31v36.41Z" style="fill: #151c2b;"/>
    <path d="m550.43,302.85c0,2.86-.42,5.48-1.25,7.86-.83,2.38-2.03,4.41-3.6,6.09-1.57,1.68-3.45,2.99-5.64,3.91-2.19.92-4.65,1.38-7.37,1.38s-5.11-.46-7.3-1.38c-2.19-.92-4.07-2.23-5.64-3.91-1.57-1.68-2.79-3.71-3.67-6.09-.88-2.38-1.31-5-1.31-7.86s.45-5.47,1.35-7.82,2.15-4.36,3.74-6.02c1.59-1.66,3.48-2.95,5.68-3.88,2.19-.92,4.58-1.38,7.16-1.38s5.04.46,7.23,1.38c2.19.92,4.07,2.21,5.64,3.88,1.57,1.66,2.79,3.67,3.67,6.02.88,2.35,1.32,4.96,1.32,7.82Zm-10.52,0c0-3.18-.63-5.69-1.9-7.51-1.27-1.82-3.08-2.73-5.43-2.73s-4.18.91-5.47,2.73c-1.29,1.82-1.94,4.33-1.94,7.51s.65,5.71,1.94,7.58c1.29,1.87,3.12,2.8,5.47,2.8s4.16-.93,5.43-2.8c1.27-1.87,1.9-4.4,1.9-7.58Z" style="fill: #151c2b;"/>
    <path d="m558.39,285.96c1.75-.51,4.02-.98,6.78-1.42,2.77-.44,5.68-.66,8.72-.66s5.66.4,7.72,1.21c2.05.81,3.68,1.95,4.88,3.43,1.2,1.48,2.05,3.23,2.56,5.26.51,2.03.76,4.29.76,6.78v20.56h-10.31v-19.31c0-3.32-.44-5.68-1.32-7.06-.88-1.38-2.52-2.08-4.92-2.08-.74,0-1.52.03-2.35.1s-1.57.15-2.22.24v28.11h-10.31v-35.17Z" style="fill: #151c2b;"/>
  </g>
  <rect x="28.31" y="475.16" width="1008.88" height="91.24" rx="19.28" ry="19.28" style="fill: #223654; stroke: #223654; stroke-miterlimit: 10; stroke-width: 3.77px;"/>
  <g>
    <path d="m80.6,547.28c-1.46,0-2.99-.09-4.61-.28-1.62-.19-3.18-.44-4.69-.77-1.51-.32-2.88-.67-4.12-1.05-1.24-.38-2.21-.73-2.91-1.05l2.34-10.03c1.4.59,3.19,1.23,5.38,1.9,2.18.67,4.89,1.01,8.13,1.01,3.72,0,6.44-.7,8.17-2.1,1.72-1.4,2.59-3.29,2.59-5.66,0-1.46-.31-2.68-.93-3.68-.62-1-1.47-1.8-2.55-2.43-1.08-.62-2.36-1.05-3.84-1.29-1.48-.24-3.06-.36-4.73-.36h-4.69v-9.7h5.34c1.19,0,2.33-.11,3.44-.32,1.1-.21,2.09-.58,2.95-1.09.86-.51,1.55-1.21,2.06-2.1.51-.89.77-2.01.77-3.36,0-1.02-.22-1.91-.65-2.67-.43-.75-.98-1.38-1.66-1.86-.67-.48-1.46-.85-2.34-1.09-.89-.24-1.79-.36-2.71-.36-2.32,0-4.46.35-6.43,1.05-1.97.7-3.76,1.56-5.38,2.59l-4.29-8.81c.86-.54,1.87-1.1,3.03-1.7,1.16-.59,2.44-1.13,3.84-1.62,1.4-.49,2.9-.89,4.49-1.21,1.59-.32,3.27-.49,5.05-.49,3.29,0,6.13.39,8.53,1.17,2.4.78,4.38,1.88,5.94,3.31,1.56,1.43,2.72,3.09,3.48,5,.75,1.91,1.13,4,1.13,6.26s-.62,4.35-1.86,6.42c-1.24,2.07-2.91,3.65-5.01,4.72,2.91,1.19,5.16,2.96,6.75,5.3,1.59,2.35,2.39,5.17,2.39,8.46,0,2.59-.43,4.98-1.29,7.17-.86,2.19-2.21,4.08-4.04,5.67-1.83,1.59-4.16,2.83-6.99,3.72-2.83.89-6.19,1.33-10.07,1.33Z" style="fill: #fff;"/>
    <path d="m125.55,539.68c0,2.43-.77,4.27-2.3,5.54-1.54,1.27-3.27,1.9-5.21,1.9s-3.68-.63-5.22-1.9c-1.54-1.27-2.3-3.11-2.3-5.54s.77-4.27,2.3-5.54c1.54-1.27,3.27-1.9,5.22-1.9s3.68.63,5.21,1.9c1.54,1.27,2.3,3.11,2.3,5.54Z" style="fill: #fff;"/>
  </g>
  <g>
    <path d="m383.26,542.43c-3.09-5.49-6.44-10.91-10.04-16.27s-7.43-10.41-11.49-15.16v31.43h-10.66v-47.97h8.79c1.52,1.52,3.21,3.39,5.05,5.61,1.84,2.22,3.73,4.58,5.64,7.1,1.91,2.52,3.82,5.12,5.71,7.82,1.89,2.7,3.67,5.3,5.33,7.79v-28.31h10.73v47.97h-9.07Z" style="fill: #fff;"/>
    <path d="m400.98,524.5c0-3.23.5-6.06,1.49-8.48.99-2.42,2.3-4.44,3.91-6.06,1.61-1.62,3.47-2.84,5.57-3.67,2.1-.83,4.26-1.25,6.47-1.25,5.17,0,9.25,1.58,12.25,4.74,3,3.16,4.5,7.81,4.5,13.95,0,.6-.02,1.26-.07,1.97-.05.72-.09,1.35-.14,1.9h-23.4c.23,2.12,1.22,3.81,2.98,5.05,1.75,1.25,4.11,1.87,7.06,1.87,1.89,0,3.75-.17,5.57-.52,1.82-.35,3.31-.77,4.46-1.28l1.38,8.38c-.55.28-1.29.55-2.22.83-.92.28-1.95.52-3.08.73-1.13.21-2.34.38-3.63.52-1.29.14-2.58.21-3.88.21-3.28,0-6.13-.48-8.55-1.45-2.42-.97-4.43-2.3-6.02-3.98-1.59-1.68-2.77-3.68-3.53-5.99-.76-2.31-1.14-4.8-1.14-7.48Zm24.23-3.95c-.05-.88-.2-1.73-.45-2.56-.25-.83-.65-1.57-1.18-2.21-.53-.65-1.2-1.18-2.01-1.59-.81-.42-1.81-.62-3.01-.62s-2.15.2-2.98.59c-.83.39-1.52.91-2.08,1.56s-.98,1.4-1.28,2.25c-.3.85-.52,1.72-.66,2.6h13.64Z" style="fill: #fff;"/>
    <path d="m442.79,496.95l10.31-1.66v10.73h12.39v8.58h-12.39v12.81c0,2.17.38,3.9,1.14,5.19.76,1.29,2.29,1.94,4.6,1.94,1.11,0,2.25-.1,3.43-.31,1.18-.21,2.25-.5,3.22-.87l1.45,8.03c-1.25.51-2.63.95-4.15,1.32-1.52.37-3.39.55-5.61.55-2.82,0-5.15-.38-6.99-1.14-1.85-.76-3.32-1.82-4.43-3.18-1.11-1.36-1.88-3.01-2.32-4.95-.44-1.94-.66-4.08-.66-6.44v-30.6Z" style="fill: #fff;"/>
    <path d="m496.75,521.52c-.92,3.51-1.9,6.99-2.94,10.45-1.04,3.46-2.14,6.95-3.29,10.45h-8.03c-.83-1.94-1.74-4.25-2.71-6.92-.97-2.68-1.98-5.59-3.02-8.76-1.04-3.16-2.11-6.51-3.19-10.04-1.09-3.53-2.14-7.1-3.16-10.7h10.87c.37,1.66.78,3.47,1.22,5.43.44,1.96.91,3.98,1.39,6.06.49,2.08,1,4.17,1.53,6.26.53,2.1,1.08,4.12,1.64,6.06.6-2.03,1.19-4.11,1.77-6.23.58-2.12,1.13-4.21,1.66-6.26.53-2.05,1.04-4.04,1.52-5.95.48-1.91.91-3.7,1.28-5.36h7.48c.37,1.66.78,3.45,1.25,5.36.46,1.92.95,3.9,1.45,5.95.51,2.05,1.04,4.14,1.59,6.26.55,2.12,1.13,4.2,1.73,6.23.56-1.94,1.11-3.96,1.67-6.06.56-2.1,1.08-4.19,1.57-6.26.49-2.08.95-4.1,1.39-6.06.44-1.96.85-3.77,1.22-5.43h10.73c-1.02,3.6-2.07,7.16-3.16,10.7-1.09,3.53-2.15,6.88-3.19,10.04-1.04,3.16-2.06,6.08-3.05,8.76-1,2.68-1.91,4.98-2.74,6.92h-8.03c-1.15-3.51-2.28-6.99-3.39-10.45-1.11-3.46-2.12-6.95-3.05-10.45Z" style="fill: #fff;"/>
    <path d="m562.07,524.15c0,2.86-.42,5.48-1.25,7.86-.83,2.38-2.03,4.41-3.6,6.09-1.57,1.68-3.45,2.99-5.64,3.91-2.19.92-4.65,1.38-7.37,1.38s-5.11-.46-7.3-1.38c-2.19-.92-4.07-2.23-5.64-3.91-1.57-1.68-2.79-3.71-3.67-6.09-.88-2.38-1.31-5-1.31-7.86s.45-5.47,1.35-7.82,2.15-4.36,3.74-6.02c1.59-1.66,3.48-2.95,5.68-3.88,2.19-.92,4.58-1.38,7.16-1.38s5.04.46,7.23,1.38c2.19.92,4.07,2.21,5.64,3.88,1.57,1.66,2.79,3.67,3.67,6.02.88,2.35,1.32,4.96,1.32,7.82Zm-10.52,0c0-3.18-.63-5.69-1.9-7.51-1.27-1.82-3.08-2.73-5.43-2.73s-4.18.91-5.47,2.73c-1.29,1.82-1.94,4.33-1.94,7.51s.65,5.71,1.94,7.58c1.29,1.87,3.12,2.8,5.47,2.8s4.16-.93,5.43-2.8c1.27-1.87,1.9-4.4,1.9-7.58Z" style="fill: #fff;"/>
    <path d="m591.97,515.15c-.92-.23-2.01-.47-3.25-.73-1.25-.25-2.58-.38-4.02-.38-.65,0-1.42.06-2.32.17s-1.58.24-2.04.38v27.83h-10.31v-34.47c1.85-.65,4.03-1.26,6.54-1.83,2.51-.58,5.32-.87,8.41-.87.55,0,1.22.03,2.01.1.78.07,1.57.16,2.35.28.78.12,1.57.25,2.35.42.78.16,1.45.36,2.01.59l-1.73,8.51Z" style="fill: #fff;"/>
    <path d="m609.56,519.09c1.01-1.1,2.06-2.25,3.15-3.44,1.08-1.19,2.13-2.37,3.15-3.54,1.01-1.17,1.97-2.28,2.87-3.34.9-1.05,1.67-1.97,2.32-2.75h12.27c-2.45,2.81-4.83,5.49-7.17,8.05-2.33,2.56-4.88,5.19-7.65,7.91,1.38,1.25,2.81,2.74,4.29,4.47,1.48,1.73,2.91,3.53,4.29,5.38s2.65,3.7,3.81,5.55c1.15,1.85,2.12,3.54,2.91,5.06h-11.86c-.74-1.2-1.58-2.53-2.52-3.99-.94-1.46-1.95-2.91-3.01-4.37s-2.18-2.86-3.35-4.2c-1.17-1.34-2.34-2.48-3.49-3.4v15.96h-10.31v-52.06l10.31-1.66v30.38Z" style="fill: #fff;"/>
  </g>
  <rect x="28.31" y="364.62" width="1008.88" height="91.24" rx="19.28" ry="19.28" style="fill: #2a59be; stroke: #2a59be; stroke-miterlimit: 10; stroke-width: 3.77px;"/>
  <g>
    <path d="m99.76,379.5v33.63h5.98v9.86h-5.98v12.53h-11.8v-12.53h-24.17v-8.81c1.19-2.37,2.67-5.05,4.45-8.04,1.78-2.99,3.76-6.06,5.94-9.22,2.18-3.15,4.49-6.24,6.91-9.26,2.43-3.02,4.85-5.74,7.28-8.17h11.4Zm-11.8,14.71c-2.1,2.75-4.34,5.74-6.71,8.97-2.37,3.23-4.37,6.55-5.98,9.95h12.69v-18.92Z" style="fill: #fff;"/>
    <path d="m125.55,429.14c0,2.43-.77,4.27-2.3,5.54-1.54,1.27-3.27,1.9-5.21,1.9s-3.68-.63-5.22-1.9c-1.54-1.27-2.3-3.11-2.3-5.54s.77-4.27,2.3-5.54c1.54-1.27,3.27-1.9,5.22-1.9s3.68.63,5.21,1.9c1.54,1.27,2.3,3.11,2.3,5.54Z" style="fill: #fff;"/>
  </g>
  <g>
    <path d="m386.65,383.92v9.21h-14.47v38.77h-10.8v-38.77h-14.47v-9.21h39.74Z" style="fill: #fff;"/>
    <path d="m410.05,404.62c-.92-.23-2.01-.47-3.25-.73-1.25-.25-2.58-.38-4.02-.38-.65,0-1.42.06-2.32.17s-1.58.24-2.04.38v27.83h-10.31v-34.47c1.85-.65,4.03-1.26,6.54-1.83,2.51-.58,5.32-.87,8.41-.87.55,0,1.22.03,2.01.1.78.07,1.57.16,2.35.28.78.12,1.57.25,2.35.42.78.16,1.45.36,2.01.59l-1.73,8.51Z" style="fill: #fff;"/>
    <path d="m429.71,394.51c3.05,0,5.58.35,7.61,1.04,2.03.69,3.66,1.69,4.88,2.98,1.22,1.29,2.09,2.86,2.6,4.71.51,1.85.76,3.9.76,6.16v21.46c-1.48.32-3.53.7-6.16,1.14-2.63.44-5.81.66-9.55.66-2.35,0-4.49-.21-6.4-.62-1.92-.42-3.57-1.1-4.95-2.04-1.38-.95-2.45-2.18-3.18-3.7-.74-1.52-1.11-3.39-1.11-5.61s.43-3.92,1.28-5.4c.85-1.48,2-2.65,3.43-3.53,1.43-.88,3.07-1.51,4.92-1.9,1.85-.39,3.76-.59,5.75-.59,1.34,0,2.53.06,3.56.17,1.04.12,1.88.27,2.53.45v-.97c0-1.75-.53-3.16-1.59-4.22-1.06-1.06-2.91-1.59-5.54-1.59-1.75,0-3.48.13-5.19.38-1.71.25-3.18.61-4.43,1.07l-1.32-8.31c.6-.18,1.35-.38,2.25-.59.9-.21,1.88-.39,2.94-.55,1.06-.16,2.18-.3,3.36-.42,1.18-.11,2.36-.17,3.56-.17Zm.83,30.18c1.01,0,1.98-.02,2.91-.07.92-.05,1.66-.12,2.22-.21v-7.82c-.42-.09-1.04-.18-1.87-.28-.83-.09-1.59-.14-2.28-.14-.97,0-1.88.06-2.73.17-.85.12-1.6.33-2.25.66-.65.32-1.15.76-1.52,1.32-.37.55-.55,1.25-.55,2.08,0,1.62.54,2.73,1.63,3.36,1.08.62,2.57.93,4.47.93Z" style="fill: #fff;"/>
    <path d="m454.91,396.73c1.75-.51,4.02-.98,6.78-1.42,2.77-.44,5.68-.66,8.72-.66s5.66.4,7.72,1.21c2.05.81,3.68,1.95,4.88,3.43,1.2,1.48,2.05,3.23,2.56,5.26.51,2.03.76,4.29.76,6.78v20.56h-10.31v-19.31c0-3.32-.44-5.68-1.32-7.06-.88-1.38-2.52-2.08-4.92-2.08-.74,0-1.52.03-2.35.1s-1.57.15-2.22.24v28.11h-10.31v-35.17Z" style="fill: #fff;"/>
    <path d="m506.14,424.49c1.89,0,3.23-.18,4.02-.55.78-.37,1.18-1.08,1.18-2.15,0-.83-.51-1.56-1.52-2.18-1.02-.62-2.56-1.33-4.64-2.11-1.62-.6-3.08-1.22-4.4-1.87-1.31-.65-2.43-1.42-3.36-2.32-.92-.9-1.64-1.97-2.15-3.22-.51-1.25-.76-2.75-.76-4.5,0-3.42,1.27-6.11,3.81-8.1,2.54-1.98,6.02-2.98,10.45-2.98,2.22,0,4.34.2,6.37.59,2.03.39,3.65.82,4.85,1.28l-1.8,8.03c-1.2-.42-2.5-.78-3.91-1.11-1.41-.32-2.99-.48-4.74-.48-3.23,0-4.85.9-4.85,2.7,0,.42.07.79.21,1.11.14.32.42.64.83.93.42.3.98.63,1.7.97.71.35,1.63.73,2.73,1.15,2.26.84,4.13,1.66,5.61,2.48,1.48.81,2.64,1.69,3.5,2.64.85.94,1.45,1.99,1.8,3.14.35,1.15.52,2.49.52,4.01,0,3.59-1.35,6.31-4.05,8.15-2.7,1.84-6.52,2.76-11.46,2.76-3.23,0-5.92-.28-8.06-.83s-3.63-1.01-4.47-1.38l1.73-8.38c1.75.69,3.55,1.24,5.4,1.63,1.85.39,3.67.59,5.47.59Z" style="fill: #fff;"/>
    <path d="m563.11,413.69c0,2.82-.35,5.38-1.04,7.68-.69,2.31-1.71,4.29-3.05,5.95-1.34,1.66-3,2.95-4.98,3.88-1.98.92-4.27,1.38-6.85,1.38-1.43,0-2.77-.14-4.01-.42-1.25-.28-2.45-.67-3.6-1.18v13.71h-10.31v-47.97c.92-.28,1.98-.54,3.18-.8,1.2-.25,2.46-.47,3.77-.66,1.32-.18,2.65-.33,4.02-.45,1.36-.11,2.67-.17,3.91-.17,3,0,5.68.45,8.03,1.35,2.35.9,4.34,2.17,5.95,3.81,1.61,1.64,2.85,3.63,3.7,5.99.85,2.35,1.28,4.98,1.28,7.89Zm-10.52.28c0-3.18-.72-5.73-2.15-7.65-1.43-1.91-3.55-2.87-6.37-2.87-.92,0-1.78.03-2.56.1-.79.07-1.43.15-1.94.24v18.62c.65.42,1.49.76,2.53,1.04,1.04.28,2.09.42,3.15.42,4.89,0,7.34-3.3,7.34-9.9Z" style="fill: #fff;"/>
    <path d="m605.13,413.62c0,2.86-.42,5.48-1.25,7.86-.83,2.38-2.03,4.41-3.6,6.09-1.57,1.68-3.45,2.99-5.64,3.91-2.19.92-4.65,1.38-7.37,1.38s-5.11-.46-7.3-1.38c-2.19-.92-4.07-2.23-5.64-3.91-1.57-1.68-2.79-3.71-3.67-6.09-.88-2.38-1.31-5-1.31-7.86s.45-5.47,1.35-7.82,2.15-4.36,3.74-6.02c1.59-1.66,3.48-2.95,5.68-3.88,2.19-.92,4.58-1.38,7.16-1.38s5.04.46,7.23,1.38c2.19.92,4.07,2.21,5.64,3.88,1.57,1.66,2.79,3.67,3.67,6.02.88,2.35,1.32,4.96,1.32,7.82Zm-10.52,0c0-3.18-.63-5.69-1.9-7.51-1.27-1.82-3.08-2.73-5.43-2.73s-4.18.91-5.47,2.73c-1.29,1.82-1.94,4.33-1.94,7.51s.65,5.71,1.94,7.58c1.29,1.87,3.12,2.8,5.47,2.8s4.16-.93,5.43-2.8c1.27-1.87,1.9-4.4,1.9-7.58Z" style="fill: #fff;"/>
    <path d="m635.03,404.62c-.92-.23-2.01-.47-3.25-.73-1.25-.25-2.58-.38-4.02-.38-.65,0-1.42.06-2.32.17s-1.58.24-2.04.38v27.83h-10.31v-34.47c1.85-.65,4.03-1.26,6.54-1.83,2.51-.58,5.32-.87,8.41-.87.55,0,1.22.03,2.01.1.78.07,1.57.16,2.35.28.78.12,1.57.25,2.35.42.78.16,1.45.36,2.01.59l-1.73,8.51Z" style="fill: #fff;"/>
    <path d="m641.95,386.41l10.31-1.66v10.73h12.39v8.58h-12.39v12.81c0,2.17.38,3.9,1.14,5.19.76,1.29,2.29,1.94,4.6,1.94,1.11,0,2.25-.1,3.43-.31,1.18-.21,2.25-.5,3.22-.87l1.45,8.03c-1.25.51-2.63.95-4.15,1.32-1.52.37-3.39.55-5.61.55-2.82,0-5.15-.38-6.99-1.14-1.85-.76-3.32-1.82-4.43-3.18-1.11-1.36-1.88-3.01-2.32-4.95-.44-1.94-.66-4.08-.66-6.44v-30.6Z" style="fill: #fff;"/>
  </g>
  <rect x="28.31" y="582.95" width="1008.88" height="91.24" rx="19.28" ry="19.28" style="fill: #673a91; stroke: #673a91; stroke-miterlimit: 10; stroke-width: 3.77px;"/>
  <g>
    <path d="m102.27,612.55c0,2.05-.4,4.02-1.21,5.9-.81,1.89-1.86,3.71-3.15,5.46-1.29,1.75-2.75,3.44-4.37,5.05-1.62,1.62-3.21,3.15-4.77,4.61-.81.76-1.69,1.6-2.63,2.55-.94.94-1.85,1.9-2.71,2.87-.86.97-1.63,1.87-2.3,2.71-.67.84-1.09,1.52-1.25,2.06h24.09v10.11h-37.35c-.11-.59-.16-1.35-.16-2.26v-1.94c0-2.59.42-4.96,1.25-7.12.83-2.16,1.93-4.16,3.27-6.02,1.35-1.86,2.87-3.6,4.57-5.21,1.7-1.62,3.38-3.23,5.05-4.85,1.29-1.24,2.51-2.41,3.64-3.52,1.13-1.1,2.13-2.18,2.99-3.23.86-1.05,1.54-2.1,2.02-3.15.49-1.05.73-2.11.73-3.19,0-2.37-.67-4.04-2.02-5.01-1.35-.97-3.02-1.46-5.01-1.46-1.46,0-2.82.23-4.08.69-1.27.46-2.43,1-3.48,1.62-1.05.62-1.95,1.24-2.71,1.86-.76.62-1.32,1.12-1.7,1.5l-5.98-8.41c2.37-2.21,5.13-4.03,8.29-5.46,3.15-1.43,6.54-2.14,10.15-2.14,3.29,0,6.12.38,8.49,1.13,2.37.76,4.33,1.82,5.86,3.19,1.54,1.37,2.67,3.05,3.4,5.01.73,1.97,1.09,4.19,1.09,6.67Z" style="fill: #fff;"/>
    <path d="m125.55,647.47c0,2.43-.77,4.27-2.3,5.54-1.54,1.27-3.27,1.9-5.21,1.9s-3.68-.63-5.22-1.9c-1.54-1.27-2.3-3.11-2.3-5.54s.77-4.27,2.3-5.54c1.54-1.27,3.27-1.9,5.22-1.9s3.68.63,5.21,1.9c1.54,1.27,2.3,3.11,2.3,5.54Z" style="fill: #fff;"/>
  </g>
  <g>
    <path d="m393.09,626.2c0,4.15-.65,7.78-1.94,10.87-1.29,3.09-3.13,5.65-5.5,7.68-2.38,2.03-5.27,3.55-8.69,4.57-3.42,1.01-7.25,1.52-11.49,1.52-1.94,0-4.2-.08-6.78-.24-2.58-.16-5.12-.5-7.62-1v-46.73c2.49-.46,5.09-.77,7.79-.93,2.7-.16,5.02-.24,6.96-.24,4.11,0,7.83.46,11.18,1.38,3.35.92,6.22,2.38,8.62,4.36,2.4,1.98,4.25,4.52,5.54,7.62,1.29,3.09,1.94,6.81,1.94,11.14Zm-31.22,15.23c.51.05,1.1.08,1.76.1s1.46.03,2.39.03c5.4,0,9.4-1.36,12.01-4.08,2.61-2.72,3.91-6.48,3.91-11.28s-1.25-8.84-3.74-11.42c-2.49-2.58-6.44-3.88-11.84-3.88-.74,0-1.5.01-2.28.04-.79.02-1.52.08-2.21.17v30.32Z" style="fill: #fff;"/>
    <path d="m414.48,612.84c3.05,0,5.58.35,7.61,1.04,2.03.69,3.66,1.69,4.88,2.98,1.22,1.29,2.09,2.86,2.6,4.71.51,1.85.76,3.9.76,6.16v21.46c-1.48.32-3.53.7-6.16,1.14-2.63.44-5.81.66-9.55.66-2.35,0-4.49-.21-6.4-.62-1.92-.42-3.57-1.1-4.95-2.04-1.38-.95-2.45-2.18-3.18-3.7-.74-1.52-1.11-3.39-1.11-5.61s.43-3.92,1.28-5.4c.85-1.48,2-2.65,3.43-3.53,1.43-.88,3.07-1.51,4.92-1.9,1.85-.39,3.76-.59,5.75-.59,1.34,0,2.53.06,3.56.17,1.04.12,1.88.27,2.53.45v-.97c0-1.75-.53-3.16-1.59-4.22-1.06-1.06-2.91-1.59-5.54-1.59-1.75,0-3.48.13-5.19.38-1.71.25-3.18.61-4.43,1.07l-1.32-8.31c.6-.18,1.35-.38,2.25-.59.9-.21,1.88-.39,2.94-.55,1.06-.16,2.18-.3,3.36-.42,1.18-.11,2.36-.17,3.56-.17Zm.83,30.18c1.01,0,1.98-.02,2.91-.07.92-.05,1.66-.12,2.22-.21v-7.82c-.42-.09-1.04-.18-1.87-.28-.83-.09-1.59-.14-2.28-.14-.97,0-1.88.06-2.73.17-.85.12-1.6.33-2.25.66-.65.32-1.15.76-1.52,1.32-.37.55-.55,1.25-.55,2.08,0,1.62.54,2.73,1.63,3.36,1.08.62,2.57.93,4.47.93Z" style="fill: #fff;"/>
    <path d="m439.33,604.74l10.31-1.66v10.73h12.39v8.58h-12.39v12.81c0,2.17.38,3.9,1.14,5.19.76,1.29,2.29,1.94,4.6,1.94,1.11,0,2.25-.1,3.43-.31,1.18-.21,2.25-.5,3.22-.87l1.45,8.03c-1.25.51-2.63.95-4.15,1.32-1.52.37-3.39.55-5.61.55-2.82,0-5.15-.38-6.99-1.14-1.85-.76-3.32-1.82-4.43-3.18-1.11-1.36-1.88-3.01-2.32-4.95-.44-1.94-.66-4.08-.66-6.44v-30.6Z" style="fill: #fff;"/>
    <path d="m482.11,612.84c3.05,0,5.58.35,7.61,1.04,2.03.69,3.66,1.69,4.88,2.98,1.22,1.29,2.09,2.86,2.6,4.71.51,1.85.76,3.9.76,6.16v21.46c-1.48.32-3.53.7-6.16,1.14-2.63.44-5.81.66-9.55.66-2.35,0-4.49-.21-6.4-.62-1.92-.42-3.57-1.1-4.95-2.04-1.38-.95-2.45-2.18-3.18-3.7-.74-1.52-1.11-3.39-1.11-5.61s.43-3.92,1.28-5.4c.85-1.48,2-2.65,3.43-3.53,1.43-.88,3.07-1.51,4.92-1.9,1.85-.39,3.76-.59,5.75-.59,1.34,0,2.53.06,3.56.17,1.04.12,1.88.27,2.53.45v-.97c0-1.75-.53-3.16-1.59-4.22-1.06-1.06-2.91-1.59-5.54-1.59-1.75,0-3.48.13-5.19.38-1.71.25-3.18.61-4.43,1.07l-1.32-8.31c.6-.18,1.35-.38,2.25-.59.9-.21,1.88-.39,2.94-.55,1.06-.16,2.18-.3,3.36-.42,1.18-.11,2.36-.17,3.56-.17Zm.83,30.18c1.01,0,1.98-.02,2.91-.07.92-.05,1.66-.12,2.22-.21v-7.82c-.42-.09-1.04-.18-1.87-.28-.83-.09-1.59-.14-2.28-.14-.97,0-1.88.06-2.73.17-.85.12-1.6.33-2.25.66-.65.32-1.15.76-1.52,1.32-.37.55-.55,1.25-.55,2.08,0,1.62.54,2.73,1.63,3.36,1.08.62,2.57.93,4.47.93Z" style="fill: #fff;"/>
    <path d="m538.46,650.92c-3-.05-5.43-.37-7.3-.97-1.87-.6-3.35-1.44-4.43-2.53-1.08-1.08-1.82-2.4-2.22-3.95-.39-1.55-.59-3.29-.59-5.23v-40.08l10.31-1.66v39.67c0,.92.07,1.75.21,2.49.14.74.4,1.36.8,1.87.39.51.96.92,1.7,1.25.74.32,1.73.53,2.98.62l-1.45,8.51Z" style="fill: #fff;"/>
    <path d="m557.08,603.29c0,1.89-.61,3.38-1.83,4.46-1.22,1.08-2.67,1.63-4.33,1.63s-3.1-.54-4.33-1.63c-1.22-1.08-1.83-2.57-1.83-4.46s.61-3.38,1.83-4.46c1.22-1.08,2.67-1.63,4.33-1.63s3.1.54,4.33,1.63c1.22,1.08,1.83,2.57,1.83,4.46Zm-.97,46.93h-10.31v-36.41h10.31v36.41Z" style="fill: #fff;"/>
    <path d="m565.8,615.06c1.75-.51,4.02-.98,6.78-1.42,2.77-.44,5.68-.66,8.72-.66s5.66.4,7.72,1.21c2.05.81,3.68,1.95,4.88,3.43,1.2,1.48,2.05,3.23,2.56,5.26.51,2.03.76,4.29.76,6.78v20.56h-10.31v-19.31c0-3.32-.44-5.68-1.32-7.06-.88-1.38-2.52-2.08-4.92-2.08-.74,0-1.52.03-2.35.1s-1.57.15-2.22.24v28.11h-10.31v-35.17Z" style="fill: #fff;"/>
    <path d="m616.89,626.89c1.01-1.1,2.06-2.25,3.15-3.44,1.08-1.19,2.13-2.37,3.15-3.54,1.01-1.17,1.97-2.28,2.87-3.34.9-1.05,1.67-1.97,2.32-2.75h12.27c-2.45,2.81-4.83,5.49-7.17,8.05-2.33,2.56-4.88,5.19-7.65,7.91,1.38,1.25,2.81,2.74,4.29,4.47,1.48,1.73,2.91,3.53,4.29,5.38s2.65,3.7,3.81,5.55c1.15,1.85,2.12,3.54,2.91,5.06h-11.86c-.74-1.2-1.58-2.53-2.52-3.99-.94-1.46-1.95-2.91-3.01-4.37s-2.18-2.86-3.35-4.2c-1.17-1.34-2.34-2.48-3.49-3.4v15.96h-10.31v-52.06l10.31-1.66v30.38Z" style="fill: #fff;"/>
  </g>
</svg>