<?xml version="1.0" encoding="UTF-8"?>
<svg id="Layer_1" data-name="Layer 1" xmlns="http://www.w3.org/2000/svg" width="1140" height="700" viewBox="0 0 1140 700">
  <rect x="21.47" y="5.52" width="1097.05" height="688.96" rx="31.18" ry="31.18" style="fill: #1c2538;"/>
  <g>
    <rect x="245.41" y="180.37" width="683.26" height="472.36" style="fill: none;"/>
    <path d="M248.52,183.12h6.46v10.27h8.91v-10.27h6.42v26.97h-6.42v-11.1h-8.91v11.1h-6.46v-26.97Z" style="fill: #fff;"/>
    <path d="M281.79,188.5h-7.33v-5.39h21.09v5.39h-7.33v21.58h-6.42v-21.58Z" style="fill: #fff;"/>
    <path d="M304.94,188.5h-7.33v-5.39h21.09v5.39h-7.33v21.58h-6.42v-21.58Z" style="fill: #fff;"/>
    <path d="M322.84,183.12h9.49c5.92,0,10.77,2.11,10.77,8.74s-4.93,9.28-10.61,9.28h-3.19v8.95h-6.46v-26.97ZM332.12,196.04c3.19,0,4.68-1.49,4.68-4.18s-1.7-3.65-4.85-3.65h-2.65v7.83h2.82Z" style="fill: #fff;"/>
    <path d="M351.22,180.67h4.14l-8,36.04h-4.18l8.04-36.04Z" style="fill: #fff;"/>
    <path d="M359.42,204.91h5.72v-14.71h-4.93v-3.98c2.86-.54,4.76-1.24,6.63-2.44h4.72v21.13h4.89v5.18h-17.03v-5.18Z" style="fill: #fff;"/>
    <path d="M381.17,206.61c0-2.24,1.62-3.98,3.81-3.98s3.85,1.74,3.85,3.98-1.66,3.98-3.85,3.98-3.81-1.74-3.81-3.98Z" style="fill: #fff;"/>
    <path d="M394.18,204.91h5.72v-14.71h-4.93v-3.98c2.86-.54,4.76-1.24,6.63-2.44h4.72v21.13h4.89v5.18h-17.03v-5.18Z" style="fill: #fff;"/>
    <path d="M431.5,206.15c6.46-5.72,11.27-10.4,11.27-14.04,0-2.49-1.37-3.77-3.56-3.77-1.82,0-3.27,1.24-4.56,2.61l-3.31-3.31c2.57-2.9,5.01-4.35,8.74-4.35,5.22,0,8.82,3.36,8.82,8.41,0,4.72-4.31,8.99-8.74,13.3,1.37-.12,3.19-.29,4.39-.29h5.63v5.39h-18.68v-3.94Z" style="fill: #fff;"/>
    <path d="M453.5,196.83c0-8.99,3.81-13.55,9.53-13.55s9.53,4.6,9.53,13.55-3.81,13.75-9.53,13.75-9.53-4.81-9.53-13.75ZM466.51,196.83c0-7.13-1.57-8.58-3.48-8.58s-3.48,1.45-3.48,8.58,1.53,8.82,3.48,8.82,3.48-1.74,3.48-8.82Z" style="fill: #fff;"/>
    <path d="M475.54,196.83c0-8.99,3.81-13.55,9.53-13.55s9.53,4.6,9.53,13.55-3.81,13.75-9.53,13.75-9.53-4.81-9.53-13.75ZM488.55,196.83c0-7.13-1.57-8.58-3.48-8.58s-3.48,1.45-3.48,8.58,1.53,8.82,3.48,8.82,3.48-1.74,3.48-8.82Z" style="fill: #fff;"/>
    <path d="M506.24,196.5c0-8.87,5.01-13.88,12.35-13.88s12.35,5.05,12.35,13.88-5.01,14.09-12.35,14.09-12.35-5.26-12.35-14.09ZM524.34,196.5c0-5.26-2.2-8.33-5.76-8.33s-5.76,3.07-5.76,8.33,2.24,8.53,5.76,8.53,5.76-3.31,5.76-8.53Z" style="fill: #fff;"/>
    <path d="M535.94,183.12h6.46v10.69h.12l7.66-10.69h7.04l-8.12,10.81,9.65,16.16h-7.04l-6.38-11.06-2.94,3.98v7.08h-6.46v-26.97Z" style="fill: #fff;"/>
    <path d="M247.28,307.26c0-8.99,6.05-14.17,12.84-14.17,3.52,0,6.34,1.57,8.2,3.52l-3.4,3.89c-1.33-1.24-2.73-1.86-4.64-1.86-3.56,0-6.42,3.15-6.42,8.37s2.53,8.49,6.3,8.49c2.2,0,3.89-.87,5.18-2.24l3.36,3.81c-2.36,2.69-5.34,3.98-8.74,3.98-6.88,0-12.68-4.68-12.68-13.79Z" style="fill: #fff;"/>
    <path d="M271.02,310.24c0-6.84,4.85-10.77,10.07-10.77s10.11,3.94,10.11,10.77-4.85,10.81-10.11,10.81-10.07-3.98-10.07-10.81ZM284.6,310.24c0-3.4-1.12-5.63-3.52-5.63s-3.52,2.24-3.52,5.63,1.12,5.63,3.52,5.63,3.52-2.2,3.52-5.63Z" style="fill: #fff;"/>
    <path d="M295.25,299.97h5.22l.46,2.57h.17c1.7-1.66,3.77-3.07,6.59-3.07,4.47,0,6.38,3.19,6.38,8.33v12.76h-6.42v-11.93c0-2.86-.75-3.73-2.4-3.73-1.45,0-2.32.7-3.6,1.86v13.79h-6.38v-20.59Z" style="fill: #fff;"/>
    <path d="M319.9,312.93v-7.95h-2.78v-4.81l3.15-.21.75-6.3h5.3v6.3h4.85v5.01h-4.85v7.87c0,2.32,1.08,3.19,2.61,3.19.66,0,1.37-.08,1.91-.29l.99,4.47c-1.08.41-2.65.83-4.68.83-5.14,0-7.25-3.27-7.25-8.12Z" style="fill: #fff;"/>
    <path d="M333.2,310.24c0-6.67,4.81-10.77,9.74-10.77,5.97,0,8.87,4.31,8.87,9.9,0,1.16-.12,2.24-.25,2.82h-12.14c.58,2.78,2.53,3.98,5.14,3.98,1.49,0,2.98-.46,4.43-1.28l2.07,3.85c-2.15,1.53-4.97,2.32-7.42,2.32-5.88,0-10.44-3.94-10.44-10.81ZM346.33,307.88c0-2.03-.91-3.56-3.23-3.56-1.82,0-3.36,1.16-3.77,3.56h7Z" style="fill: #fff;"/>
    <path d="M355.9,299.97h5.22l.46,2.57h.17c1.7-1.66,3.77-3.07,6.59-3.07,4.47,0,6.38,3.19,6.38,8.33v12.76h-6.42v-11.93c0-2.86-.75-3.73-2.4-3.73-1.45,0-2.32.7-3.6,1.86v13.79h-6.38v-20.59Z" style="fill: #fff;"/>
    <path d="M380.55,312.93v-7.95h-2.78v-4.81l3.15-.21.75-6.3h5.3v6.3h4.85v5.01h-4.85v7.87c0,2.32,1.08,3.19,2.61,3.19.66,0,1.37-.08,1.91-.29l.99,4.47c-1.08.41-2.65.83-4.68.83-5.14,0-7.25-3.27-7.25-8.12Z" style="fill: #fff;"/>
    <path d="M393.47,307.8h10.23v4.52h-10.23v-4.52Z" style="fill: #fff;"/>
    <path d="M411.45,298.97h-7.33v-5.38h21.09v5.38h-7.33v21.58h-6.42v-21.58Z" style="fill: #fff;"/>
    <path d="M427.48,328.01l1.12-4.72c.66.17.95.21,1.37.21,1.99,0,2.98-1.04,3.48-2.53l.29-.99-7.91-20.01h6.42l2.82,8.53c.58,1.91,1.04,3.81,1.57,5.84h.17c.46-1.95.87-3.89,1.41-5.84l2.36-8.53h6.13l-7.08,20.63c-2.03,5.3-4.23,7.91-9.16,7.91-1.33,0-2.15-.17-2.98-.5Z" style="fill: #fff;"/>
    <path d="M449.81,299.97h5.22l.46,1.99h.17c1.57-1.45,3.65-2.49,5.76-2.49,4.97,0,8.04,4.1,8.04,10.44,0,7.08-4.18,11.14-8.62,11.14-1.78,0-3.4-.75-4.85-2.11l.21,3.19v5.97h-6.38v-28.13ZM462.86,309.99c0-3.6-1.08-5.3-3.36-5.3-1.2,0-2.2.54-3.31,1.74v8.16c1.04.91,2.11,1.2,3.11,1.2,1.99,0,3.56-1.62,3.56-5.8Z" style="fill: #fff;"/>
    <path d="M472.47,310.24c0-6.67,4.81-10.77,9.74-10.77,5.97,0,8.87,4.31,8.87,9.9,0,1.16-.12,2.24-.25,2.82h-12.14c.58,2.78,2.53,3.98,5.14,3.98,1.49,0,2.98-.46,4.43-1.28l2.07,3.85c-2.15,1.53-4.97,2.32-7.42,2.32-5.88,0-10.44-3.94-10.44-10.81ZM485.61,307.88c0-2.03-.91-3.56-3.23-3.56-1.82,0-3.36,1.16-3.77,3.56h7Z" style="fill: #fff;"/>
    <path d="M495.09,303.82c0-2.24,1.62-3.98,3.81-3.98s3.85,1.74,3.85,3.98-1.66,3.98-3.85,3.98-3.81-1.74-3.81-3.98ZM495.09,317.08c0-2.24,1.62-3.98,3.81-3.98s3.85,1.74,3.85,3.98-1.66,3.98-3.85,3.98-3.81-1.74-3.81-3.98Z" style="fill: #fff;"/>
    <path d="M515.27,314.8c0-4.35,3.36-6.71,11.48-7.54-.17-1.7-1.04-2.69-3.15-2.69-1.66,0-3.31.58-5.39,1.74l-2.24-4.14c2.69-1.66,5.63-2.69,8.87-2.69,5.3,0,8.29,2.94,8.29,9.4v11.68h-5.22l-.46-2.07h-.17c-1.7,1.53-3.56,2.57-5.88,2.57-3.77,0-6.13-2.82-6.13-6.26ZM526.74,314.47v-3.27c-4.1.54-5.34,1.66-5.34,3.11,0,1.2.79,1.78,2.2,1.78,1.28,0,2.15-.62,3.15-1.62Z" style="fill: #fff;"/>
    <path d="M538.13,299.97h5.22l.46,1.99h.17c1.57-1.45,3.65-2.49,5.76-2.49,4.97,0,8.04,4.1,8.04,10.44,0,7.08-4.18,11.14-8.62,11.14-1.78,0-3.4-.75-4.85-2.11l.21,3.19v5.97h-6.38v-28.13ZM551.18,309.99c0-3.6-1.08-5.3-3.36-5.3-1.2,0-2.2.54-3.31,1.74v8.16c1.04.91,2.11,1.2,3.11,1.2,1.99,0,3.56-1.62,3.56-5.8Z" style="fill: #fff;"/>
    <path d="M561.96,299.97h5.22l.46,1.99h.17c1.57-1.45,3.65-2.49,5.76-2.49,4.97,0,8.04,4.1,8.04,10.44,0,7.08-4.18,11.14-8.62,11.14-1.78,0-3.4-.75-4.85-2.11l.21,3.19v5.97h-6.38v-28.13ZM575,309.99c0-3.6-1.08-5.3-3.36-5.3-1.2,0-2.2.54-3.31,1.74v8.16c1.04.91,2.11,1.2,3.11,1.2,1.99,0,3.56-1.62,3.56-5.8Z" style="fill: #fff;"/>
    <path d="M585.78,313.89v-22.29h6.38v22.54c0,1.33.66,1.74,1.16,1.74.25,0,.42,0,.75-.08l.75,4.72c-.71.29-1.78.54-3.19.54-4.39,0-5.84-2.86-5.84-7.17Z" style="fill: #fff;"/>
    <path d="M597.38,293.75c0-1.99,1.49-3.27,3.6-3.27s3.6,1.28,3.6,3.27-1.49,3.31-3.6,3.31-3.6-1.28-3.6-3.31ZM597.79,299.97h6.38v20.59h-6.38v-20.59Z" style="fill: #fff;"/>
    <path d="M608.23,310.24c0-6.84,5.1-10.77,10.81-10.77,2.53,0,4.47.87,6.01,2.2l-2.98,3.94c-.95-.7-1.74-.99-2.65-.99-2.86,0-4.64,2.24-4.64,5.63s1.91,5.63,4.43,5.63c1.37,0,2.53-.5,3.56-1.28l2.49,4.02c-1.99,1.82-4.6,2.44-6.79,2.44-5.8,0-10.23-3.98-10.23-10.81Z" style="fill: #fff;"/>
    <path d="M627.49,314.8c0-4.35,3.36-6.71,11.48-7.54-.17-1.7-1.04-2.69-3.15-2.69-1.66,0-3.31.58-5.39,1.74l-2.24-4.14c2.69-1.66,5.63-2.69,8.87-2.69,5.3,0,8.29,2.94,8.29,9.4v11.68h-5.22l-.46-2.07h-.17c-1.7,1.53-3.56,2.57-5.88,2.57-3.77,0-6.13-2.82-6.13-6.26ZM638.97,314.47v-3.27c-4.1.54-5.34,1.66-5.34,3.11,0,1.2.79,1.78,2.2,1.78,1.28,0,2.15-.62,3.15-1.62Z" style="fill: #fff;"/>
    <path d="M650.4,312.93v-7.95h-2.78v-4.81l3.15-.21.75-6.3h5.3v6.3h4.85v5.01h-4.85v7.87c0,2.32,1.08,3.19,2.61,3.19.66,0,1.37-.08,1.91-.29l1,4.47c-1.08.41-2.65.83-4.68.83-5.14,0-7.25-3.27-7.25-8.12Z" style="fill: #fff;"/>
    <path d="M665.23,293.75c0-1.99,1.49-3.27,3.6-3.27s3.6,1.28,3.6,3.27-1.49,3.31-3.6,3.31-3.6-1.28-3.6-3.31ZM665.65,299.97h6.38v20.59h-6.38v-20.59Z" style="fill: #fff;"/>
    <path d="M676.09,310.24c0-6.84,4.85-10.77,10.07-10.77s10.11,3.94,10.11,10.77-4.85,10.81-10.11,10.81-10.07-3.98-10.07-10.81ZM689.67,310.24c0-3.4-1.12-5.63-3.52-5.63s-3.52,2.24-3.52,5.63,1.12,5.63,3.52,5.63,3.52-2.2,3.52-5.63Z" style="fill: #fff;"/>
    <path d="M700.32,299.97h5.22l.46,2.57h.17c1.7-1.66,3.77-3.07,6.59-3.07,4.47,0,6.38,3.19,6.38,8.33v12.76h-6.42v-11.93c0-2.86-.75-3.73-2.4-3.73-1.45,0-2.32.7-3.6,1.86v13.79h-6.38v-20.59Z" style="fill: #fff;"/>
    <path d="M730.11,291.14h4.14l-8,36.04h-4.18l8.04-36.04Z" style="fill: #fff;"/>
    <path d="M733.5,328.01l1.12-4.72c.58.17,1.08.25,1.57.25,1.62,0,2.15-.95,2.15-3.23v-20.34h6.42v20.13c0,4.56-1.74,8.49-7.54,8.49-1.78,0-2.86-.25-3.73-.58ZM737.98,293.75c0-1.99,1.49-3.27,3.6-3.27s3.6,1.28,3.6,3.27-1.49,3.31-3.6,3.31-3.6-1.28-3.6-3.31Z" style="fill: #fff;"/>
    <path d="M748.21,317.95l2.69-3.6c1.91,1.49,3.77,1.99,5.39,1.99,1.74,0,2.44-.62,2.44-1.62,0-1.24-1.74-1.78-3.94-2.61-2.94-1.08-5.43-2.94-5.43-6.13,0-3.89,3.15-6.5,7.95-6.5,3.02,0,5.59,1.12,7.37,2.61l-2.73,3.6c-1.49-1.08-3.02-1.49-4.43-1.49-1.49,0-2.2.58-2.2,1.49,0,1.08,1.16,1.57,3.77,2.4,3.15.99,5.63,2.86,5.63,6.26,0,3.77-2.98,6.71-8.58,6.71-2.73,0-5.88-1.08-7.95-3.11Z" style="fill: #fff;"/>
    <path d="M767.31,310.24c0-6.84,4.85-10.77,10.07-10.77s10.11,3.94,10.11,10.77-4.85,10.81-10.11,10.81-10.07-3.98-10.07-10.81ZM780.9,310.24c0-3.4-1.12-5.63-3.52-5.63s-3.52,2.24-3.52,5.63,1.12,5.63,3.52,5.63,3.52-2.2,3.52-5.63Z" style="fill: #fff;"/>
    <path d="M791.54,299.97h5.22l.46,2.57h.17c1.7-1.66,3.77-3.07,6.59-3.07,4.47,0,6.38,3.19,6.38,8.33v12.76h-6.42v-11.93c0-2.86-.75-3.73-2.4-3.73-1.45,0-2.32.7-3.6,1.86v13.79h-6.38v-20.59Z" style="fill: #fff;"/>
    <path d="M247.28,362.5c0-8.99,6.05-14.17,12.84-14.17,3.52,0,6.34,1.57,8.2,3.52l-3.4,3.89c-1.33-1.24-2.73-1.86-4.64-1.86-3.56,0-6.42,3.15-6.42,8.37s2.53,8.49,6.3,8.49c2.2,0,3.89-.87,5.18-2.24l3.36,3.81c-2.36,2.69-5.34,3.98-8.74,3.98-6.88,0-12.68-4.68-12.68-13.79Z" style="fill: #fff;"/>
    <path d="M271.02,365.48c0-6.84,4.85-10.77,10.07-10.77s10.11,3.94,10.11,10.77-4.85,10.81-10.11,10.81-10.07-3.98-10.07-10.81ZM284.6,365.48c0-3.4-1.12-5.63-3.52-5.63s-3.52,2.24-3.52,5.63,1.12,5.63,3.52,5.63,3.52-2.2,3.52-5.63Z" style="fill: #fff;"/>
    <path d="M295.25,355.2h5.22l.46,2.57h.17c1.7-1.66,3.77-3.07,6.59-3.07,4.47,0,6.38,3.19,6.38,8.33v12.76h-6.42v-11.93c0-2.86-.75-3.73-2.4-3.73-1.45,0-2.32.7-3.6,1.86v13.79h-6.38v-20.59Z" style="fill: #fff;"/>
    <path d="M319.9,368.17v-7.95h-2.78v-4.81l3.15-.21.75-6.3h5.3v6.3h4.85v5.01h-4.85v7.87c0,2.32,1.08,3.19,2.61,3.19.66,0,1.37-.08,1.91-.29l.99,4.47c-1.08.41-2.65.83-4.68.83-5.14,0-7.25-3.27-7.25-8.12Z" style="fill: #fff;"/>
    <path d="M333.2,365.48c0-6.67,4.81-10.77,9.74-10.77,5.97,0,8.87,4.31,8.87,9.9,0,1.16-.12,2.24-.25,2.82h-12.14c.58,2.78,2.53,3.98,5.14,3.98,1.49,0,2.98-.46,4.43-1.28l2.07,3.85c-2.15,1.53-4.97,2.32-7.42,2.32-5.88,0-10.44-3.94-10.44-10.81ZM346.33,363.12c0-2.03-.91-3.56-3.23-3.56-1.82,0-3.36,1.16-3.77,3.56h7Z" style="fill: #fff;"/>
    <path d="M355.9,355.2h5.22l.46,2.57h.17c1.7-1.66,3.77-3.07,6.59-3.07,4.47,0,6.38,3.19,6.38,8.33v12.76h-6.42v-11.93c0-2.86-.75-3.73-2.4-3.73-1.45,0-2.32.7-3.6,1.86v13.79h-6.38v-20.59Z" style="fill: #fff;"/>
    <path d="M380.55,368.17v-7.95h-2.78v-4.81l3.15-.21.75-6.3h5.3v6.3h4.85v5.01h-4.85v7.87c0,2.32,1.08,3.19,2.61,3.19.66,0,1.37-.08,1.91-.29l.99,4.47c-1.08.41-2.65.83-4.68.83-5.14,0-7.25-3.27-7.25-8.12Z" style="fill: #fff;"/>
    <path d="M393.47,363.03h10.23v4.52h-10.23v-4.52Z" style="fill: #fff;"/>
    <path d="M408.59,348.82h6.46v21.58h10.48v5.39h-16.94v-26.97Z" style="fill: #fff;"/>
    <path d="M427.98,365.48c0-6.67,4.81-10.77,9.74-10.77,5.97,0,8.87,4.31,8.87,9.9,0,1.16-.12,2.24-.25,2.82h-12.14c.58,2.78,2.53,3.98,5.14,3.98,1.49,0,2.98-.46,4.43-1.28l2.07,3.85c-2.15,1.53-4.97,2.32-7.42,2.32-5.88,0-10.44-3.94-10.44-10.81ZM441.11,363.12c0-2.03-.91-3.56-3.23-3.56-1.82,0-3.36,1.16-3.77,3.56h7Z" style="fill: #fff;"/>
    <path d="M450.68,355.2h5.22l.46,2.57h.17c1.7-1.66,3.77-3.07,6.59-3.07,4.47,0,6.38,3.19,6.38,8.33v12.76h-6.42v-11.93c0-2.86-.75-3.73-2.4-3.73-1.45,0-2.32.7-3.6,1.86v13.79h-6.38v-20.59Z" style="fill: #fff;"/>
    <path d="M473.26,379.27c0-1.7.99-3.07,2.9-4.06v-.17c-1.08-.75-1.86-1.82-1.86-3.52,0-1.45.95-2.94,2.28-3.89v-.17c-1.45-.99-2.78-2.9-2.78-5.3,0-5.01,4.14-7.46,8.62-7.46,1.16,0,2.28.17,3.23.5h7.58v4.64h-3.23c.33.58.62,1.53.62,2.53,0,4.81-3.65,6.92-8.2,6.92-.7,0-1.53-.12-2.44-.37-.46.41-.66.75-.66,1.41,0,.99.83,1.45,3.02,1.45h3.27c5.1,0,7.95,1.53,7.95,5.26,0,4.35-4.52,7.42-11.68,7.42-4.76,0-8.62-1.49-8.62-5.18ZM487.43,378.16c0-1.24-1.08-1.49-3.02-1.49h-1.99c-1.49,0-2.28-.08-2.9-.25-.66.58-.99,1.16-.99,1.82,0,1.49,1.74,2.24,4.39,2.24s4.52-.99,4.52-2.32ZM485.03,362.16c0-2.11-1.08-3.19-2.61-3.19s-2.61,1.08-2.61,3.19,1.12,3.27,2.61,3.27,2.61-1.12,2.61-3.27Z" style="fill: #fff;"/>
    <path d="M497.62,368.17v-7.95h-2.78v-4.81l3.15-.21.75-6.3h5.3v6.3h4.85v5.01h-4.85v7.87c0,2.32,1.08,3.19,2.61,3.19.66,0,1.37-.08,1.91-.29l.99,4.47c-1.08.41-2.65.83-4.68.83-5.14,0-7.25-3.27-7.25-8.12Z" style="fill: #fff;"/>
    <path d="M512.86,346.84h6.38v6.96l-.29,3.69c1.53-1.37,3.52-2.78,6.34-2.78,4.47,0,6.38,3.19,6.38,8.33v12.76h-6.42v-11.93c0-2.86-.75-3.73-2.4-3.73-1.45,0-2.32.7-3.6,1.86v13.79h-6.38v-28.96Z" style="fill: #fff;"/>
    <path d="M536.6,359.06c0-2.24,1.62-3.98,3.81-3.98s3.85,1.74,3.85,3.98-1.66,3.98-3.85,3.98-3.81-1.74-3.81-3.98ZM536.6,372.31c0-2.24,1.62-3.98,3.81-3.98s3.85,1.74,3.85,3.98-1.66,3.98-3.85,3.98-3.81-1.74-3.81-3.98Z" style="fill: #fff;"/>
    <path d="M555.95,372.56l2.94-4.06c1.62,1.53,3.56,2.61,5.63,2.61,2.53,0,4.14-1.04,4.14-2.94,0-2.2-1.24-3.52-6.88-3.52v-4.52c4.6,0,6.05-1.37,6.05-3.36,0-1.78-1.12-2.73-3.11-2.73-1.82,0-3.19.79-4.81,2.24l-3.23-3.89c2.44-2.11,5.14-3.4,8.33-3.4,5.59,0,9.24,2.61,9.24,7.29,0,2.65-1.53,4.6-4.35,5.8v.17c3.02.87,5.18,2.98,5.18,6.38,0,4.93-4.56,7.66-9.9,7.66-4.27,0-7.29-1.49-9.24-3.73Z" style="fill: #fff;"/>
    <path d="M589.26,369.66h-11.31v-4.47l9.36-15.7h7.91v15.29h2.98v4.89h-2.98v6.13h-5.96v-6.13ZM589.26,364.77v-3.89c0-1.7.12-4.27.21-6.01h-.17c-.66,1.53-1.41,3.02-2.15,4.56l-3.11,5.34h5.22Z" style="fill: #fff;"/>
    <path d="M248.52,404.06h7.75c8.24,0,13.67,4.02,13.67,13.38s-5.43,13.59-13.3,13.59h-8.12v-26.97ZM255.9,425.85c4.35,0,7.46-2.03,7.46-8.41s-3.11-8.2-7.46-8.2h-.91v16.61h.91Z" style="fill: #fff;"/>
    <path d="M273.5,425.27c0-4.35,3.36-6.71,11.48-7.54-.17-1.7-1.04-2.69-3.15-2.69-1.66,0-3.31.58-5.39,1.74l-2.24-4.14c2.69-1.66,5.63-2.69,8.87-2.69,5.3,0,8.29,2.94,8.29,9.4v11.68h-5.22l-.46-2.07h-.17c-1.7,1.53-3.56,2.57-5.88,2.57-3.77,0-6.13-2.82-6.13-6.26ZM284.98,424.94v-3.27c-4.1.54-5.34,1.66-5.34,3.11,0,1.2.79,1.78,2.2,1.78,1.28,0,2.15-.62,3.15-1.62Z" style="fill: #fff;"/>
    <path d="M296.41,423.41v-7.95h-2.78v-4.81l3.15-.21.75-6.3h5.3v6.3h4.85v5.01h-4.85v7.87c0,2.32,1.08,3.19,2.61,3.19.66,0,1.37-.08,1.91-.29l.99,4.47c-1.08.41-2.65.83-4.68.83-5.14,0-7.25-3.27-7.25-8.12Z" style="fill: #fff;"/>
    <path d="M309.71,420.71c0-6.67,4.81-10.77,9.74-10.77,5.97,0,8.87,4.31,8.87,9.9,0,1.16-.12,2.24-.25,2.82h-12.14c.58,2.78,2.53,3.98,5.14,3.98,1.49,0,2.98-.46,4.43-1.28l2.07,3.85c-2.15,1.53-4.97,2.32-7.42,2.32-5.88,0-10.44-3.94-10.44-10.81ZM322.84,418.35c0-2.03-.91-3.56-3.23-3.56-1.82,0-3.36,1.16-3.77,3.56h7Z" style="fill: #fff;"/>
    <path d="M332.33,414.29c0-2.24,1.62-3.98,3.81-3.98s3.85,1.74,3.85,3.98-1.66,3.98-3.85,3.98-3.81-1.74-3.81-3.98ZM332.33,427.55c0-2.24,1.62-3.98,3.81-3.98s3.85,1.74,3.85,3.98-1.66,3.98-3.85,3.98-3.81-1.74-3.81-3.98Z" style="fill: #fff;"/>
    <path d="M351.34,404.06h6.55l1.7,12.35c.37,2.86.7,5.68.99,8.62h.17c.5-2.94,1.04-5.8,1.57-8.62l2.82-12.35h5.55l2.73,12.35c.54,2.73,1.08,5.63,1.57,8.62h.17c.29-2.98.66-5.84.99-8.62l1.82-12.35h6.13l-4.76,26.97h-8.16l-2.44-11.81c-.46-2.11-.75-4.23-.99-6.38h-.17c-.29,2.15-.58,4.27-1.04,6.38l-2.32,11.81h-8.04l-4.85-26.97Z" style="fill: #fff;"/>
    <path d="M386.06,420.71c0-6.67,4.81-10.77,9.74-10.77,5.97,0,8.87,4.31,8.87,9.9,0,1.16-.12,2.24-.25,2.82h-12.14c.58,2.78,2.53,3.98,5.14,3.98,1.49,0,2.98-.46,4.43-1.28l2.07,3.85c-2.15,1.53-4.97,2.32-7.42,2.32-5.88,0-10.44-3.94-10.44-10.81ZM399.19,418.35c0-2.03-.91-3.56-3.23-3.56-1.82,0-3.36,1.16-3.77,3.56h7Z" style="fill: #fff;"/>
    <path d="M407.72,420.71c0-6.71,4.23-10.77,8.49-10.77,2.28,0,3.65.83,4.97,2.11l-.21-3.07v-6.92h6.42v28.96h-5.26l-.46-1.99h-.12c-1.45,1.45-3.48,2.49-5.43,2.49-5.1,0-8.41-4.1-8.41-10.81ZM420.98,424.57v-8.2c-.99-.87-2.2-1.2-3.23-1.2-1.82,0-3.44,1.66-3.44,5.51s1.33,5.59,3.52,5.59c1.24,0,2.2-.41,3.15-1.7Z" style="fill: #fff;"/>
    <path d="M431.87,435.79c3.19-1.04,4.81-3.02,4.76-5.01h-.29c-1.99,0-3.85-1.33-3.85-3.6,0-2.15,1.78-3.6,3.98-3.6,2.82,0,4.39,2.24,4.39,5.97,0,4.64-2.69,8.2-7.66,9.69l-1.33-3.44Z" style="fill: #fff;"/>
    <path d="M452.5,427.09c6.46-5.72,11.27-10.4,11.27-14.04,0-2.49-1.37-3.77-3.56-3.77-1.82,0-3.27,1.24-4.56,2.61l-3.31-3.31c2.57-2.9,5.01-4.35,8.74-4.35,5.22,0,8.82,3.36,8.82,8.41,0,4.72-4.31,8.99-8.74,13.3,1.37-.12,3.19-.29,4.39-.29h5.63v5.39h-18.68v-3.94Z" style="fill: #fff;"/>
    <path d="M474.75,428.3l3.4-3.81c.87.99,2.53,1.86,4.02,1.86,2.86,0,5.01-1.99,5.26-7.87-1.37,1.74-3.6,2.73-5.14,2.73-4.52,0-7.91-2.53-7.91-8.12s4.06-8.87,8.87-8.87c5.1,0,10.07,3.77,10.07,13.09s-5.14,14.21-10.69,14.21c-3.56,0-6.17-1.49-7.87-3.23ZM483.53,416.7c1.33,0,2.78-.7,3.77-2.44-.58-4.06-2.24-5.22-3.89-5.22s-3.15,1.16-3.15,4.06c0,2.69,1.41,3.6,3.27,3.6Z" style="fill: #fff;"/>
    <path d="M511.41,404.06h7.71l8.41,26.97h-6.79l-1.57-6.21h-8l-1.57,6.21h-6.59l8.41-26.97ZM512.41,419.84h5.51l-.58-2.32c-.7-2.65-1.41-5.84-2.11-8.66h-.17c-.66,2.82-1.37,6.01-2.07,8.66l-.58,2.32Z" style="fill: #fff;"/>
    <path d="M529.6,423.2v-12.76h6.42v11.93c0,2.86.75,3.69,2.4,3.69,1.45,0,2.32-.58,3.44-2.11v-13.51h6.42v20.59h-5.22l-.46-2.82h-.17c-1.7,2.03-3.65,3.31-6.42,3.31-4.52,0-6.42-3.19-6.42-8.33Z" style="fill: #fff;"/>
    <path d="M552.26,434.51c0-1.7.99-3.07,2.9-4.06v-.17c-1.08-.75-1.86-1.82-1.86-3.52,0-1.45.95-2.94,2.28-3.89v-.17c-1.45-.99-2.78-2.9-2.78-5.3,0-5.01,4.14-7.46,8.62-7.46,1.16,0,2.28.17,3.23.5h7.58v4.64h-3.23c.33.58.62,1.53.62,2.53,0,4.81-3.65,6.92-8.2,6.92-.7,0-1.53-.12-2.44-.37-.46.41-.66.75-.66,1.41,0,.99.83,1.45,3.02,1.45h3.27c5.1,0,7.95,1.53,7.95,5.26,0,4.35-4.52,7.42-11.68,7.42-4.76,0-8.62-1.49-8.62-5.18ZM566.43,433.39c0-1.24-1.08-1.49-3.02-1.49h-1.99c-1.49,0-2.28-.08-2.9-.25-.66.58-.99,1.16-.99,1.82,0,1.49,1.74,2.24,4.39,2.24s4.52-.99,4.52-2.32ZM564.02,417.4c0-2.11-1.08-3.19-2.61-3.19s-2.61,1.08-2.61,3.19,1.12,3.27,2.61,3.27,2.61-1.12,2.61-3.27Z" style="fill: #fff;"/>
    <path d="M583,427.09c6.46-5.72,11.27-10.4,11.27-14.04,0-2.49-1.37-3.77-3.56-3.77-1.82,0-3.27,1.24-4.56,2.61l-3.31-3.31c2.57-2.9,5.01-4.35,8.74-4.35,5.22,0,8.82,3.36,8.82,8.41,0,4.72-4.31,8.99-8.74,13.3,1.37-.12,3.19-.29,4.39-.29h5.63v5.39h-18.68v-3.94Z" style="fill: #fff;"/>
    <path d="M605,417.77c0-8.99,3.81-13.55,9.53-13.55s9.53,4.6,9.53,13.55-3.81,13.75-9.53,13.75-9.53-4.81-9.53-13.75ZM618,417.77c0-7.13-1.57-8.58-3.48-8.58s-3.48,1.45-3.48,8.58,1.53,8.82,3.48,8.82,3.48-1.74,3.48-8.82Z" style="fill: #fff;"/>
    <path d="M627.08,427.09c6.46-5.72,11.27-10.4,11.27-14.04,0-2.49-1.37-3.77-3.56-3.77-1.82,0-3.27,1.24-4.56,2.61l-3.31-3.31c2.57-2.9,5.01-4.35,8.74-4.35,5.22,0,8.82,3.36,8.82,8.41,0,4.72-4.31,8.99-8.74,13.3,1.37-.12,3.19-.29,4.39-.29h5.63v5.39h-18.68v-3.94Z" style="fill: #fff;"/>
    <path d="M659.72,424.9h-11.31v-4.47l9.36-15.7h7.91v15.29h2.98v4.89h-2.98v6.13h-5.96v-6.13ZM659.72,420.01v-3.89c0-1.7.12-4.27.21-6.01h-.17c-.66,1.53-1.41,3.02-2.15,4.56l-3.11,5.34h5.22Z" style="fill: #fff;"/>
    <path d="M680.72,425.85h5.72v-14.71h-4.93v-3.98c2.86-.54,4.76-1.24,6.63-2.44h4.72v21.13h4.89v5.18h-17.03v-5.18Z" style="fill: #fff;"/>
    <path d="M701.48,427.09c6.46-5.72,11.27-10.4,11.27-14.04,0-2.49-1.37-3.77-3.56-3.77-1.82,0-3.27,1.24-4.56,2.61l-3.31-3.31c2.57-2.9,5.01-4.35,8.74-4.35,5.22,0,8.82,3.36,8.82,8.41,0,4.72-4.31,8.99-8.74,13.3,1.37-.12,3.19-.29,4.39-.29h5.63v5.39h-18.68v-3.94Z" style="fill: #fff;"/>
    <path d="M724.51,414.29c0-2.24,1.62-3.98,3.81-3.98s3.85,1.74,3.85,3.98-1.66,3.98-3.85,3.98-3.81-1.74-3.81-3.98ZM724.51,427.55c0-2.24,1.62-3.98,3.81-3.98s3.85,1.74,3.85,3.98-1.66,3.98-3.85,3.98-3.81-1.74-3.81-3.98Z" style="fill: #fff;"/>
    <path d="M736.19,417.77c0-8.99,3.81-13.55,9.53-13.55s9.53,4.6,9.53,13.55-3.81,13.75-9.53,13.75-9.53-4.81-9.53-13.75ZM749.2,417.77c0-7.13-1.57-8.58-3.48-8.58s-3.48,1.45-3.48,8.58,1.53,8.82,3.48,8.82,3.48-1.74,3.48-8.82Z" style="fill: #fff;"/>
    <path d="M758.23,417.77c0-8.99,3.81-13.55,9.53-13.55s9.53,4.6,9.53,13.55-3.81,13.75-9.53,13.75-9.53-4.81-9.53-13.75ZM771.24,417.77c0-7.13-1.57-8.58-3.48-8.58s-3.48,1.45-3.48,8.58,1.53,8.82,3.48,8.82,3.48-1.74,3.48-8.82Z" style="fill: #fff;"/>
    <path d="M781.31,414.29c0-2.24,1.62-3.98,3.81-3.98s3.85,1.74,3.85,3.98-1.66,3.98-3.85,3.98-3.81-1.74-3.81-3.98ZM781.31,427.55c0-2.24,1.62-3.98,3.81-3.98s3.85,1.74,3.85,3.98-1.66,3.98-3.85,3.98-3.81-1.74-3.81-3.98Z" style="fill: #fff;"/>
    <path d="M792.99,417.77c0-8.99,3.81-13.55,9.53-13.55s9.53,4.6,9.53,13.55-3.81,13.75-9.53,13.75-9.53-4.81-9.53-13.75ZM806,417.77c0-7.13-1.57-8.58-3.48-8.58s-3.48,1.45-3.48,8.58,1.53,8.82,3.48,8.82,3.48-1.74,3.48-8.82Z" style="fill: #fff;"/>
    <path d="M815.03,417.77c0-8.99,3.81-13.55,9.53-13.55s9.53,4.6,9.53,13.55-3.81,13.75-9.53,13.75-9.53-4.81-9.53-13.75ZM828.04,417.77c0-7.13-1.57-8.58-3.48-8.58s-3.48,1.45-3.48,8.58,1.53,8.82,3.48,8.82,3.48-1.74,3.48-8.82Z" style="fill: #fff;"/>
    <path d="M845.73,417.73c0-8.99,6.05-14.17,13.26-14.17,3.94,0,6.75,1.57,8.62,3.52l-3.4,3.89c-1.33-1.2-2.73-1.86-5.01-1.86-3.98,0-6.88,3.15-6.88,8.37s2.44,8.49,7.46,8.49c.95,0,1.99-.25,2.57-.71v-4.35h-4.31v-5.26h10.03v12.59c-1.86,1.82-5.18,3.27-8.99,3.27-7.46,0-13.34-4.68-13.34-13.79Z" style="fill: #fff;"/>
    <path d="M873.48,404.06h7.04l4.27,11.72c.5,1.57.95,3.19,1.45,4.89h.17c.5-1.7.91-3.31,1.45-4.89l4.1-11.72h7.04v26.97h-5.84v-9.36c0-2.65.54-7.25.87-9.9h-.17l-2.24,7.04-3.65,9.94h-3.65l-3.6-9.94-2.15-7.04h-.17c.33,2.65.87,7.25.87,9.9v9.36h-5.8v-26.97Z" style="fill: #fff;"/>
    <path d="M910.48,409.45h-7.33v-5.39h21.09v5.39h-7.33v21.58h-6.42v-21.58Z" style="fill: #fff;"/>
    <path d="M249.85,486.6c0-2.9.41-4.31.41-6.92,0-1.45-.91-2.98-3.56-3.07v-3.73c2.65-.08,3.56-1.62,3.56-3.02,0-2.65-.41-4.06-.41-6.96,0-4.52,1.62-5.97,5.34-5.97h2.69v3.4h-.75c-1.66,0-2.15.54-2.15,2.78s.21,4.18.21,6.67c0,3.19-1.04,4.39-3.15,4.89v.17c2.11.5,3.15,1.7,3.15,4.89,0,2.49-.21,4.47-.21,6.67s.5,2.78,2.15,2.78h.75v3.4h-2.69c-3.73,0-5.34-1.45-5.34-5.97Z" style="fill: #fff;"/>
    <path d="M265.3,518.8l-.21-5.68h6.46l-.21,5.68-1.28,8.45h-3.48l-1.28-8.45ZM275.41,518.8l-.21-5.68h6.46l-.21,5.68-1.28,8.45h-3.48l-1.28-8.45Z" style="fill: #fff;"/>
    <path d="M287.42,520.91h5.22l.46,2.57h.17c1.66-1.66,3.48-3.07,6.21-3.07s4.64,1.2,5.68,3.4c1.78-1.82,3.69-3.4,6.42-3.4,4.47,0,6.46,3.19,6.46,8.33v12.76h-6.38v-11.93c0-2.86-.79-3.73-2.4-3.73-.99,0-2.07.62-3.31,1.86v13.79h-6.42v-11.93c0-2.86-.75-3.73-2.4-3.73-.95,0-2.07.62-3.31,1.86v13.79h-6.38v-20.59Z" style="fill: #fff;"/>
    <path d="M321.93,531.19c0-6.67,4.81-10.77,9.74-10.77,5.97,0,8.87,4.31,8.87,9.9,0,1.16-.12,2.24-.25,2.82h-12.14c.58,2.78,2.53,3.98,5.14,3.98,1.49,0,2.98-.46,4.43-1.28l2.07,3.85c-2.15,1.53-4.97,2.32-7.42,2.32-5.88,0-10.44-3.94-10.44-10.81ZM335.06,528.83c0-2.03-.91-3.56-3.23-3.56-1.82,0-3.36,1.16-3.77,3.56h7Z" style="fill: #fff;"/>
    <path d="M342.85,538.89l2.69-3.6c1.91,1.49,3.77,1.99,5.39,1.99,1.74,0,2.44-.62,2.44-1.62,0-1.24-1.74-1.78-3.94-2.61-2.94-1.08-5.43-2.94-5.43-6.13,0-3.89,3.15-6.5,7.95-6.5,3.02,0,5.59,1.12,7.37,2.61l-2.73,3.6c-1.49-1.08-3.02-1.49-4.43-1.49-1.49,0-2.2.58-2.2,1.49,0,1.08,1.16,1.57,3.77,2.4,3.15.99,5.63,2.86,5.63,6.26,0,3.77-2.98,6.71-8.58,6.71-2.73,0-5.88-1.08-7.95-3.11Z" style="fill: #fff;"/>
    <path d="M361.33,538.89l2.69-3.6c1.91,1.49,3.77,1.99,5.39,1.99,1.74,0,2.44-.62,2.44-1.62,0-1.24-1.74-1.78-3.94-2.61-2.94-1.08-5.43-2.94-5.43-6.13,0-3.89,3.15-6.5,7.95-6.5,3.02,0,5.59,1.12,7.37,2.61l-2.73,3.6c-1.49-1.08-3.02-1.49-4.43-1.49-1.49,0-2.2.58-2.2,1.49,0,1.08,1.16,1.57,3.77,2.4,3.15.99,5.63,2.86,5.63,6.26,0,3.77-2.98,6.71-8.58,6.71-2.73,0-5.88-1.08-7.95-3.11Z" style="fill: #fff;"/>
    <path d="M380.67,535.74c0-4.35,3.36-6.71,11.48-7.54-.17-1.7-1.04-2.69-3.15-2.69-1.66,0-3.31.58-5.39,1.74l-2.24-4.14c2.69-1.66,5.63-2.69,8.87-2.69,5.3,0,8.29,2.94,8.29,9.4v11.68h-5.22l-.46-2.07h-.17c-1.7,1.53-3.56,2.57-5.88,2.57-3.77,0-6.13-2.82-6.13-6.26ZM392.15,535.41v-3.27c-4.1.54-5.34,1.66-5.34,3.11,0,1.2.79,1.78,2.2,1.78,1.28,0,2.15-.62,3.15-1.62Z" style="fill: #fff;"/>
    <path d="M402.3,544.98c0-1.7.99-3.07,2.9-4.06v-.17c-1.08-.75-1.86-1.82-1.86-3.52,0-1.45.95-2.94,2.28-3.89v-.17c-1.45-.99-2.78-2.9-2.78-5.3,0-5.01,4.14-7.46,8.62-7.46,1.16,0,2.28.17,3.23.5h7.58v4.64h-3.23c.33.58.62,1.53.62,2.53,0,4.81-3.65,6.92-8.2,6.92-.7,0-1.53-.12-2.44-.37-.46.41-.66.75-.66,1.41,0,.99.83,1.45,3.02,1.45h3.27c5.1,0,7.95,1.53,7.95,5.26,0,4.35-4.52,7.42-11.68,7.42-4.76,0-8.62-1.49-8.62-5.18ZM416.47,543.86c0-1.24-1.08-1.49-3.02-1.49h-1.99c-1.49,0-2.28-.08-2.9-.25-.66.58-.99,1.16-.99,1.82,0,1.49,1.74,2.24,4.39,2.24s4.52-.99,4.52-2.32ZM414.06,527.87c0-2.11-1.08-3.19-2.61-3.19s-2.61,1.08-2.61,3.19,1.12,3.27,2.61,3.27,2.61-1.12,2.61-3.27Z" style="fill: #fff;"/>
    <path d="M423.88,531.19c0-6.67,4.81-10.77,9.74-10.77,5.97,0,8.87,4.31,8.87,9.9,0,1.16-.12,2.24-.25,2.82h-12.14c.58,2.78,2.53,3.98,5.14,3.98,1.49,0,2.98-.46,4.43-1.28l2.07,3.85c-2.15,1.53-4.97,2.32-7.42,2.32-5.88,0-10.44-3.94-10.44-10.81ZM437.01,528.83c0-2.03-.91-3.56-3.23-3.56-1.82,0-3.36,1.16-3.77,3.56h7Z" style="fill: #fff;"/>
    <path d="M447.29,518.8l-.21-5.68h6.46l-.21,5.68-1.28,8.45h-3.48l-1.28-8.45ZM457.39,518.8l-.21-5.68h6.46l-.21,5.68-1.28,8.45h-3.48l-1.28-8.45Z" style="fill: #fff;"/>
    <path d="M469.33,524.77c0-2.24,1.62-3.98,3.81-3.98s3.85,1.74,3.85,3.98-1.66,3.98-3.85,3.98-3.81-1.74-3.81-3.98ZM469.33,538.02c0-2.24,1.62-3.98,3.81-3.98s3.85,1.74,3.85,3.98-1.66,3.98-3.85,3.98-3.81-1.74-3.81-3.98Z" style="fill: #fff;"/>
    <path d="M491.12,518.8l-.21-5.68h6.46l-.21,5.68-1.28,8.45h-3.48l-1.28-8.45ZM501.22,518.8l-.21-5.68h6.46l-.21,5.68-1.28,8.45h-3.48l-1.28-8.45Z" style="fill: #fff;"/>
    <path d="M513.73,514.53h6.46v21.58h10.48v5.39h-16.94v-26.97Z" style="fill: #fff;"/>
    <path d="M533.12,531.19c0-6.84,4.85-10.77,10.07-10.77s10.11,3.94,10.11,10.77-4.85,10.81-10.11,10.81-10.07-3.98-10.07-10.81ZM546.71,531.19c0-3.4-1.12-5.63-3.52-5.63s-3.52,2.24-3.52,5.63,1.12,5.63,3.52,5.63,3.52-2.2,3.52-5.63Z" style="fill: #fff;"/>
    <path d="M556.11,544.98c0-1.7.99-3.07,2.9-4.06v-.17c-1.08-.75-1.86-1.82-1.86-3.52,0-1.45.95-2.94,2.28-3.89v-.17c-1.45-.99-2.78-2.9-2.78-5.3,0-5.01,4.14-7.46,8.62-7.46,1.16,0,2.28.17,3.23.5h7.58v4.64h-3.23c.33.58.62,1.53.62,2.53,0,4.81-3.65,6.92-8.2,6.92-.7,0-1.53-.12-2.44-.37-.46.41-.66.75-.66,1.41,0,.99.83,1.45,3.02,1.45h3.27c5.1,0,7.95,1.53,7.95,5.26,0,4.35-4.52,7.42-11.68,7.42-4.76,0-8.62-1.49-8.62-5.18ZM570.28,543.86c0-1.24-1.08-1.49-3.02-1.49h-1.99c-1.49,0-2.28-.08-2.9-.25-.66.58-.99,1.16-.99,1.82,0,1.49,1.74,2.24,4.39,2.24s4.52-.99,4.52-2.32ZM567.88,527.87c0-2.11-1.08-3.19-2.61-3.19s-2.61,1.08-2.61,3.19,1.12,3.27,2.61,3.27,2.61-1.12,2.61-3.27Z" style="fill: #fff;"/>
    <path d="M579.23,514.7c0-1.99,1.49-3.27,3.6-3.27s3.6,1.28,3.6,3.27-1.49,3.31-3.6,3.31-3.6-1.28-3.6-3.31ZM579.65,520.91h6.38v20.59h-6.38v-20.59Z" style="fill: #fff;"/>
    <path d="M591.25,520.91h5.22l.46,2.57h.17c1.7-1.66,3.77-3.07,6.59-3.07,4.47,0,6.38,3.19,6.38,8.33v12.76h-6.42v-11.93c0-2.86-.75-3.73-2.4-3.73-1.45,0-2.32.7-3.6,1.86v13.79h-6.38v-20.59Z" style="fill: #fff;"/>
    <path d="M621.57,538.89l2.69-3.6c1.91,1.49,3.77,1.99,5.39,1.99,1.74,0,2.44-.62,2.44-1.62,0-1.24-1.74-1.78-3.94-2.61-2.94-1.08-5.43-2.94-5.43-6.13,0-3.89,3.15-6.5,7.95-6.5,3.02,0,5.59,1.12,7.37,2.61l-2.73,3.6c-1.49-1.08-3.02-1.49-4.43-1.49-1.49,0-2.2.58-2.2,1.49,0,1.08,1.16,1.57,3.77,2.4,3.15.99,5.63,2.86,5.63,6.26,0,3.77-2.98,6.71-8.58,6.71-2.73,0-5.88-1.08-7.95-3.11Z" style="fill: #fff;"/>
    <path d="M641.62,533.67v-12.76h6.42v11.93c0,2.86.75,3.69,2.4,3.69,1.45,0,2.32-.58,3.44-2.11v-13.51h6.42v20.59h-5.22l-.46-2.82h-.17c-1.7,2.03-3.65,3.31-6.42,3.31-4.52,0-6.42-3.19-6.42-8.33Z" style="fill: #fff;"/>
    <path d="M664.36,531.19c0-6.84,5.1-10.77,10.81-10.77,2.53,0,4.47.87,6.01,2.2l-2.98,3.94c-.95-.7-1.74-.99-2.65-.99-2.86,0-4.64,2.24-4.64,5.63s1.91,5.63,4.43,5.63c1.37,0,2.53-.5,3.56-1.28l2.49,4.02c-1.99,1.82-4.6,2.44-6.79,2.44-5.8,0-10.23-3.98-10.23-10.81Z" style="fill: #fff;"/>
    <path d="M682.63,531.19c0-6.84,5.1-10.77,10.81-10.77,2.53,0,4.47.87,6.01,2.2l-2.98,3.94c-.95-.7-1.74-.99-2.65-.99-2.86,0-4.64,2.24-4.64,5.63s1.91,5.63,4.43,5.63c1.37,0,2.53-.5,3.56-1.28l2.49,4.02c-1.99,1.82-4.6,2.44-6.79,2.44-5.8,0-10.23-3.98-10.23-10.81Z" style="fill: #fff;"/>
    <path d="M700.9,531.19c0-6.67,4.81-10.77,9.74-10.77,5.97,0,8.87,4.31,8.87,9.9,0,1.16-.12,2.24-.25,2.82h-12.14c.58,2.78,2.53,3.98,5.14,3.98,1.49,0,2.98-.46,4.43-1.28l2.07,3.85c-2.15,1.53-4.97,2.32-7.42,2.32-5.88,0-10.44-3.94-10.44-10.81ZM714.03,528.83c0-2.03-.91-3.56-3.23-3.56-1.82,0-3.36,1.16-3.77,3.56h7Z" style="fill: #fff;"/>
    <path d="M721.82,538.89l2.69-3.6c1.91,1.49,3.77,1.99,5.39,1.99,1.74,0,2.44-.62,2.44-1.62,0-1.24-1.74-1.78-3.94-2.61-2.94-1.08-5.43-2.94-5.43-6.13,0-3.89,3.15-6.5,7.95-6.5,3.02,0,5.59,1.12,7.37,2.61l-2.73,3.6c-1.49-1.08-3.02-1.49-4.43-1.49-1.49,0-2.2.58-2.2,1.49,0,1.08,1.16,1.57,3.77,2.4,3.15.99,5.63,2.86,5.63,6.26,0,3.77-2.98,6.71-8.58,6.71-2.73,0-5.88-1.08-7.95-3.11Z" style="fill: #fff;"/>
    <path d="M740.3,538.89l2.69-3.6c1.91,1.49,3.77,1.99,5.39,1.99,1.74,0,2.44-.62,2.44-1.62,0-1.24-1.74-1.78-3.94-2.61-2.94-1.08-5.43-2.94-5.43-6.13,0-3.89,3.15-6.5,7.95-6.5,3.02,0,5.59,1.12,7.37,2.61l-2.73,3.6c-1.49-1.08-3.02-1.49-4.43-1.49-1.49,0-2.2.58-2.2,1.49,0,1.08,1.16,1.57,3.77,2.4,3.15.99,5.63,2.86,5.63,6.26,0,3.77-2.98,6.71-8.58,6.71-2.73,0-5.88-1.08-7.95-3.11Z" style="fill: #fff;"/>
    <path d="M761.63,525.93h-2.73v-4.81l2.73-.17v-.87c0-4.35,2.03-8.04,7.79-8.04,1.78,0,3.27.37,4.18.75l-1.2,4.56c-.7-.21-1.37-.29-2.07-.29-1.41,0-2.28.79-2.28,2.82v1.04h3.65v5.01h-3.65v15.58h-6.42v-15.58Z" style="fill: #fff;"/>
    <path d="M774.72,533.67v-12.76h6.42v11.93c0,2.86.75,3.69,2.4,3.69,1.45,0,2.32-.58,3.44-2.11v-13.51h6.42v20.59h-5.22l-.46-2.82h-.17c-1.7,2.03-3.65,3.31-6.42,3.31-4.52,0-6.42-3.19-6.42-8.33Z" style="fill: #fff;"/>
    <path d="M798.63,534.83v-22.29h6.38v22.54c0,1.33.66,1.74,1.16,1.74.25,0,.42,0,.75-.08l.75,4.72c-.71.29-1.78.54-3.19.54-4.39,0-5.84-2.86-5.84-7.17Z" style="fill: #fff;"/>
    <path d="M811.39,538.02c0-2.24,1.62-3.98,3.81-3.98s3.85,1.74,3.85,3.98-1.66,3.98-3.85,3.98-3.81-1.74-3.81-3.98ZM812.21,519.46l-.21-5.72h6.42l-.21,5.72-.91,12.3h-4.18l-.91-12.3Z" style="fill: #fff;"/>
    <path d="M825.72,518.8l-.21-5.68h6.46l-.21,5.68-1.28,8.45h-3.48l-1.28-8.45ZM835.83,518.8l-.21-5.68h6.46l-.21,5.68-1.28,8.45h-3.48l-1.28-8.45Z" style="fill: #fff;"/>
    <path d="M841.54,546.27c3.19-1.04,4.81-3.02,4.76-5.01h-.29c-1.99,0-3.85-1.33-3.85-3.6,0-2.15,1.78-3.6,3.98-3.6,2.82,0,4.39,2.24,4.39,5.97,0,4.64-2.69,8.2-7.66,9.69l-1.33-3.44Z" style="fill: #fff;"/>
    <path d="M265.3,574.04l-.21-5.68h6.46l-.21,5.68-1.28,8.45h-3.48l-1.28-8.45ZM275.41,574.04l-.21-5.68h6.46l-.21,5.68-1.28,8.45h-3.48l-1.28-8.45Z" style="fill: #fff;"/>
    <path d="M284.81,594.13l2.69-3.6c1.91,1.49,3.77,1.99,5.39,1.99,1.74,0,2.44-.62,2.44-1.62,0-1.24-1.74-1.78-3.94-2.61-2.94-1.08-5.43-2.94-5.43-6.13,0-3.89,3.15-6.5,7.95-6.5,3.02,0,5.59,1.12,7.37,2.61l-2.73,3.6c-1.49-1.08-3.02-1.49-4.43-1.49-1.49,0-2.2.58-2.2,1.49,0,1.08,1.16,1.57,3.77,2.4,3.15.99,5.63,2.86,5.63,6.26,0,3.77-2.98,6.71-8.58,6.71-2.73,0-5.88-1.08-7.95-3.11Z" style="fill: #fff;"/>
    <path d="M305.07,589.12v-7.95h-2.78v-4.81l3.15-.21.75-6.3h5.3v6.3h4.85v5.01h-4.85v7.87c0,2.32,1.08,3.19,2.61,3.19.66,0,1.37-.08,1.91-.29l.99,4.47c-1.08.41-2.65.83-4.68.83-5.14,0-7.25-3.27-7.25-8.12Z" style="fill: #fff;"/>
    <path d="M318.57,590.98c0-4.35,3.36-6.71,11.48-7.54-.17-1.7-1.04-2.69-3.15-2.69-1.66,0-3.31.58-5.39,1.74l-2.24-4.14c2.69-1.66,5.63-2.69,8.87-2.69,5.3,0,8.29,2.94,8.29,9.4v11.68h-5.22l-.46-2.07h-.17c-1.7,1.53-3.56,2.57-5.88,2.57-3.77,0-6.13-2.82-6.13-6.26ZM330.05,590.65v-3.27c-4.1.54-5.34,1.66-5.34,3.11,0,1.2.79,1.78,2.2,1.78,1.28,0,2.15-.62,3.15-1.62Z" style="fill: #fff;"/>
    <path d="M341.48,589.12v-7.95h-2.78v-4.81l3.15-.21.75-6.3h5.3v6.3h4.85v5.01h-4.85v7.87c0,2.32,1.08,3.19,2.61,3.19.66,0,1.37-.08,1.91-.29l.99,4.47c-1.08.41-2.65.83-4.68.83-5.14,0-7.25-3.27-7.25-8.12Z" style="fill: #fff;"/>
    <path d="M356.52,588.91v-12.76h6.42v11.93c0,2.86.75,3.69,2.4,3.69,1.45,0,2.32-.58,3.44-2.11v-13.51h6.42v20.59h-5.22l-.46-2.82h-.17c-1.7,2.03-3.65,3.31-6.42,3.31-4.52,0-6.42-3.19-6.42-8.33Z" style="fill: #fff;"/>
    <path d="M378.64,594.13l2.69-3.6c1.91,1.49,3.77,1.99,5.39,1.99,1.74,0,2.44-.62,2.44-1.62,0-1.24-1.74-1.78-3.94-2.61-2.94-1.08-5.43-2.94-5.43-6.13,0-3.89,3.15-6.5,7.95-6.5,3.02,0,5.59,1.12,7.37,2.61l-2.73,3.6c-1.49-1.08-3.02-1.49-4.43-1.49-1.49,0-2.2.58-2.2,1.49,0,1.08,1.16,1.57,3.77,2.4,3.15.99,5.63,2.86,5.63,6.26,0,3.77-2.98,6.71-8.58,6.71-2.73,0-5.88-1.08-7.95-3.11Z" style="fill: #fff;"/>
    <path d="M399.61,574.04l-.21-5.68h6.46l-.21,5.68-1.28,8.45h-3.48l-1.28-8.45ZM409.71,574.04l-.21-5.68h6.46l-.21,5.68-1.28,8.45h-3.48l-1.28-8.45Z" style="fill: #fff;"/>
    <path d="M421.64,580c0-2.24,1.62-3.98,3.81-3.98s3.85,1.74,3.85,3.98-1.66,3.98-3.85,3.98-3.81-1.74-3.81-3.98ZM421.64,593.26c0-2.24,1.62-3.98,3.81-3.98s3.85,1.74,3.85,3.98-1.66,3.98-3.85,3.98-3.81-1.74-3.81-3.98Z" style="fill: #fff;"/>
    <path d="M443.43,574.04l-.21-5.68h6.46l-.21,5.68-1.28,8.45h-3.48l-1.28-8.45ZM453.54,574.04l-.21-5.68h6.46l-.21,5.68-1.28,8.45h-3.48l-1.28-8.45Z" style="fill: #fff;"/>
    <path d="M462.95,594.13l2.69-3.6c1.91,1.49,3.77,1.99,5.39,1.99,1.74,0,2.44-.62,2.44-1.62,0-1.24-1.74-1.78-3.94-2.61-2.94-1.08-5.43-2.94-5.43-6.13,0-3.89,3.15-6.5,7.95-6.5,3.02,0,5.59,1.12,7.37,2.61l-2.73,3.6c-1.49-1.08-3.02-1.49-4.43-1.49-1.49,0-2.2.58-2.2,1.49,0,1.08,1.16,1.57,3.77,2.4,3.15.99,5.63,2.86,5.63,6.26,0,3.77-2.98,6.71-8.58,6.71-2.73,0-5.88-1.08-7.95-3.11Z" style="fill: #fff;"/>
    <path d="M483,588.91v-12.76h6.42v11.93c0,2.86.75,3.69,2.4,3.69,1.45,0,2.32-.58,3.44-2.11v-13.51h6.42v20.59h-5.22l-.46-2.82h-.17c-1.7,2.03-3.65,3.31-6.42,3.31-4.52,0-6.42-3.19-6.42-8.33Z" style="fill: #fff;"/>
    <path d="M505.74,586.42c0-6.84,5.1-10.77,10.81-10.77,2.53,0,4.47.87,6.01,2.2l-2.98,3.94c-.95-.7-1.74-.99-2.65-.99-2.86,0-4.64,2.24-4.64,5.63s1.91,5.63,4.43,5.63c1.37,0,2.53-.5,3.56-1.28l2.49,4.02c-1.99,1.82-4.6,2.44-6.79,2.44-5.8,0-10.23-3.98-10.23-10.81Z" style="fill: #fff;"/>
    <path d="M524.01,586.42c0-6.84,5.1-10.77,10.81-10.77,2.53,0,4.47.87,6.01,2.2l-2.98,3.94c-.95-.7-1.74-.99-2.65-.99-2.86,0-4.64,2.24-4.64,5.63s1.91,5.63,4.43,5.63c1.37,0,2.53-.5,3.56-1.28l2.49,4.02c-1.99,1.82-4.6,2.44-6.79,2.44-5.8,0-10.23-3.98-10.23-10.81Z" style="fill: #fff;"/>
    <path d="M542.28,586.42c0-6.67,4.81-10.77,9.74-10.77,5.97,0,8.87,4.31,8.87,9.9,0,1.16-.12,2.24-.25,2.82h-12.14c.58,2.78,2.53,3.98,5.14,3.98,1.49,0,2.98-.46,4.43-1.28l2.07,3.85c-2.15,1.53-4.97,2.32-7.42,2.32-5.88,0-10.44-3.94-10.44-10.81ZM555.41,584.06c0-2.03-.91-3.56-3.23-3.56-1.82,0-3.36,1.16-3.77,3.56h7Z" style="fill: #fff;"/>
    <path d="M563.2,594.13l2.69-3.6c1.91,1.49,3.77,1.99,5.39,1.99,1.74,0,2.44-.62,2.44-1.62,0-1.24-1.74-1.78-3.94-2.61-2.94-1.08-5.43-2.94-5.43-6.13,0-3.89,3.15-6.5,7.95-6.5,3.02,0,5.59,1.12,7.37,2.61l-2.73,3.6c-1.49-1.08-3.02-1.49-4.43-1.49-1.49,0-2.2.58-2.2,1.49,0,1.08,1.16,1.57,3.77,2.4,3.15.99,5.63,2.86,5.63,6.26,0,3.77-2.98,6.71-8.58,6.71-2.73,0-5.88-1.08-7.95-3.11Z" style="fill: #fff;"/>
    <path d="M581.68,594.13l2.69-3.6c1.91,1.49,3.77,1.99,5.39,1.99,1.74,0,2.44-.62,2.44-1.62,0-1.24-1.74-1.78-3.94-2.61-2.94-1.08-5.43-2.94-5.43-6.13,0-3.89,3.15-6.5,7.95-6.5,3.02,0,5.59,1.12,7.37,2.61l-2.73,3.6c-1.49-1.08-3.02-1.49-4.43-1.49-1.49,0-2.2.58-2.2,1.49,0,1.08,1.16,1.57,3.77,2.4,3.15.99,5.63,2.86,5.63,6.26,0,3.77-2.98,6.71-8.58,6.71-2.73,0-5.88-1.08-7.95-3.11Z" style="fill: #fff;"/>
    <path d="M602.64,574.04l-.21-5.68h6.46l-.21,5.68-1.28,8.45h-3.48l-1.28-8.45ZM612.75,574.04l-.21-5.68h6.46l-.21,5.68-1.28,8.45h-3.48l-1.28-8.45Z" style="fill: #fff;"/>
    <path d="M247.4,654.88h.75c1.66,0,2.15-.54,2.15-2.78s-.21-4.18-.21-6.67c0-3.19,1.04-4.39,3.19-4.89v-.17c-2.15-.5-3.19-1.7-3.19-4.89,0-2.49.21-4.47.21-6.67s-.5-2.78-2.15-2.78h-.75v-3.4h2.69c3.73,0,5.34,1.45,5.34,5.97,0,2.9-.41,4.31-.41,6.96,0,1.41.91,2.94,3.56,3.02v3.73c-2.65.08-3.56,1.62-3.56,3.07,0,2.61.41,4.02.41,6.92,0,4.52-1.62,5.97-5.34,5.97h-2.69v-3.4Z" style="fill: #fff;"/>
  </g>
  <rect x="240.74" y="175.49" width="176.63" height="47.3" style="fill: none; stroke: #a3ea2a; stroke-miterlimit: 10; stroke-width: 3px;"/>
  <rect x="424.93" y="175.49" width="138.96" height="47.3" style="fill: none; stroke: #a3ea2a; stroke-miterlimit: 10; stroke-width: 3px;"/>
  <g id="arrow_styles_for_diagrams_etc" data-name="arrow styles for diagrams etc">
    <g id="arrow_styles_for_diagrams_etc-2" data-name="arrow styles for diagrams etc">
      <g id="arrow_styles_for_diagrams_etc-3" data-name="arrow styles for diagrams etc">
        <g id="arrow_styles_for_diagrams_etc-4" data-name="arrow styles for diagrams etc">
          <path d="M328.32,170.07l-11.15-19.39c-.33-.57.08-1.29.75-1.29h5.75v-36.35c0-1.72,1.39-3.11,3.11-3.11h4.57c1.71,0,3.1,1.39,3.1,3.1v36.36h5.75c.66,0,1.07.72.75,1.29l-11.15,19.39c-.33.57-1.15.57-1.48,0Z" style="fill: #a3ea2a;"/>
        </g>
      </g>
    </g>
  </g>
  <g id="arrow_styles_for_diagrams_etc-5" data-name="arrow styles for diagrams etc">
    <g id="arrow_styles_for_diagrams_etc-6" data-name="arrow styles for diagrams etc">
      <g id="arrow_styles_for_diagrams_etc-7" data-name="arrow styles for diagrams etc">
        <g id="arrow_styles_for_diagrams_etc-8" data-name="arrow styles for diagrams etc">
          <path d="M493.67,170.07l-11.15-19.39c-.33-.57.08-1.29.75-1.29h5.75v-36.35c0-1.72,1.39-3.11,3.11-3.11h4.57c1.71,0,3.1,1.39,3.1,3.1v36.36h5.75c.66,0,1.07.72.75,1.29l-11.15,19.39c-.33.57-1.15.57-1.48,0Z" style="fill: #a3ea2a;"/>
        </g>
      </g>
    </g>
  </g>
  <g>
    <rect x="256.65" y="47.27" width="144.82" height="57.67" style="fill: none;"/>
    <path d="M293.59,52.53h4.93v7.84h6.79v-7.84h4.9v20.57h-4.9v-8.47h-6.79v8.47h-4.93v-20.57Z" style="fill: #a3ea2a;"/>
    <path d="M318.97,56.64h-5.59v-4.11h16.08v4.11h-5.59v16.46h-4.9v-16.46Z" style="fill: #a3ea2a;"/>
    <path d="M336.64,56.64h-5.59v-4.11h16.08v4.11h-5.59v16.46h-4.9v-16.46Z" style="fill: #a3ea2a;"/>
    <path d="M350.3,52.53h7.24c4.52,0,8.22,1.61,8.22,6.67s-3.76,7.08-8.09,7.08h-2.43v6.83h-4.93v-20.57ZM357.38,62.39c2.43,0,3.57-1.14,3.57-3.19s-1.3-2.78-3.7-2.78h-2.02v5.97h2.15Z" style="fill: #a3ea2a;"/>
    <path d="M276.4,80.62h5.18l2.24,9.39c.57,2.24,1.01,4.33,1.61,6.57h.13c.6-2.24,1.04-4.33,1.61-6.57l2.46-9.39h4.99l-6.29,20.57h-5.91l-6.04-20.57Z" style="fill: #a3ea2a;"/>
    <path d="M294.89,93.33c0-5.09,3.67-8.22,7.43-8.22,4.55,0,6.76,3.29,6.76,7.55,0,.88-.09,1.71-.19,2.15h-9.26c.44,2.12,1.93,3.03,3.92,3.03,1.14,0,2.28-.35,3.38-.98l1.58,2.94c-1.64,1.17-3.79,1.77-5.66,1.77-4.49,0-7.96-3-7.96-8.25ZM304.91,91.53c0-1.55-.7-2.72-2.46-2.72-1.39,0-2.56.88-2.88,2.72h5.34Z" style="fill: #a3ea2a;"/>
    <path d="M312.21,85.49h3.98l.35,2.72h.13c1.14-2.12,2.88-3.1,4.46-3.1.92,0,1.45.09,1.9.32l-.92,4.14c-.57-.13-.92-.19-1.61-.19-1.17,0-2.59.76-3.41,2.84v8.97h-4.87v-15.71Z" style="fill: #a3ea2a;"/>
    <path d="M323.37,99.21l2.05-2.75c1.45,1.14,2.88,1.52,4.11,1.52,1.33,0,1.86-.47,1.86-1.23,0-.95-1.33-1.36-3-1.99-2.24-.82-4.14-2.24-4.14-4.68,0-2.97,2.4-4.96,6.07-4.96,2.31,0,4.27.85,5.62,1.99l-2.09,2.75c-1.14-.82-2.31-1.14-3.38-1.14-1.14,0-1.67.44-1.67,1.14,0,.82.88,1.2,2.88,1.83,2.4.76,4.3,2.18,4.3,4.77,0,2.88-2.28,5.12-6.54,5.12-2.09,0-4.49-.82-6.07-2.37Z" style="fill: #a3ea2a;"/>
    <path d="M338.51,80.75c0-1.52,1.14-2.5,2.75-2.5s2.75.98,2.75,2.5-1.14,2.53-2.75,2.53-2.75-.98-2.75-2.53ZM338.82,85.49h4.87v15.71h-4.87v-15.71Z" style="fill: #a3ea2a;"/>
    <path d="M346.79,93.33c0-5.21,3.7-8.22,7.68-8.22s7.71,3,7.71,8.22-3.7,8.25-7.71,8.25-7.68-3.03-7.68-8.25ZM357.16,93.33c0-2.59-.85-4.3-2.69-4.3s-2.69,1.71-2.69,4.3.85,4.3,2.69,4.3,2.69-1.67,2.69-4.3Z" style="fill: #a3ea2a;"/>
    <path d="M365.28,85.49h3.98l.35,1.96h.13c1.3-1.26,2.88-2.34,5.02-2.34,3.41,0,4.87,2.43,4.87,6.35v9.73h-4.9v-9.1c0-2.18-.57-2.84-1.83-2.84-1.11,0-1.77.54-2.75,1.42v10.52h-4.87v-15.71Z" style="fill: #a3ea2a;"/>
  </g>
  <g>
    <rect x="422" y="47.27" width="144.82" height="57.67" style="fill: none;"/>
    <path d="M429.66,52.53h7.55c4.36,0,8.03,1.52,8.03,6.48,0,3-1.42,4.93-3.54,5.94l4.58,8.15h-5.5l-3.79-7.24h-2.4v7.24h-4.93v-20.57ZM436.84,61.98c2.34,0,3.6-1.01,3.6-2.97s-1.26-2.59-3.6-2.59h-2.24v5.56h2.24Z" style="fill: #a3ea2a;"/>
    <path d="M447.62,65.23c0-5.09,3.67-8.22,7.43-8.22,4.55,0,6.76,3.29,6.76,7.55,0,.88-.09,1.71-.19,2.15h-9.26c.44,2.12,1.93,3.03,3.92,3.03,1.14,0,2.28-.35,3.38-.98l1.58,2.94c-1.64,1.17-3.79,1.77-5.66,1.77-4.49,0-7.96-3-7.96-8.25ZM457.63,63.43c0-1.55-.7-2.72-2.46-2.72-1.39,0-2.56.88-2.88,2.72h5.34Z" style="fill: #a3ea2a;"/>
    <path d="M463.58,71.11l2.05-2.75c1.45,1.14,2.88,1.52,4.11,1.52,1.33,0,1.86-.47,1.86-1.23,0-.95-1.33-1.36-3-1.99-2.24-.82-4.14-2.24-4.14-4.68,0-2.97,2.4-4.96,6.07-4.96,2.31,0,4.27.85,5.62,1.99l-2.09,2.75c-1.14-.82-2.31-1.14-3.38-1.14-1.14,0-1.67.44-1.67,1.14,0,.82.88,1.2,2.88,1.83,2.4.76,4.3,2.18,4.3,4.77,0,2.88-2.28,5.12-6.54,5.12-2.09,0-4.49-.82-6.07-2.37Z" style="fill: #a3ea2a;"/>
    <path d="M479.03,57.4h3.98l.35,1.52h.13c1.2-1.11,2.78-1.9,4.39-1.9,3.79,0,6.13,3.13,6.13,7.96,0,5.4-3.19,8.5-6.57,8.5-1.36,0-2.59-.57-3.7-1.61l.16,2.43v4.55h-4.87v-21.46ZM488.99,65.04c0-2.75-.82-4.04-2.56-4.04-.92,0-1.67.41-2.53,1.33v6.23c.79.69,1.61.92,2.37.92,1.52,0,2.72-1.23,2.72-4.42Z" style="fill: #a3ea2a;"/>
    <path d="M496.32,65.23c0-5.21,3.7-8.22,7.68-8.22s7.71,3,7.71,8.22-3.7,8.25-7.71,8.25-7.68-3.03-7.68-8.25ZM506.69,65.23c0-2.59-.85-4.3-2.69-4.3s-2.69,1.71-2.69,4.3.85,4.3,2.69,4.3,2.69-1.67,2.69-4.3Z" style="fill: #a3ea2a;"/>
    <path d="M514.81,57.4h3.98l.35,1.96h.13c1.3-1.26,2.88-2.34,5.02-2.34,3.41,0,4.87,2.43,4.87,6.35v9.73h-4.9v-9.1c0-2.18-.57-2.84-1.83-2.84-1.11,0-1.77.54-2.75,1.42v10.52h-4.87v-15.71Z" style="fill: #a3ea2a;"/>
    <path d="M531.63,71.11l2.05-2.75c1.45,1.14,2.88,1.52,4.11,1.52,1.33,0,1.86-.47,1.86-1.23,0-.95-1.33-1.36-3-1.99-2.24-.82-4.14-2.24-4.14-4.68,0-2.97,2.4-4.96,6.07-4.96,2.31,0,4.27.85,5.62,1.99l-2.09,2.75c-1.14-.82-2.31-1.14-3.38-1.14-1.14,0-1.67.44-1.67,1.14,0,.82.88,1.2,2.88,1.83,2.4.76,4.3,2.18,4.3,4.77,0,2.88-2.28,5.12-6.54,5.12-2.09,0-4.49-.82-6.07-2.37Z" style="fill: #a3ea2a;"/>
    <path d="M546.2,65.23c0-5.09,3.67-8.22,7.43-8.22,4.55,0,6.76,3.29,6.76,7.55,0,.88-.09,1.71-.19,2.15h-9.26c.44,2.12,1.93,3.03,3.92,3.03,1.14,0,2.28-.35,3.38-.98l1.58,2.94c-1.64,1.17-3.79,1.77-5.66,1.77-4.49,0-7.96-3-7.96-8.25ZM556.21,63.43c0-1.55-.7-2.72-2.46-2.72-1.39,0-2.56.88-2.88,2.72h5.34Z" style="fill: #a3ea2a;"/>
    <path d="M460.51,91.05c0-6.86,4.61-10.81,9.8-10.81,2.69,0,4.83,1.2,6.26,2.69l-2.59,2.97c-1.01-.95-2.09-1.42-3.54-1.42-2.72,0-4.9,2.4-4.9,6.38s1.93,6.48,4.8,6.48c1.67,0,2.97-.66,3.95-1.71l2.56,2.91c-1.8,2.05-4.08,3.03-6.67,3.03-5.25,0-9.67-3.57-9.67-10.52Z" style="fill: #a3ea2a;"/>
    <path d="M478.62,93.33c0-5.21,3.7-8.22,7.68-8.22s7.71,3,7.71,8.22-3.7,8.25-7.71,8.25-7.68-3.03-7.68-8.25ZM488.99,93.33c0-2.59-.85-4.3-2.69-4.3s-2.69,1.71-2.69,4.3.85,4.3,2.69,4.3,2.69-1.67,2.69-4.3Z" style="fill: #a3ea2a;"/>
    <path d="M496.32,93.33c0-5.12,3.22-8.22,6.48-8.22,1.74,0,2.78.63,3.79,1.61l-.16-2.34v-5.28h4.9v22.09h-4.01l-.35-1.52h-.1c-1.11,1.11-2.65,1.9-4.14,1.9-3.89,0-6.42-3.13-6.42-8.25ZM506.43,96.27v-6.26c-.76-.66-1.67-.92-2.46-.92-1.39,0-2.62,1.26-2.62,4.2s1.01,4.27,2.69,4.27c.95,0,1.67-.32,2.4-1.3Z" style="fill: #a3ea2a;"/>
    <path d="M514.4,93.33c0-5.09,3.67-8.22,7.43-8.22,4.55,0,6.76,3.29,6.76,7.55,0,.88-.09,1.71-.19,2.15h-9.26c.44,2.12,1.93,3.03,3.92,3.03,1.14,0,2.28-.35,3.38-.98l1.58,2.94c-1.64,1.17-3.79,1.77-5.66,1.77-4.49,0-7.96-3-7.96-8.25ZM524.42,91.53c0-1.55-.7-2.72-2.46-2.72-1.39,0-2.56.88-2.88,2.72h5.34Z" style="fill: #a3ea2a;"/>
  </g>
  <g>
    <g>
      <rect x="55.03" y="336.99" width="144.82" height="57.67" style="fill: none;"/>
      <path d="M91.98,342.26h4.93v7.84h6.79v-7.84h4.9v20.57h-4.9v-8.47h-6.79v8.47h-4.93v-20.57Z" style="fill: #a3ea2a;"/>
      <path d="M117.36,346.36h-5.59v-4.11h16.08v4.11h-5.59v16.46h-4.9v-16.46Z" style="fill: #a3ea2a;"/>
      <path d="M135.03,346.36h-5.59v-4.11h16.08v4.11h-5.59v16.46h-4.9v-16.46Z" style="fill: #a3ea2a;"/>
      <path d="M148.68,342.26h7.24c4.52,0,8.22,1.61,8.22,6.67s-3.76,7.08-8.09,7.08h-2.43v6.83h-4.93v-20.57ZM155.76,352.11c2.43,0,3.57-1.14,3.57-3.19s-1.3-2.78-3.7-2.78h-2.02v5.97h2.15Z" style="fill: #a3ea2a;"/>
      <path d="M72.1,370.35h4.93v7.84h6.79v-7.84h4.9v20.57h-4.9v-8.47h-6.79v8.47h-4.93v-20.57Z" style="fill: #a3ea2a;"/>
      <path d="M92.2,383.05c0-5.09,3.67-8.22,7.43-8.22,4.55,0,6.76,3.29,6.76,7.55,0,.88-.09,1.71-.19,2.15h-9.26c.44,2.12,1.93,3.03,3.92,3.03,1.14,0,2.28-.35,3.38-.98l1.58,2.94c-1.64,1.17-3.79,1.77-5.66,1.77-4.49,0-7.96-3-7.96-8.25ZM102.22,381.25c0-1.55-.7-2.72-2.46-2.72-1.39,0-2.56.88-2.88,2.72h5.34Z" style="fill: #a3ea2a;"/>
      <path d="M108.48,386.53c0-3.32,2.56-5.12,8.75-5.75-.13-1.3-.79-2.05-2.4-2.05-1.26,0-2.53.44-4.11,1.33l-1.71-3.16c2.05-1.26,4.3-2.05,6.76-2.05,4.04,0,6.32,2.24,6.32,7.17v8.91h-3.98l-.35-1.58h-.13c-1.3,1.17-2.72,1.96-4.49,1.96-2.88,0-4.68-2.15-4.68-4.77ZM117.23,386.28v-2.5c-3.13.41-4.08,1.26-4.08,2.37,0,.92.6,1.36,1.67,1.36.98,0,1.64-.47,2.4-1.23Z" style="fill: #a3ea2a;"/>
      <path d="M125.14,383.05c0-5.12,3.22-8.22,6.48-8.22,1.74,0,2.78.63,3.79,1.61l-.16-2.34v-5.28h4.9v22.09h-4.01l-.35-1.52h-.1c-1.11,1.11-2.65,1.9-4.14,1.9-3.89,0-6.42-3.13-6.42-8.25ZM135.25,385.99v-6.26c-.76-.66-1.67-.92-2.46-.92-1.39,0-2.62,1.26-2.62,4.2s1.01,4.27,2.69,4.27c.95,0,1.67-.32,2.4-1.3Z" style="fill: #a3ea2a;"/>
      <path d="M143.22,383.05c0-5.09,3.67-8.22,7.43-8.22,4.55,0,6.76,3.29,6.76,7.55,0,.88-.09,1.71-.19,2.15h-9.26c.44,2.12,1.93,3.03,3.92,3.03,1.14,0,2.28-.35,3.38-.98l1.58,2.94c-1.64,1.17-3.79,1.77-5.66,1.77-4.49,0-7.96-3-7.96-8.25ZM153.23,381.25c0-1.55-.7-2.72-2.46-2.72-1.39,0-2.56.88-2.88,2.72h5.34Z" style="fill: #a3ea2a;"/>
      <path d="M160.54,375.22h3.98l.35,2.72h.13c1.14-2.12,2.88-3.1,4.46-3.1.92,0,1.45.09,1.9.32l-.92,4.14c-.57-.13-.92-.19-1.61-.19-1.17,0-2.59.76-3.41,2.84v8.97h-4.87v-15.71Z" style="fill: #a3ea2a;"/>
      <path d="M171.69,388.93l2.05-2.75c1.45,1.14,2.88,1.52,4.11,1.52,1.33,0,1.86-.47,1.86-1.23,0-.95-1.33-1.36-3-1.99-2.24-.82-4.14-2.24-4.14-4.68,0-2.97,2.4-4.96,6.07-4.96,2.31,0,4.27.85,5.62,1.99l-2.09,2.75c-1.14-.82-2.31-1.14-3.38-1.14-1.14,0-1.67.44-1.67,1.14,0,.82.88,1.2,2.88,1.83,2.4.76,4.3,2.18,4.3,4.77,0,2.88-2.28,5.12-6.54,5.12-2.09,0-4.49-.82-6.07-2.37Z" style="fill: #a3ea2a;"/>
    </g>
    <g>
      <rect x="962.15" y="336.99" width="144.82" height="57.67" style="fill: none;"/>
      <path d="M999.09,342.26h4.93v7.84h6.79v-7.84h4.9v20.57h-4.9v-8.47h-6.79v8.47h-4.93v-20.57Z" style="fill: #a3ea2a;"/>
      <path d="M1024.47,346.36h-5.59v-4.11h16.08v4.11h-5.59v16.46h-4.9v-16.46Z" style="fill: #a3ea2a;"/>
      <path d="M1042.14,346.36h-5.59v-4.11h16.08v4.11h-5.59v16.46h-4.9v-16.46Z" style="fill: #a3ea2a;"/>
      <path d="M1055.8,342.26h7.24c4.52,0,8.22,1.61,8.22,6.67s-3.76,7.08-8.09,7.08h-2.43v6.83h-4.93v-20.57ZM1062.87,352.11c2.43,0,3.57-1.14,3.57-3.19s-1.3-2.78-3.7-2.78h-2.02v5.97h2.15Z" style="fill: #a3ea2a;"/>
      <path d="M988.76,370.35h5.18l2.24,9.39c.57,2.24,1.01,4.33,1.61,6.57h.13c.6-2.24,1.04-4.33,1.61-6.57l2.46-9.39h4.99l-6.29,20.57h-5.91l-6.04-20.57Z" style="fill: #a3ea2a;"/>
      <path d="M1006.87,386.53c0-3.32,2.56-5.12,8.75-5.75-.13-1.3-.79-2.05-2.4-2.05-1.26,0-2.53.44-4.11,1.33l-1.71-3.16c2.05-1.26,4.3-2.05,6.76-2.05,4.04,0,6.32,2.24,6.32,7.17v8.91h-3.98l-.35-1.58h-.13c-1.3,1.17-2.72,1.96-4.49,1.96-2.88,0-4.68-2.15-4.68-4.77ZM1015.62,386.28v-2.5c-3.13.41-4.08,1.26-4.08,2.37,0,.92.6,1.36,1.67,1.36.98,0,1.64-.47,2.4-1.23Z" style="fill: #a3ea2a;"/>
      <path d="M1024.32,385.83v-17h4.87v17.19c0,1.01.51,1.33.88,1.33.19,0,.32,0,.57-.06l.57,3.6c-.54.22-1.36.41-2.43.41-3.35,0-4.46-2.18-4.46-5.47Z" style="fill: #a3ea2a;"/>
      <path d="M1033.33,384.95v-9.73h4.9v9.1c0,2.18.57,2.81,1.83,2.81,1.11,0,1.77-.44,2.62-1.61v-10.3h4.9v15.71h-3.98l-.35-2.15h-.13c-1.29,1.55-2.78,2.53-4.9,2.53-3.45,0-4.9-2.43-4.9-6.35Z" style="fill: #a3ea2a;"/>
      <path d="M1050.68,383.05c0-5.09,3.67-8.22,7.43-8.22,4.55,0,6.76,3.29,6.76,7.55,0,.88-.09,1.71-.19,2.15h-9.26c.44,2.12,1.93,3.03,3.92,3.03,1.14,0,2.28-.35,3.38-.98l1.58,2.94c-1.64,1.17-3.79,1.77-5.66,1.77-4.49,0-7.96-3-7.96-8.25ZM1060.7,381.25c0-1.55-.7-2.72-2.47-2.72-1.39,0-2.56.88-2.88,2.72h5.34Z" style="fill: #a3ea2a;"/>
      <path d="M1066.64,388.93l2.05-2.75c1.45,1.14,2.88,1.52,4.11,1.52,1.33,0,1.86-.47,1.86-1.23,0-.95-1.33-1.36-3-1.99-2.24-.82-4.14-2.24-4.14-4.68,0-2.97,2.4-4.96,6.07-4.96,2.31,0,4.27.85,5.62,1.99l-2.08,2.75c-1.14-.82-2.31-1.14-3.38-1.14-1.14,0-1.67.44-1.67,1.14,0,.82.88,1.2,2.88,1.83,2.4.76,4.3,2.18,4.3,4.77,0,2.88-2.28,5.12-6.54,5.12-2.09,0-4.49-.82-6.07-2.37Z" style="fill: #a3ea2a;"/>
    </g>
  </g>
  <path d="M212.15,427.2c0-9.38,1.16-42.03,1.16-50.64,0-5.01-2.31-9.89-11.05-10.02v-6.68c8.74-.13,11.05-5.01,11.05-9.89,0-8.74-1.16-41.39-1.16-50.77,0-13.23,4.88-17.09,15.03-17.09h5.78v6.04h-3.34c-6.94,0-8.73,3.47-8.73,11.69s.64,40.36.64,49.1-2.06,12.46-7.71,14v.51c5.65,1.54,7.71,5.78,7.71,14,0,8.74-.64,41.26-.64,49.1,0,8.22,1.8,11.69,8.73,11.69h3.34v6.04h-5.78c-10.15,0-15.03-3.85-15.03-17.09Z" style="fill: #a3ea2a;"/>
  <path d="M953.65,299.2c0,9.38-1.16,42.03-1.16,50.64,0,5.01,2.31,9.89,11.05,10.02v6.68c-8.74.13-11.05,5.01-11.05,9.89,0,8.74,1.16,41.39,1.16,50.77,0,13.23-4.88,17.09-15.03,17.09h-5.78v-6.04h3.34c6.94,0,8.73-3.47,8.73-11.69s-.64-40.36-.64-49.1,2.06-12.46,7.71-14v-.51c-5.65-1.54-7.71-5.78-7.71-14,0-8.74.64-41.26.64-49.1,0-8.22-1.8-11.69-8.73-11.69h-3.34v-6.04h5.78c10.15,0,15.03,3.85,15.03,17.09Z" style="fill: #a3ea2a;"/>
</svg>